<?xml version="1.0" standalone="no"?>
<!DOCTYPE svg PUBLIC "-//W3C//DTD SVG 1.1//EN" "http://www.w3.org/Graphics/SVG/1.1/DTD/svg11.dtd" >
<svg xmlns="http://www.w3.org/2000/svg">
<metadata></metadata>
<defs>
<font id="FolksBold" horiz-adv-x="587" >
<font-face units-per-em="2048" ascent="1638" descent="-410" />
<missing-glyph horiz-adv-x="500" />
<glyph horiz-adv-x="0" />
<glyph horiz-adv-x="2048" />
<glyph horiz-adv-x="835" d="M10 1389q0 -49 43 -90.5t105 -66.5q119 -50 239 -50q121 0 214.5 37.5t138.5 78t45 92.5t-27 89t-76 37q-21 0 -54 -23q-107 -76 -226 -76q-97 0 -193 51q-37 19 -63.5 34.5t-44.5 15.5q-45 0 -73 -40t-28 -89z" />
<glyph />
<glyph horiz-adv-x="479" d="M14 1378q0 -83 68 -140q62 -52 149 -52q85 0 149 53q66 55 66 139q0 128 -137 178q-39 15 -80 15q-86 0 -148 -53q-67 -56 -67 -140zM164 1377.5q0 29.5 20.5 48t46.5 18.5q27 0 45.5 -20.5t18.5 -46.5t-18.5 -45t-45.5 -19t-47 17.5t-20 47z" />
<glyph unicode="&#xa;" horiz-adv-x="919" d="M55 432q37 -47 76 -80l125 119q82 -63 187 -63t192 63l119 -121q54 49 77 80l-118 117q63 86 63 193.5t-61 193.5l119 110q-36 52 -80 84h2l-121 -122q-84 61 -189.5 61t-191.5 -63l-123 122q-34 -31 -72 -82l117 -114q-59 -84 -59 -188.5t59 -192.5zM227 737 q0 88 65 153q64 64 155 64t154 -62.5t63 -154.5t-62.5 -154.5t-155.5 -62.5q-88 0 -154 64q-65 64 -65 153z" />
<glyph />
<glyph horiz-adv-x="817" d="M10 1425q0 -87 70 -112l254 -103q16 -4 31.5 -10t31.5 -6t31.5 6t32.5 12l246 99q71 26 71 113q0 42 -33.5 76t-68.5 34t-71 -12.5t-76 -28.5t-76.5 -33.5t-57.5 -25.5q-20 8 -57 25.5t-78 33.5q-110 43 -147 43t-70 -35t-33 -76z" />
<glyph unicode="&#xd;" horiz-adv-x="471" d="M70 0h315v958q0 64 -47 110q-47 48 -111 48t-110.5 -45t-46.5 -113v-958z" />
<glyph horiz-adv-x="843" d="M-14 58.5q0 -7.5 22.5 -26t51.5 -38.5q75 -49 88.5 -49t31 23.5t21.5 33.5l616 1354q12 24 12 62t-31.5 73t-70.5 35q-80 0 -106 -62l-623 -1374q-12 -24 -12 -31.5z" />
<glyph horiz-adv-x="946" d="M39 375l174 -174l258 250l188 -191q33 -37 88.5 -37t91 36t35.5 75t-12 61q-10 41 -170 189q-33 30 -45 43l193 192q37 37 37 89t-36 89t-74 37t-62 -14q-36 -9 -190 -168q-32 -33 -44 -45l-190 192q-38 37 -91 37t-88.5 -36.5t-35.5 -89t36 -89.5l193 -192l-227 -221z " />
<glyph />
<glyph />
<glyph />
<glyph />
<glyph />
<glyph unicode=" " />
<glyph unicode="!" horiz-adv-x="497" d="M61 143q0 -74 53.5 -125t127.5 -51t126 52t52 127t-53.5 126.5t-128 51.5t-126 -53.5t-51.5 -127.5zM84 516q0 -45 54 -80q53 -35 90 -35t64 9.5t51 25.5q54 34 54 78v954h-313v-952z" />
<glyph unicode="&#x22;" horiz-adv-x="708" d="M57 985h193l63 490h-213zM371 985h192l64 490h-213z" />
<glyph unicode="#" horiz-adv-x="1196" d="M33 489q0 -27 14 -42t37 -15h203q-4 -20 -17.5 -81.5t-27.5 -128.5q-35 -178 -35 -199t14.5 -34.5t38 -13.5t41.5 18.5t23 41.5l86 399h206q-88 -396 -88 -413.5t14.5 -31.5t38 -14t44 15.5t26.5 42.5l86 399h207q31 0 53.5 21.5t22.5 47t-15.5 41t-37.5 15.5h-205 l78 363h202q29 0 54.5 19t25.5 46t-15 43t-38 16l-205 -4l92 416h-125l-88 -416h-204l90 416h-125l-88 -416l-199 4q-29 0 -53.5 -19t-24.5 -46t15.5 -43t38.5 -16h196l-76 -365h-204q-29 0 -52.5 -19.5t-23.5 -46.5zM434 555l78 365h205l-76 -365h-207z" />
<glyph unicode="$" horiz-adv-x="1071" d="M-16 135q82 -68 228 -111q130 -40 257 -40v-158h76v160q197 8 349 150q155 146 155 343q0 254 -299 375q-119 48 -157 57t-48 13l2 280q33 -6 68.5 -19.5t70.5 -26.5q97 -36 140.5 -36t82.5 41t39 93.5t-41 89t-97 62.5t-116 43q-119 34 -137 34q0 9 -5 51.5t-6 50.5 t-1 23q0 67 -39 67q-29 0 -33 -32q-8 -12 -5 -83t3 -75q-182 -8 -325 -133q-152 -131 -152 -310q0 -261 317 -368q76 -26 158 -47v-350l-12 -3q-119 0 -280 82q-44 23 -83 43zM322 1087q2 27 19 61t45 53.5t43 18.5l46 -1q0 -2 -2 -15q-7 -47 -2 -47v-213q-149 52 -149 143z M545 279v329q83 -31 108 -49q56 -40 56 -104t-50.5 -114t-113.5 -62z" />
<glyph unicode="%" horiz-adv-x="1345" d="M8 1143q0 -137 79 -245q85 -116 222 -116q140 0 225 119q78 111 78 250q0 144 -78 245q-87 113 -221 113q-138 0 -225 -117q-80 -108 -80 -249zM203 1129.5q0 40.5 6 66t19 46.5q32 50 83 50q74 0 99 -94q6 -24 6 -49q0 -95 -58 -139q-20 -15 -49 -15q-50 0 -81 51 q-25 43 -25 83.5zM231 78l185 -113l12 23l16 32l600 1317q4 12 8.5 25t4.5 27q0 47 -31 79.5t-70 32.5q-79 0 -104 -59l-608 -1333q-2 -4 -13 -31zM690 326q0 -144 78 -246q88 -115 223 -115q139 0 225 118q76 106 76 249q0 141 -76 242q-84 110 -221 110t-225 -114 q-80 -103 -80 -244zM885 326q0 91 57 132q20 15 51 15q57 0 83 -45t26 -83t-5 -65.5t-19 -49.5q-30 -52 -87 -52q-78 0 -100 96q-6 27 -6 52z" />
<glyph unicode="&#x26;" horiz-adv-x="1456" d="M23 422.5q0 -93.5 45 -181t120 -147.5q156 -125 372 -125t427 176q8 -8 41 -39.5t70 -67.5q47 -45 114 -106q35 -27 83 -14.5t69.5 45.5t17.5 61.5t-18 53.5q-26 48 -61 80l-168 186l125 148q30 38 59 71t44 51l15 19l-153 162l6 -13q-29 0 -117 -106q-18 -23 -23 -31 t-17.5 -21.5t-27.5 -26.5q-16 -15 -45 -48l-264 256l27 13q64 31 117 77.5t73 85.5q49 90 54.5 170t-33.5 171t-137.5 137t-193.5 46t-173 -20.5t-141 -63.5q-142 -98 -142 -262q0 -78 38 -144.5t87 -123.5q-201 -115 -267 -309q-23 -66 -23 -159.5zM346 455q0 80 47 139 t111 90l287 -326q-41 -45 -100.5 -77.5t-113 -32.5t-93.5 17.5t-70 46.5q-68 63 -68 143zM526 1164q0 44 38 70t82 26t81 -30t37 -66t-12.5 -59.5t-32 -43t-42 -34.5t-40.5 -28q-14 14 -33.5 33t-35.5 38q-42 50 -42 94z" />
<glyph unicode="'" horiz-adv-x="385" d="M57 985h193l63 490h-213z" />
<glyph unicode="(" horiz-adv-x="462" d="M18 745l2 3q0 -150 20.5 -280t36 -219t39.5 -171q59 -194 146 -223q8 -2 14.5 -4.5t23 -2.5t39.5 9.5t41 26.5q44 42 44 82q0 51 -37 176q-98 331 -98 606q0 192 43 391q72 337 96 401l-33 8q-35 8 -78 19.5t-79 19.5l-35 8q-81 -215 -108 -323.5t-41 -181.5 q-36 -180 -36 -345z" />
<glyph unicode=")" horiz-adv-x="448" d="M7 1503.5q3 -28.5 10.5 -50t24 -73t38.5 -143.5t38 -187q36 -203 36 -333q0 -283 -64 -506q-21 -77 -33 -128q-28 -123 -39 -155q0 -20 168 -70l31 -10l23 50q121 273 143 415q41 264 41 376q0 199 -33 358q-41 209 -67 289q-58 182 -138 251q-4 4 -26.5 11.5t-38 8.5 t-42 -6t-51 -38t-21.5 -59.5z" />
<glyph unicode="*" horiz-adv-x="804" d="M31 947q0 -7 19.5 -15t43.5 -16q58 -17 78 -17t80.5 54.5t69.5 60.5q-15 -31 -26 -109t-11 -88t11 -22.5t26 -20.5q35 -18 65 -18q28 0 55 13q50 24 50 50q0 8 -5.5 37t-11.5 62q-12 63 -20 96q36 -36 87.5 -75.5t59.5 -39.5t32 7q40 12 92 34l19 8q-22 33 -37.5 52.5 t-28.5 37t-20 19.5l-145 69l154 66q14 5 43.5 52.5t31.5 51.5q-112 56 -139 56q-4 0 -29 -15l-126 -100q10 41 27.5 88t17.5 89t-35 65.5t-71 23.5t-70.5 -23.5t-34.5 -65.5t16 -89t27 -88l-127 100q-23 15 -30 15t-29.5 -6.5t-47.5 -14.5q-61 -20 -61 -35q0 -17 36.5 -60.5 t41.5 -45.5l153 -66l-147 -67q-20 -7 -52 -55t-32 -55z" />
<glyph unicode="+" horiz-adv-x="1024" d="M-6 586h354v-275q0 -49 37 -87t89 -38t89 35t37 90v273h66q229 0 260 22q67 48 67 103q0 50 -61 98q-29 22 -123 24.5t-142 2.5h-67v272q0 51 -37 89t-89 38t-89 -37t-37 -90v-268h-354v-252z" />
<glyph unicode="," horiz-adv-x="499" d="M0 -185q0 -50 42 -95.5t94 -45.5t91 25t58 63l198 426l-280 131l-191 -430q-12 -24 -12 -74z" />
<glyph unicode="-" horiz-adv-x="829" d="M26 590q15 -57 43.5 -77.5t47.5 -20.5h596l-2 264h-523q-45 0 -83 -20q-103 -55 -79 -146z" />
<glyph unicode="." horiz-adv-x="466" d="M-12 145q0 -113 112 -163q33 -15 70 -15q70 0 124 53q54 51 54 125t-53 126.5t-127 52.5t-127 -52.5t-53 -126.5z" />
<glyph unicode="/" horiz-adv-x="886" d="M8 63q0 -34 11.5 -58.5t32.5 -36.5q32 -19 118 -19q29 0 297 609q41 93 68.5 158.5t29.5 71t4 7.5l21 52q61 146 108 264t78 194.5t51.5 128t20.5 55.5t-36 21q-84 41 -158 68l-36 13q0 -2 -6 -13q-19 -35 -24 -50l-557 -1385q-23 -46 -23 -80z" />
<glyph unicode="0" horiz-adv-x="1204" d="M14 737h2q0 -302 146 -520q96 -143 260 -207q74 -28 161 -28q158 0 300 104q201 153 251 478q15 93 15 180t-15.5 179.5t-47.5 179.5q-105 280 -344 365q-74 27 -160 27q-160 0 -297 -102q-201 -149 -255 -475q-16 -93 -16 -181zM328 737q0 167 39 269t88 155t128 53 t128 -53t77.5 -128t39 -156t10.5 -139t-10.5 -141t-38 -159t-77.5 -129t-130 -53t-130.5 53t-77.5 128q-46 124 -46 300z" />
<glyph unicode="1" horiz-adv-x="800" d="M72 1333q0 -59 43 -101t102 -42h158v-1190h325v1317q0 68 -41 113t-112 45h-332q-59 0 -101 -41t-42 -101z" />
<glyph unicode="2" horiz-adv-x="1187" d="M59 1051q0 -68 39 -115t111 -47q39 0 59.5 17t26.5 28.5t22.5 38t39 72t51.5 81.5q68 84 170 84q59 0 105 -37.5t46 -87t-25.5 -101.5t-63.5 -108q-55 -82 -112 -149t-76.5 -92t-45 -57.5t-53 -66.5t-49.5 -63q-53 -66 -72 -85q-21 -21 -123 -132q-39 -49 -39 -107.5 t52 -91t114 -32.5h849v287h-520q386 432 469 659q25 66 25 148.5t-41 160.5t-108 131q-139 107 -344 107t-361 -141q-146 -136 -146 -301z" />
<glyph unicode="3" horiz-adv-x="1202" d="M66 344q0 -47 26.5 -105t78.5 -107.5t117 -83.5q128 -68 249.5 -68t218 34.5t172.5 97t122 151t46 201t-63.5 201.5t-170.5 140q72 53 111 135t39 170q0 171 -132 280q-123 103 -286.5 103t-273 -64.5t-201.5 -164.5q4 -4 4 -7l37 -47q12 -12 46 -61q67 -96 70 -96l3 -2 q26 42 100 84q128 71 185.5 71t97.5 -40t40 -97q0 -22 -22 -59q-35 -45 -86 -67.5t-97 -42t-75 -46.5t-16 -78q-4 -4 -1 -13t7 -13q6 -35 24.5 -51.5t52 -38t84 -37t93.5 -35t71.5 -50t28.5 -101t-58.5 -120t-136.5 -49.5t-124 35t-80.5 78t-68.5 78t-90 35t-99 -45.5 t-43 -104.5z" />
<glyph unicode="4" horiz-adv-x="1245" d="M12 476.5q0 -44.5 16.5 -72t41.5 -44.5q48 -30 127 -30h477v-332h319v332q85 0 123 22q74 45 74 117q0 73 -62 111q-51 30 -131 30v613q0 270 -231 270q-72 0 -120 -34t-87 -93l-506 -786q-41 -59 -41 -103.5zM344 612l330 557l-2 -557h-328z" />
<glyph unicode="5" horiz-adv-x="1163" d="M49 254q0 -53 24.5 -90t62.5 -66q112 -84 288 -112q61 -9 115 -9q174 0 303 85t192 243q39 92 39 194.5t-30.5 182.5t-86.5 140q-119 128 -303 128q-92 0 -164 -26l46 262h466l52 289h-631q-138 0 -158 -132l-86 -536q-4 -20 -4 -57t38 -75t77 -38t67.5 10t57.5 21 q81 32 127 32q90 0 145 -55t55 -147q0 -91 -58 -157q-62 -71 -151 -71q-73 0 -187 58q-42 22 -79 40.5t-81.5 18.5t-90 -40t-45.5 -93z" />
<glyph unicode="6" horiz-adv-x="1175" d="M53 486.5q0 -99.5 38 -195.5t107 -166q147 -148 375 -148q221 0 367 150q143 147 143 371q0 175 -98 302q-101 130 -276 146q-83 7 -170 -18q116 219 321 461q-4 2 -43 20t-84 42t-83 43t-40 24q-51 -66 -102 -129.5t-91 -113.5q-285 -356 -345 -607q-19 -82 -19 -181.5z M377 492q0 88 48 148q52 65 138 65q88 0 141 -68q52 -65 52 -154q0 -85 -52 -148q-53 -65 -141 -65q-84 0 -138 70q-48 62 -48 152z" />
<glyph unicode="7" horiz-adv-x="1189" d="M47 1188h668l-512 -973q-21 -42 -21 -76q0 -66 47 -109.5t103 -43.5q114 0 162 90l589 1192q17 28 17 63q0 66 -48 104t-110 38l-895 2v-287z" />
<glyph unicode="8" horiz-adv-x="1220" d="M61 432q0 -84 42 -173t115 -151q150 -126 370 -126t370 126q158 135 158 353q0 117 -58 214q-61 103 -171 138q70 49 111.5 127t41.5 155q0 140 -84 246q-63 82 -160.5 119t-204 37t-206.5 -37t-166 -121q-84 -106 -84 -235q0 -174 154 -291q-164 -54 -213 -241 q-15 -56 -15 -140zM387 489q0 86 55.5 147.5t143.5 61.5t146.5 -60t58.5 -146q0 -89 -55 -154q-59 -68 -148 -68q-87 0 -146 68q-55 65 -55 151zM434 1083.5q0 64.5 44 110t108.5 45.5t110.5 -44t46 -108.5t-44 -112.5t-109 -48q-66 0 -111 46.5t-45 111z" />
<glyph unicode="9" horiz-adv-x="1187" d="M59 963q0 -176 99 -297q96 -118 266 -140q94 -10 182 15q-89 -131 -161 -218t-87.5 -103.5t-32 -35t-29.5 -37t-20 -26.5l140 -111q2 0 13 -11l39.5 -39.5t18.5 -14.5q18 20 74.5 77.5t122.5 127.5q156 164 217 258q189 308 189 544q0 247 -144 394q-146 147 -377 147 q-226 0 -369 -153q-141 -148 -141 -377zM387 985q0 88 51 151q56 66 142 66q82 0 136 -68q52 -64 52 -150q0 -42 -11.5 -82t-34.5 -70q-53 -68 -142 -68t-144 68q-49 61 -49 153z" />
<glyph unicode=":" horiz-adv-x="468" d="M45 145q0 -113 113 -163q32 -15 69 -15q71 0 125 53q54 51 54 125t-53.5 126.5t-127.5 52.5t-127 -52.5t-53 -126.5zM45 833.5q0 -73.5 52.5 -126t125.5 -52.5q74 0 127 52.5t53 127.5t-53 126t-127 51q-73 0 -125 -52q-53 -53 -53 -126.5z" />
<glyph unicode=";" horiz-adv-x="495" d="M-12 -189.5q0 -45.5 42 -91t95 -45.5t92 25t57 63l215 445l-280 131l-207 -449q-14 -33 -14 -78.5zM113 834.5q0 -76.5 54 -128t130 -51.5q72 0 123 53q53 55 53 128.5t-52 126.5t-127 53t-128 -52.5t-53 -129z" />
<glyph unicode="&#x3c;" horiz-adv-x="999" d="M51 737l864 -481v240l-460 241l460 244v240z" />
<glyph unicode="=" horiz-adv-x="1208" d="M63 406h912q51 0 89 34.5t38 87.5t-37 90t-90 37h-912v-249zM63 754h912q51 0 89 35t38 88t-37 90t-90 37h-912v-250z" />
<glyph unicode="&#x3e;" horiz-adv-x="931" d="M18 254l865 483l-865 484v-242l461 -242l-461 -243v-240z" />
<glyph unicode="?" horiz-adv-x="978" d="M-4 1185q0 -54 33.5 -97.5t84 -43.5t72.5 20l45 50q89 115 228 115q66 0 116 -36t50 -96.5t-23.5 -88t-59.5 -45t-77 -28.5t-77 -27q-83 -39 -83 -117v-390l86 2h227l-2 316q144 28 238 128t94 265q0 90 -42 167t-112 129q-137 103 -341 103q-152 0 -287 -79 q-94 -56 -144 -147q-26 -46 -26 -100zM281 143q0 -74 53 -125t127 -51t126 51.5t52 126.5q0 76 -52 127.5t-128 51.5v-2q-74 0 -126 -52.5t-52 -126.5z" />
<glyph unicode="@" horiz-adv-x="1445" d="M-53 421q0 -157 55 -296t152.5 -244.5t231.5 -168t292 -62.5v104h-16q-44 0 -64 8q-180 29 -292.5 132.5t-178.5 275.5q-43 113 -43 244t45 250.5t128 211.5q179 197 450 197q228 0 371 -149q141 -147 141 -375q0 -162 -68 -298q-33 -66 -117 -141q-35 -32 -80 -32 t-64.5 34.5t-19.5 75.5q0 117 109 678h-107l-16 -106q-18 59 -71.5 91t-130 32t-147.5 -55.5t-118 -136.5q-94 -162 -94 -349q0 -135 59 -236q68 -114 201 -114q74 0 130 45t83 110q-4 -75 50 -121q51 -46 136.5 -46t159.5 59t124 147t74.5 188.5t24.5 210t-48 224.5 t-134 199q-182 178 -455 178q-162 0 -299 -60.5t-238.5 -164t-158.5 -243.5t-57 -297zM422 305q0 150 58 297q30 78 79 133.5t119 55.5t102.5 -50.5t32.5 -100.5t-10 -122t-29 -148q-48 -184 -117 -249q-44 -39 -92 -39q-143 0 -143 223z" />
<glyph unicode="A" horiz-adv-x="1335" d="M-49 119.5q0 -54.5 48 -98.5t114 -44q51 0 92 43q34 15 105 190q16 38 22 56h588l100 -301l319 84l-471 1256q-71 184 -247 184q-90 0 -149.5 -52.5t-90.5 -131.5l-412 -1086q-18 -45 -18 -99.5zM424 547l201 600l198 -600h-399z" />
<glyph unicode="B" horiz-adv-x="1214" d="M45 -2q47 2 131 2h486q196 0 330 120q136 124 136 320q0 98 -45 182q-67 124 -219 169q142 91 142 272q0 186 -142 303q-133 109 -323 109h-328q-72 0 -120 -47.5t-48 -118.5v-1311zM371 283v342h254q70 0 123 -51t53 -121q0 -72 -53 -121t-125 -49h-252zM373 893v299 h155q63 0 113 -42q51 -44 51 -92.5t-15 -76t-40 -47.5q-49 -41 -119 -41h-145z" />
<glyph unicode="C" horiz-adv-x="1261" d="M6 733q0 -240 141 -448q98 -145 251 -223t341 -78q170 0 309 64q93 41 141 113q23 34 23 86t-41 92t-87 40t-80.5 -15.5t-77.5 -33.5q-113 -49 -209 -49t-169 38.5t-121 102.5q-95 125 -95 319q0 175 92 299q95 127 258 158q31 6 66 6q167 0 325 -127l115 232 q-136 117 -366 165q-68 15 -103 15h-47q-12 0 -23 -2q-281 -27 -466 -247q-177 -210 -177 -507z" />
<glyph unicode="D" horiz-adv-x="1353" d="M25 162q0 -70 49 -116t119 -46h382q318 0 517 215q192 208 192 530q0 90 -21.5 193.5t-86 209t-159.5 178.5q-194 149 -474 149h-410q-72 0 -108 2v-1315zM350 283v907h189q187 0 303 -132q112 -125 112 -317q0 -196 -105 -323q-113 -135 -304 -135h-195z" />
<glyph unicode="E" horiz-adv-x="991" d="M43 168q0 -106 97 -154q30 -14 65 -14h708v287h-544v309h338q59 0 103 40t44 100t-32 89q-60 54 -120 54h-333v309h374q59 0 101.5 42t42.5 101t-41 101.5t-101 42.5h-509l-193 2v-1309z" />
<glyph unicode="F" horiz-adv-x="925" d="M39 0h328v582h331q59 0 102.5 40t43.5 99t-43 102t-103 43h-329v322h487v289h-647q-72 0 -121 -47.5t-49 -120.5v-1309z" />
<glyph unicode="G" horiz-adv-x="1507" d="M20 726q0 -165 56.5 -302t157.5 -236q210 -206 542 -206q297 0 481 195q179 189 179 489q0 98 -38 151t-143 53h-348q-57 0 -101 -42t-44 -102t43 -102t104 -42h191q-21 -134 -106 -223q-91 -95 -230 -95q-195 0 -312 140q-106 129 -106 331q0 198 106 329 q116 146 304 146q96 0 164 -30q92 -39 194 -103l129 258q-225 156 -467 156q-164 0 -303 -57.5t-239.5 -160t-157 -242.5t-56.5 -305z" />
<glyph unicode="H" horiz-adv-x="1452" d="M61 0h326v612h627v-471q0 -64 47.5 -111.5t115 -47.5t115 46.5t47.5 114.5v1334l-327 -4v-580h-625v434q0 70 -45 117t-115 47t-118 -48t-48 -116v-1327z" />
<glyph unicode="I" horiz-adv-x="430" d="M45 -2h326v1329q0 66 -47.5 114t-114 48t-115.5 -47t-49 -115v-1329zM84 1666q0 -48 35 -82t82 -34t80.5 34t33.5 82t-34.5 82t-81.5 34t-81 -34t-34 -82z" />
<glyph unicode="J" horiz-adv-x="854" d="M31 72q78 -33 163 -62.5t180 -29.5t175 35.5t134 98.5q110 127 110 330v883q0 66 -46.5 115t-113.5 49q-68 0 -115 -48t-47 -114v-895q0 -120 -67 -164q-25 -16 -56 -16t-61.5 9t-64.5 22.5t-65.5 27t-54.5 19.5z" />
<glyph unicode="K" horiz-adv-x="1386" d="M74 0h325v662l582 -625q49 -53 119 -53t118 44.5t48 110t-45 115.5l-519 530l523 496l-238 217l-588 -592v424q0 68 -47 116t-114 48q-68 0 -116 -47t-48 -115v-1331z" />
<glyph unicode="L" horiz-adv-x="946" d="M57 92q0 -77 117 -91q25 -3 37 -3l645 2l-2 287h-471v1040q0 68 -47 117t-115 49t-116 -49t-48 -117v-1235z" />
<glyph unicode="M" horiz-adv-x="1859" d="M25 139q0 -68 46 -111.5t110 -43.5t109.5 39.5t55.5 101.5l125 895l274 -918h291l275 918l143 -1036l318 53l-209 1270q-14 86 -77 136t-145 50t-138 -45t-79 -119l-235 -805l-234 805q-23 74 -79 119t-138 45t-144.5 -50t-76.5 -136l-190 -1129q-2 -10 -2 -19v-20z" />
<glyph unicode="N" horiz-adv-x="1474" d="M72 0h325v946l666 -903q48 -61 122.5 -61t121.5 46.5t47 114.5v1184q0 64 -48 115q-48 49 -116 49q-66 0 -114 -49q-48 -51 -48 -117v-788l-655 880q-58 76 -132.5 76t-121.5 -49t-47 -117v-1327z" />
<glyph unicode="O" horiz-adv-x="1558" d="M39 738q0 -153 53 -290t147.5 -241.5t225.5 -165.5t288 -61t287.5 61t226 165.5t147.5 242t52 288.5q0 152 -52 289t-146 241.5t-225 166t-288 61.5t-288 -61.5t-226.5 -165t-148.5 -240.5t-53 -290zM371 737q0 189 92 321q105 152 287 152q189 0 294 -152 q93 -134 93 -331q0 -187 -98 -319q-108 -144 -289 -144q-182 0 -287 152q-92 132 -92 321z" />
<glyph unicode="P" horiz-adv-x="1142" d="M8 150q0 -68 48 -117t103.5 -49t86 23.5t49 48.5t27.5 86q12 90 12 261v86h125q108 0 153 5q211 12 346 144q138 137 138 340.5t-130 331.5q-98 97 -259.5 132t-360.5 35l-338 -2v-1325zM336 774v414h229q85 0 147 -60t62 -147q0 -84 -61.5 -145.5t-147.5 -61.5h-229z " />
<glyph unicode="Q" horiz-adv-x="1708" d="M55 739q0 -152 52.5 -289t147.5 -241.5t225 -166.5t288 -62q203 0 381 122l246 -247l200 206l-243 240q129 186 129 434q0 152 -52.5 289t-146.5 241.5t-225 166t-289 61.5q-307 0 -513 -225q-95 -103 -147.5 -240t-52.5 -289zM385 745q0 188 95 317q108 148 286 148 q183 0 290 -146q95 -129 95 -342q0 -109 -45 -220q-10 0 -23.5 7t-30.5 15q-39 19 -61 14q-48 -11 -57 -59q-2 -7 -2 -15q0 -34 32 -92q9 -16 11 -28q-84 -80 -194.5 -80t-183.5 42t-120 110q-92 135 -92 329z" />
<glyph unicode="R" horiz-adv-x="1320" d="M78 145q0 -64 48 -115q45 -50 113.5 -50t116 48t47.5 113v465l531 -665l266 180l-428 502q174 29 275 139q92 101 92 250q0 206 -145 326q-124 101 -351 139q-35 4 -94 4q-18 -1 -38 -1q-87 -2 -149.5 -2.5t-120 -1.5t-101.5 -1t-62 2v-1332zM403 840v348h232 q74 0 125 -54q53 -54 53 -124t-50 -120t-120 -50h-240z" />
<glyph unicode="S" horiz-adv-x="1132" d="M-6 123q93 -47 222 -81q227 -60 329 -60q296 0 467 223q90 118 90 283q0 94 -50.5 168.5t-128 124.5t-171 83t-151 50.5t-91 29.5t-62.5 30q-69 40 -69 105q0 55 55 95q44 34 100 34t100 -13t85 -28.5t79 -29t84.5 -13.5t85 42t38.5 101.5t-46.5 103.5t-111.5 71 q-123 49 -238.5 49t-212 -28.5t-173.5 -86.5q-173 -129 -173 -329q0 -121 53.5 -194t135.5 -119t177 -74.5t147 -49t82 -34t56 -30.5q66 -44 66 -87t-18.5 -78t-49.5 -59q-64 -52 -138.5 -52t-139 19.5t-108 35t-74.5 26.5t-63 23q-78 28 -99 38v-2q-4 -4 -6 -14 q-6 -29 -13.5 -50.5t-16.5 -51.5t-18.5 -62.5t-18.5 -62.5t-11 -46z" />
<glyph unicode="T" horiz-adv-x="1054" d="M-2 1475l2 -285h324v-1045q0 -66 48 -113.5t114.5 -47.5t113.5 47t47 114v1045h230q57 0 100 40t43 99t-41 102.5t-102 43.5h-879z" />
<glyph unicode="U" horiz-adv-x="1482" d="M66 592q0 -281 185 -448q180 -162 464 -162t464 162q185 167 185 448v733q0 68 -48 117t-116 49t-115 -48t-47 -116v-743q0 -147 -88 -235.5t-235 -88.5t-235.5 88t-88.5 236v895h-325v-887z" />
<glyph unicode="V" horiz-adv-x="1218" d="M-66 1380l515 -1276q23 -53 58.5 -88.5t100 -35.5t100 32.5t58.5 91.5l461 1162q14 34 14 66t-13.5 61.5t-37.5 50.5q-50 47 -109 47t-99 -32t-58 -81l-316 -899l-370 1016z" />
<glyph unicode="W" horiz-adv-x="1869" d="M-31 1436l279 -1270q18 -86 74.5 -135t140.5 -49t141.5 43t79.5 116l231 795l232 -795q23 -72 80 -115.5t141 -43.5t140.5 50t74.5 136l248 1126q4 21 4 33q0 70 -49 117t-116 47t-107.5 -42t-53.5 -101l-186 -897l-260 915h-297l-260 -915l-217 1038z" />
<glyph unicode="X" horiz-adv-x="1370" d="M35 137q0 -60 48 -107.5t103 -47.5q95 0 154 88l322 469l321 -469q64 -88 136.5 -88t119.5 46.5t47 107t-35 108.5l-403 549l336 434q39 49 39 108t-48.5 107.5t-103.5 48.5q-90 0 -156 -90l-256 -361l-329 461l-248 -201l389 -509l-403 -549q-33 -45 -33 -105z" />
<glyph unicode="Y" horiz-adv-x="1202" d="M-16 1305q0 -4 5 -11.5t7 -11.5l428 -590v-545q0 -68 47 -116.5t116 -48.5t117 49t48 116v545l397 545q31 44 31 83.5t-12.5 68t-33.5 51.5q-48 49 -102 49q-105 0 -155 -80l-291 -428l-348 518z" />
<glyph unicode="Z" horiz-adv-x="1218" d="M-18 142q0 -68 55 -105t125 -37h887q59 0 103 41t44 100t-44 101.5t-103 42.5h-623l674 938q16 25 30.5 51t14.5 61t-18.5 61.5t-46.5 43.5q-57 35 -130 35h-944v-283h680l-674 -944q-30 -38 -30 -106z" />
<glyph unicode="[" horiz-adv-x="573" d="M27 -37q0 -49 31.5 -86t82.5 -37h359l-2 275q-39 2 -66 2l-84 2v1239h31q79 0 128 70q31 45 16 106q-14 56 -59 86q-20 14 -40 14h-283q-51 0 -82.5 -36.5t-31.5 -86.5v-1548z" />
<glyph unicode="\" horiz-adv-x="630" d="M70 1475l260 -1475h211l-258 1475h-213z" />
<glyph unicode="]" horiz-adv-x="585" d="M25 1489.5q0 -62.5 49 -98t110 -35.5l37 2v-1241h-162v-277h369q51 0 83 38t32 85v1548q0 47 -32 85t-83 38h-264q-57 0 -98 -41t-41 -103.5z" />
<glyph unicode="^" horiz-adv-x="1079" d="M37 330h244l239 461l244 -461l242 2l-486 862z" />
<glyph unicode="_" horiz-adv-x="792" d="M12 -393v-72h740v72h-740z" />
<glyph unicode="`" />
<glyph unicode="a" horiz-adv-x="1232" d="M55 545q0 -232 139 -393q145 -170 373 -170q192 0 283 151q-2 -35 -2 -57l2 -80h285v967q0 53 -28 92t-72 43q-17 2 -33 2q-74 0 -125 -35q-41 -25 -53 -53l-11 -29l-37 19q-94 50 -198 62q-40 5 -76 5q-59 -1 -107 -13q-78 -20 -141.5 -70t-107.5 -118 q-91 -142 -91 -323zM373 547q0 193 128 271q44 26 105 26q115 0 174 -92q51 -78 51 -198q0 -54 -11 -108.5t-38 -98.5q-62 -99 -180 -99q-112 0 -175 96q-54 83 -54 203z" />
<glyph unicode="b" horiz-adv-x="1132" d="M8 141q0 -72 42 -116.5t112 -44.5t95.5 44t31.5 97q102 -139 293 -139q231 0 372 177q131 165 131 400q0 226 -133 387q-65 78 -158.5 125t-207.5 47q-151 0 -262 -98v545h-316v-1424zM313 549q0 191 123 265q43 26 105 26q113 0 175 -94q52 -79 52 -197q0 -115 -52 -199 q-59 -96 -171 -96q-120 0 -179 91q-53 80 -53 204z" />
<glyph unicode="c" horiz-adv-x="958" d="M0 549q0 -241 156 -403t395 -162q2 -2 7 -2t29.5 1t86 8t116.5 29q134 51 134 160q0 53 -41 94t-97 41q-20 0 -46.5 -8t-57.5 -17q-83 -24 -132.5 -24t-93.5 25.5t-75 65.5q-62 80 -62 194q0 116 64 193q68 83 182 83q66 0 134.5 -25.5t131.5 -45.5q4 25 15.5 61.5 t23.5 76.5q32 100 35 138q-152 74 -303 74q-331 0 -491 -221q-111 -159 -111 -336z" />
<glyph unicode="d" horiz-adv-x="1173" d="M27 555q0 -224 133 -392q143 -179 364 -179q88 0 167 36.5t132 108.5q4 -55 32 -101t97.5 -46t111.5 44.5t42 116.5v1424h-315v-553q-104 104 -256 104q-230 0 -371 -171q-137 -165 -137 -392zM342 551q0 113 58 195q65 92 173 92q119 0 177 -99q49 -82 49 -206 q0 -54 -14.5 -103t-42.5 -87q-61 -85 -173 -85q-109 0 -173 94q-54 81 -54 199z" />
<glyph unicode="e" horiz-adv-x="1191" d="M35 551q0 -254 170 -413q166 -156 420 -156q155 0 290 55l-43 242q-160 -35 -223 -35q-104 0 -180 59t-98 158h598q72 0 109.5 25.5t37.5 117.5t-43 187.5t-114.5 167t-168 113.5t-208 42t-213 -44t-175.5 -120q-159 -162 -159 -399zM371 639q22 162 126 214q38 19 87 19 t86 -20.5t62 -53.5q52 -66 59 -159h-420z" />
<glyph unicode="f" horiz-adv-x="677" d="M-39 970q0 -38 16.5 -65.5t42.5 -44.5q50 -35 121 -35h11v-1286h313v1286q137 0 189 68q20 27 20 69t-20.5 68.5t-51.5 43.5q-54 28 -137 28v160q0 42 61 53h13q54 0 101 29q54 32 54 104q0 70 -62 112q-55 37 -130 37h-88q-109 0 -169.5 -63.5t-74.5 -155.5 q-18 -48 -18 -278q-127 0 -172 -66q-19 -26 -19 -64z" />
<glyph unicode="g" horiz-adv-x="1224" d="M53 530q0 -231 135 -390q143 -167 369 -167q159 0 260 113q2 -10 2 -31q0 -117 -62.5 -196.5t-189.5 -79.5q-89 0 -225 37l-29 -267q4 -2 8.5 -6t34.5 -13q85 -26 212.5 -26t234 46.5t179.5 127.5q148 163 148 435v845q0 72 -37.5 117t-109.5 45t-99.5 -44t-33.5 -103 q-97 143 -287 143q-229 0 -375 -182q-135 -170 -135 -404zM371 553q0 186 133 260q45 25 101 25t98.5 -22.5t67 -53.5t37.5 -67t18 -75.5t5 -84.5t-14 -96.5t-41 -91.5q-63 -91 -170 -91q-116 0 -180 93q-55 80 -55 204z" />
<glyph unicode="h" horiz-adv-x="1060" d="M10 -2h316v670q0 78 54 131t132 53q74 0 132 -56q54 -53 54 -132v-529q0 -63 44 -111.5t111 -48.5t114 46t47 114v580q0 174 -113 289q-111 112 -284 112t-291 -106v434q0 66 -45 110.5t-94.5 44.5t-78 -12t-50.5 -33q-48 -49 -48 -112v-1444z" />
<glyph unicode="i" horiz-adv-x="520" d="M94 0h316v958q0 64 -46 110q-48 48 -112 48t-111 -45t-47 -113v-958zM129 1379q0 -48 35 -81.5t82 -33.5t80.5 33.5t33.5 81.5t-34.5 82t-81.5 34t-81 -34t-34 -82z" />
<glyph unicode="j" horiz-adv-x="516" d="M90 -373q0 -47 46 -73.5t88 -29.5q12 -1 23 -1q27 0 49 5q30 7 54 22q56 32 56 79v1413h-316v-1415zM125 1379q0 -48 35 -81.5t82 -33.5t80.5 33.5t33.5 81.5t-34.5 82t-81.5 34t-81 -34t-34 -82z" />
<glyph unicode="k" horiz-adv-x="1052" d="M10 2l314 -2v475l430 -508l252 183l-435 466q8 8 34 30t59.5 50.5t70.5 59t68 60.5q70 68 78 91q22 26 22 73.5t-45 90.5t-94 43q-73 0 -141 -63l-299 -285v680q0 66 -45.5 112t-110.5 46q-66 0 -112 -46.5t-46 -111.5v-1444z" />
<glyph unicode="l" horiz-adv-x="419" d="M45 -2l315 2v1444q0 63 -45 110.5t-110 47.5q-66 0 -113 -45.5t-47 -112.5v-1446z" />
<glyph unicode="m" horiz-adv-x="1875" d="M96 0h314v680q0 72 50 120t121 48t121 -50t50 -122v-676h309v676q0 70 49 119t121 49t120 -50.5t48 -119.5v-535q0 -66 47 -111.5t113 -45.5t110.5 45.5t44.5 111.5v594q0 174 -116 280q-112 103 -287 103q-98 0 -187.5 -40t-150.5 -113q-53 76 -138 116.5t-173 40.5 q-190 0 -283 -135q-4 55 -33 93t-95.5 38t-110.5 -44t-44 -116v-956z" />
<glyph unicode="n" horiz-adv-x="1177" d="M66 0h315v666q0 78 53 132t131 54t133.5 -55.5t55.5 -132.5v-529q0 -66 46 -110.5t95 -44.5t77.5 12t49.5 34q47 46 47 113v576q0 181 -123 291t-303 110q-86 0 -164 -34.5t-127 -106.5q-8 55 -36.5 100t-94.5 45t-111 -48q-44 -49 -44 -114v-958z" />
<glyph unicode="o" horiz-adv-x="1222" d="M45 547q0 -234 155 -399q159 -171 392 -171q232 0 389 171q154 168 154 402q0 116 -41 219t-114 181q-157 168 -390 168q-232 0 -390 -170q-155 -166 -155 -401zM360 549q0 111 56 199q62 96 174 96q110 0 176 -95q55 -80 55 -201q0 -52 -13 -106.5t-41 -97.5 q-64 -98 -177 -98q-114 0 -176 99q-54 87 -54 204z" />
<glyph unicode="p" horiz-adv-x="1255" d="M68 -469h313v551q104 -104 239 -104q1 -1 2 -1q133 0 226 47q94 48 160 126q137 162 137 391q0 223 -135 392q-142 179 -363 179q-189 0 -297 -145q-6 55 -33.5 102t-97.5 47t-110.5 -45t-40.5 -117v-1423zM373 561q0 53 14 103.5t42 88.5q63 85 173 85t174 -95 q53 -80 53 -198q0 -114 -57 -195q-65 -92 -174 -92q-119 0 -178 98q-47 80 -47 205z" />
<glyph unicode="q" horiz-adv-x="1261" d="M70 541q0 -230 136 -391q146 -173 372 -173q152 0 256 105v-551h315v1423q0 72 -42 117t-112 45t-97.5 -47t-31.5 -102q-53 72 -132 108.5t-180.5 36.5t-193.5 -49t-156 -130q-134 -168 -134 -392zM385 545q0 188 125 266q43 27 101 27t102.5 -23.5t72 -61.5t42 -88.5 t14.5 -103.5t-11.5 -107.5t-36.5 -97.5q-59 -98 -178 -98q-110 0 -174 92q-57 83 -57 195z" />
<glyph unicode="r" horiz-adv-x="737" d="M23 -4l315 2v496q0 117 25 162.5t57.5 73.5t69 47.5t72.5 33.5t64.5 33.5t47 47.5t18.5 75t-33.5 83.5t-77.5 41.5q-8 1 -17 1q-65 0 -152 -59q-74 -50 -118 -100.5t-46 -54.5q-49 144 -119 169q-9 3 -18 3q-36 0 -74 -49q-14 -17 -14 -46v-960z" />
<glyph unicode="s" horiz-adv-x="985" d="M33 121q90 -61 208.5 -100t213 -39t174.5 20.5t145 63.5q146 98 146 260q0 211 -280 318q-73 28 -135.5 50.5t-103.5 45t-41 50.5q0 47 37 70q31 23 78 23t88 -12.5t78 -28.5q94 -39 137 -39t78 33.5t35 86t-47 91.5t-112 62q-121 42 -217.5 42t-173.5 -20.5t-141 -61.5 q-145 -94 -145 -250q0 -147 143 -236q62 -38 133.5 -61.5t133 -45t102.5 -47t41 -59.5t-13 -52.5t-33 -30.5q-40 -23 -85 -23t-91 11.5t-92 29.5q-95 36 -169 76z" />
<glyph unicode="t" horiz-adv-x="710" d="M-10 969q0 -104 128 -127q34 -6 66 -6v-836h314v834q131 0 178 66q18 26 18 68t-18.5 67.5t-47.5 40.5q-46 26 -130 26v168q0 66 -46 115t-112 49t-112 -48.5t-46 -113.5v-172q-127 0 -174 -64q-18 -26 -18 -67z" />
<glyph unicode="u" horiz-adv-x="1183" d="M70 451q0 -242 133 -356.5t368 -114.5q236 0 368 114.5t132 358.5v503q0 66 -46 112t-112 46t-111.5 -45.5t-45.5 -114.5v-499q0 -92 -45 -145.5t-140.5 -53.5t-140.5 54.5t-45 144.5v630h-315v-634z" />
<glyph unicode="v" horiz-adv-x="978" d="M-35 989l367 -891q49 -112 157 -112q99 0 150 114q26 19 106 216.5l112 276.5q63 157 89 241q35 81 35 134t-46 99.5t-104.5 46.5t-100.5 -28.5t-58 -77.5l-187 -568l-249 670z" />
<glyph unicode="w" horiz-adv-x="1591" d="M-59 997l333 -886q46 -123 160 -123q59 0 99 33.5t59 87.5l180 522l178 -525q16 -53 57.5 -85.5t102.5 -32.5q105 0 158 125l313 774q16 43 16 74q0 66 -47 111.5t-104 45.5t-99 -28.5t-59 -75.5l-184 -561l-189 571h-288l-191 -571l-223 671z" />
<glyph unicode="x" horiz-adv-x="1208" d="M43 141q0 -63 47 -109q47 -48 98 -48q91 0 148 73l248 332l247 -332q55 -73 127 -73t118 47t46 110.5t-47 110.5l-293 328l244 266q49 49 49 115t-45 110.5t-98 44.5q-94 0 -144 -69l-204 -279l-295 356l-226 -190l320 -356l-293 -326q-47 -54 -47 -111z" />
<glyph unicode="y" horiz-adv-x="970" d="M-31 981l355 -909q-4 -8 -24.5 -53.5t-45.5 -99.5q-54 -116 -72 -177q-23 -54 -23 -102q0 -51 49 -92q48 -40 106 -40q102 0 151 119q30 22 242 569q108 278 167.5 453.5t67.5 206.5q27 68 27 121.5t-47.5 96t-109.5 42.5q-106 0 -150 -129l-179 -538l-229 649z" />
<glyph unicode="z" horiz-adv-x="1067" d="M66 26q43 -26 98 -26h702q57 0 99.5 40t42.5 99t-43 99.5t-103 40.5h-383l465 630q29 39 29 88t-40 76t-93 27h-777v-279h451l-463 -624q-29 -38 -29 -90q0 -55 44 -81z" />
<glyph unicode="{" horiz-adv-x="645" d="M18 737q0 -29 20.5 -44t46.5 -28.5t46.5 -28.5t20.5 -46v-660q0 -86 50 -128t132 -42h248v125h-52q-71 0 -108 51q-21 27 -21 82v543q0 70 -45 119t-114 57q70 8 115.5 57.5t45.5 118.5v564q0 110 101 110q60 0 81 15.5t21 44.5t-16.5 48t-44.5 19h-213q-80 0 -130 -42 t-50 -128v-661q0 -29 -20.5 -44.5t-46.5 -28.5t-46.5 -28.5t-20.5 -44.5z" />
<glyph unicode="|" horiz-adv-x="342" d="M59 0h213v1475h-213v-1475z" />
<glyph unicode="}" horiz-adv-x="645" d="M18 -174h2q0 -27 16.5 -46.5t45.5 -19.5h211q82 0 132 42t50 128v662q0 29 20.5 44t45 28.5t45 29t20.5 43.5q0 29 -20.5 44.5t-46 28.5t-46 28.5t-20.5 46.5v659q0 86 -49 128t-131 42h-248v-125h49q72 0 108 -50q21 -28 21 -83v-543q0 -70 45 -119t115 -57 q-70 -8 -115 -57t-45 -119v-563q0 -111 -102 -111q-61 0 -82 -15t-21 -46z" />
<glyph unicode="~" horiz-adv-x="987" d="M55 569h160q0 68 40 105q13 12 42 12t74 -17.5t93 -38.5q126 -57 194.5 -57t113.5 32t72 80q53 92 53 220l-20 -2h-140q0 -70 -39 -103q-14 -12 -43.5 -12t-74.5 17.5t-94 38.5q-131 59 -194.5 59t-108 -27.5t-71.5 -70.5q-55 -85 -55 -205q-2 -4 -2 -15v-16z" />
<glyph unicode="&#xa0;" />
<glyph unicode="&#xa1;" horiz-adv-x="491" d="M57 1289q0 -75 53.5 -126t128.5 -51t126 53.5t51 126.5q0 74 -53.5 125t-126.5 51q-74 0 -126.5 -52t-52.5 -127zM80 -31l313 -2v953q0 45 -55 80q-50 34 -87.5 34t-65 -9t-51.5 -25q-54 -35 -54 -78v-953z" />
<glyph unicode="&#xa2;" horiz-adv-x="1019" d="M29 551q0 -210 135 -375q142 -175 346 -186l-6 -111q0 -20 1 -31t10 -34t32 -23q39 0 39 62v106q12 16 26 29q117 7 330 78l-51 264l-66 -25l-30 -6q-47 -8 -94.5 -17.5t-94.5 -13.5q-6 0 -12 10.5t-12 12.5v538q12 -2 23 -2t39 -4t71 -16t86 -23h2q23 -4 59.5 4t64 47.5 t27.5 88.5t-32.5 83.5t-80.5 56.5q-93 41 -200 46q-16 2 -31 2h-28q0 18 3 47q5 53 -1 66q2 16 -7.5 37.5t-31.5 21.5q-23 0 -32 -20.5t-9 -38.5q-4 -6 -4 -23l6 -96q-203 -24 -342 -188q-135 -157 -135 -367zM348 561q0 86 38 155.5t122 100.5v-532q-160 78 -160 276z" />
<glyph unicode="&#xa3;" horiz-adv-x="1308" d="M12 736q0 -72 60 -101q21 -26 152 -40q28 -3 42 -1q14 -4 53 4l-14 -45q-79 -255 -131 -307q-47 -59 -47 -94.5t10 -60.5q21 -53 69 -79q22 -12 48 -12h973v285h-680q39 45 65.5 109.5t28.5 105t2 58t-4 36.5h262v283h-309q-20 41 -41 86t-21 88t16.5 72.5t43.5 50.5 q52 38 136.5 38t149 -38.5t100 -75.5t51 -53.5t32.5 -26.5q23 -20 71.5 -20.5t85.5 46t37 99.5t-30.5 95t-74.5 76t-94 60.5t-99 53.5q-143 77 -244.5 77t-193 -25.5t-161.5 -77.5q-157 -115 -157 -317q0 -96 55 -208q-70 0 -117 -12.5t-55 -20.5q-29 -12 -49.5 -41 t-20.5 -67z" />
<glyph unicode="&#xa4;" horiz-adv-x="1447" d="M20 479h197q23 -77 96 -194q100 -145 252 -223t340 -78q170 0 309 64q97 43 142 113q22 34 22 86t-41 92t-87 40t-80.5 -15.5t-77.5 -33.5q-113 -49 -219.5 -49t-187.5 55t-126 143h594q63 0 110.5 31t47.5 77t-46 77.5t-112 31.5h-653l-2 45l2 41h653q63 0 110.5 31 t47.5 78t-46 78.5t-112 31.5h-588q96 162 283 197q33 6 65 6q168 0 326 -127l115 232q-136 117 -366 165q-68 15 -103 15h-47q-10 0 -23 -2q-209 -19 -373 -155q-159 -132 -225 -331h-197v-219h154l-2 -49l2 -37h-154v-217z" />
<glyph unicode="&#xa5;" horiz-adv-x="1284" d="M27 1325q0 -43 30 -88l275 -377h-217q-25 0 -38 -66q-3 -16 -3 -24q0 -24 64 -36q16 -3 24 -3h266l27 -39l4 -47h-344q-24 0 -38 -65q-3 -15 -3 -23q0 -24 64 -36q16 -3 24 -3h297v-518h325v520h338q25 0 42.5 20.5t17.5 45.5t-17.5 43t-44.5 18h-336v45l27 41h309 q29 0 44.5 19.5t15.5 46.5t-16.5 45t-45.5 18h-207l271 375q30 39 30 81t-12 70.5t-34 51.5q-47 49 -101 49q-99 0 -156 -80l-291 -428l-288 428q-23 35 -62 57.5t-77 22.5t-67.5 -13.5t-51.5 -35.5q-45 -48 -45 -115z" />
<glyph unicode="&#xa6;" horiz-adv-x="1267" d="M-27 -69.5q0 -55.5 54 -92.5q36 -36 209 -90q38 -12 56.5 -14t33 -6t29.5 -4t33 4t36 6t58 14t81 28q100 37 127 64q53 39 53 95.5t-29.5 90t-78.5 33.5q-22 0 -37 -6q-53 -29 -115.5 -60.5t-110.5 -31.5t-90 16.5t-79 34.5q-97 49 -133.5 49t-66.5 -37.5t-30 -93z M-16 1496q0 -65 43 -109t107 -44t108.5 44.5t44.5 106.5t-44 107.5t-106.5 45.5t-107.5 -43t-45 -108zM162 1440q0 23 22 22q23 1 23 -22t-23 -23t-22 23zM201 154l315 -2v958q0 99 -95 144q-28 14 -77.5 14t-96 -45t-46.5 -113v-956zM395 1494q0 -62 44 -106.5t106.5 -44.5 t107.5 43.5t45 108t-45 108.5t-108 44t-106.5 -45.5t-43.5 -107.5zM563 1440q0 23 23 22q22 1 22 -22t-22 -23q-23 0 -23 23zM776 522q0 -9 12 -25q21 -26 27 -38l195 -269q43 -63 103 -63t98 37t38 77q0 55 -43 111l-174 236l178 231q39 56 39 102t-33.5 83.5t-77.5 37.5 q-79 0 -130 -67l-228 -291q-4 -4 -4 -80v-82z" />
<glyph unicode="&#xa7;" horiz-adv-x="1228" d="M25 548.5q0 -114.5 54 -193.5t136 -131t179.5 -87t141.5 -56.5t71.5 -35t64.5 -42t37 -73.5t-14.5 -65.5t-36.5 -31.5q-43 -21 -103.5 -21t-98.5 16t-64.5 41t-44 54.5t-35.5 54.5q-44 57 -103 57t-104.5 -45t-45.5 -110t37 -120t94 -96q115 -81 248 -104 q31 -4 62.5 -8.5t89 -4.5t142.5 19.5t152 61.5q154 96 154 278q0 142 -106 231q100 53 165.5 151.5t65.5 210t-53 182.5t-133 121t-174 86t-174 69.5t-133.5 74.5t-53.5 101q0 54 52 87q41 27 97 27t103 -17.5t91 -45.5q82 -51 153 -133l170 196q-182 262 -535 262 q-291 0 -415 -192q-47 -72 -47 -170q0 -136 106 -238q-84 -57 -138 -151.5t-54 -209zM334 575q0 51 36 95.5t76 70.5l252 -112q136 -61 136 -154.5t-115 -146.5q-9 -3 -11.5 -6t-7.5 -3l-223 99q-143 64 -143 157z" />
<glyph unicode="&#xa8;" horiz-adv-x="901" d="M0 1508.5q0 -52.5 37 -88.5t89 -36t88 38t36 89t-36 88t-88 37t-89 -37.5t-37 -90zM621 1509.5q0 -51.5 37.5 -87.5t88.5 -36t87 35t36 88t-35.5 90t-89.5 37q-53 0 -88.5 -37.5t-35.5 -89z" />
<glyph unicode="&#xa9;" horiz-adv-x="1703" d="M59 737q0 -158 60.5 -297t164 -242.5t243 -164t296.5 -60.5q158 0 297.5 60.5t242.5 165t163.5 243.5t60.5 297t-60.5 297.5t-163.5 242.5t-242.5 163.5t-297.5 60.5t-297 -60.5t-242.5 -164.5t-164 -243.5t-60.5 -297.5zM178 739q0 133 50.5 253t137.5 209t204.5 141.5 t252.5 52.5t253 -52.5t205 -141.5t137 -209t50 -254t-50 -252.5t-137 -209t-205 -142.5t-253 -52t-252.5 52t-204.5 142q-188 196 -188 463zM434 729q0 -193 112 -323q118 -136 310 -136q160 0 248 72q33 27 33 62t-18.5 56t-42 21t-45 -10t-47.5 -21q-71 -32 -130.5 -32 t-108.5 26.5t-81 69.5q-66 87 -66 215q0 129 60 221q68 105 194 105q55 0 94 -18.5t57.5 -27t18.5 -10.5h2q20 -8 42 -8t39 21.5t17 55.5t-29.5 60.5t-71.5 43.5q-73 28 -168 28t-174 -37t-133 -101q-112 -134 -112 -333z" />
<glyph unicode="&#xaa;" horiz-adv-x="847" d="M57 1118q0 -148 84 -259q91 -120 236 -120q68 0 178 85l20 16l7 -92l153 2v665q0 35 -25.5 58.5t-60.5 23.5q-74 0 -74 -90q-74 90 -196 90q-148 0 -238 -119q-84 -112 -84 -260zM113 510h579q29 0 49.5 22.5t20 52t-19.5 51t-50 21.5h-579v-147zM219 1118q0 150 101 212 q34 22 82 22t81 -20.5t53 -53.5q37 -63 37 -156q0 -159 -91 -218q-33 -21 -81.5 -21t-83 21.5t-55.5 55.5q-43 66 -43 158z" />
<glyph unicode="&#xab;" horiz-adv-x="1017" d="M35 577.5q0 -33.5 18.5 -73t48 -87.5t65.5 -99.5t69 -96.5q52 -69 106 -127l174 152q-196 294 -223 321l178 234q39 56 39 101.5t-36 83.5t-79 38q-78 0 -127 -68l-196 -292q-37 -53 -37 -86.5zM463 577.5q0 -33.5 18.5 -73t48 -87.5t64.5 -99.5t68 -96.5 q52 -69 106 -127l178 152q-17 21 -81 117q-121 181 -144 204l178 234q41 59 41 104t-36 82t-80 37q-77 0 -126 -68l-198 -292q-37 -53 -37 -86.5z" />
<glyph unicode="&#xac;" horiz-adv-x="1234" d="M59 737h908v-295h166v508h-1074v-213z" />
<glyph unicode="&#xad;" horiz-adv-x="829" d="M26 590q15 -57 43.5 -77.5t47.5 -20.5h596l-2 264h-523q-45 0 -83 -20q-103 -55 -79 -146z" />
<glyph unicode="&#xae;" horiz-adv-x="1703" d="M59 737q0 -158 60.5 -297t164 -242.5t243 -164t296.5 -60.5q158 0 297.5 60.5t242.5 165t163.5 243.5t60.5 297t-60.5 297.5t-163.5 242.5t-242.5 163.5t-297.5 60.5t-297 -60.5t-242.5 -164.5t-164 -243.5t-60.5 -297.5zM178 739q0 133 50.5 253t137.5 209t204.5 141.5 t252.5 52.5t253 -52.5t205 -141.5t137 -209t50 -254t-50 -252.5t-137 -209t-205 -142.5t-253 -52t-252.5 52t-204.5 142q-188 196 -188 463zM524 379q0 -41 30 -72t71 -31t70.5 29t29.5 70v278l291 -364q4 -4 15 -16.5t18.5 -12.5t32 14.5t50.5 31.5q68 48 68 58 q0 15 -16 31l-230 269q88 16 152.5 75.5t64.5 163.5q0 129 -88 206q-85 75 -215 75h-313q-7 0 -17 -22q-14 -30 -14 -52v-731zM727 799v207h137q41 0 73 -31t32 -73t-28 -72.5t-73 -30.5h-141z" />
<glyph unicode="&#xaf;" horiz-adv-x="774" d="M16 1325q0 -45 30 -78t77 -33h493q47 0 80 32t33 79t-32.5 79t-80.5 32h-493q-45 0 -76 -33t-31 -78z" />
<glyph unicode="&#xb0;" horiz-adv-x="704" d="M55 1219q0 -115 84 -199t201 -84q116 0 201 83q84 82 84 201q0 58 -22.5 110t-60.5 90q-83 83 -202 83q-116 0 -201 -83q-84 -82 -84 -201zM152 1221q0 78 54 131q56 57 134 57t134 -57q54 -53 54 -131q0 -81 -54 -135t-134 -54q-78 0 -132 54q-56 56 -56 135z" />
<glyph unicode="&#xb1;" />
<glyph unicode="&#xb2;" />
<glyph unicode="&#xb3;" />
<glyph unicode="&#xb4;" horiz-adv-x="622" d="M6 1291q0 -42 36 -74.5t71 -32.5t51 5t62 19.5t98 33.5q136 51 151 73q53 23 81 56q55 63 36.5 107t-56.5 59t-56 15q-42 0 -60 -12l-338 -133q-35 -14 -55.5 -44t-20.5 -72z" />
<glyph unicode="&#xb5;" />
<glyph unicode="&#xb6;" horiz-adv-x="1243" d="M43 1049q0 -174 123 -301q122 -125 299 -125h133v-1067h143l2 1783h125v-1785l148 2l-2 1783h43q102 0 102 68q0 29 -20.5 48.5t-48.5 19.5h-625q-176 0 -299 -127q-123 -126 -123 -299z" />
<glyph unicode="&#xb7;" horiz-adv-x="497" d="M59 549q0 -76 55 -127t128 -51t124 53q54 55 54 128t-53.5 125t-126.5 52q-74 0 -127.5 -52t-53.5 -128z" />
<glyph unicode="&#xb8;" horiz-adv-x="430" d="M33 -213q0 -45 25.5 -81t58.5 -36q66 0 86 45l180 348h-221q-6 -10 -21.5 -36.5t-32.5 -56.5q-37 -61 -56 -99.5t-19 -83.5z" />
<glyph unicode="&#xb9;" />
<glyph unicode="&#xba;" horiz-adv-x="821" d="M53 1120q0 -157 92 -267q98 -118 250 -118t249 117q93 112 93 264q0 153 -91 266q-95 117 -249 117q-149 0 -249 -115q-95 -110 -95 -264zM76 584q0 -23 17.5 -48.5t39.5 -25.5h533q10 0 34.5 7t24.5 15.5t-2 28t-6 41.5q-10 55 -19 55h-567q-20 0 -37.5 -25.5 t-17.5 -47.5zM219 1095q0 116 46 186.5t131.5 70.5t130 -72t44.5 -168q0 -92 -31.5 -141t-65.5 -69.5t-81 -20.5q-88 0 -135 81q-39 68 -39 133z" />
<glyph unicode="&#xbb;" horiz-adv-x="999" d="M25 858q14 -18 45.5 -65.5t67.5 -99.5t68 -99t48 -64l-176 -233q-41 -59 -41 -104t36 -82t80 -37q76 0 126 67l196 291q39 64 39 92.5t-19.5 69.5t-49 89t-65.5 100.5t-71 98.5q-59 77 -108 130zM453 858q14 -18 45.5 -65.5t67.5 -99.5q99 -142 118 -163l-178 -233 q-39 -56 -39 -102.5t35 -83.5t79 -37q78 0 128 67l196 291q37 61 37 91t-19.5 71t-49 89t-66.5 100.5t-72 98.5q-68 89 -106 130z" />
<glyph unicode="&#xbc;" />
<glyph unicode="&#xbd;" />
<glyph unicode="&#xbe;" />
<glyph unicode="&#xbf;" horiz-adv-x="993" d="M4 381q0 -195 154 -311q137 -103 342 -103q157 0 288 78q97 57 144 147q24 48 24 102t-33.5 96t-84 42t-72.5 -20q-43 -42 -43 -47q-95 -117 -229 -117q-66 0 -115 35.5t-49 96t23.5 88.5t58 45t76.5 28.5t77 28.5q82 42 82 118v387h-313l4 -315q-148 -29 -240 -129 q-94 -102 -94 -250zM313 1332q0 -75 53.5 -126t128.5 -51t126 52.5t51 127.5q0 73 -53.5 124.5t-126 51.5t-126 -52t-53.5 -127z" />
<glyph unicode="&#xc0;" horiz-adv-x="1335" d="M-49 119.5q0 -54.5 48 -98.5t114 -44q51 0 92 43q34 15 105 190q16 38 22 56h588l100 -301l319 84l-471 1256q-71 184 -247 184q-90 0 -149.5 -52.5t-90.5 -131.5l-412 -1086q-18 -45 -18 -99.5zM342 1812q0 -84 76 -114q17 -23 163 -74t162 -53q23 -10 59 -10t69.5 32.5 t33.5 73.5q0 81 -74 113q-21 29 -259 110q-52 17 -70.5 24t-55 7t-70.5 -34t-34 -75zM424 547l201 600l198 -600h-399z" />
<glyph unicode="&#xc1;" horiz-adv-x="1335" d="M-49 119.5q0 -54.5 48 -98.5t114 -44q51 0 92 43q34 15 105 190q16 38 22 56h588l100 -301l319 84l-471 1256q-71 184 -247 184q-90 0 -149.5 -52.5t-90.5 -131.5l-412 -1086q-18 -45 -18 -99.5zM346 1665q0 -41 36 -75t69.5 -34t52 6.5t45 15.5t62.5 21.5t74 27.5t71 29 q78 35 82 42q73 27 73 112q0 41 -33.5 75t-70.5 34t-57 -10q-29 -4 -130 -42q-186 -71 -198 -87q-35 -14 -55.5 -44t-20.5 -71zM424 547l201 600l198 -600h-399z" />
<glyph unicode="&#xc2;" horiz-adv-x="1335" d="M-49 119.5q0 -54.5 48 -98.5t114 -44q51 0 92 43q34 15 105 190q16 38 22 56h588l100 -301l319 84l-471 1256q-71 184 -247 184q-90 0 -149.5 -52.5t-90.5 -131.5l-412 -1086q-18 -45 -18 -99.5zM240 1667q0 -41 33.5 -76t67 -35t72 13.5t78 30t77.5 34t59 25.5 q20 -8 56 -24.5t76 -34.5q95 -41 138 -41t79 34.5t36 75.5q0 83 -74 115l-252 98q-12 4 -28.5 10t-31.5 6t-30.5 -6t-32.5 -12l-252 -100q-33 -12 -52 -42t-19 -71zM424 547l201 600l198 -600h-399z" />
<glyph unicode="&#xc3;" horiz-adv-x="1335" d="M-49 119.5q0 -54.5 48 -98.5t114 -44q51 0 92 43q34 15 105 190q16 38 22 56h588l100 -301l319 84l-471 1256q-71 184 -247 184q-90 0 -149.5 -52.5t-90.5 -131.5l-412 -1086q-18 -45 -18 -99.5zM270 1642h138q0 60 34 90q11 11 35.5 11t63.5 -15.5t81 -33.5 q110 -49 169 -49t97 26.5t62 68.5q45 81 45 189h-137q0 -62 -34 -90q-13 -10 -38.5 -10t-64.5 15.5t-80 33.5q-112 49 -167.5 49t-92.5 -23.5t-61 -61.5q-45 -70 -50 -175v-25zM424 547l201 600l198 -600h-399z" />
<glyph unicode="&#xc4;" horiz-adv-x="1335" d="M-49 119.5q0 -54.5 48 -98.5t114 -44q51 0 92 43q34 15 105 190q16 38 22 56h588l100 -301l319 84l-471 1256q-71 184 -247 184q-90 0 -149.5 -52.5t-90.5 -131.5l-412 -1086q-18 -45 -18 -99.5zM188 1508.5q0 -52.5 37 -88.5t89 -36t88 38t36 89t-35.5 88t-88 37 t-89.5 -37.5t-37 -90zM424 547l201 600l198 -600h-399zM809 1509.5q0 -51.5 38 -87.5t89 -36t87 35t36 88t-36 90t-89 37t-89 -37.5t-36 -89z" />
<glyph unicode="&#xc5;" horiz-adv-x="1335" d="M-49 119.5q0 -54.5 48 -98.5t114 -44q51 0 92 43q34 15 105 190q16 38 22 56h588l112 -295l307 117l-471 1217q-54 129 -151 168q59 20 98 67t39 101.5t-19.5 90t-52.5 62.5q-66 55 -155 55q-90 0 -155 -55q-71 -60 -71 -133t36 -121.5t95 -69.5q-101 -41 -151 -165 l-412 -1086q-18 -45 -18 -99.5zM424 547l201 600l200 -600h-401zM561 1655q0 27 19.5 45t47.5 18t46 -18.5t18 -46.5q0 -29 -18.5 -46.5t-46.5 -17.5q-29 0 -47.5 19.5t-18.5 46.5z" />
<glyph unicode="&#xc6;" horiz-adv-x="1738" d="M0 113l289 -140l139 312l397 6l5 -29q4 -29 9 -66q13 -98 21 -122.5t49 -49t80 -24.5h574q48 0 81 16.5t33 24.5q0 102 -17.5 174t-25.5 72h-489v305h346q59 0 101 43t42 102t-42 100.5t-101 41.5h-346v311h381q43 0 69.5 40t26.5 70.5t-8 59.5t-22 54q-32 61 -72 61 h-801q-66 0 -98.5 -28t-61.5 -87zM530 545l289 643v-643h-289z" />
<glyph unicode="&#xc7;" horiz-adv-x="1308" d="M29 733q0 -277 165 -484q171 -216 439 -255q-14 -16 -37 -38t-44 -48q-54 -63 -54 -97t27.5 -59.5t68.5 -25.5t70 34l165 203l-10 23q133 5 259 65q65 31 111 78.5t46 108.5t-41 101t-86 40t-81 -15.5t-79 -33.5q-113 -49 -209 -49t-168.5 38.5t-120.5 102.5 q-96 125 -96 319q0 176 92 299q96 127 259 158q31 6 65 6q168 0 326 -127l114 232q-136 117 -366 165q-68 15 -102 15h-48q-12 0 -22 -2q-281 -27 -466 -247q-177 -210 -177 -507z" />
<glyph unicode="&#xc8;" horiz-adv-x="933" d="M16 168q0 -106 98 -154q29 -14 64 -14h709v287h-545v309h338q59 0 103 40t44 100t-32 89q-60 54 -119 54h-334v309h375q59 0 101 42t42 101t-41 101.5t-100 42.5h-510l-193 2v-1309zM135 1812q0 -84 76 -114q10 -20 159.5 -72.5t166.5 -54.5q23 -10 58.5 -10t69 32.5 t33.5 73.5q0 79 -73 113q-21 28 -261 110q-51 17 -69.5 24t-55 7t-70.5 -34t-34 -75z" />
<glyph unicode="&#xc9;" horiz-adv-x="956" d="M27 168q0 -106 97 -154q29 -14 64 -14h709v287h-545v309h338q59 0 103.5 40t44.5 100t-32 89q-60 54 -120 54h-334v309h375q59 0 101 42t42 101t-41 101.5t-100 42.5h-510l-192 2v-1309zM150 1665q0 -41 35.5 -75t69 -34t52 6.5t45.5 15.5t63 21.5t73.5 27.5t70.5 29 q77 34 82 42q33 12 53.5 41.5t20.5 70.5t-34 75t-71 34t-57 -10q-31 -4 -130 -42q-186 -72 -198 -87q-35 -14 -55 -44t-20 -71z" />
<glyph unicode="&#xca;" horiz-adv-x="933" d="M16 168q0 -106 98 -154q29 -14 64 -14h709v287h-545v309h338q59 0 103 40t44 100t-32 89q-60 54 -119 54h-334v309h375q59 0 101 42t42 101t-41 101.5t-100 42.5h-510l-193 2v-1309zM33 1667q0 -41 33.5 -76t67 -35t72 13.5t78.5 30t77.5 34t58.5 25.5q20 -8 56 -24.5 t76 -34.5q95 -41 138 -41t79 34.5t36 75.5q0 83 -74 115l-252 98q-12 4 -28.5 10t-31.5 6t-30.5 -6t-32.5 -12l-252 -100q-33 -12 -52 -42t-19 -71z" />
<glyph unicode="&#xcb;" horiz-adv-x="933" d="M16 168q0 -106 98 -154q29 -14 64 -14h709v287h-545v309h338q59 0 103 40t44 100t-32 89q-60 54 -119 54h-334v309h375q59 0 101 42t42 101t-41 101.5t-100 42.5h-510l-193 2v-1309zM63 1717q0 -65 43.5 -108.5t107.5 -43.5t108.5 45t44.5 107t-44.5 106.5t-106.5 44.5 t-107.5 -43t-45.5 -108zM475 1716.5q0 -61.5 44 -106.5t106.5 -45t107.5 42.5t45 107t-45 109t-108 44.5t-106.5 -45t-43.5 -106.5z" />
<glyph unicode="&#xcc;" horiz-adv-x="516" d="M-33 1812q0 -84 76 -114q16 -22 163.5 -73.5t164.5 -53.5q20 -10 57 -10t69.5 32.5t32.5 73.5q0 85 -71 113q-21 28 -261 110q-51 17 -72.5 24t-56 7t-68.5 -34t-34 -75zM90 -2h326v1329q0 66 -47 114t-114 48t-116 -47t-49 -115v-1329z" />
<glyph unicode="&#xcd;" horiz-adv-x="522" d="M-29 1665q0 -41 35 -75t72 -34t59 11q95 19 299 115q23 10 27 16q72 26 72 112q0 41 -34 75t-81 34q-24 0 -43.5 -7t-70 -23.5t-106.5 -38.5q-143 -54 -155 -70q-33 -12 -53.5 -43t-20.5 -72zM88 -2h326v1329q0 66 -47.5 114t-114 48t-115.5 -47t-49 -115v-1329z" />
<glyph unicode="&#xce;" horiz-adv-x="761" d="M-16 1667q0 -41 32.5 -76t66 -35t72 13.5t79 30t77.5 34t58 25.5q20 -8 56 -24.5t76 -34.5q95 -41 139 -41t79 34.5t35 75.5q0 83 -74 115l-250 98q-14 4 -29.5 10t-31.5 6q-17 0 -62 -18l-254 -100q-33 -12 -51 -42t-18 -71zM207 -2h325v1329q0 66 -47 114t-113.5 48 t-115.5 -47t-49 -115v-1329z" />
<glyph unicode="&#xcf;" horiz-adv-x="593" d="M-70 1717q0 -65 44 -108.5t108.5 -43.5t107.5 45t43 107t-43 106.5t-105 44.5t-108.5 -43t-46.5 -108zM125 -2h326v1329q0 66 -47.5 114t-114 48t-115.5 -47t-49 -115v-1329zM342 1716.5q0 -61.5 45 -106.5t108 -45t106.5 42.5t43.5 107t-44 109t-108 44.5t-107.5 -45 t-43.5 -106.5z" />
<glyph unicode="&#xd0;" />
<glyph unicode="&#xd1;" horiz-adv-x="1419" d="M45 0h326v946l665 -903q48 -61 122.5 -61t121.5 46.5t47 114.5v1184q0 64 -49 115q-47 49 -115 49q-66 0 -113 -49q-49 -51 -49 -117v-788l-655 880q-58 76 -132.5 76t-121.5 -49t-47 -117v-1327zM346 1438h137q0 59 34 90q11 10 36 10t63.5 -15.5t80.5 -34.5 q110 -48 169 -48t97 26.5t62 68.5q46 81 46 189h-137q0 -59 -35 -90q-12 -10 -38 -10t-64.5 15.5t-79.5 34.5q-107 48 -165 48t-95 -23.5t-61 -61.5q-45 -70 -50 -175v-24z" />
<glyph unicode="&#xd2;" horiz-adv-x="1503" d="M12 738q0 -153 53.5 -290t147.5 -241.5t225 -165.5t288 -61t288 61t226 165.5t147.5 242t52.5 288.5q0 152 -52.5 289t-146.5 241.5t-225 166t-288 61.5t-288 -61.5t-226 -165t-148.5 -240.5t-53.5 -290zM344 737q0 189 92 321q105 152 287 152q190 0 295 -152 q92 -135 92 -331q0 -188 -97 -319q-108 -144 -290 -144t-287 152q-92 132 -92 321zM442 1812q0 -84 76 -114q17 -23 163 -74t163 -53q23 -10 58.5 -10t69.5 32.5t34 73.5q0 81 -74 113q-20 27 -260 110q-51 17 -70 24t-55.5 7t-70.5 -34t-34 -75z" />
<glyph unicode="&#xd3;" horiz-adv-x="1523" d="M23 738q0 -153 53 -290t147 -241.5t225.5 -165.5t288 -61t287.5 61t226.5 165.5t147.5 242t52 288.5q0 152 -52 289t-146.5 241.5t-225.5 166t-288 61.5t-288 -61.5t-226 -165t-148 -240.5t-53 -290zM354 737q0 190 92 321q107 152 287 152q190 0 295 -152 q92 -135 92 -331q0 -188 -97 -319q-108 -144 -290 -144q-180 0 -287 152q-92 131 -92 321zM457 1665q0 -41 35.5 -75t69 -34t52.5 6.5t45.5 15.5t62.5 21.5t74 27.5t70 29q77 35 82 42q33 12 53.5 41.5t20.5 70.5t-34 75t-71 34t-57 -10q-31 -4 -130 -42q-184 -70 -198 -87 q-35 -14 -55 -44t-20 -71z" />
<glyph unicode="&#xd4;" horiz-adv-x="1503" d="M12 738q0 -153 53.5 -290t147.5 -241.5t225 -165.5t288 -61t288 61t226 165.5t147.5 242t52.5 288.5q0 152 -52.5 289t-146.5 241.5t-225 166t-288 61.5t-288 -61.5t-226 -165t-148.5 -240.5t-53.5 -290zM340 1667q0 -41 34 -76t67.5 -35t71.5 13.5t78 30t78 34t58 25.5 q20 -8 56 -24.5t76 -34.5q95 -41 138 -41t79 34.5t36 75.5q0 83 -74 115l-252 98q-12 4 -28.5 10t-31.5 6t-30.5 -6t-31.5 -12l-252 -100q-33 -12 -52.5 -42t-19.5 -71zM344 737q0 189 92 321q105 152 287 152q190 0 295 -152q92 -135 92 -331q0 -188 -97 -319 q-108 -144 -290 -144t-287 152q-92 132 -92 321z" />
<glyph unicode="&#xd5;" horiz-adv-x="1503" d="M12 738q0 -153 53.5 -290t147.5 -241.5t225 -165.5t288 -61t288 61t226 165.5t147.5 242t52.5 288.5q0 152 -52.5 289t-146.5 241.5t-225 166t-288 61.5t-288 -61.5t-226 -165t-148.5 -240.5t-53.5 -290zM344 737q0 189 92 321q105 152 287 152q190 0 295 -152 q92 -135 92 -331q0 -188 -97 -319q-108 -144 -290 -144t-287 152q-92 132 -92 321zM391 1642h137q0 58 34 90q11 11 36 11t63.5 -15.5t80.5 -33.5q110 -49 169 -49t97.5 26.5t61.5 68.5q46 81 46 189h-137q0 -61 -35 -90q-12 -10 -38 -10t-64.5 15.5t-79.5 33.5 q-112 49 -167.5 49t-92.5 -23.5t-62 -61.5q-44 -70 -49 -175v-25z" />
<glyph unicode="&#xd6;" horiz-adv-x="1542" d="M31 738q0 -153 53 -290t147.5 -241.5t225.5 -165.5t287.5 -61t287.5 61t226.5 165.5t147.5 242t52 288.5q0 152 -52 289t-146.5 241.5t-225 166t-287.5 61.5t-288 -61.5t-226.5 -165t-148.5 -240.5t-53 -290zM76 1511q0 -53 35.5 -90t89.5 -37q53 0 89 37t36 88t-36 88 t-88 37t-89 -34.5t-37 -88.5zM362 737q0 188 93 321q105 152 286 152q190 0 295 -152q92 -135 92 -331q0 -188 -97 -319q-108 -144 -290 -144q-181 0 -286 152q-93 133 -93 321zM1165.5 1509q0.5 -52 38 -88.5t87.5 -36.5t87 37t37 90t-37 89t-90 36t-88 -37.5t-34.5 -89.5z " />
<glyph unicode="&#xd7;" />
<glyph unicode="&#xd8;" horiz-adv-x="1566" d="M29 37l84 -84l184 201q186 -174 453 -174q156 0 286.5 60t226 162.5t149.5 239t54 287.5q0 270 -157 502q12 14 41.5 43t60.5 60q76 78 76 106.5t-17.5 45.5t-39 17t-50 -23.5t-58.5 -55t-56.5 -63.5t-40.5 -46q-203 182 -473 182q-158 0 -289 -62.5t-224.5 -167 t-145.5 -242.5t-52 -290q0 -288 176 -495zM371 731q0 189 91 325q102 152 286 152q156 0 270 -108h-2l-582 -635q-63 113 -63 266zM508 371l575 628q54 -123 54 -238.5t-25 -198.5t-73 -148q-107 -146 -283 -146q-155 0 -248 103z" />
<glyph unicode="&#xd9;" horiz-adv-x="1492" d="M72 592q0 -281 185 -448q180 -162 464 -162t464 162q185 167 185 448v733q0 68 -48 117t-116 49t-115 -48t-47 -116v-743q0 -147 -88 -235.5t-235 -88.5t-235.5 88t-88.5 236v895h-325v-887zM434 1812q0 -84 76 -114q16 -22 163.5 -73.5t164.5 -53.5q20 -10 57 -10 t69.5 32.5t32.5 73.5q0 84 -71 113q-21 28 -260 110q-52 17 -73.5 24t-56 7t-68.5 -34t-34 -75z" />
<glyph unicode="&#xda;" horiz-adv-x="1492" d="M72 592q0 -281 185 -448q180 -162 464 -162t464 162q185 167 185 448v733q0 68 -48 117t-116 49t-115 -48t-47 -116v-743q0 -147 -88 -235.5t-235 -88.5t-235.5 88t-88.5 236v895h-325v-887zM440 1665q0 -41 35 -75t72 -34t59 11q95 19 300 115q22 10 26 16q72 26 72 112 q0 41 -34 75t-81 34q-24 0 -43.5 -7t-70 -23.5t-107.5 -38.5q-142 -54 -154 -70q-33 -12 -53.5 -43t-20.5 -72z" />
<glyph unicode="&#xdb;" horiz-adv-x="1492" d="M72 592q0 -281 185 -448q180 -162 464 -162t464 162q185 167 185 448v733q0 68 -48 117t-116 49t-115 -48t-47 -116v-743q0 -147 -88 -235.5t-235 -88.5t-235.5 88t-88.5 236v895h-325v-887zM334 1667q0 -41 32.5 -76t66 -35t72 13.5t79.5 30t77.5 34t57.5 25.5 q20 -8 56 -24.5t76 -34.5q95 -41 139 -41t79 34.5t35 75.5q0 83 -74 115l-250 98q-14 4 -29.5 10t-31.5 6q-17 0 -62 -18l-254 -100q-33 -12 -51 -42t-18 -71z" />
<glyph unicode="&#xdc;" horiz-adv-x="1427" d="M39 592q0 -281 185 -448q180 -162 464 -162t464 162q185 167 185 448v733q0 68 -48 117t-115 49q-27 0 -48 -6q2 8 2 24q0 53 -35.5 90t-88.5 37t-89 -37.5t-36 -89t37.5 -87.5t87.5 -36h18q-10 -31 -10 -59v-743q0 -147 -88 -235.5t-236 -88.5q-147 0 -235 88t-88 236 v802l20 -2q51 0 87 38t36 89t-36 88t-88 37t-89 -37.5t-37 -91.5q0 -12 4 -28h-223v-887z" />
<glyph unicode="&#xdd;" />
<glyph unicode="&#xde;" />
<glyph unicode="&#xdf;" horiz-adv-x="1120" d="M8 -461h316v1557q0 97 30 140q55 79 136.5 79t128.5 -50.5t47 -107.5t-17.5 -86t-46.5 -51.5t-63.5 -45t-67.5 -52.5q-14 -18 -22.5 -33t-8.5 -53.5t23.5 -63t59.5 -40t78 -27t78 -33.5q83 -52 83 -172q0 -126 -82 -178q-35 -23 -75 -35.5t-74.5 -27.5t-58 -40.5 t-23.5 -90.5t56 -105.5t140 -40.5t164 47t139 121q125 157 125 339q0 125 -67 235q-67 111 -187 150q137 107 137 293q0 185 -132 305q-126 117 -316 117q-229 0 -366 -145q-134 -142 -134 -371v-1534z" />
<glyph unicode="&#xe0;" horiz-adv-x="1150" d="M16 545q0 -232 138 -393q146 -170 374 -170q192 0 283 151q-2 -35 -2 -57l2 -80h285v967q0 53 -28 92t-72 43q-95 9 -158 -33q-41 -25 -52 -53l-12 -29l-37 19q-94 50 -198.5 62.5t-182.5 -8t-141 -70.5t-107 -118q-92 -141 -92 -323zM289 1439q0 -86 76 -116 q17 -23 164 -74t166.5 -56t55 -5t68.5 32.5t33 73.5q0 87 -72 113q-20 27 -260 109q-86 30 -125 30t-72.5 -32.5t-33.5 -74.5zM334 547q0 193 128 271q44 26 105 26q115 0 175 -92q51 -80 51 -198q0 -54 -11.5 -108.5t-39.5 -98.5q-61 -99 -179 -99q-112 0 -175 96 q-54 83 -54 203z" />
<glyph unicode="&#xe1;" horiz-adv-x="1167" d="M25 545q0 -233 137 -393q146 -170 375 -170q191 0 282 151q-2 -35 -2 -57l2 -80h285v967q0 53 -27.5 92t-72.5 43q-95 9 -158 -33q-41 -25 -52 -53l-12 -29l-36 19q-92 50 -198 62.5t-183.5 -8t-141 -70.5t-107.5 -118q-91 -142 -91 -323zM303 1291q0 -42 35 -74.5 t72 -32.5t53 6t42.5 15t62.5 21.5t74 28t70 29.5q78 33 83 41q71 26 71 113q0 41 -33.5 73.5t-68.5 32.5t-52 -5t-45 -13t-63 -21.5t-73.5 -28t-71.5 -28.5q-76 -32 -82 -41q-33 -12 -53.5 -43t-20.5 -73zM342 547q0 117 56 201q63 96 177 96q115 0 175 -92q51 -80 51 -198 q0 -54 -11.5 -108.5t-39.5 -98.5q-61 -99 -179 -99q-113 0 -175 96q-54 85 -54 203z" />
<glyph unicode="&#xe2;" horiz-adv-x="1253" d="M66 545q0 -233 138 -393q145 -170 374 -170q191 0 282 151q-2 -35 -2 -57l2 -80h285v967q0 53 -27.5 92t-71.5 43q-96 9 -159 -33q-41 -25 -53 -53l-11 -29l-37 19q-91 50 -197 62.5t-183.5 -8t-141 -70.5t-107.5 -118q-91 -142 -91 -323zM238 1294q0 -41 32.5 -75.5 t66 -34.5t71.5 13t79 29.5t78 34t58 25.5q200 -100 257.5 -100t92.5 33.5t35 75.5q0 84 -74 114l-250 98q-40 17 -61 17q-22 0 -62 -17l-254 -102q-33 -12 -51 -41t-18 -70zM383 547q0 117 55 201q64 96 178 96q115 0 174 -92q52 -80 52 -198q0 -54 -11.5 -108.5 t-38.5 -98.5q-62 -99 -180 -99q-113 0 -174 96q-55 85 -55 203z" />
<glyph unicode="&#xe3;" horiz-adv-x="1191" d="M35 545q0 -234 138 -393q147 -170 374 -170q191 0 282 151q-2 -35 -2 -57l2 -80h285v967q0 53 -27.5 92t-71.5 43q-96 9 -159 -33q-39 -25 -51 -53l-12 -29l-37 19q-93 50 -198 62.5t-183 -8t-141.5 -70.5t-107.5 -118q-91 -142 -91 -323zM270 1233h138q0 61 34 90 q11 10 35.5 10t63.5 -15t81 -34q112 -49 170 -49t96 26.5t62 68.5q45 81 45 190h-137q0 -62 -34 -90q-13 -11 -38.5 -11t-64.5 15.5t-80 33.5q-110 50 -166.5 50t-93.5 -24t-61 -62q-45 -68 -50 -175v-24zM352 547q0 117 56 201q63 96 178 96q114 0 174 -92q51 -80 51 -198 q0 -54 -11.5 -108.5t-39.5 -98.5q-61 -99 -178 -99q-114 0 -176 96q-54 85 -54 203z" />
<glyph unicode="&#xe4;" horiz-adv-x="1210" d="M45 545q0 -232 139 -393q145 -170 373 -170q192 0 283 151q-2 -35 -2 -57l2 -80h284v967q0 53 -27.5 92t-71.5 43q-96 9 -159 -33q-41 -25 -52 -53l-11 -29l-37 19q-93 50 -198 62.5t-183 -8t-141.5 -70.5t-107.5 -118q-91 -142 -91 -323zM268 1350q0 -63 45 -107.5 t109 -44.5q63 0 107 44t44 108q0 63 -44 108t-107 45t-108.5 -45t-45.5 -108zM362 547q0 117 56 201q63 96 178 96q113 0 174 -92q51 -77 51 -198q0 -54 -11 -108.5t-39 -98.5q-63 -99 -179 -99q-114 0 -176 96q-54 85 -54 203zM676 1349q0 -62 46 -106.5t108 -44.5 t106.5 45t44.5 109q0 63 -45.5 107t-110 44t-107 -46t-42.5 -108z" />
<glyph unicode="&#xe5;" horiz-adv-x="1153" d="M16 545q0 -232 138 -393q146 -170 374 -170q192 0 283 151q-2 -35 -2 -57l2 -80h285v967q0 53 -28 92t-72 43q-95 9 -158 -33q-41 -25 -52 -53l-12 -29l-37 19q-94 50 -198.5 62.5t-182.5 -8t-141 -70.5t-107 -118q-92 -141 -92 -323zM334 547q0 193 128 271 q44 26 105 26q115 0 175 -92q51 -80 51 -198q0 -54 -11.5 -108.5t-39.5 -98.5q-61 -99 -179 -99q-112 0 -175 96q-54 83 -54 203zM377 1368q0 -84 67 -140q62 -52 150 -52q85 0 146 54q67 57 67 138q0 84 -67 140q-29 24 -68 38q-78 29 -158 2q-81 -29 -118 -101 q-19 -36 -19 -79zM524 1370q0 29 19.5 46.5t47.5 17.5t47 -18.5t19 -46.5t-19.5 -47t-45.5 -19q-27 0 -47.5 19t-20.5 48z" />
<glyph unicode="&#xe6;" horiz-adv-x="1906" d="M8 541q0 -229 136 -389q143 -170 353 -170t298 135l10 -121h207l20 86q127 -102 309 -102q149 0 310 57q-9 69 -24 126.5t-18 71t-10.5 18.5t-19.5 17h-2v2q-14 -2 -29.5 -6t-33.5 -7q-68 -11 -97 -11h-43q-106 0 -185 60.5t-102 160.5h609q45 0 76 10q61 20 61 115 q0 70 -23 141.5t-69.5 143t-110.5 125.5q-139 114 -308.5 114t-291.5 -100q-23 58 -36 73q-29 33 -86.5 33t-87 -40t-29.5 -99q-36 63 -125 101q-72 30 -175.5 30t-194.5 -49t-156 -131q-132 -168 -132 -395zM324 551q0 113 56 195q64 96 169 96q112 0 176 -86 q55 -74 55 -195q0 -193 -123 -269q-43 -26 -103 -26t-104 24.5t-72 64.5q-54 77 -54 196zM1090 668q4 84 65 145q64 64 148 64q135 0 187 -147q15 -42 21 -85l-2 2h-411z" />
<glyph unicode="&#xe7;" horiz-adv-x="1009" d="M25 543q0 -197 115 -349q118 -157 309 -196q-12 -14 -32 -36.5t-39 -48.5q-44 -63 -44 -95.5t27.5 -58t54.5 -25.5q55 0 84 37l159 215q119 11 175 40q114 60 114 154q0 53 -41 94t-96 41q-20 0 -47 -8t-58 -17q-81 -24 -131 -24t-94.5 25.5t-74.5 65.5q-62 81 -62 194 q0 115 64 193q67 83 191 83q70 0 263 -69l84 266q-92 35 -177 60.5t-195.5 25.5t-213 -43t-176.5 -120q-159 -164 -159 -404z" />
<glyph unicode="&#xe8;" horiz-adv-x="1114" d="M-2 551q0 -254 170 -413q166 -156 420 -156q154 0 291 55l-43 242q-160 -35 -244 -35t-160 59t-98 158h598q72 0 109.5 25.5t37.5 117.5t-43 187.5t-114.5 167t-168 113.5t-208 42t-213 -44t-176.5 -120q-158 -162 -158 -399zM248 1439q0 -86 76 -116q16 -22 163.5 -73.5 t167 -56.5t55 -5t68.5 32.5t33 73.5q0 87 -72 113q-20 27 -260 109q-86 30 -125 30t-72.5 -32.5t-33.5 -74.5zM334 639q22 162 126 214q38 19 87 19t86 -20.5t63 -53.5q54 -69 58 -159h-420z" />
<glyph unicode="&#xe9;" horiz-adv-x="1099" d="M-10 551q0 -254 170 -413q166 -156 420 -156q155 0 290 55l-43 242q-160 -35 -223 -35q-104 0 -180 59t-98 158h598q72 0 109.5 25.5t37.5 117.5t-43 187.5t-114.5 167t-168 113.5t-208 42t-213 -44t-176.5 -120q-158 -162 -158 -399zM246 1291q0 -42 34.5 -74.5 t71.5 -32.5t53.5 6t44 15t62.5 21.5t74 28t72 29.5q76 33 79 41q72 26 72 113q0 41 -34 73.5t-69 32.5t-52 -5t-44.5 -13t-62.5 -21.5t-74 -28t-71 -28.5q-76 -32 -83 -41q-31 -12 -52 -43t-21 -73zM326 639q22 161 126 214q37 19 86.5 19t86.5 -20.5t63 -53.5 q53 -67 57 -159h-419z" />
<glyph unicode="&#xea;" horiz-adv-x="1169" d="M23 551q0 -253 169 -413q166 -156 420 -156q154 0 291 55l-43 242q-160 -35 -223 -35q-104 0 -180 59t-99 158h598q72 0 110 25.5t38 117.5t-43 187.5t-115 167t-168 113.5t-207.5 42t-213 -44t-176.5 -120q-158 -160 -158 -399zM172 1294q0 -41 33 -75.5t66.5 -34.5 t71.5 13t79 29.5t78 34t57 25.5q200 -100 257.5 -100t92.5 33.5t35 75.5q0 84 -74 114l-250 98q-40 17 -61 17q-16 0 -30.5 -5.5t-30.5 -11.5l-254 -102q-31 -12 -50.5 -41t-19.5 -70zM358 639q22 162 126 214q38 19 87 19t86 -20.5t63 -53.5q54 -69 58 -159h-420z" />
<glyph unicode="&#xeb;" horiz-adv-x="1159" d="M20 551q0 -252 170 -413q166 -156 420 -156q154 0 291 55l-43 242q-160 -35 -223 -35q-104 0 -180 59t-99 158h598q72 0 110 25.5t38 117.5t-43 187.5t-115 167t-168 113.5t-208 42t-213 -44t-176 -120q-159 -161 -159 -399zM199 1344.5q0 -64.5 44 -108.5t108 -44 t107.5 44t43.5 106t-43.5 107.5t-105.5 45.5t-108 -43t-46 -107.5zM356 639q22 162 126 214q38 19 87 19t86 -20.5t63 -53.5q54 -69 58 -159h-420zM610 1342.5q0 -62.5 45 -106.5t108 -44t106.5 43t43.5 107.5t-44 108.5t-108 44t-107.5 -45t-43.5 -107.5z" />
<glyph unicode="&#xec;" horiz-adv-x="499" d="M-41 1439q0 -86 76 -116q17 -23 163 -74t166.5 -56t55.5 -5t68.5 32.5t33.5 73.5q0 83 -73 113q-17 23 -164.5 76t-161.5 57q-21 6 -58.5 6t-71.5 -32.5t-34 -74.5zM104 0h316v958q0 64 -46 110q-48 48 -112 48t-111 -45t-47 -113v-958z" />
<glyph unicode="&#xed;" horiz-adv-x="503" d="M-39 1291q0 -42 36 -74.5t69.5 -32.5t52 6t45 15t62.5 21.5t74 28t70 29.5q78 33 83 41q33 12 53 42t20 71t-33.5 73.5t-69.5 32.5t-52 -5t-44 -13t-63 -21.5t-73.5 -28t-71.5 -28.5q-76 -32 -82 -41q-35 -14 -55.5 -44t-20.5 -72zM102 0h316v958q0 64 -46 110 q-48 48 -112 48t-111 -45t-47 -113v-958z" />
<glyph unicode="&#xee;" horiz-adv-x="811" d="M6 1294q0 -41 34 -75.5t67.5 -34.5t71.5 13t78 29.5t78 34t58 25.5q200 -100 256.5 -100t92.5 33.5t36 75.5q0 84 -73 114l-252 98q-34 17 -55 17q-23 0 -68 -17l-252 -102q-33 -12 -52.5 -41t-19.5 -70zM254 0h315v958q0 65 -45 110q-48 48 -112 48t-111 -45t-47 -113 v-958z" />
<glyph unicode="&#xef;" horiz-adv-x="716" d="M-12 1344.5q0 -64.5 43 -108.5t107 -44t108.5 44t44.5 106t-44.5 107.5t-106.5 45.5t-107 -43t-45 -107.5zM205 0h315v958q0 65 -46 110q-47 48 -111 48t-111 -45t-47 -113v-958zM399 1342.5q0 -62.5 44 -106.5t106.5 -44t107.5 43t45 107.5t-45 108.5t-108 44 t-106.5 -45t-43.5 -107.5z" />
<glyph unicode="&#xf0;" />
<glyph unicode="&#xf1;" horiz-adv-x="1216" d="M86 -2h315v668q0 78 53.5 132t131.5 54t133 -55.5t55 -132.5v-529q0 -66 46 -110.5t95.5 -44.5t78 12t50.5 34q46 46 46 113v576q0 180 -124 291q-123 110 -302 110q-86 0 -164 -34.5t-127 -106.5q-21 145 -131 145q-100 0 -144 -100q-12 -29 -12 -62v-960zM223 1192h137 q0 60 34 90q12 10 36.5 10t63 -15t80.5 -33q112 -50 170.5 -50t96.5 26.5t61 68.5q46 81 46 190h-137q0 -60 -35 -91q-12 -10 -37.5 -10t-64.5 15.5t-80 34.5q-110 49 -166.5 49t-93.5 -23.5t-62 -61.5q-44 -70 -49 -175v-25z" />
<glyph unicode="&#xf2;" horiz-adv-x="1107" d="M-10 547q0 -234 154 -399q160 -171 393 -171q232 0 389 171q153 169 153 402q0 116 -41 219t-114 181q-156 168 -389 168q-232 0 -391 -170q-154 -166 -154 -401zM250 1439q0 -86 76 -116q16 -22 163.5 -73.5t167 -56.5t55 -5t68.5 32.5t33 73.5q0 88 -72 113 q-12 24 -260 109q-86 30 -124.5 30t-72.5 -32.5t-34 -74.5zM305 549q0 111 57 199q61 96 173 96q111 0 175 -95q56 -82 56 -201q0 -52 -13.5 -106.5t-40.5 -97.5q-63 -98 -177 -98t-175 99q-55 87 -55 204z" />
<glyph unicode="&#xf3;" horiz-adv-x="1107" d="M-10 547q0 -234 154 -399q160 -171 393 -171q232 0 389 171q153 169 153 402q0 116 -41 219t-114 181q-156 168 -389 168q-232 0 -391 -170q-154 -166 -154 -401zM256 1291q0 -42 35 -74.5t72 -32.5t53 6t43.5 15t62.5 21.5t74 28t72 29.5q72 31 80 41q71 26 71 113 q0 41 -33.5 73.5t-68.5 32.5t-52.5 -5t-45 -13t-62.5 -21.5t-74 -28t-71 -28.5q-76 -33 -82 -41q-33 -12 -53.5 -43t-20.5 -73zM305 549q0 111 57 199q61 96 173 96q111 0 175 -95q56 -82 56 -201q0 -52 -13.5 -106.5t-40.5 -97.5q-63 -98 -177 -98t-175 99q-55 87 -55 204z " />
<glyph unicode="&#xf4;" horiz-adv-x="1189" d="M31 547q0 -234 155 -399q159 -171 392 -171q232 0 388 171q154 169 154 402q0 116 -41 219t-113 181q-157 168 -391 168q-231 0 -389 -170q-155 -166 -155 -401zM190 1294q0 -41 33 -75.5t66.5 -34.5t71.5 13t79 29.5t78 34t57 25.5q200 -100 258 -100t93 33.5t35 75.5 q0 83 -74 114l-250 98q-16 6 -30.5 11.5t-31.5 5.5q-21 0 -61 -17l-254 -102q-33 -12 -51.5 -41t-18.5 -70zM346 549q0 111 56 199q62 96 173 96q112 0 177 -95q55 -82 55 -201q0 -52 -13.5 -106.5t-41.5 -97.5q-62 -98 -177 -98q-113 0 -175 99q-54 87 -54 204z" />
<glyph unicode="&#xf5;" horiz-adv-x="1185" d="M29 547q0 -234 155 -399q72 -78 172.5 -124.5t218.5 -46.5q233 0 389 171q154 169 154 402q0 116 -41 219t-113 181q-157 168 -391 168q-231 0 -389 -170q-155 -166 -155 -401zM202 1245q1 -8 1 -12h137q0 61 34 90q11 10 35.5 10t63.5 -15t81 -34q112 -49 170 -49 t96 26.5t62 68.5q46 83 46 190h-137q0 -61 -35 -90q-13 -11 -38.5 -11t-64.5 15.5t-80 33.5q-110 50 -166.5 50t-94.5 -24t-62 -62q-47 -75 -47 -175q-2 -4 -1 -12zM344 549q0 111 56 199q62 96 173 96q112 0 177 -95q55 -82 55 -201q0 -52 -13.5 -106.5t-41.5 -97.5 q-62 -98 -177 -98q-113 0 -175 99q-54 87 -54 204z" />
<glyph unicode="&#xf6;" horiz-adv-x="1173" d="M23 549q0 -238 154 -401q161 -171 392 -171q233 0 389 171q154 169 154 402q0 116 -41 219t-113 181q-157 168 -391 168q-233 0 -390 -168q-154 -165 -154 -401zM213 1352q0 -63 45 -106.5t107.5 -43.5t106.5 44.5t44 106.5t-44 107t-108.5 45t-107.5 -45t-43 -108z M338 545q0 116 56 200q65 99 175 99q111 0 175 -96q55 -84 55 -201q0 -120 -55 -205q-61 -96 -179 -96q-110 0 -173 98q-54 85 -54 201zM621 1352h2q0 -61 44 -105.5t106 -44.5t106.5 44t44.5 108q0 63 -44 107t-108 44t-107.5 -45t-43.5 -108z" />
<glyph unicode="&#xf7;" />
<glyph unicode="&#xf8;" horiz-adv-x="1228" d="M33 4l73 -61l144 159q143 -125 336 -125q231 0 393 167q156 162 156 387.5t-127 390.5q145 145 145 170.5t-13.5 42t-35.5 16.5q-45 0 -168 -154q-145 123 -338 123q-232 0 -393 -166q-156 -162 -156 -385.5t127 -394.5zM362 542q0 58 14.5 110.5t41.5 95.5 q62 96 160 95.5t155 -57.5l-342 -387q-29 85 -29 143zM446 305l347 391q28 -65 28 -136.5t-13 -124t-42 -94.5q-64 -93 -176 -93q-87 0 -144 57z" />
<glyph unicode="&#xf9;" horiz-adv-x="1103" d="M33 451q0 -242 133 -356.5t369 -114.5t367.5 114.5t131.5 358.5v503q0 66 -46 112t-95 46t-78 -12t-51 -34q-45 -45 -45 -114v-499q0 -92 -45 -145.5t-140 -53.5t-140.5 54.5t-45.5 144.5v630h-315v-634zM248 1439q0 -86 76 -116q16 -22 163.5 -73.5t167 -56.5t55 -5 t68.5 32.5t33 73.5q0 87 -72 113q-20 27 -260 109q-86 30 -125 30t-72.5 -32.5t-33.5 -74.5z" />
<glyph unicode="&#xfa;" horiz-adv-x="1103" d="M33 451q0 -242 133 -356.5t369 -114.5t367.5 114.5t131.5 358.5v503q0 66 -46 112t-95 46t-78 -12t-51 -34q-45 -45 -45 -114v-499q0 -92 -45 -145.5t-140 -53.5t-140.5 54.5t-45.5 144.5v630h-315v-634zM254 1291q0 -42 35 -74.5t72 -32.5t53 6t42.5 15t62.5 21.5t74 28 t71 29.5q75 33 81 41q72 26 72 113q0 41 -33.5 73.5t-69 32.5t-52.5 -5t-44.5 -13t-62.5 -21.5t-74 -28t-71 -28.5q-76 -33 -82 -41q-33 -12 -53.5 -43t-20.5 -73z" />
<glyph unicode="&#xfb;" horiz-adv-x="1167" d="M63 451q0 -242 133.5 -356.5t368.5 -114.5q236 0 368 114.5t132 358.5v503q0 66 -46 112t-112 46t-111.5 -45.5t-45.5 -114.5v-499q0 -92 -45.5 -145.5t-140.5 -53.5t-140 54.5t-45 144.5v630h-316v-634zM178 1294q0 -41 33 -75.5t66.5 -34.5t71.5 13t79 29.5t78 34 t57 25.5q200 -100 257.5 -100t92.5 33.5t35 75.5q0 83 -74 114l-249 98q-16 6 -30.5 11.5t-31.5 5.5q-21 0 -61 -17l-254 -102q-33 -12 -51.5 -41t-18.5 -70z" />
<glyph unicode="&#xfc;" horiz-adv-x="1163" d="M61 451q0 -242 133.5 -356.5t368.5 -114.5q236 0 368 114.5t132 358.5v503q0 66 -46 112t-112 46t-111.5 -45.5t-45.5 -114.5v-499q0 -92 -45.5 -145.5t-140.5 -53.5t-140 54.5t-45 144.5v630h-316v-634zM207 1350.5q0 -63.5 45 -107t106 -43.5t106.5 44t45.5 106.5 t-45 107.5t-109 45t-106.5 -44.5t-42.5 -108zM616 1349q0 -64 45.5 -106.5t107.5 -42.5t106.5 44.5t44.5 107.5t-44.5 107t-109 44t-107.5 -45t-43 -109z" />
<glyph unicode="&#xfd;" />
<glyph unicode="&#xfe;" />
<glyph unicode="&#xff;" horiz-adv-x="1009" d="M-12 981l354 -909q-4 -8 -24.5 -53.5t-45.5 -99.5q-64 -142 -71 -177q-23 -55 -23 -104t48 -89.5t106 -40.5q104 0 151 119q30 22 242 569q175 450 236 660q26 65 26 120t-47 97.5t-109.5 42.5t-98.5 -38t-52 -91l-178 -538l-230 649zM143 1344.5q0 -64.5 43 -108.5 t107.5 -44t108.5 44t44 106t-44 107.5t-106 45.5t-107.5 -43t-45.5 -107.5zM555 1342.5q0 -62.5 44 -106.5t106.5 -44t107.5 43t45 107.5t-45 108.5t-108 44t-106.5 -45t-43.5 -107.5z" />
<glyph unicode="&#x152;" horiz-adv-x="2021" d="M-4 723q0 -147 53 -283.5t146.5 -239t223.5 -164t283 -61.5q194 0 346 102q50 34 87 79q8 -29 12 -55q9 -56 16 -60q8 -41 78 -41l571 -4q59 0 102.5 42t43.5 101t-42 101.5t-101 42.5h-404v307h344q59 0 101 42t42 101t-40.5 101.5t-102.5 42.5h-344v309h451v284l-74 5 h-541q-92 0 -106 -102q-4 -30 -4 -60q-142 188 -422 188q-365 0 -565 -285q-154 -218 -154 -493zM326 737q0 195 89 329q102 153 290 153q186 0 290 -150q95 -137 95 -326q0 -198 -90 -327q-102 -150 -289 -150q-184 0 -292 148q-93 126 -93 323z" />
<glyph unicode="&#x153;" horiz-adv-x="1916" d="M10 551q0 -239 150 -401q156 -170 389 -170t379 170q150 -170 401 -170q199 0 334 53l-53 229q-4 8 -4 17v2q-14 -2 -30.5 -7.5t-46.5 -13.5q-101 -27 -167 -27q-111 0 -180.5 62.5t-89.5 167.5h608q68 0 103.5 26.5t35.5 103.5t-28.5 159t-78 150.5t-114.5 115.5 q-140 100 -318 100q-121 0 -206.5 -44t-165.5 -126q-157 170 -373 170q-233 0 -390 -168q-155 -166 -155 -399zM324 543q0 116 54 201q65 102 171 102q112 0 176 -90q55 -78 55 -198q0 -54 -12 -108.5t-39 -98.5q-61 -99 -176 -99q-110 0 -174 93q-55 80 -55 198zM1092 641 q21 154 122 211q37 20 85 20t87 -19t67 -51q56 -64 56 -161h-417z" />
<glyph unicode="&#x178;" horiz-adv-x="1236" d="M0 1305q0 -4 5 -11.5t7 -11.5l428 -590v-545q0 -68 47.5 -116.5t116 -48.5t116.5 49t48 116v545l397 545q31 44 31 83.5t-12.5 68t-33.5 51.5q-48 49 -102 49q-105 0 -155 -80l-291 -428l-348 518zM246 1717q0 -65 44 -108.5t108 -43.5t107.5 45t43.5 107t-43.5 106.5 t-105.5 44.5t-108 -43t-46 -108zM657 1716.5q0 -61.5 45.5 -106.5t108 -45t106.5 42.5t44 107t-44.5 109t-108.5 44.5t-107.5 -45t-43.5 -106.5z" />
<glyph unicode="&#x2c6;" horiz-adv-x="737" d="M-29 1294q0 -41 33 -75.5t66.5 -34.5t71.5 13t79 29.5t78 34t57 25.5q200 -100 258 -100t92.5 33.5t34.5 75.5q0 82 -73 114l-250 98q-16 6 -30.5 11.5t-31.5 5.5q-21 0 -61 -17l-254 -102q-33 -12 -51.5 -41t-18.5 -70z" />
<glyph unicode="&#x2dc;" horiz-adv-x="770" d="M10 1171h137q0 59 35 91q11 10 35.5 10t63 -15.5t80.5 -34.5q110 -48 169.5 -48t97.5 26.5t62 68.5q45 81 45 189h-137q0 -61 -35 -90q-12 -10 -37.5 -10t-64.5 15.5t-80 33.5q-112 49 -167.5 49t-92.5 -23.5t-61 -61.5q-45 -70 -50 -175v-25z" />
<glyph unicode="&#x2000;" horiz-adv-x="964" />
<glyph unicode="&#x2001;" horiz-adv-x="1929" />
<glyph unicode="&#x2002;" horiz-adv-x="964" />
<glyph unicode="&#x2003;" horiz-adv-x="1929" />
<glyph unicode="&#x2004;" horiz-adv-x="643" />
<glyph unicode="&#x2005;" horiz-adv-x="482" />
<glyph unicode="&#x2006;" horiz-adv-x="321" />
<glyph unicode="&#x2007;" horiz-adv-x="321" />
<glyph unicode="&#x2008;" horiz-adv-x="241" />
<glyph unicode="&#x2009;" horiz-adv-x="385" />
<glyph unicode="&#x200a;" horiz-adv-x="107" />
<glyph unicode="&#x2010;" horiz-adv-x="829" d="M26 590q15 -57 43.5 -77.5t47.5 -20.5h596l-2 264h-523q-45 0 -83 -20q-103 -55 -79 -146z" />
<glyph unicode="&#x2011;" horiz-adv-x="829" d="M26 590q15 -57 43.5 -77.5t47.5 -20.5h596l-2 264h-523q-45 0 -83 -20q-103 -55 -79 -146z" />
<glyph unicode="&#x2012;" horiz-adv-x="829" d="M26 590q15 -57 43.5 -77.5t47.5 -20.5h596l-2 264h-523q-45 0 -83 -20q-103 -55 -79 -146z" />
<glyph unicode="&#x2013;" horiz-adv-x="1189" d="M68 715q0 -47 30.5 -87t81.5 -40h897l2 252h-899q-49 0 -80.5 -39t-31.5 -86z" />
<glyph unicode="&#x2014;" horiz-adv-x="1150" d="M59 457l992 2l-2 295h-990v-297z" />
<glyph unicode="&#x2018;" horiz-adv-x="495" d="M-2 1055l281 -131l188 428q14 29 14 77.5t-42 94t-94 45.5t-91 -24.5t-57 -65.5z" />
<glyph unicode="&#x2019;" horiz-adv-x="491" d="M-4 1044q0 -50 42 -95.5t94 -45.5t91 24.5t58 63.5l198 426l-280 131l-191 -430q-12 -24 -12 -74z" />
<glyph unicode="&#x201a;" horiz-adv-x="499" d="M0 -189q0 -46 42 -91.5t94 -45.5q108 0 149 88q14 7 89 180t91 213t18 44l-245 135l-24 -45q-128 -240 -135 -256t-20.5 -45t-26.5 -60q-32 -71 -32 -117z" />
<glyph unicode="&#x201c;" horiz-adv-x="964" d="M-2 1034l278 -131l218 477q14 35 14 81t-42 91t-95.5 45t-92 -24.5t-55.5 -63.5zM426 1034l281 -131l217 477q12 31 12 79t-41 93t-94 45t-93 -24.5t-57 -63.5z" />
<glyph unicode="&#x201d;" horiz-adv-x="958" d="M-6 1041.5q0 -47.5 42 -93t94 -45.5t91 24.5t58 63.5l225 475l-281 131l-217 -479q-12 -29 -12 -76.5zM422 1039.5q0 -45.5 43 -91t95 -45.5q108 0 149 88l223 475l-279 131l-217 -479q-14 -33 -14 -78.5z" />
<glyph unicode="&#x201e;" horiz-adv-x="966" d="M-2 -187.5q0 -47.5 42 -93t94 -45.5t91 25t58 63l225 476l-281 131l-217 -480q-12 -29 -12 -76.5zM426 -189.5q0 -45.5 43 -91t95 -45.5q108 0 149 88l223 476l-279 131l-217 -480q-14 -33 -14 -78.5z" />
<glyph unicode="&#x2022;" horiz-adv-x="704" d="M20 737q0 -116 84 -201q84 -83 201 -83q116 0 201 83q84 83 84 200q0 58 -22.5 110.5t-61.5 91.5q-84 84 -201 84q-118 0 -201 -84q-84 -86 -84 -201z" />
<glyph unicode="&#x2026;" horiz-adv-x="1478" d="M57 142q0 -69 49.5 -118t118 -49t117.5 49.5t49 118.5h-2q0 68 -48 117t-117 49t-118 -49t-49 -118zM549 142q0 -69 48 -118t118 -49t118 49t48 118t-48.5 118t-117.5 49q-70 0 -118 -49t-48 -118zM1038 142q0 -69 49.5 -118t118 -49t117.5 49t49 118t-49 118t-118 49 t-118 -49t-49 -118z" />
<glyph unicode="&#x202f;" horiz-adv-x="385" />
<glyph unicode="&#x2039;" horiz-adv-x="589" d="M49 481q0 -9 13 -25q20 -26 26 -38l195 -268q44 -64 103.5 -64t97.5 37t38 77q0 55 -43 111l-174 236l178 231q39 56 39 102t-34 83.5t-77 37.5q-79 0 -130 -67l-228 -291q-4 -4 -4 -80v-82z" />
<glyph unicode="&#x203a;" horiz-adv-x="557" d="M41 205q0 -45 36 -82t79 -37q78 0 127 68l209 290q4 4 4 80v82q0 10 -16.5 34t-20.5 30l-178 268q-34 61 -119 61q-43 0 -81 -35.5t-38 -75.5t12.5 -64.5t28.5 -47.5l174 -233l-176 -234q-41 -59 -41 -104z" />
<glyph unicode="&#x205f;" horiz-adv-x="482" />
<glyph unicode="&#x2122;" horiz-adv-x="1527" d="M51 1415q0 -49 45 -59q12 -6 76 -6l74 2v-600h135v600l74 -2q63 0 78 5q42 14 42 58q0 25 -17 43.5t-44 18.5h-401q-25 0 -43.5 -17.5t-18.5 -42.5zM545 756l133 -11l80 531l157 -539h140l157 539l78 -531l135 11l-108 653q-6 33 -31.5 54.5t-60.5 21.5q-72 0 -95 -74 l-147 -496l-145 496q-22 74 -93 74q-35 0 -62.5 -21.5t-31.5 -56.5l-106 -629v-22z" />
<glyph unicode="&#xe000;" horiz-adv-x="1126" d="M0 0v1126h1126v-1126h-1126z" />
</font>
</defs>
</svg>
