<?xml version="1.0" standalone="no"?>
<!DOCTYPE svg PUBLIC "-//W3C//DTD SVG 1.1//EN" "http://www.w3.org/Graphics/SVG/1.1/DTD/svg11.dtd" >
<svg xmlns="http://www.w3.org/2000/svg">
<metadata></metadata>
<defs>
<font id="HomemadeAppleRegular" horiz-adv-x="1826" >
<font-face units-per-em="2048" ascent="1638" descent="-410" />
<missing-glyph horiz-adv-x="716" />
<glyph horiz-adv-x="0" />
<glyph horiz-adv-x="2048" />
<glyph unicode=" "  horiz-adv-x="716" />
<glyph unicode="&#x09;" horiz-adv-x="716" />
<glyph unicode="&#xa0;" horiz-adv-x="716" />
<glyph unicode="!" horiz-adv-x="842" d="M82 114q2 26 15 40t25 32l-6 8q0 16 4 22t9 29t28 38t50 14t49 -18t26 -47q11 -18 -6 -46q6 -6 22 -14l-28 -26l10 -10q-56 -65 -84 -75.5t-48 -4.5q-26 -4 -47 14t-19 44zM288 632q44 22 44 89q0 100 26 117q33 22 50.5 65t29.5 86t23 85t25 72l44 44l-14 12 q20 28 32 59t24 61q29 74 78 106q-24 104 65 218q25 32 49 66q-10 40 16 66q12 -2 24 2t24 6q26 4 31 -21t0 -49t-11 -49q-17 -70 -12 -101l-32 -42l14 -10q-28 -12 -37 -40t-13 -58t-13 -57t-39 -39q-4 -48 -24 -92t-35 -72t-24 -41t-15 -30t-11 -35t-15 -40t-24 -43 t-22 -37t-12 -28t-16 -35t-29 -56t-21 -75q-28 -24 -43 -56t-28 -64q-32 -79 -65 -104q-27 14 -32.5 42t-6.5 46t-5 32z" />
<glyph unicode="&#x22;" horiz-adv-x="548" d="M174 966q12 38 25 94t29 113q38 136 80 185l60 10q22 -6 27 -26t15 -36q-21 -30 -47 -101q-47 -132 -43 -167q-10 -20 -9 -43t1 -45q0 -55 -44 -74q-20 7 -30 4.5t-17 1.5t-11 8t-8 6q-8 41 4 66q-11 -3 -32 4zM444 908l4 62h28q4 12 -5 28t-3 29t8 24t9 37 q27 100 51 148q-19 58 26 96l6 6l20 -6q-4 18 2 25t26 13l26 -20q-14 -24 31 -69q11 -11 17 -19q4 -22 -8 -28t-24 -10t-13 -5t-5 -1q-16 -46 -24 -93t-20 -93q-28 -108 -94 -174l-32 -8q-26 26 -26 58z" />
<glyph unicode="#" horiz-adv-x="1354" d="M2 222q8 28 26 49t38 41t20 50q22 40 49 73t45 73h-2l-24 -24l-10 24q-6 12 -22 4t-34 -12t-32 7t-14 61q48 34 106 45t114 17q44 64 95 123t83 131q-44 10 -80 -12q-16 18 -41 22t-53 8t-56 13t-48 39h-48q-12 34 -1 47t31 35q48 -12 138.5 -12t141.5 -18q33 17 50 4 q6 4 19 2t17 -8q52 60 84 130t55 125t42 92t39 87h16l4 12q8 20 12 28q43 25 60 -36l6 -6q-26 -107 -53 -167.5t-37 -84.5t-21 -51q-27 -66 -27 -79q-4 -4 -12 -23t-16 -27q42 -6 81 5t81 5q74 83 178 264q79 135 99 157q20 25 35 49q14 -6 22 -2q20 0 32 -5t18 -25 q-26 -76 -64 -146t-66 -122q-42 -78 -78 -146q28 -7 69 0.5t63 7.5t48 -10q37 16 50 0q56 14 113 12t111 -2h2q36 0 59 -25t45 -51q-6 -4 -22 -21t-31 -17t-39 6q10 10 4 16q-325 -9 -550 -42q-20 -48 -53 -89t-49 -89q114 -16 228 -12l12 14q43 -10 97.5 0t84.5 10t66 -18 v-48q-60 -21 -153 -26.5t-140 -10.5t-89 -23h-48q-34 4 -43 -3t-25 -35l-18 26q-42 -12 -46 -12q-22 -14 -40 -46q-35 -63 -62 -82q-18 -42 -52 -90q-62 -87 -72 -124q-24 -6 -35 -38q-22 -62 -72 -48q-48 14 -50 61q-1 31 19 51v2q64 64 106 143t90 155q-30 -8 -67 -12 t-73 -12q-88 -19 -116 -70q-4 -6 -6 -8q-46 -42 -73 -91t-54 -96t-65 -86t-106 -57q-24 46 -16 74zM474 692h28q104 0 116 8q69 4 102 133q8 31 20 53h-32q-38 0 -75 -1t-53 -41q0 -2 -18 -21t-40 -56t-48 -75z" />
<glyph unicode="$" horiz-adv-x="1134" d="M82 986q0 64 82 105l42 21h2l2 2q58 18 121 31t115 47l26 -20q22 30 47 36t59 16q16 40 42 77t51 75q61 93 61 156q29 43 68 50q22 0 30 -8t22 -16q0 -27 46 -69q12 -11 18 -17q-13 -24 -27 -34l-26 -20q-33 -25 -34 -35q-3 -26 -5 -37l-32 28q-24 -29 -44 -77 q-38 -91 -64 -119q0 -23 -17 -50q-31 -48 -31 -74q-6 -14 -19 -33t-22 -39q-22 -50 -3 -72h61q31 0 59 -16q42 52 75 110t76 135q106 190 241 325q10 -10 26 -27t32 -17l18 18l36 -16q0 -42 -38 -66q-16 -10 -32 -19t-25 -20t-15 -24t-16 -30q-16 -27 -53 -79t-77 -115 t-50 -117v-4q-19 -9 -66 -104q6 -10 21 -14t32 -9q42 -12 45 -53q24 -14 28 -38t22 -42q-27 -106 -100 -192q-81 -95 -184 -106q-4 8 -7 15t-7 15q-25 -55 -44 -82q0 -26 -17 -56q-30 -53 -17 -72q22 12 42 24l40 24l40 -38q-26 -24 -50 -58t-52 -61q-66 -64 -136 -37 q-30 42 -25 78t20 69t27 67t0 74q57 39 72 111q6 29 11 60t23 65q0 32 20 68t34 69t10 56t-54 27q-27 -8 -65.5 4t-44.5 10q-4 -2 -4 -16v-18q-12 -10 -22 -22q0 -46 -24 -78q-19 -142 -48.5 -207t-50.5 -111t-25 -94l12 6l26 -34q-22 -22 -39 -47t-35 -40q-40 -33 -100 27 q29 153 74 250q-42 34 -51 88t-9 102l10 6v36q62 7 77 -18q8 -14 13 -80q13 26 19 68q9 76 27 108q4 28 21 47t17 47q-42 31 -114 39.5t-117 21.5t-65 35t-24 28q-12 18 -14 20zM252 1004q52 -26 146 -26h12q4 -4 11 -12t13 -12q10 20 18 42t30 34q0 13 -6 16.5t-26 0.5 t-44 -8q-62 -13 -80 -13q-16 -12 -41 -13t-33 -9zM702 438l8 8q-2 0 -2 1t-2 1q0 -2 -4 -10zM716 478q16 20 43 43t52 49q61 63 47 114q-14 10 -27 22t-27 24q-28 -60 -45 -125t-43 -127z" />
<glyph unicode="%" horiz-adv-x="1808" d="M164 1128.5q0 37.5 11 70.5t25 62q38 79 38 97v40h22q14 26 102 162q22 -6 27 1t12 17q21 29 37 34q20 42 56 61t74 31t73 23t55 39l24 -12l28 16l14 -10q37 37 96 -30q14 -16 24 -26q-16 -16 -22 -16q6 -12 12 -22t11 -30t-1 -49t-14 -56t-15 -49q-13 -40 24 -44 q19 -2 29 -6q20 -16 39 -34t41 -36l10 8q43 -29 86.5 -30.5t71.5 0.5t56 2q21 -14 34.5 -11t28.5 8q36 12 59 -4q38 -29 42 -63q2 -4 2 -31t-25 -52t-59 -49t-67 -53t-47 -79l-10 -36q-12 18 -24 24q-40 -36 -70 -81l-60 -90q-80 -119 -136 -165q-14 -40 -37 -79t-41 -75 l-162 -318q10 -20 1 -31q-5 -7 -20 -31t-36 -20t-47 0l-36 -6q8 25 6 31.5t-5 14.5t-7 20l18 20v2q-13 19 -0.5 38.5t19.5 29.5t11 20q-6 24 -6 41t14 39t30 41t27 35t5 32v10q4 17 72 108.5t76 99.5v48h30l-6 16q18 5 94 118q-12 10 -22 22l32 12q28 8 39 25t24 41 q22 41 65 76q18 18 18 50q12 8 18 10q10 12 28 25t37 27q46 34 49 56l2 2q0 6 -8 18q-125 -18 -280 70q-20 11 -34 16q-8 30 -18 46q-42 -34 -56 -73t-14 -91q-118 -118 -176 -218l-16 18q-93 -81 -230 -72q-20 2 -58 11t-50 23t-19 45t-10 42t-25 23q-10 23 -10 60.5z M306 1154q6 -10 11 -28t11 -36q15 -46 34 -46q48 48 128 48q8 8 22 15t26 15q29 19 20 44l-12 24q54 7 68 22.5t22 33.5t22 44q-12 42 5 76t34 65t20 59t-35 56l22 22q2 2 2 7v7q0 37 -47 35q-45 -2 -65 -27q-4 -6 -9 -13t-14 -18t-26 -23t-41 -30t-51 -46t-25 -74 q-61 -37 -85 -102q-11 -30 -18 -62t-19 -68zM1110 370l12 22q-14 25 3 53q3 5 3 11l-4 10q30 60 120 137t166 121q0 22 19 43t41 13q22 24 49 23t55 -5q-6 -12 -6 -18q12 -4 24 0t25 6q32 5 53 -30q0 -22 12 -43t25 -44q33 -58 11 -113q0 -28 -7 -39t-17 -33q0 -85 -66 -139 q-28 -23 -61 -45t-63 -60l-26 22l-8 -4l-4 -8l6 -18q-22 -4 -30 -5t-26 9q-4 -8 -9 -15t-9 -17q-4 10 -9 17t-9 15v-2q-10 -10 -24 -20t-26 6q-25 -17 -50 8v-2l-22 -36l-14 38q-16 2 -25 1t-25 3v22l-2 -4q-28 0 -39 13t-17 32t-10 40t-16 35zM1252 382q14 -4 21 -12 t17 -18q32 20 74 -6l2 2q48 16 85 28t75 38q-11 33 6.5 48.5t26.5 22.5t9 13l-2 102q-16 8 -23 15t-7 27q-72 -18 -126 -72q-19 -5 -26.5 -14.5t-13.5 -18.5q-16 -25 -36 -33q0 -37 -25 -59l-39 -33q-14 -12 -18 -30zM1340 1328h2v-2zM1478 262h6l2 2v2z" />
<glyph unicode="&#x26;" horiz-adv-x="882" d="M42 812q11 142 32.5 182t48.5 67t61 49l78 52q42 -17 64 -12.5t44 -9.5t50 -18q4 -34 23 -61t25 -61q14 -18 14 -47t-8 -49l8 -10q26 30 39 64l26 68t33 64t62 50q38 -22 45 -67q7 -46 -19 -85l-6 -4v-20q-6 -10 -11 -19t-15 -24q-39 -59 -16 -91l-26 -36 q-39 -47 -57.5 -73.5t-8.5 -60.5q-40 -18 -49 -50t-23 -68q26 -10 40 -21t24 -17q20 -12 58 20q12 -24 20 -32q6 0 18 10t26 17q36 18 60 -23q15 -9 31.5 8.5t28.5 22.5t40 9q10 -26 8 -43t-15 -28t-18 -14t-5 -5l-14 -24l-16 16q-28 -16 -57 -20t-55 -18q-17 10 -44 0 q-37 -13 -74 -10h-16l-6 2l-10 -22l-20 10q-18 10 -39 -13t-46 -42t-56 -18t-69 59q18 21 18 58q-34 24 -70 47t-52 63q-118 82 -104 278zM150 764q8 -66 52 -112t96 -84l6 4l-16 14q4 4 20 12t16 19t-4 21t-9 19q-13 23 -3 45l-8 8q9 45 30.5 57.5t21.5 22.5t-8 16t-18 14 q-29 23 -34 36l-8 16q14 10 28 27t32 21v64q-4 6 -11 11t-11 11l-18 -18l-14 8q-18 6 -45 -18t-33 -26q-31 -31 -39.5 -72.5t-12.5 -66.5t-10 -49z" />
<glyph unicode="'" horiz-adv-x="298" d="M174 916l4 62h28q4 12 -5 27t-3 29t8 25t9 37q27 101 51 146q-22 55 26 96q2 2 3 4t3 4l20 -6q-8 18 0 25t26 13l28 -20q-10 -17 5 -37.5t25 -31.5t16 -19q6 -22 -6 -28q-32 -16 -42 -16q-16 -46 -24 -93t-20 -94q-28 -111 -94 -173l-32 -8q-26 26 -26 58z" />
<glyph unicode="(" horiz-adv-x="1110" d="M40 608.5q0 30.5 14 67.5q0 38 40 68q8 6 8 16l-8 28l54 54q7 7 17.5 33.5t16.5 40.5t15 38q31 82 81 132q12 40 34 62t45 41t42 41t25 62q49 17 90 74q16 22 33 46t45 44q12 29 33 41.5t32 19.5t17 21q47 11 123.5 70.5t116.5 92.5t62 51h2q16 10 31 12t28 5q33 8 49 43 l16 -14q20 12 53 12h55q6 -52 -2 -81t-44 -67q-35 13 -54.5 5.5t-36.5 -20.5t-31 -28t-28 -27q-65 -32 -100 -64q-66 -59 -128 -88q-4 -28 -20 -39t-47 -24t-57 -42t-48 -61t-46 -64t-56 -52t-51 -56t-35 -68q-26 -4 -38 -26t-22 -50q-29 -83 -60 -108q-12 -40 -32 -76 t-33 -71t-27 -54q-32 -43 -32 -56.5t20 -46.5q-18 -15 -18 -30l2 -36q4 -6 10 -19t13 -25q19 -32 23 -32h10q10 -10 19 -23t30 -38t51 -55t92 -42q16 -28 45 -33t55 5q7 -21 10 -24q14 6 22 12t16 8q12 3 42 -12l-4 -14l4 -4q20 8 37 7t37 -1l2 -2l18 12q36 -18 90 -20 t82 -6t54 -20q32 21 106 12q16 -2 26 4l14 -14l22 22l38 -38q-25 -46 -69 -49q-17 -1 -30 -2t-17 -13q-2 -2 -2 -3t-2 -3q-22 -34 -43 -36t-44 12t-29 16t-16 -14l-22 -34q-4 8 -8 15t-8 17q-10 -10 -22 -10t-22 10q-20 0 -48 16t-40 18t-22 -12l-18 -28l-18 28v2l-6 -2 q-28 -16 -50 6q-19 -6 -49.5 0t-45.5 6t-29 -14q-28 18 -76 29t-71 20t-41 31q-22 -4 -38 10t-26 14q-75 35 -156 201q-20 41 -32 71l8 8q-8 12 -6 37t-5 58t-7 63.5z" />
<glyph unicode=")" horiz-adv-x="1024" d="M-512 -56l63 2q50 0 63 -8q8 16 12 26q20 -12 29 -19t16 -9t18 -2h33v18q38 -8 86 -17t88 7l-14 14q10 2 28 8t37 11q49 13 67 13v2q36 36 54 22q28 25 72 42q82 33 96 56l26 42l24 -22q12 8 30 16q28 32 63 56t55 64q42 22 64 55t58 59q0 38 32 50q-4 10 -6 21t-6 23 q12 0 23 -1t23 -1l-12 6l40 38q18 18 34 55t44 65q-4 20 -2 38t2 36l8 -4q0 32 6 58t6 32l16 -16t18 -16q9 22 0 66q23 16 24.5 21t2.5 12t5 21q-5 19 1.5 54.5t4.5 35.5l-26 20q8 20 15 34t7 33t-4 29t-8 22q-4 40 -1 71t-2 48t-8 28t-2 13t-3 6l-34 30q15 10 24 22 q-18 36 -24 80t-18 108t-30 137t-74 143l10 20v4l-4 2q-24 20 -34 29t-16 43q-14 22 -36 41t-40 35q12 4 24 10l24 12v16t2 16q53 20 88 -18q22 2 32 -3t26 -21l2 -4h30q6 -24 6 -30q12 -14 19 -21t12 -15q7 -11 11 -46l-6 -4q23 -63 60 -120q6 -40 26 -76t32 -76h20 q-17 -67 -3.5 -122.5t18.5 -91.5t16 -77q28 -105 19 -177q12 -27 12 -95l-2 -97q-22 -22 -26 -44t-4 -52l2 -2q0 -66 -26 -113t-41 -75t-23 -66q-18 -16 -39 -53t-35 -61h4l28 -62l-34 -34l-20 8t-20 12q-58 -92 -116 -134q-2 -30 -25 -52t-55 -24q0 -18 10 -38 q-16 -4 -29 -10t-29 -2l-48 -38l-6 -40q-20 10 -44 10q-4 -4 -5 -8t-8 -17t-26 -27t-32 -17t-19 -2t-18 -6t-30 -23t-34 -28q-16 8 -24 14q-10 -22 -34 -36t-50 -12q-28 -16 -42 -17t-34 -25q-12 -4 -26 -4h-26v-22q-24 -6 -38 -6h-23q-9 0 -18 1q-47 5 -51 1t-6 -7t-6 -7 l-124 6q-24 -24 -60 -6l-4 -6q-24 12 -43 14t-43 8l-6 -10q-4 4 -7 8t-7 8q-46 14 -55 40t-17 68z" />
<glyph unicode="*" horiz-adv-x="790" d="M168 928q-21 84 42 104q22 8 41 14t44 16t52 23t57 25q-24 14 -42 32q-6 24 -25 37t-37 23q-46 25 -24 72q-16 -4 -26 8t-18 22q57 63 110 20q35 -31 91.5 -68.5t84.5 -59.5q26 68 80 128t116 84q10 -18 20 -32t10 -36l-24 -4l4 -96q-27 7 -52 -38q130 31 220 -12 q-4 -20 -7 -36t-19 -32l-20 14l-64 -72q-19 32 -96 -4q58 -40 101 -103t53 -127q-22 -4 -37 -11t-37 -3l2 26l-94 14q17 39 -77 96q-23 14 -39 28q-12 -26 -20 -50t-26 -54q-24 -10 -32 -32t-14 -42q-14 -47 -64 -38q8 -20 -22 -50q-71 41 -42 102q10 20 19 39t17 37 q16 36 28 68q-18 -6 -26 -8q-24 8 -45 -1t-40 -19t-37 -10t-36 28q-4 -16 -20 -18t-30 -4z" />
<glyph unicode="+" horiz-adv-x="740" d="M-40 572q-5 84 58 94q22 4 43 7t53 10t77 18t91 17q8 24 15 46t17 44q-25 61 22 112q2 4 3 5t3 5l22 -6q-6 20 1 27t27 17l32 -22q-14 -24 38 -76q12 -12 18 -20q6 -22 -7 -30q-36 -22 -45 -22q-4 -16 -7 -33t-7 -33q113 38 238 -2q38 -12 68 -32q-10 -18 -16 -34 t-24 -30l-16 20l-76 -60q-15 37 -143 2q-29 -8 -47 -6q-4 -6 -10 -10q-29 -125 -94 -200l-36 -14q-35 35 -28 99q2 17 0 37q4 2 15 2t15 2q2 12 -7 28t-3 38l2 2q-66 -15 -84 -16q-22 12 -44 6t-43 -12t-38 -2t-31 34q-8 -14 -23 -14t-29 2z" />
<glyph unicode="," horiz-adv-x="624" d="M-306 -506q-6 34 16 56q44 0 52 18q-20 27 0 58.5t34 48.5t20 33q41 10 73 71q19 36 31 103q22 28 50 60t49 67q50 83 23 151q29 37 70 49q74 20 104 -21q10 -12 12 -22t6 -26t1 -27t-9 -19t-14 -16t-14 -22l18 -20q-50 -96 -109 -187t-99 -195q-65 -9 -144 -91 q-32 -33 -65 -66t-71 -53q-28 16 -34 50z" />
<glyph unicode="-" horiz-adv-x="678" d="M-122 572q-5 84 58 94q22 4 43 7t65 12t119 27t145 8q107 53 255 12q43 -12 75 -34q-10 -18 -16 -34t-24 -30l-16 20l-76 -60q-15 37 -143 2q-29 -8 -47 -6q-14 -25 -48 -15.5t-55 7.5t-41 -7l-40 -10t-46 -7q-22 12 -44 6t-43 -12t-38 -2t-31 34q-8 -14 -23 -14t-29 2z " />
<glyph unicode="." horiz-adv-x="552" d="M-62 46v42q6 28 33 63t56 51t53 0t26 -88q14 12 26 25t30 5q-6 -93 -26 -135.5t-46 -66.5t-59 -21t-48 15t-25 30q-20 36 -20 80z" />
<glyph unicode="/" horiz-adv-x="792" d="M-308 -34l26 16q-20 20 -6 34l24 18q-16 14 0 52q22 18 45 24t43 30q-10 4 -10 12t4 18t9 20t7 18q52 32 64 86q40 6 57 29t26 53t19 61t38 51q18 4 24 -11t14 -25q20 18 26 44t12 49t20 41t50 22q0 54 49 89q21 15 45 30t48 37q-17 23 15 65q13 17 25 35t10 40 q42 38 72 82t58 88t61 85t85 75q14 48 48 90t69 81t61 78t26 81q36 42 79 80t84 78q95 93 129 174l42 2q22 0 22 -20q-32 -32 -39 -64t-11 -63t-17 -61t-55 -56q6 -30 -12 -52t-39 -42t-38 -39t-9 -41q-209 -281 -288 -418q-70 -44 -113 -110t-82 -135t-84 -133t-119 -106 l10 -20q-56 -16 -81 -52t-43 -78t-42 -83t-74 -65q-58 -120 -143 -242t-209 -210q-20 14 -17 36t9 45t5 44t-29 33z" />
<glyph unicode="0" horiz-adv-x="1074" d="M-31 434q3 24 16 49t30 51t19 50q34 52 70 99t59 83t34 58t24 46t34 36t42 22t35 24t14 44q24 40 64 69t81 58t73 62t38 81q68 58 153 67t161 -39q26 -38 59 -72t57 -71t30 -78t-13 -80t-30 -59t-5 -52h-14q-24 -98 -115 -267q-23 -43 -41 -89l-14 14q-12 -16 -21 -40 t-20 -47q-28 -58 -59 -67l-14 14q-48 -54 -110 -94t-116 -90q-32 14 -59 5t-52 -21t-50 -17t-55 17q-18 -22 -36 -13t-36 23t-35 18t-33 -28q-18 18 -37 36t-47 8q-8 14 -20 31t-22 37q-23 46 -16 74q-26 24 -23 48zM134 414q34 -22 72 -41t68 -45q50 2 92 22t82 44t80 47 t88 31v26q41 7 68 48q12 18 23 37t22 31t13 15t3 3q3 0 13 10q48 38 71 97t38 124t31 130t46 117q-40 0 -78 54q-14 20 -28 38t-38 20q-36 -28 -64 -62t-57 -67q-68 -78 -149 -97q28 -41 -20 -70q-20 -12 -43 -25t-41 -43t-36 -55t-38 -45q-32 -32 -104 -88 q-5 -46 -40.5 -102t-53.5 -87t-20 -67z" />
<glyph unicode="1" horiz-adv-x="744" d="M10 233v55q30 12 40 34t15 48t9 52t16 41q13 17 36.5 32t44.5 50t39 75t33 81t33 69l52 36l-12 16q24 24 39 52t32 57q40 68 93 93q-10 104 94 208q28 28 56 58q-4 44 28 64q10 -4 23 -1t25 3q28 0 28 -28q0 -30 -18 -73q-34 -81 -34 -119l-36 -36l12 -12 q-30 -10 -43 -36t-22 -55t-21 -54t-42 -33q-16 -65 -92 -168q-33 -39 -46.5 -71.5t-27.5 -51.5t-30 -38t-26 -35t-17 -25t-22 -32t-35 -52t-34 -73q-43 -28 -72.5 -82t-47.5 -80t-44 -40q-26 16 -26 71z" />
<glyph unicode="2" horiz-adv-x="1234" d="M-174 276q0 22 1 44t23 32q-12 7 -12 40q24 -2 38 14t26 32t26 24t38 -8h21q31 0 31 10t-16 28q55 47 160 59q42 5 85 9t85 20q22 -22 42 -16t38 16t36 13t38 -25q24 22 50 20t52 -6t51 -1t49 37q29 0 51 41q9 17 17 34t20 27l12 -14q60 25 97 100q15 30 29 61t40 57 q10 30 27 63t32 67q35 80 29 134q-10 -2 -19 -9t-19 -12q-22 -11 -36 9q-193 -75 -242 -100q-16 12 -39 -5t-37 -23v-24q-47 -28 -128 -52q-7 -14 -34 -14l-42 2q-10 -6 -18 -17t-20 -7q5 95 120 207q30 29 58 59l24 -26q32 52 93 92t111 74q31 0 38 -12q34 13 100 -33 q16 -11 28 -19l12 12q7 -12 38 -12l26 52q8 -16 38 -16l12 16q34 -10 46 -39t30 -51q-30 -12 -27 -54q1 -16 1 -32t-12 -28q18 -10 14 -29t0 -35q-27 -18 -44 -94q-12 -52 -27 -72t-29 -33q-37 -35 -40 -67q-14 2 -26 -14v-24q-44 -3 -67 -54q-9 -20 -19 -41t-23 -29 t-20 -11t-22 -14t-29 -40t-36 -51q4 -16 22 -14t30 0q-4 -8 12 -24l-12 -14q16 -22 35 -30t41 -20q-10 -34 -3 -64t3 -64q-12 4 -21 -7t-19 -17q24 -10 27 -35t-13 -41q-52 131 -164 204q-16 -10 -34 0t-34 20t-27 13t-11 -21l2 -28q-28 -2 -51 -19t-49 -29l-12 12 q-20 -42 -53 -54t-69 -16t-69 -12t-51 -46q-21 9 -52.5 -1.5t-46.5 -9.5t-27 25q-24 -54 -61 -50q-17 2 -35 10t-36 13q-42 12 -72 -25q-44 0 -66 33q-10 15 -18 33zM-34 314l36 -12q17 58 54 51q16 -3 35 -12t37 -14q43 -12 66 37q16 -16 12 -24l14 12q8 2 22 13t28 21 q35 25 38 12v6q-43 -10 -64 24q-17 7 -27.5 -1.5t-16.5 -14.5t-26 -9t-51 -7t-62 -14q-71 -23 -95 -68zM892 1272q0 -14 12 -20q31 0 36 14q-8 4 -17 16t-20 8t-11 -18z" />
<glyph unicode="3" horiz-adv-x="1078" d="M-67 490q7 20 32 28t37 -1t23 -23t23 -28t30 -16q10 14 21 14t23 -5q37 -15 52 -9q2 -12 0 -29t14 -23q36 4 78 -5t84 -17q104 -20 152 22q14 2 30 0t32 -3q39 -2 60 15q16 24 43 39l54 30q65 36 65 95q32 16 42 44t14 45t14 33q-26 6 -44 19l-36 26q-47 34 -84 37 q-59 67 -201 31q-35 -9 -71 -5q-12 16 -22 15t-22 -7q-35 -18 -52 -8q2 20 -8 36t-21 32q-28 40 -11.5 71t46.5 38t64 5t70 -3t64 15q37 -14 83.5 2t71.5 26t51 10q2 26 18 36t34 17t32 18t10 39q-74 29 -172 3q-42 -11 -83 -25t-85 -18q-22 -20 -53 -15t-57 1l-14 -14 q-10 16 -29 30t-33 29q-35 37 8 77l-12 14q24 16 66 14t62 2t34 26q9 -14 42 -14q6 22 24 25t39 2t41 2t30 25l16 -14q20 13 14 28q36 -5 92 0q103 11 140 0q10 20 40 14q26 -26 49 -55t19 -69l-14 14q-30 -16 -28 -39t8 -47t4 -42t-38 -22q4 -47 -65 -88q-17 -10 -31 -22 l-14 16l-28 -28q14 -6 22 -20t15 -26q18 -30 45 -24q0 -28 25 -53t35 -41t8 -39t0 -49t2 -53q0 -64 -28 -89q-4 -85 -68 -170q-23 -31 -73.5 -59.5t-70.5 -44.5t-34 -40q-46 -4 -96 1q-75 8 -104 -26q-6 -7 -4 -17q-26 16 -62 16t-62 -16q-14 -14 -12 -28q-100 34 -193 73 t-175 105q-51 93 -37 134z" />
<glyph unicode="4" horiz-adv-x="1240" d="M-7 607q9 35 43 72t76 73t82 72t63 80q52 100 131 158q14 12 29 20q24 13 41 30q54 -21 19 -95q-9 -19 -9 -37q-26 -2 -38 -20t-21 -42t-19 -49t-30 -41q33 -24 82.5 -19t78.5 5t48 -9t27 -22t14 -24q14 -25 36 -3v12q8 -16 22 -13t26 1q59 41 96 130q-13 26 77 183 q35 61 69 114t50 78q41 64 92 115q0 29 12 36l11 -11q5 -5 13 -1l10 48q8 -10 20 -13l24 -6q31 -8 40 -29q-8 -22 -17 -37t-17 -30q-21 -40 -24.5 -67.5t-16.5 -44.5t-26 -35q-31 -43 -17 -72q-16 -10 -36 -22t-12 -38l14 -10q-21 -3 -79 -84q-13 -18 -23 -26q0 -24 -14 -44 t-28 -39q-34 -46 -16 -83q-14 -6 -12 -21t2 -27q12 -6 24 -17t26 -20q29 -19 56 1q30 -2 51 -12t41 -18t41 -8t51 20l72 -12q9 -25 -14 -34q-29 -12 -34 -26q-24 22 -38 19t-27 -13t-29 -17t-42 7q-49 -14 -106.5 3t-89.5 21t-66 -12q8 -26 -5 -42t-28 -28t-23 -25t8 -35 q-30 -36 -55 -77t-53 -79q-30 -150 -130 -202q-8 14 -20 25t-22 23q-26 31 -16 60q50 38 73 133q9 37 19 73t36 66q-2 24 2 47t4 44q0 49 -52 65q-18 -14 -35 -7t-33 17q-45 28 -74 2q-36 28 -62 20t-51 -28t-52 -42t-63 -22q-16 -11 -36 -39l-31 -42q-11 -15 -27 -25 q-6 13 -16 9.5t-17 -6.5t-13 -3q-22 22 -34 55t-3 68zM834 988l2 6v4q0 20 -1 7t-1 -17z" />
<glyph unicode="5" horiz-adv-x="1212" d="M-194 514q0 51 26 74q16 48 95 35q19 -3 33 -11q-4 -12 7 -21t19 -17l64 14q72 -55 170 -106q196 -104 260 -148q30 18 73 -18q48 -39 79 -34q20 36 36 77t54 63q6 40 22 85t28 90q39 148 -50 219q-56 35 -142 -26l-12 12q-34 -22 -67 -49t-73 -41l-24 28 q-16 -16 -26 -12l-14 12q24 12 13 30t-13 27t14 19l-14 12q101 75 76 178q27 -13 42 21q4 9 10 15l26 -24q-4 32 7 53t31 47q13 53 78 57q18 1 36 7q21 -12 10.5 -30t-12.5 -28t14 -18q36 10 52 26l12 -14q42 16 80 39t84 25l14 -12q3 48 61 71q23 9 48 17t42 26t40 29 t45 21q53 24 68 64q24 12 31 -7t19 -31q12 -36 -7 -62t-30 -42t-13 -36q-42 -4 -77 -25t-69 -45t-69 -45t-77 -23l-26 -28l-12 16q-20 -12 -43 -20t-46 -18q-55 -24 -75 -54q83 -41 117 -75q69 -66 73 -139q-16 -52 -13 -95t-1 -95q-6 -6 -17 -12t-19 -13q-20 -18 12 -39 q-6 -24 -23 -44t-33 -40q-38 -48 -32 -92q-29 -3 -31 -38l-2 -28t-11 -29t-32 -25t-46 -19q-63 -24 -82 -51q-11 11 -39.5 -6.5t-36.5 -19.5q-18 12 -35 9t-33 -7q-37 -9 -58 24q-18 -28 -48 -28q-63 0 -173.5 56t-184.5 72q0 30 -18 45t-41 28t-43 27t-24 42l-52 48z M-92 486l102 -116q12 -4 24 -14t26 -18q33 -19 50 -4q24 -28 42 -28t31 2t31 0q16 -10 21 -26t18 -25t35 -12t46 -2q52 2 82 15l-24 36q-10 -18 -26 -5t-26 19q-24 -26 -42 -18t-34 23t-34 24t-42 -15q-22 18 -44 37t-38 32t-27 18t-32 18t-60 38t-79 21z" />
<glyph unicode="6" horiz-adv-x="1064" d="M10 464q0 14 6 24l-6 16q0 8 3 15t6 19t6 29t7 30t7 19t7 20t12 29q23 44 28 66q8 43 32 55q6 12 11 25t12 21t13 13t11 13t6 20t10 26t23 25t22 21t16 27t17 21q15 7 23 24.5t14 23.5q6 4 14 6t12 6l-4 6q16 20 34 37t27 32t12 25q7 23 28 28q19 4 34 25l25 35 q15 19 33.5 34.5t20.5 22.5t6 14q10 17 36 23h4q32 10 53 21q58 30 75 7l32 2q27 0 30.5 -21t-17.5 -27t-34 -18t-24 -25q-18 -21 -42.5 -38t-34.5 -33t-22 -27t-23 -26t-22 -32t-25 -31h2q-18 -36 -30 -44t-18 -16t-3 -12t-4 -11t-19 -17t-20 -20q-16 -20 -28 -32t-16 -26 q-6 -8 -13 -14q-18 -16 -32 -47q-21 -50 -35 -57l2 -14q-10 -12 -24 -23t-25 -25t-22 -34q-15 -28 -23 -28q-58 -87 -52 -130q-4 -14 -14 -24q-6 -16 -6 -34l4 -4l-8 -4q0 -18 5 -34t1 -32q6 -28 25 -50t47 -26q6 -4 14 -8t13 -8t8 -9t7 -7q38 6 68 -16q10 -2 31 -1t27 -3 l100 14q10 2 18 -1t16 0t14 11t14 15q20 18 38 9l-6 10q16 10 34 2q10 4 14 12t17 17t28 16t26 16q22 18 35 31q6 10 8 12v19q0 19 5 29t7 15t-2 6t-4 5l8 4q0 24 -10 26t-14 14q-4 2 -7 1t-7 -1q-10 10 -14 13t-19 1q-30 -4 -65 -14q-10 -4 -18 -18t-36 -18 q-96 -67 -130 -146q-12 -24 -14 -31q-8 -27 -16 -31q-8 -18 -21 -15t-13 23q-10 0 -16 18t-2 24v2q-8 8 -7 14t1 16l-2 4h4q0 4 -6 10q6 12 6 27l8 33q0 10 -1 16t4 15t14 5t17 -2v6q0 46 28 64l-2 2q45 21 77.5 47.5t50.5 38.5q41 28 74 24l-2 6q8 2 16 0q93 38 148 12 q4 0 2 -3t2 -5h4q30 -19 45 -73q3 -11 9 -17q4 -10 8 -23t12 -18t15 -6t9 -10t-3 -13t-8 -16t-9 -34t-6 -40l-2 2q-4 -22 -7 -41t-12 -33t-18 -20l-18 -12q-21 -14 -21 -28q-8 -8 -29 -21t-24 -16t-2 -5q3 -5 -18 -17.5t-30 -17.5t-17 -10t-20 -16t-26 -21l-4 4 q-60 -45 -94 -43.5t-54 -2.5v-2q-8 -2 -70 -2l-106 -10q-10 -2 -18 2t-18 4q-16 -25 -44 22q-18 11 -34 18.5t-36 19.5t-39 26q-46 34 -56.5 53t-15.5 47t-8 56q-8 73 -11 76z" />
<glyph unicode="7" horiz-adv-x="886" d="M174 242q34 22 40 48t7 53t8 51t45 42v4q0 32 17 51t37 37q80 72 184 280q6 12 19 21t28 20q40 29 45 53v6q0 22 18 51t31 43t31 15t26 17q7 7 0 28l-2 2q-4 18 2 28t10 20q11 26 -14 48v2h-2q-29 3 -56.5 -13.5t-39.5 -23.5t-27 -1t-19 24q-39 -10 -56 -24 q-18 24 -42 24t-51 -6t-53 -10t-48 14q-18 -4 -22 9t-8 30t-13 34t-35 21q-6 13 6 24l19 16q7 6 11 12q12 -4 32 0t26 -10h12q33 79 103 31q45 -31 71 -31t46 22q26 -11 57 -3l49 14q18 5 46 2t69 -4t69 31q38 -3 54 -17.5t27 -24.5t27 -20q-4 -116 -64 -190 q-39 -50 -67.5 -104t-48.5 -91t-54 -67q-35 -9 -63 -60q-11 -20 -22 -37t-31 -21l-4 -4q-51 -131 -128 -194q-22 -16 -24 -43q-5 -69 -33 -66q-9 1 -17 5h-4l-26 -24q18 -8 20 -11t1 -14t-1 -19q-52 -4 -79 -44t-38 -67t-15 -37t-10 -20q-14 6 -27 9t-22 7q-19 8 -19 44z " />
<glyph unicode="8" horiz-adv-x="976" d="M-92 222q14 36 12 77t-2 80t13 73t59 56q79 0 207 93q51 37 100 76t97 63q-29 105 -14 162q-4 14 -1 31t3 33q0 38 -36 50q-14 24 -11 49t7 51t4 49t-20 45l10 -10q13 10 5.5 30t-7.5 31t12 19q0 41 25 62q31 28 79 54q26 -8 50 2t47 20t44 15t43 -13q43 6 58 -48 q10 10 16 24t20 24l22 -36q6 14 20 12t26 0q9 -24 32 -24h36q40 0 69 -84q20 -56 35 -76q35 10 47 60q5 20 9 41t13 36q20 33 65.5 15t46.5 -33t-10 -32t-20 -36t11 -41q-10 2 -22 -10q-4 -8 12 -24l10 12q2 -16 -5 -19t-17 -4q-30 -3 -34 -11v-70q-41 -28 -98.5 -87 t-88.5 -87t-67 -46q-25 -60 -117 -127q-37 -27 -75 -53t-68 -56q-69 -69 -62 -154q-33 -22 -41 -86q-3 -24 -10 -45t-31 -31q26 -40 12 -68t-28 -45t-22 -29q-10 -15 -24 -36.5t-38 -25.5t-49 -3t-49 -3t-44 -32q-6 18 -20 9t-28 -9q-18 14 -38 23t-39 18q-53 25 -71 51 q-22 10 -39 19t-31 29zM11 345q-44 -44 1 -67q67 -48 113 -44q21 2 49 10q14 -14 12 -22q39 3 64.5 28.5t40.5 42.5t33 31q0 24 10 48t18 47q19 54 -16 89q-50 -26 -94 -60t-102 -42q-36 -46 -92 -36q-20 -8 -37 -25zM416 1142q38 -6 52 -57q6 -21 11 -43t19 -38 q-5 -12 3.5 -29t8.5 -25t-12 -14q6 -12 8 -28t7 -31q12 -36 43 -33q72 64 144 126t142 126q6 28 -10 34q23 17 17 36q-10 38 3 54l-20 -20q-60 60 -207 60q-35 0 -70 -4t-81 -36t-58 -78z" />
<glyph unicode="9" horiz-adv-x="944" d="M52 790q28 34 52 72t62 68q-16 6 -13 21t1 27q10 6 21 11t20 12q19 15 9 41q34 0 63 45t63 45q46 50 96 95t82 109q-4 -16 7 -24t19 -16q12 28 28 31t32 1t30 1t24 31q38 28 82 57t96 31l50 -50l26 26q6 -16 22 -13t28 1q0 -20 6 -37t11 -34q13 -43 -5 -69l-62 -40 q18 -6 33 -23t7 -36t-18 -17t-21 7q-30 14 -41 -5q-2 -16 9 -26t5 -26q-9 5 -26 -12q0 -33 12 -40q-12 -14 -14 -34t-5 -40q-8 -52 -45 -64q-28 -80 -36 -164q-28 16 -57 10t-45 -34q26 -12 25 -28t-6 -31t-6 -30t25 -27q6 -34 -13 -59t-39 -48t-32 -49t8 -58 q-44 -12 -56 -42t-15 -65t-11 -69t-44 -54q6 -32 -6 -62t-46 -38q-2 20 -16 38t-29 37q-40 51 -31 89q32 22 35 51t2 57t5 53t46 41q3 36 23 81q38 82 41 121q4 8 13 15t17 15q19 19 10 32q-11 19 -40 14q-35 -32 -104 -52q-140 -41 -174 -60q-34 12 -67 17t-61 33 q22 22 10 31t-34 7q10 64 -38 102zM190 764q42 -53 90 -36q16 28 40 25t47 -9t41 -1t24 47q14 -4 29 -1t23 -13q95 146 226 254q8 120 104 216q-8 12 -12 23t-10 19q-13 18 -42 8q-11 5 -15.5 -8.5t-16.5 -17.5t-23 6t-21 20l-14 -24q-12 -6 -21 -21t-19 -28 q-24 -31 -60 -15q0 -6 1 -18t-1 -24q-5 -32 -26 -22q0 -30 -14 -38q-71 14 -142 -62q-30 -32 -57 -67t-53 -61q-34 -8 -38 -27t-2 -40t-2 -38t-36 -21l14 -14z" />
<glyph unicode=":" horiz-adv-x="668" d="M-36 -24q-48 68 0 140q20 30 45 60t37 66q48 10 78 -2t58 -52l-20 -46q-16 -34 -32 -67t-37 -45t-28 -14t-14 -6t-13 -13t-15 -16q-26 -20 -59 -5zM198 508q-16 40 0 81t52 67q59 43 152 -8l-8 -20q-6 -12 -7 -24t-4 -24q-7 -28 -33 -44q-12 -16 -21 -21t-13 -10t-4 -14 t8 -31h-50l2 2l-40 20l2 2q-24 12 -36 24z" />
<glyph unicode=";" horiz-adv-x="656" d="M-306 -506q-6 34 16 56q44 0 52 18q-20 27 0 58.5t34 48.5t20 33q41 10 73 71q19 36 31 103q22 28 50 60t49 67q50 83 23 151q29 37 70 49q74 20 104 -21q10 -12 12 -22t6 -26t1 -27t-9 -19t-14 -16t-14 -22l18 -20q-50 -96 -109 -187t-99 -195q-65 -9 -144 -91 q-32 -33 -65 -66t-71 -53q-28 16 -34 50zM164 508q-14 40 2 82t52 67q61 42 150 -9l-8 -20q-6 -12 -7 -24t-4 -24q-7 -29 -31 -44q-12 -16 -21 -21t-14 -10t-5 -14t8 -31h-48l2 2l-42 20l2 2q-10 6 -18 10t-18 14z" />
<glyph unicode="&#x3c;" horiz-adv-x="826" d="M46 570q-12 16 6 48q-17 48 30 70q74 30 170 80t166 60q83 71 241 75q45 1 85 -9q-2 -18 -1 -32t-13 -30l-22 10l-50 -68q-23 20 -68.5 -1t-70.5 -35t-43 -16q-3 -24 -46 -24q-53 -7 -78.5 -20.5t-42.5 -23.5t-41 -18q-10 2 -30 -2q44 -12 88 -40q137 -14 244 -105 q34 -29 54 -59q-18 -10 -31 -19t-35 -11l-6 22l-98 -12q0 31 -72 50q-30 8 -61 15t-47 17q-21 -12 -49.5 10t-49.5 30t-41 13t-41 10t-47 15z" />
<glyph unicode="=" horiz-adv-x="798" d="M-20 446q26 38 57 48t52 14t45 14l12 -28q16 4 32 18t38 14t37 3t38 6t40 7t32 6q36 5 79 2q68 49 140 20q4 -2 6 -2t6 -2v-24q22 16 34 11t28 -21l-18 -36q-33 5 -79 -62q-11 -16 -19 -26q-24 -14 -38 -4t-24 20t-12 10t-4 4q-68 -6 -123 -18t-106 -20q-122 -19 -227 18 zM112 774l4 18q16 12 27 20t31 6q-4 4 -6 13t-4 15q38 6 101 18t130 22q169 25 223 6q4 -4 18 -24t16 -22q6 -22 -9 -35t-25 -29q-40 9 -131 0q-167 -15 -201 -32h-4q-16 0 -34 -11t-38 -20q-50 -23 -84 5v16q-4 10 -9 17t-5 17z" />
<glyph unicode="&#x3e;" horiz-adv-x="764" d="M-40 400q2 18 0 33t12 31l22 -12l50 70q31 -27 139 34q25 14 43 18q5 18 41.5 22t55.5 11t36 16l34 18t41 19q18 -4 30 0q-59 21 -88 40q-77 4 -142 40q-112 61 -154 124q16 10 29 19t35 11l8 -20l96 10q0 -35 133 -65q31 -7 47 -17q22 13 51 -9.5t50 -30.5t41 -13 t41 -10t47 -15q8 -14 -6 -48q14 -52 -32 -68q-20 -10 -39 -17t-57 -26t-104 -54t-136 -45q-89 -76 -240 -76q-46 0 -84 10z" />
<glyph unicode="?" horiz-adv-x="932" d="M207 872q9 65 47 136v2q2 0 11 8q91 81 168 119.5t134 65.5t109 53t101 57q156 99 196 196q31 75 39 167q-10 16 -40 4q10 -17 0 -42q-31 -15 -58.5 -0.5t-40.5 23.5t-20 9t-10 -9t-5 -13l-40 -4q-12 18 -30 7t-26 -25l6 -8l10 -34l-36 6q-10 2 -20 0t-20 2l-10 -10 q-4 4 -8 6t-11 7t-30 0t-48 -11q-68 -16 -87.5 6t-15.5 50t10 52q16 12 37 18t41 14q48 19 66 46q32 -6 40 3t24 31l14 -16l2 2q16 4 23 -2t19 -8q238 34 304 34l16 -14l4 4q38 -6 54 -25t22 -40t8 -27t2 -12q0 -182 -126 -330q-117 -137 -298 -200q-139 -48 -196.5 -82 t-97.5 -62l-4 4q-8 -10 -14 -22t-25 -40t-42 -74t-7 -104l36 -32t32 -33q34 -41 24 -87q-24 -8 -40 -5t-34 25q-46 -6 -110 50t-49 164zM262 114q2 26 15 40t27 32l-6 8q0 16 3 22t8 29t28 38t50 14t50 -18t27 -47q12 -21 -8 -46q6 -4 12 -7t10 -7l-28 -26l12 -10 q-82 -96 -134 -80q-24 -4 -46 14t-20 44z" />
<glyph unicode="@" horiz-adv-x="1618" d="M82 578q0 32 12 62l6 90l-8 30l54 52q6 11 9 37q7 55 16 78q34 87 83 133q17 53 77 103q23 19 42 41t25 62q50 18 91 73q17 23 34 47t43 44q11 26 32.5 40t32.5 21t17 21q60 14 191 124q31 26 53 44h2q16 10 31 13t28 6q32 7 47 43l16 -16q22 14 54 14t54 -2l2 -4 q137 24 216 -30q6 10 10 2t14 -8q15 -19 58 -52q84 -71 121 -198q11 -38 11 -146t-16 -230v-2q-22 -56 -37 -113t-27 -100t-13 -70t-11 -53l-2 -2q-10 0 -15 -12t-13 -18q0 -59 -81 -125q-21 -17 -39 -35q2 -10 -11 -38t-21 -38q-92 -55 -154 -62q-16 10 -31 15t-25 21h-22 l12 18q-22 46 -28 108q-8 10 -18 22t-26 8q-24 -36 -54 -56t-46 -40t-10 -35t-4 -30t-31 -19t-43 -9t-41 -17t-31 -46q-22 14 -46 11t-48 -8q-61 -13 -88 33q-44 -17 -91 45q-19 25 -36 51t-33 40q-8 32 5 54t28 42t22 42t-13 52q20 28 38 60l36 64q43 76 86 110 q-15 21 -4.5 43.5t18.5 35.5t12 25l56 22l-10 50q28 -8 39 4t17 30t13 35t29 23q44 30 87 67t88 72q112 87 189 115q100 -24 131 -86q13 -26 13 -55t-1 -54t1 -45t20 -30q-76 -125 -70 -204q2 -52 -8 -96t-60 -76q-4 -14 -3 -30t-1 -32q-5 -41 -30 -50q18 -26 16 -61t1 -51 t21 -28q112 99 134 160q10 26 17 52t20 61t31 77t27 66q13 35 17 71.5t5 85.5t21 99v2q24 52 8 105t-29 79q-31 62 -33 72t-3 22t-5 26q-18 14 -38 27t-33 23t-18 16t-14 10t-25 6t-33 1l-34 -2t-26 -4q-12 -4 -37 -9l-16 -18q-70 21 -134 -59q-12 -15 -23 -18t-18 -12 t-12 -18t-10 -19t-17 -18q-24 -22 -49 -21t-53 -13q-4 -28 -21 -39t-47 -25t-56 -42t-49 -60t-47 -64t-57 -54t-50 -55t-35 -67q-24 -4 -37 -26t-23 -51q-29 -84 -60 -107q-8 -28 -14 -54t-12 -45t-9 -31t-7 -27t8 -31t3 -33t-16 -26t-9 -18q-3 -16 20 -49q-20 -17 -20 -31 l4 -37q37 -74 44 -74h10q26 -22 38 -44t25 -40q31 -43 89 -52q16 -24 45 -29t57 5q2 -12 10 -22q14 8 22 13t16 7q15 4 42 -10l-4 -14l4 -4q18 8 37 8t37 2l2 -2l18 12q30 -14 53 -6t45 21t45 23t53 2q18 27 50 32q61 11 72 20l18 -10l14 28l48 -26q-9 -48 -53 -66 q-15 -6 -28 -11t-13 -13t-2 -12q-14 -40 -32 -46t-36 -2t-33 7t-19 -12t-6 -24t-6 -19q-6 6 -12 13t-12 13q-6 -12 -19 -16t-25 2q-26 -8 -42 -7t-29 0q-26 -2 -55 -51l-20 26v2q-18 -6 -28 -10t-28 12q-16 -6 -32 -4l-32 4q-41 5 -60 -14q-28 18 -68 27t-61 17t-39 28 q-22 -4 -36 9t-28 13q-77 34 -145 189q-17 39 -29 69l8 8q-6 12 -6 22zM532 675q-4 -21 10 -51t27 -62t-7 -58q35 -35 102 16q16 12 32 18q67 -19 126 47q24 27 46 59t50 52l-14 18q44 10 63 49t29 87t20 95t34 75q3 51 24.5 90.5t31.5 62.5t12 59l-62 20q-18 -16 -45 -27 t-53 -24q-62 -31 -72 -75q-42 -4 -58 -31t-25 -61t-23 -69t-50 -55q-10 -6 -18 -6q-47 -27 -68.5 -71.5t-31.5 -74.5t-22 -56q-54 -6 -58 -27z" />
<glyph unicode="A" d="M-142 425q9 125 88 177l-22 18q26 22 31 43t3 51q20 31 66 72q50 52 90 108t40 132l-2 36q31 9 78.5 46.5t73.5 49.5t54 6q-12 36 -12 57t25 47t43 44t38 41t30 33l-12 12q30 2 44 19t27 35t29 33t48 15h6q16 32 48 57t67 49t69 50t52 64q30 10 52 27t43 32q53 38 107 41 l26 26q16 16 26 16t13 -7t7 -13q10 8 25 8q33 0 93 -36q20 -12 32 -18q28 -70 28 -143q0 -55 -16 -111l-46 -2q0 8 24 32q-24 12 -36 33t-22 42t-25 38t-53 22q-7 1 -15 1l-61 -17q-38 -21 -70 -46t-60 -46t-54 -17q-12 -24 -27 -40t-28 -32q-22 -28 -22 -61q0 -13 3 -27 q-72 -68 -147 -131t-139 -141l-22 22q0 -14 -9 -25t-17 -23q-21 -32 -12 -60q-25 -16 -43 -43q-31 -48 -63 -71l-2 -2q2 -20 2 -38v-40q-22 -34 -54 -64t-62 -61q-74 -76 -80 -147q-34 -12 -48 -40t-22 -58t-14 -58t-24 -42l18 -18q-90 -52 -90 -133q0 -21 6 -45l2 -2v-2 q58 -50 118 -54q22 -1 42 -1q36 0 69 4q66 9 137 9h4q42 42 130 42q32 0 62 4t45 21t19 25t9 14t17 18q14 -3 28 -3q28 0 54 14q38 21 73 51t70 61t71 43q46 46 61 100t18 99t6 71t10 49q15 48 61 87l4 4q-12 48 -12 72t14 58t31 69q45 93 45 165q158 271 322 332 q59 -5 104 -12q-12 -28 -12 -65t-3 -72q-7 -83 -69 -103q6 -9 6 -58.5t-26 -103.5t-59 -107t-64 -107t-40 -95t-30 -63l-42 -44q-41 -42 -41 -80q0 -11 4 -22q-16 -26 -37 -43t-37 -34q-23 -25 -23 -58q0 -21 9 -45h2v-2q22 -34 34 -70t27 -70q36 -81 111 -104q4 22 18 23 t30 1l40 -38q164 0 215 22t87 53t92 79q149 127 222 178q-4 -54 -21 -81t-36 -49t-38 -50t-29 -84q-66 -26 -96 -61t-51 -65t-50 -46q-18 -10 -50 -10q-20 0 -45 4q-19 23 -46 42q-16 -42 -41 -56t-55 -19t-62 -13t-62 -40q-176 23 -233 149q-38 83 -65.5 113t-59.5 40 t-45 6t-23 -14t-19 -23t-21 -23l-22 22q-45 -120 -227 -131q-49 -3 -93 -3q-37 -81 -125 -108q-39 -12 -81 -18t-86 -18q-22 5 -62 -9q-52 -17 -77 -17q-11 0 -17 3q-20 11 -20 25t-10 26h-4q-91 9 -146 150q-14 36 -28 66q0 44 -5 97q-3 29 -3 59q0 23 2 47zM1268 1104 q14 -14 54 -74q26 26 26 45q0 5 -2 10q-10 21 -34 21t-44 -2z" />
<glyph unicode="B" horiz-adv-x="1624" d="M-202 27q6 45 12 89q10 71 10 115q0 27 -4 43q38 16 45 43t8 55t11 52t54 36q0 44 14 80t30 71t29 71q11 31 11 70v12q89 128 173.5 316t136.5 295t119 200q149 207 359 289l33 11q87 29 121 29q10 0 25 -3l25 -5q32 -6 64 -11t61 -16q64 -24 89 -85v-2q4 -18 21 -67 q47 -137 47 -223q0 -221 -138 -492l2 -2q236 -347 236 -666q58 10 110 36t107 55q144 76 241 97q-15 -90 -114 -142h-2q-139 -81 -197 -105q-105 -44 -217 -119l20 -16q-12 -16 -38 -25t-51 -20q-48 -21 -48 -58q0 -10 3 -21q-144 -105 -357 -105q-173 0 -391 70 q-138 44 -240 101q-10 6 -20 15t-20 15l-114 82q-61 -30 -93 -110q-13 -32 -25 -64t-29 -54q-26 -34 -71 -34q-22 0 -48 8q-3 22 -3 44.5t3 44.5zM94 346q64 -42 130 -87t118 -63t84 -28t60 -26l2 -2q32 0 68 -9t72 -16q37 -7 66 -8q43 0 68 17q16 -6 29 0t25 11 q29 12 44 -15q36 26 75 34t71 14t53 11t43 9h2l2 2q16 22 34 30t37 16t36 16t29 19q12 12 12 27.5t-12 35.5l6 2q10 10 15 9t15 -5q-14 66 -28 139t-35 143q-48 159 -137 248q-34 -72 -175 -157q-35 -21 -63 -35h-10q-28 0 -62 -9q-40 -11 -80 -18q-23 -4 -45 -4 q-15 0 -30 2q-35 5 -55 41v2q-12 8 -25 12t-21 18q-6 14 3 32l20 40q17 34 17 62q0 19 -8 34q12 58 48 81t83 32t96 13t87 24q38 -16 88 -17h5q47 0 83 19l38 84q70 145 86 209q19 74 19 153q0 47 -7 96v4h-2q-28 14 -30 38t-2 52q-49 80 -92 98q-47 19 -100 19 q-41 0 -85 -11q-31 -8 -55 -22l-4 -4q-22 -36 -59 -56t-58 -31t-38 -24q-41 -31 -41 -75v-74q0 -6 -12 -30t-18 -37t-21 -45q-62 -131 -117 -200v-2q-24 -66 -49 -132t-61 -174t-90 -254t-142 -278zM682 784l8 -10q63 12 114.5 41t71.5 37t40 18v40q-9 25 -48 20 q-8 -2 -13 -1t-26 2h-3q-20 0 -42 -12q-24 -13 -42 -35t-32 -49t-28 -51z" />
<glyph unicode="C" horiz-adv-x="1620" d="M-122 548q0 50 42 155t46 116t19 36t37 59t48 75t50 77t42 65t28 44t41 57t73 94t90 106t93 97q87 83 128 83q6 0 11 -2q84 112 212 165t264 53q46 0 93 5q7 1 14 1q39 0 77 -24q74 -134 116 -353q12 -63 12 -107t-21 -86t-51 -82t-61 -79t-49 -75t-41 -94t-53 -115 q-74 -141 -144 -141q-22 0 -48 26t-26 48q0 182 174 435q102 149 138 247t36 151t-5 86t-33 49h-92q-52 0 -110 -7q-71 -9 -129 -82q-15 -19 -25 -29t-18 -19t-17 -19q-22 -24 -39.5 -32t-29.5 -14t-28 -13t-45 -26t-62 -57t-64 -78q-79 -101 -145 -136q-52 -86 -115 -181 t-119 -195q-132 -236 -132 -410q0 -184 87 -296q43 -55 100 -55h8q15 1 40.5 1t38.5 -16h110q69 0 115.5 17t76.5 30t57 23t43 16t47 15t73 17t86 30t87 52t74 46t52 18t43 3q58 3 72 17t31 33t37 37q34 6 64 26t52 25q37 8 83 41q126 87 331 216h18q0 -70 -152 -197 q-200 -166 -558 -355q-42 -22 -86 -40t-74 -35t-46 -30t-41 -31t-55 -24t-53 -14q-47 -16 -47 -100q-52 0 -102 9t-91 9t-70 -9t-58 -19q-81 -28 -119 -28h-90q-22 31 -51 46.5t-46 23.5q-32 15 -67.5 59.5t-66.5 82.5t-58 98t-44 125q-33 126 -33 259z" />
<glyph unicode="D" horiz-adv-x="1614" d="M-470 -66q3 81 90 190q59 82 82 150q42 30 79 71t76 80q93 93 181 103h8q9 38 76 76q81 47 104 73q28 34 28 77q0 28 -12 60l-2 2v2q-56 84 -56 216q0 70 16 154q12 64 20 108q18 101 27 138.5t11 55.5q44 22 68 84q10 26 19 52t21 47q27 47 90 47v2q151 151 325 151 q23 0 45 -3h2q46 0 91 -26t85 -46l16 10l12 -18l20 12q36 -54 79 -108t82 -111q91 -133 91 -247q0 -16 -12 -88l36 -54l2 2q-6 -36 -6 -104t-14 -100h-2l-4 -24q-2 -10 -2 -17v-11q0 -34 6 -62t8 -54q1 -8 0 -15q0 -54 -32 -95q16 -12 12 -24t-12 -26q-13 -23 -13 -42 q0 -14 7 -26q-22 -19 -22 -50v-9q4 -37 8 -60t4 -43q66 -17 135 -17q25 1 51 3q94 8 150 15t112 9q-10 -45 -71 -70q-25 -10 -52 -19t-47 -23q-21 7 -39 7q-14 0 -27 -4q-30 -9 -58 -18t-58 -10h-2q-29 0 -60 27q-26 -43 -59 -62.5t-59 -33.5t-52 -34t-49 -44 q-53 -55 -53 -102v-8q-58 -28 -107 -71t-105 -73h-2v-2q-25 -28 -53 -28h-46q-17 0 -35 -8q-32 48 -133 48q-25 0 -49 6q-96 22 -157 75t-119 129q3 21 3 41q0 54 -23 104q-32 69 -74 127q-91 -75 -142 -126l-86 -86q4 -13 4 -25q0 -31 -31 -52q-19 -13 -41 -24t-36 -29 l-10 16q-28 -22 -43 -52t-31 -60q-39 -73 -98 -82q-12 19 -34 22q-44 8 -50 14q-4 7 -4 13q0 4 2 7zM292 570q28 -225 60 -315q39 -108 64 -133q14 4 33 -10t41 -28q28 -18 52 -18q25 0 46 20q20 -20 32 -34t46 -14h2q166 67 260 142q38 30 84 76q-18 54 -50 71t-72 17 t-83 -6q-16 -2 -31 -2q-25 0 -48 6q-19 27 -56 27q-6 0 -12 -1q-18 -2 -34 -4t-26 5t-9 16t-3 17l-4 4q-10 4 -20 4t-19 1q-17 2 -21 27q-22 -7 -43 -7q-72 0 -129 88q-20 31 -38 59l-2 2l-20 -6v-4zM334 1110q26 -45 26 -84v-6q-2 -42 -14 -94v-2l16 -10q54 52 106 137 t82 128t66 75q68 -47 68 -108q0 -25 -12 -52q-18 -42 -53 -87t-71 -93q-90 -120 -90 -208l2 -2q76 -90 168 -130t202 -68l40 26q26 2 48 -19t42 -35q22 16 67 23l70 11q25 4 43 8l-16 22l22 18q-20 13 -20 24q6 12 14 20t12 16t4 17t-8 25q29 29 29 63q0 30 -6 72 q-2 18 -2.5 34.5t2.5 33.5q5 33 47 57q-30 50 -34 85q-3 23 -3 45q0 11 1 22q3 49 3 68q0 30 -15 64q24 12 44 28q-30 32 -41 58t-16 55t-9 45t-7 32t-5 28q-12 71 -65 119.5t-95 77.5t-72 50t-52 55q-2 -4 -20 -16l-67.5 -45t-34.5 -21q-17 8 -36 8q-14 0 -28 -5 q-34 -11 -48 -16t-20 1h-2l-2 2q-37 12 -49 -22q-5 -14 -10 -25t-17 -9l-15 -79q-15 -62 -35 -95.5t-41 -68.5t-38 -63t-29 -57q-26 -63 -26 -133z" />
<glyph unicode="E" horiz-adv-x="1522" d="M-55 260q-6 9 -6 17q-1 9 7 19q14 16 17 26t4 20q3 26 15 35q24 17 18 45q0 22 22 35q39 23 49.5 56t17.5 50t24 28t35 22q47 29 56 69q2 4 -2 13q-9 19 -38 29q-18 10 -27 27q-17 31 -61 49q-20 8 -24 26t-12 35t-8 27l-4 56q-4 26 6 48t0 50q23 117 34 135 q19 33 37.5 43t28.5 30t26 31q29 20 42 79q6 24 23 30t22 16t9 19q11 25 20.5 28t7.5 11q8 6 20 6q25 0 60.5 27t43.5 47t28 32q55 33 68.5 44.5t23.5 17.5t30 19t52 22t56 16t35 27t30 23t27 3h18q15 0 21 16q12 38 15.5 38t19.5 4t35 7t43 19t44 12t39 15t36 14 q7 -2 18 -2q29 0 89 13q16 -4 31 -4t40 -10t42 -12t28 -2t21 -2q12 -10 19 -13t12 -7q11 -9 18 -21.5t14 -19.5t15 -14q22 -19 10 -19q-10 -5 -1 -38.5t10 -40.5q3 -19 -9 -43t-13 -50t-8 -46t-18 -34t-19 -29t-11 -33t-7 -30t-2 -21t-3 -11t-10 -3q-14 -3 -11.5 -31 t-2.5 -42t-15 -26t-19 -24q-23 -30 -13 -56q4 -15 -13 -21.5t-27 -9.5t-17 -6t-18 -13t-22 -23t-21 -25t-19 -23t-30 -15t-37 -16q-31 -23 -50 -17q-38 14 -52 39q-12 16 -7 46q10 59 14.5 73.5t4.5 40.5v42q0 12 14 28q30 34 32 48q3 22 32 28q57 10 66 55q4 21 21 37 t38 21t40 24t39 42t19 45t-1 32t2 16t6 16t7 21q7 27 -5 27q-16 16 -37 23t-28 17t-17 14q-16 -8 -17 -17t-11 -19t-21 -6t-36 -4q-48 -15 -64 -15h-2q-15 1 -28 2q-34 3 -52.5 -12t-30.5 -30t-30 -24t-29 -20t-21 -12t-20 0q-29 3 -37.5 -7t-22.5 -20t-30 -19l-32 -18 t-31 -14t-29 -23t-26 -22t-17 -8t-27 -5t-33 -9t-17 -18t-16 -32t-39 -53t-57 -39t-37 -19t-15 -26l-12 -30t-16 -27l-28 -28q-16 -16 -23 -32q-25 -57 -48 -86q-41 -50 -41 -68l2 -51q0 -31 10 -63t68 -42q22 -4 39 -20t40 -16t37 -6q29 -12 44 8q14 14 30 24t31 21t37 9 t40 11t34 9q28 0 55 8t45 5t23 -16t5 -29q0 -20 -8 -43t-3 -25t8 -2t6 -2t-1 -4q0 -4 -2 -5t-11 -13t-19 -20t-20 -13t-21 -9t-24 -13q-37 -26 -54 -26q-3 1 -5 1q-16 4 -28 8q-32 11 -41 7q-15 -5 -33 -23q-22 -14 -35 -14q-25 0 -35 -26q-8 -12 -25 -18q-30 -10 -39 -32 q-21 -60 -76 -96q-16 -10 -41 -22t-35 -27t-8 -39v-6q0 -38 -36 -74q-12 -12 -12 -30q0 -36 -11 -48t0 -24q20 -22 20 -53q0 -8 -1 -17q-4 -21 18 -42q36 -34 53 -34q2 0 4 1q18 6 33 -17q12 -22 31 -21t40 6t41 -6t42 -11l32 2q12 0 26 1q28 2 56 35q10 10 31 10 q41 0 51 12q8 10 17 10t20 -4t21 1t18 11q23 17 44.5 13.5t34.5 16.5t35 21q37 2 68 43q16 19 35 14q39 -12 55 3t29 30t35 24t36 15t28 27t32 15t27 -1t16 11t15 13t18 9q32 8 46 38q26 2 38 11t23 9t23 6t24 14q33 22 40.5 23t16.5 1t19 4q13 5 26 -20q1 -2 1 -5 q1 -15 -25 -39q-30 -30 -38 -33q-20 -8 -28 -27q-22 -64 -90 -80q-15 -2 -25 -20q-21 -35 -33 -42q-28 -14 -63 -15t-56 -20t-30 -42t-29 -35t-44 -8t-38 -5q-25 -16 -34 -39q-14 -18 -38 -17t-46 -9t-44 -14l-26 -4l-2 -4q-32 -6 -61 -18t-57 -17t-52 -9t-49 -11t-47 -21 t-45 -16q-11 -1 -22 -1q-27 0 -49 8q-30 11 -40 7t-20 -9q-20 -10 -35 -10q-6 -1 -10 1q-17 6 -33 13q-34 15 -46 15t-29 6t-35 15q-45 22 -54.5 38.5t-24.5 29.5t-21 26q-13 29 -24 29q-8 0 -13 36t-8 55t-3 39v36q0 16 -9 30z" />
<glyph unicode="F" horiz-adv-x="1260" d="M-410 712q26 30 41 58t32 45t43 17q31 0 76 -24l20 18q15 -13 31 -13q19 0 40 19q13 12 26 17t22 -8t10 -13t1 -2q11 -4 25 -4q22 0 51 10q31 6 52 6q12 0 21 -2q23 -6 55 -50l20 20q12 12 16 22q28 -4 51 3t44 13q12 4 24 4q35 0 69 -32q24 45 73 45q11 0 22 -2 q27 -5 55 -15t52 -11h3q54 0 67 83q62 32 86 74t33 91t15 72t18 39q21 28 50.5 48t31.5 21t4 3l-2 22v6q0 25 22 60q26 40 38 62t12 48q0 38 -50 82q-60 -20 -114 -33t-118 -42t-157 -47q-42 -8 -82 -8q-49 0 -95 12q0 22 -32 48q-40 -20 -56 -21t-31 6t-32 17t-39 16 q10 24 24 34t36 18q54 -35 113 -35q50 0 103 25q34 16 63 32t57 28t58 21q41 12 77 12q23 0 45 -5q32 32 110 61t122 48t78 49l12 -16h6q50 0 72 17t41 42t36 46t36 42q44 49 72 49h3q18 0 36 -64q4 -14 8 -20q-18 -15 -18 -70q10 -10 14 -16q-116 -155 -153 -216.5 t-49 -80.5t-20 -39l8 -14q0 -10 -9 -25t-16 -32t-7 -34t16 -33q-80 -94 -146 -197t-130 -207l6 -6q30 -38 57 -45t68 -9t73 -8t50 -44q-14 -34 -34 -43t-45 -15t-40 -11t-32 -9t-38 0t-43 7q-11 1 -20 1q-39 0 -64 -22q-4 -4 -38 -72l-59 -118q-25 -50 -48 -94t-39 -76 l-20 -40q8 -12 20 -24q-29 -98 -31.5 -193t-8.5 -134q-14 -91 -64 -141q-37 3 -66 52q-12 20 -23 41t-23 35q28 40 30 81q1 20 1 40.5t-1 40.5v20q0 30 4 58q6 38 42 72q-14 38 -24 68q-2 7 -2 14q0 24 26 50h-2q13 5 56 48q-30 18 -28 29t16 22t31 27t17 46l-12 14l6 6 q22 10 27 21t5 33h-2v2q-19 46 -75 66q-23 8 -48 14t-47 20q-31 -31 -34 -38q-22 6 -43 17t-42 18q-18 6 -34 6q-33 0 -57 -25q-20 -26 -47 -22t-56 11t-59 5t-54 -38q-36 -14 -81 -14q-48 0 -107 16q-46 12 -92 25t-94 15z" />
<glyph unicode="G" horiz-adv-x="1516" d="M-508 -239q-4 12 -4 27q0 19 6 42q62 51 124 89.5t84 54.5t25 38t4 32q4 37 44.5 59.5t72.5 42.5t51 46q10 13 10 31q0 17 -9 37q-22 6 -39 20t-39 22q3 8 3 19q0 20 -10 51q-15 46 -20 67t2 32q8 12 43 19l30 -18q77 -50 132 -50q17 0 32 5q62 21 108 135q29 71 72 114 q0 67 62 170t62 160.5t-22 87.5t-45 54t-38 51t-27 57q-20 50 -20 92q0 12 2 24l20 24q-28 36 -28 87q0 33 12 73t24 79q7 23 7 46q0 15 -3 29q28 26 48 68t41 83t45 75t56 44q16 5 35 5t40 -5q43 -10 58 -21t22 -20t25 -34t29 -78q9 -42 9 -84q0 -11 -1 -23q-4 -69 -4 -125 q0 -48 3 -85q-42 -48 -57 -97t-22 -97t-17 -95t-42 -89q43 -61 130 -63h7l139 39h2v2q60 44 131 81t135 81q152 105 172 244q16 28 40 51t43 48q27 35 27 76q0 24 -10 51q12 12 22 32t21 39q27 46 47 55q18 -27 38 -25.5t32 5.5t28 0q-15 -33 -40 -78q14 -10 36 -22 q-17 -13 -18 -32q-4 -40 -10 -50l18 -12q-56 -54 -81 -117t-39 -121t-23 -91t-23 -62q-30 -62 -92 -107q-2 -2 -4 -6v-6q-20 -146 -121 -389q-66 -159 -95.5 -238t-55.5 -145q75 -10 96 -10q43 0 90 18q26 10 65 14t65 12q10 38 72 38q26 0 54 -4t54 -2q58 4 68 66 q43 14 93 46q88 55 141 64q-104 -183 -264 -241q-58 -21 -132 -31h-6q-50 -89 -136 -100q-30 -4 -67 -4t-65 -8t-56 -17q-54 -17 -101 -17q-16 0 -31 2v-14q0 -30 -23 -42t-51 -24t-51 -30t-23 -60q-22 -8 -56 6t-60 18q-20 -66 -88 -66q-30 0 -63 6q-25 4 -49 4h-16 q-28 40 -65 54t-76 21t-77 17t-70 42l-44 -24l-2 6q-2 22 -9 35t-31 17l-6 -14l6 -2q-10 -10 -19 -21t-19 -21q-80 -32 -114 -73q-14 -17 -39 -54t-59 -80t-90 -65q-22 -9 -29 -32.5t-10 -34.5t-10 -15q-10 -6 -45 18l-60 -60q-36 24 -44 51zM144 264q4 -2 9 -2t24 -4t48 -9 t75 -19q95 -29 168 -29q31 0 58 5q16 0 25 8t15 13q14 12 36 -17q15 22 41.5 27t46.5 11q39 12 39 40q0 7 -3 16q79 99 162 291q44 101 60 117q-7 17 -7 39q0 60 50 151q27 50 54 98q27 49 35 102q-23 7 -45 7q-49 0 -88 -36q-50 -46 -63 -127q-16 -2 -27 -1t-21 17 q-4 -2 -5 -4t-19 -14t-63 -21q-41 -8 -83 -8h-9q-94 2 -175 29q-22 -44 -41 -86t-48 -99q-81 -160 -123 -273l-16 10q-48 -48 -69 -109t-41 -123zM338 1576q28 -28 28 -61v-11q-6 -38 -14 -73q-5 -22 -5 -43q0 -14 2 -27q5 -35 53 -69q28 8 36 27t10 40t5 41q3 19 31 36 q-12 26 -12 59q0 42 18 96q12 37 19 72q2 12 2 23q0 24 -9 48q-16 8 -14 15t8 27t-1 31t-41 21q0 -71 -48 -131q-20 -25 -39 -52t-29 -69z" />
<glyph unicode="H" horiz-adv-x="1598" d="M-144 -22q62 185 218 444q4 8 6 16t9 25q24 58 41 83q29 42 50 88l-4 4q-137 111 -220 269q-10 19 -20 35l-2 2q0 40 6 80t38 72v2q16 32 38 42t36 15t28 17v2q46 20 90 34q15 5 32 5q30 0 62 -17q28 14 94 14q12 -6 25 -15t26 -17q33 -20 53 -10h2v2q20 20 32 57t25 79 q35 113 73 154q0 6 8 27t17 48q16 48 16 77q0 13 -3 22l18 -2q8 8 10 14l-2 6q-12 12 0 42h-2l-2 8l108 42q28 -16 31 -36t-1 -41t-3 -30t1 -25t-10 -45t-23 -61q-21 -52 -57 -106v-12q0 -110 -122 -342q-88 -151 -102 -242v-2l-50 -94q21 -27 99 -39q19 -3 37 -3 q40 0 68 -28h4q16 4 28 4h28q15 -4 62 2l-2 -14q10 -10 16 -14q10 16 24 32q8 -12 14 -18q6 4 15 16t13 12l2 2l2 -2q27 -9 51 -9q8 0 15 1q30 4 66 4q6 14 17 22t20 17q19 19 1 47l-2 4q14 24 22 39t15 27t28 47q81 135 81 251v14q4 2 8 2q30 12 32 33t-2 45t1 48t45 44 q10 20 21 58t36 98t36 124t26 83t31 38q42 50 42 76.5t-4 32.5v6q88 44 88 128q0 36 -6 42q18 12 38 32l4 -2q53 -39 53 -94q0 -11 -2 -22q-5 -30 -15 -62t-10 -66l-2 -2q-66 -114 -66 -246q-22 0 -27 -10t-8 -25t-8 -31t-25 -28l4 -6l2 -12q0 -12 -6 -21l-12 -18 q-14 -21 -2 -37t14 -18h-22q-58 -113 -91 -213q-62 -186 -101 -259v-6q18 -34 3 -54t-32 -35t-23 -29t28 -36q26 26 48 18t54 -16l11 11q10 10 25 -5q18 27 35 21l27 -11q23 -9 28 15q2 9 6 17q30 -30 51 -29t40 12t38 21t45 -2q22 0 45 5t63 12q81 14 142 14q37 0 68 -5 l2 -16q-102 -46 -209 -75t-215 -55l-104 -24q-12 4 -25 4q-22 0 -49 -12q-42 -18 -68 -23t-45 3t-35 3t-32 -13q-37 -19 -42 -38l12 -12q3 -8 -16 -43q-32 -62 -46 -71q2 -20 -22 -72q-46 -99 -46 -138q0 -8 2 -16q2 -9 -2 -18q-30 -24 -39 -72q-17 -93 -39 -120v-2l-2 -2 q-13 -6 -25 -6q-39 0 -72 63q-11 21 -25 37q-5 18 -5 34q0 28 17 50l4 2q-12 16 -7 29t12 25q19 32 -3 56q30 30 32 63q1 9 1 19q0 24 -4 48q-6 41 -6 72q0 39 21 60q3 15 -44 62q-12 -30 -31 -31t-42 5t-45 10t-40 -14l-10 -8q-13 26 -25.5 27t-32.5 -1q-40 -4 -84 -4 q-12 10 -27 8l-30 -4q-40 -5 -59 16q-33 -14 -169 -235q-29 -47 -38 -62t-20 -33t-23 -37q-26 -42 -38 -65l2 -6q0 -33 -15 -44.5t-23 -16.5t-14 -11q-22 0 -33 -18t-20 -26t-29 -8q-10 -13 -15 -28.5t-8 -21.5t-6 -9t-7 -6t-8 -9h-5q-13 0 -21 12q-10 16 -15 25t-13 13z M44 978q0 -83 85 -140l42 -28t39 -34q40 0 55 21t22 50t15 59t22 39t14 10t2 1q-4 9 -4 19q0 21 16 45q24 36 33 58q5 13 5 28q0 10 -2 20q-44 0 -60 -16q-2 2 -4 2q-33 9 -65 9q-44 0 -85 -17q-72 -30 -124 -86q-6 -24 -6 -30v-10z" />
<glyph unicode="I" horiz-adv-x="2214" d="M-174 673q-10 28 -10 54q0 44 30 81q12 7 26 7q59 0 144 -121q24 -34 46 -48h2q145 -44 252 -134q2 0 4 -2q25 13 51 13q25 0 51 -12q20 -9 39 -18t41 -5q20 -18 52 -18q18 0 41 6q22 6 40 6q30 0 47 -16v-2q39 -4 68 -4h18q34 2 72 42l14 -16q29 19 78.5 22.5t75.5 11.5 t48 32q14 -14 50 -14q4 4 7 5t5 5q8 -12 21 -12t55 28q19 -23 38 -14q41 18 54 14l2 -2l76 12q-12 32 -12 74t28 68q0 2 -5 13l-10 22q-13 29 -13 31q4 16 6 34t7 44q17 89 17 182v20q-1 42 -1 74q0 48 2 75q3 45 20 81t36 75q51 105 51 171q12 12 26 22t25 21q18 18 18 41 q0 10 -3 20q52 32 87 67t55 93q36 -4 60 1t54 7q30 -56 66 -116t44 -122q-16 -8 -17 -26t-1 -34l-2 -4q32 -32 56 -62q-48 -32 -60 -78q-3 -11 -3 -22q0 -35 29 -70q-4 -38 -16 -75t-22 -75l-74 -290q8 -6 8 -19q0 -37 -68 -129l8 -10q108 60 164 86q148 69 206 112 q24 -18 36 -9t23 23t26 23t43 -11q2 2 2 6q21 40 68 40q30 0 70 -16q-16 -57 -85 -93q-29 -15 -59 -30t-52 -39l-12 14l-46 -22q-14 -10 -30 -38t-29 -33t-41 -4t-44 -6t-30 -18t-27 -24t-31 -21l-70 12l-46 -38q-10 10 -27 3t-22 -6t-22 -3t-24 -17t-8 -30t-1 -33t-12 -24 h-2v-2q-14 -40 -46 -75t-58 -72t-32 -76q-1 -5 -1 -11q0 -35 33 -76v-2h2q34 -24 45 -63t21 -77l68 -60q30 -30 67 -73t81 -82t110 -61q-4 -16 -3 -32t-1 -32q-10 -2 -20 -2q-33 0 -73 16q-53 22 -77 24q-42 52 -91 90t-99 84q-8 53 -62 120q-10 12 -19 28t-21 27 q-46 42 -46 67l8 70q0 43 -50 68l-2 -2q-28 -20 -40 -42t-25 -52t-25 -52t-29 -36q-20 -16 -48 -16q-23 0 -51 10h-4q-20 -20 -44 -40q-16 18 -40 12t-44 -14v-2q-12 -24 -38 -26t-59 1t-67 5t-62 -12q-26 23 -51 14.5t-41 -16.5t-32 -10q-23 12 -103 41q-145 52 -167 77h-2 q-44 0 -73 13t-60 34q-65 44 -107 57l-4 2q-10 -20 -20 -12t-24 20q12 12 12 48q-24 22 -43 28t-36 11t-31 13t-28 34h-2q-30 8 -39 35t-15 55t-20 53t-54 31q-16 32 -37 65t-33 66zM172 418q22 -44 92 -87q18 -11 34 -27q10 -34 44 -49t77 -24t87 -18t68 -26t48 -21t48 -7 t44 -9t30 -26l38 -2q2 2 2 4q22 30 50 27t57 -12t58 -8t51 41q10 -3 21 -3q29 1 67 19q54 26 77 36t35 2q4 8 25 25t39 32t32 30t23 30t16 35t23 54q-79 -44 -118.5 -44t-57.5 12q0 -54 -19 -60t-48 2t-61 13q-4 1 -8 1q-27 0 -48 -30q-30 2 -63 -8t-66 -15q-15 -2 -28 -2 q-57 0 -85 41q-25 -42 -52.5 -47t-57.5 -2t-59 5t-51 -16q-28 -4 -50 9t-48 27l-10 -8h-2q2 4 6 8q-6 2 -19 6t-25 9q-41 17 -60 17q-31 0 -66 28q-52 40 -82 48zM1477 890v-6q0 -37 11 -75q12 -41 27 -82t15 -85q98 22 106 128q5 64 23.5 92t50.5 38q-7 14 -7 35q0 18 5 40 q10 49 24 105q28 110 28 168q0 21 -4 36q20 48 20 101t3 79q2 16 2 26q0 7 -1 12q-14 12 -15 34t-4 43t-15 37t-50 16q-140 -280 -140 -356q7 -17 7 -34.5t-7 -34.5q-14 -35 -32 -72t-27 -77q-2 -11 -3 -22q0 -30 18 -62q-34 -44 -35 -84z" />
<glyph unicode="J" horiz-adv-x="1078" d="M-286 -820q14 50 21 102t16 103q21 120 67 195q-4 12 -4 25q0 36 31 78q11 15 19 32t2 39q32 48 60 93t58 89q70 102 146 162l6 32q44 28 79 66t92 86q149 125 297 150q18 10 17 27t-3 36t2 37t32 28q2 12 8 32t9 40q2 11 2 20q0 32 -23 34q-16 2 -28 4t-18 18 q-58 8 -118 25t-124 23q-12 40 -76 67q-26 11 -52 21t-50 33t-54 55t-54 68q-54 82 -58 164l-36 54l14 8q-21 29 -12 52l12 6q-8 25 5 54.5t16 44.5t-7 33q4 34 20 61t33 56q34 57 34 97q0 6 -1 12q50 50 109 119t125 120t141 68q18 4 38 4q58 0 123 -39q26 20 35 6t12 -27 t6 -17t13 -2q46 -30 65 -67t30 -76t23 -77t44 -68q4 -96 6 -188t20 -186q-48 -303 -58 -448q44 -53 44 -130l-18 -32q4 -14 -9 -18t-15 14l-2 4q0 8 -13 7t-21 -11t-12 -25t-7 -30t-10 -31t-1 -30t12 -36q17 2 33 2q74 0 131 -34l40 38q13 -26 18.5 -26t19.5 2 q-20 -48 -50 -59t-60 -10t-61 6t-59 1q-58 -40 -86 -97t-46 -122t-33 -130t-42 -113t-41 -93t-29 -90q-37 -111 -95 -157q16 -26 -12 -54l-8 -10l-12 -12q1 -9 1 -17q0 -34 -20 -64q-25 -37 -49 -71q-14 -14 -32 -50q-18 6 -32 6q-20 0 -32 -12l-14 -64l-14 22 q-27 -64 -101 -88q-31 -10 -66 -17t-61 -18q-42 -18 -72 -59h-7q-63 0 -101 36q-40 38 -68 88zM-70 -736q76 4 137 50t113 102q4 49 42 66q30 136 126 182q-9 19 3.5 39.5t13.5 28.5t-11 22q8 16 16 23t17 19t9 19t-16 21q22 14 25 26t7 32t11 37t29 23q4 20 6 43t7 44 q12 49 45 69q2 12 4 18t2 13t-24 21q44 16 48 35t3 42t-1 30t2 15q-12 3 -22 3q-41 0 -72 -35q16 -16 26 -32q-20 -2 -42 -3t-39 -8t-26 -17t-13 -36q-38 -2 -58 -22t-34 -44t-29 -45t-45 -25q-16 -53 -64 -106.5t-67 -86.5t-19 -79q-4 -4 6 -6q18 -8 18 -28 q-82 -52 -82 -57t24 -43l-50 -32l40 -80q-8 -4 -14 -9q-14 -12 -32 -17q1 -11 1 -23q0 -42 -12 -83q-11 -37 -11 -75q0 -16 2 -31zM120 1332q-1 -8 -1 -15q0 -45 47 -73q-14 -22 -13 -34t4 -30q2 -11 2 -20q0 -29 -17 -44q8 -8 32 -10q30 -78 87 -121t125 -72t141 -52 t135 -59q8 16 17 30t16 28t7 30t-10 36q42 28 42 59t-6 52t-10 46t6 59q27 63 27 136q0 41 -9 86q-10 54 -24 109t-18 117l-106 208q-23 -7 -46 -7q-11 0 -23 2q-35 5 -63 -5q-12 -12 -24 -11t-25 2h-4q-30 0 -47 -39q-10 -20 -15 -41t-19 -41q-72 -36 -75 -122 q-1 -28 -1 -62q-24 6 -31 2t-15 -21t-19 -29t-33 -4q-29 -65 -34 -90z" />
<glyph unicode="K" horiz-adv-x="1200" d="M-198 -65q16 49 43 95t51 92q22 42 22 70l-2 39v13q0 16 11 25t26 19q43 29 51 64.5t31 73.5t48 77t49 78t34 81q-4 4 -4 8q-24 36 -53 37t-59 -11t-47 -13t-37 23l-14 18q-26 -26 -28 -26q-4 0 -13 7t-21 16q-33 24 -48 27q-6 20 -20 50t-14 43q0 36 77 104 q62 55 123.5 84t88.5 41t39 18t26 10q22 -16 78 -16h56q55 92 102 282q12 48 28 96q57 19 57 74q0 12 -3 26q-6 30 -14 56t-1 35q9 11 47 19q9 24 34 64q16 32 31 55t51 33q4 -20 15 -43l22 -46q29 -61 29 -87t-13 -39t-33 -27l-16 -14q14 -18 22 -40q10 -27 -28 -40 q-12 -38 -16 -73t-10 -67q-13 -71 -74 -118l14 -14q5 -5 2 -30q-8 -50 -8 -58t-8 -12t-15 -8t-11 -7t4 -9l-14 -38q152 0 208 62q18 22 35 36t51 4q66 20 104 69t71 104t72 107t109 82q-2 9 -2 19q0 44 39 108q19 31 36 63t17 68q40 0 50 46l8 36t18 26l22 14q-30 24 -30 44 t1 34t-7 34q6 2 18 8l24 12l22 11q10 5 14 5q14 -40 25 -74q9 -29 9 -63v-13q-30 -14 -35 -35t-3 -42t0 -37q-2 -17 -38 -26q1 -12 1 -27q0 -57 -15 -153q-42 -16 -58 -51t-27 -71t-29 -62q-16 -23 -51 -23q-5 0 -11 1l-34 2l18 -28q22 -34 13 -51t-32 -32t-48 -33t-37 -52 q-85 0 -143 -108q-45 -84 -109 -84q-14 0 -30 4l-22 6q-4 -20 -5 -36t10 -41t25 -55q38 -81 38 -132q47 -99 63.5 -204.5t23.5 -171.5t17 -126q-48 -30 -51 -126q-1 -36 -2 -68t-17 -44q-12 -9 -33 -9q-17 1 -39 7q-50 14 -57 42t-1 61t17 68t9 58t-10 41t-15 36t-7 36 t16 42l-58 368l-20 -6q-20 -6 -26 4t-14 25q-22 41 -70 41q-18 -30 -48 -42t-57 -24t-43 -33q-10 -13 -10 -35q0 -14 4 -32q-50 -16 -67 -48t-25 -70t-18 -73t-44 -57q-10 -44 -29 -74t-38 -57q-49 -70 -57 -117q-22 -18 -47 -36t-46 -39q-51 -51 -51 -101v-17q0 -7 10 -13 q-32 -30 -62 -66t-76 -40q-10 31 -10 59q0 25 8 48zM-36 816q52 -16 96 -16t83 14q67 24 147 104l-16 28q-22 0 -40 1t-28 23q-4 -2 -9 -2t-20 -4t-50 -15t-68 -29q-81 -44 -91 -88z" />
<glyph unicode="L" horiz-adv-x="1522" d="M-408 115q6 25 12 39t6 26l-4 18q10 10 20 21t24 27q44 50 84 70q12 20 18 26t28 15t26 16t16 23l14 -14q40 62 97 79t125 17h2q66 60 84 78q6 -6 11 -12t11 -10q14 28 36 34t47 7t47 6t36 33q4 -2 46 -10t55 -8q54 0 71 48q11 -14 30 -28q18 18 22 28q10 -2 26 -10 q6 -25 41 -25q6 0 13 1q18 2 33 7t19 5v2q14 23 36 23q18 0 42 -17q28 42 38 94t21 102t33 94t76 70q-16 22 -40 29t-50 15l-2 2h-17q-25 0 -48 -4q-31 -6 -61 -9q-9 -1 -18 -1q-58 0 -98 40q-22 10 -48 33t-36 45q-4 32 -4 42t-20 22q18 18 27 30t37 8h6q16 -18 27 -39 t23 -39l12 12q4 -4 5 -7t3 -7q28 -46 66 -47h12q30 0 52 4q57 11 72 11q42 21 66 26.5t52 16.5t28 45q0 4 -2 6l-2 24q2 19 37 75.5t45 82.5t-2 38q7 5 17 29q17 46 29 49q0 32 18 70t22 54t12 32l12 -4l8 8l-2 24q26 26 31 58t23 54v2q48 26 66 44q-8 28 11 41t31 35 q27 -27 53 -5q30 24 47 24h4q18 -3 24 -10t16 -15h72q2 0 4 -2q28 -20 32 -46t4 -50t10 -35t22 -23q-10 -31 -4 -40q0 -26 10 -53t15 -52q2 -9 2 -17q0 -45 -53 -70q-4 -4 -12 -32t-26 -66t-43 -68q-37 -44 -131 -116l-2 -2q3 -16 -18 -27q-45 -22 -48.5 -29.5t-4.5 -10.5 t-3 -7l-18 16q-20 -10 -71 -52t-87 -80q-80 -84 -102 -166v-2q-20 -26 -26 -58t-11 -65q-13 -83 -53 -123q0 -20 -3 -34t-4 -25q-2 -26 23 -51h2q117 -20 179 -137q27 -51 49 -107t52 -106l2 -4q-2 -84 -5 -169t-5 -171q-10 -10 -28 -16t-20 -12q8 -20 10 -30l-20 6 q-8 -10 -18 -18l-20 -16q-18 65 -84 70q0 42 -6 66q4 0 6 2q32 22 35 57t1 57t-2 35t-4 21q10 10 20 16t10 22t-9 31t-18 31q-10 18 -10 34q0 18 13 34l-18 16l16 4l6 6q0 10 -4 26q-38 20 -91 66t-70 60q-38 30 -58 30h-3q-20 -20 -24 -28q-10 10 -26 22q2 -10 6 -26t3 -31 q-2 -37 -35 -33v-4q-67 -123 -156 -192q-24 -20 -46 -43t-46 -45q-38 0 -64 -23t-54 -43l12 -12q-48 -40 -104 -74t-120 -34q-21 -37 -34 -50q-24 0 -51 -7q-32 -9 -58 -9q-17 0 -31 4h-2q-26 0 -52 -13q-47 -23 -65 -23h-3q-4 6 -18 14t-30 19q-44 30 -50 59 q-22 -10 -40 -10q-28 0 -50 22q-20 18 -48 31t-28 47l2 28h-20t-20 -2q0 6 2 11t0 14q-8 36 0 49l-4 2q-16 14 -16 32q0 5 2 11zM-264 106q8 -4 10 -8q0 -36 -2 -40l82 -68l2 2q15 3 27 3q24 0 40 -10q25 -15 55 -23q19 29 38.5 27.5t32.5 -5.5t29 -4h6q-4 36 20 43t52 7 t53 3t25 33l24 8q19 -14 33.5 4t25.5 29t33 11l2 2q32 40 57 59t53 33q60 30 72 42q17 46 60 85q82 76 104 117q-37 -6 -60 3l-37 14q-13 5 -31 5l-4 2q-4 -22 -28 -22q-15 0 -38 9q-12 5 -20 1h-2v-2q-24 -26 -56 -27t-62 2t-53 -2t-28 -29t-17 -30q-12 -2 -22 6t-20 12 q-4 -30 -14 -38t-22 -4t-26 13t-28 13q-11 -42 -93 -42q-25 0 -57 4v-2q-130 -109 -216 -236zM1174 1350q-1 -5 -1 -10q0 -7 2 -15q3 -13 1 -25q17 15 42 15q16 0 35 -6q17 -5 29 -3t18 28v2q23 39 43.5 51.5t27.5 18.5t7 28q10 8 27 30t40 48t54 70t31 104q-23 20 -32.5 57 t-17.5 54t-26 27q-38 0 -72 -20t-42 -62v-4q12 -12 13 -28t-12 -27t-28 -22q-37 -27 -25 -53q-44 -15 -55 -49.5t-14 -70.5t-9 -72t-36 -66z" />
<glyph unicode="M" horiz-adv-x="2212" d="M-144 1884q0 34 15 57t37 33q18 8 36 8q32 0 60 -28v-2q10 -10 30 -24t41 -29q49 -35 77 -35q14 10 23 -1q21 -25 27 -25q14 4 18 18l2 -2q18 -6 39 5t44 22q24 11 44 11q30 0 53 -24q9 14 35.5 14t46.5 -24q46 -58 56 -130t10 -142v-60q-38 -71 -38 -124l8 -68 q-7 -44 -36 -124q-57 -163 -64 -272q40 60 40 138l2 2q50 40 82 87t64 104t73 115t109 84q22 22 41 44t47 32l2 2l12 -20q8 6 13 12t18 19t17 20t4 35q33 26 64 26q19 0 37 -9q21 -11 43 -29t46 -32v-2q42 -268 42 -364t-3 -139t-10 -84q-9 -55 -43 -175v-2q19 -21 39 -21 q27 0 55 38q20 27 37 58t33 47h2v5q0 29 30 79q61 102 58 120q82 119 134 234q10 -8 16 0t12 14h2q12 73 89 135q31 25 65 49t62 56q44 0 79 -17t39 -69q-10 -32 -12 -99q-4 -119 -24 -163q0 -4 -6 -26t-13 -49t-15 -51l-10 -30q-60 -184 -60 -334l-30 -30q10 -10 10 -35 t-11 -51t-20 -51t-9 -50t24 -45q0 -32 -10 -69t-17 -74t-7 -78t22 -63q32 0 48 6t27 8h5q23 0 64 -30l114 78q24 18 43 38t39 36q35 28 78 28q12 0 24 -2q36 72 262 167q50 21 90 49q2 -29 -38 -90q-15 -15 -46 -31q-62 -33 -71 -47t-22 -40t-32 -52t-46 -46t-56 -35 t-61 -29t-70 -40l-16 -50q-11 1 -21 1q-49 0 -62 -25q-7 -14 -12 -32t-17 -32q-25 -29 -60 -36l-45 4q-15 0 -15 -26h-4q-22 0 -40 -11t-36 -21q-22 -12 -42 -12q-18 0 -34 10h-2q0 48 -17 71t-39 42t-41 43t-23 71q-1 10 -1 20q0 37 12 75q15 48 15 85t-10 57t-10 41t11 35 t22 26q14 15 14 32t-13 36v2q0 18 8 45t16 61q27 117 38.5 185.5t23.5 139.5t36 141l2 2l-14 20h6q43 12 48 90q2 30 3 57t17 39l-38 42q-2 -2 -11 -33t-46 -72t-76 -80t-71 -84t-42 -113q-34 -58 -61 -120t-57 -124q-72 -149 -148 -222l2 -20q0 -31 -48 -75 q-12 -11 -20 -23q0 -46 -51 -110t-51 -105t-18 -66t-43 -40t-52 -30t-45 -43v-2q-6 2 -14 -2t-18 1t-13 22t-5 37q-5 51 -12 56q21 16 52.5 125t37.5 128t13 45t14 44q20 51 21.5 78.5t3.5 45.5l4 2q33 0 33 72v16v5q-1 51 33 185q36 142 36 238v30q2 32 6 66q3 27 3 55v14 q-2 75 -39 127v2q-110 0 -217 -135q-69 -88 -135 -231l-4 -4l-12 18l-2 -2q-34 -24 -47 -51t-25 -66t-29 -75t-57 -52l-2 -2q0 -46 -14 -69t-31 -41t-31 -41t-14 -71l-2 -2q-40 -30 -56 -64t-31 -73t-27 -70t-36 -57l2 -4q12 -6 9 -23t-1 -27q-20 -34 -40 -63t-35 -58 q-35 -68 -35 -135v-2h-4q-34 -4 -48 -25t-21 -49t-9 -56t-11 -44q-8 -15 -24 -15q-24 0 -65 33l-54 40q50 109 74 198q14 52 30 102t48 96v2q0 38 28 105t41 99t13 72q22 35 39 98.5t30 95.5t37 58q0 2 7 26t15 52t15 54t19 65q42 137 42 245q0 16 -2 33t0 33q71 108 92 236 v2q-24 49 -40 58q-22 10 -46 1t-50 -17t-50 -4t-44 40v4q-26 -10 -45 -23t-53 -1l-2 2q0 22 -12 39t-22 35q-10 -12 -24 -12t-30 4t-31 11l-29 13q-6 26 -22 39t-34 23q-44 24 -44 58z" />
<glyph unicode="N" horiz-adv-x="1460" d="M-266 1560q17 5 34 5q22 0 44 -9q38 -16 72 -30t65 -15h1q30 0 58 41l2 4h6q28 0 53 9l50 18q40 14 71 14q19 0 34 -5l2 -2q38 33 38 62q16 0 38 4t34 -6h2q24 27 66 44l66 28q62 26 67 54q3 16 3 31t7 27t28 15t40 13t36 15q9 3 16 3q27 0 37 -34v-2q9 -13 2.5 -30.5 t-7.5 -23.5t9 -12h4l8 -38q0 -28 -25 -57t-34 -47t-3 -44l2 -2l-92 -186v-2q5 -9 5 -17q0 -23 -32 -46q-15 -11 -24 -23t9 -28l4 -2q-16 -46 -43 -89t-27 -91l4 -30q-18 -36 -20 -45t-3 -53t-19 -58q8 -8 12 -9t17 7t17 12v2q11 59 83 144q27 32 50 62t27 64v6q43 0 45 37 q1 15 1 29t10 20h2q30 6 37 43q9 43 25 57h2l2 2q26 8 37 28t20 43t20 43t39 26h2q-2 10 14 31t20 39l14 -12q2 2 2 6q22 66 75 119t101 99q8 -2 21 6t28 16q20 11 39 11q17 0 32 -9q8 -10 22 -29t29 -39q37 -49 33 -72q-13 -8 -19 -73q-10 -123 -21 -131q4 -22 8 -43 t-12 -37l-4 -2q8 -8 9 -20t3 -22q-24 0 -24 -12v-15q0 -9 -12 -19l-10 -228q-16 2 -26 -13t-20 -25q0 -62 -16 -113t-30 -86t-23 -59t-18 -50q-18 -50 -18 -78q0 -5 1 -10h-4q-29 -67 -64.5 -176.5t-35.5 -123.5h2l6 -8q0 -4 1 -10t-6 -15t-11 -19q0 -44 -16 -82t-16 -80 q16 -10 31 -22t31 -22q6 16 18 22t25 11q31 12 31 39q18 9 54 19q65 17 87 30q83 48 126 58.5t52 32.5t17 42t24 31q21 14 60 -5q0 -52 -22 -81t-51 -52l-58 -46t-38 -47t-25 -35t-36 -21q-48 -24 -64 -24l-100 -56l-14 10q-36 -34 -80 -52h-4l-16 10l-2 -2q-9 -3 -20 -3 q-29 0 -70 26q-14 9 -28 13q-36 36 -54 70t-18 87q0 87 50 217q8 12 14 30q9 27 13.5 79.5t17.5 92.5t53 74l4 2l-4 2q-22 24 0 46q23 23 4 52l18 2l2 2q19 31 26.5 99.5t19.5 105.5t44 67v2q-15 32 0 61q30 61 30 79t-6 27t-10 21q27 27 30.5 66.5t7.5 62.5t20 43h2l4 60 q6 85 22 118h2q-4 12 -4 23q0 49 -28 69v2q-8 -4 -34 -4q-55 -52 -103 -124l-74 -113q-27 -41 -59 -77h-2l2 -16q2 -42 -42 -42q-70 -88 -88 -202q-4 4 -8 7t-8 7q-14 -28 -60 -89t-82 -110q-86 -116 -112 -209v-2l-2 -2q-56 -36 -76 -73q-8 -15 -20 -40q-31 -65 -68 -99 q-31 -103 -50.5 -133.5t-29.5 -47.5t-19 -35q-20 -38 -20 -59q0 -4 1 -7q-22 -22 -34 -67t-21 -64q-5 -11 -37 -43l2 -2q5 -19 6 -35q0 -41 -34 -70q-20 -17 -46 -33t-44 -44q-34 24 -60 94q-14 39 -14 66q0 23 9 40q21 36 50 66t52 61q14 19 14 43q0 14 -5 30q46 0 74 53 q21 39 -2.5 56t-37.5 25l2 4q3 55 54 96q20 16 36 36t16 56q30 85 49 124.5t39 82.5t20 92t17 106t79 99l2 2l-2 2q-10 38 -7 62t13 63t10 71l-2 24q6 8 21 17t26 18q28 23 -3 43q-2 3 -2 9q0 36 75 159q17 28 25 34q-15 8 -32 8q-20 0 -40 -12q-38 -20 -58 -33t-38 -19 l-2 -2q-12 -38 -32 -45t-43 -4t-46 7t-39 -10l-6 -2l-10 6l-2 -2q-2 -10 -14 -15t-24 -2t-22 5q-25 5 -34 -26q-24 8 -49 8q-10 0 -21 -1q-36 -5 -75 -9q-14 -1 -28 -1l-50 4q-39 7 -75 45h-2z" />
<glyph unicode="O" horiz-adv-x="1506" d="M-40 272q0 114 11 191t21 155v2q81 207 95.5 264.5t24.5 87.5l2 2q24 0 36 12q0 108 98 206v2q8 42 34 77t55 67q77 85 91 144q26 26 58 50q36 32 71 63t64 63t50 55t43 43q51 47 106 82l2 2l12 -14q22 14 43 24t40 22t40 25t43 23q38 17 68 17q10 1 18 -1q34 -8 46 -26 t34 -38q62 -14 81 -101q5 -23 8 -40t5 -26t2 -19q-8 -16 -29 -14t-35 2l-4 -2v5q0 40 -44 82q-31 30 -86 57q-22 -6 -22 -52l20 -22l12 12q12 4 21 -7t17 -7h2q51 -70 58 -118q4 -28 10 -54t30 -46q-2 -22 5 -52t7 -83.5t12 -110.5v-2q-14 -35 -14 -61.5t12 -56.5t20 -58 q5 -20 5 -37q0 -44 -33 -75q6 -16 -4 -32t-10 -28t6 -17t10 -11q-32 -10 -37 -31t-3 -45t-1 -46t-33 -36q0 -6 1 -13t-5 -12t-14 -9q-20 -10 -20 -24t-1 -32t0 -34q2 -38 31 -52h8q36 6 63 -4t43 -15t32 5q16 -2 30 1t27 4q7 1 13 1q26 0 50 -10l2 -2q30 -2 55 19t39 29 t34 4l2 -2q76 35 109 42.5t39 12.5t9 12t7 17t20 24q73 21 104 28q-26 -86 -71 -123q-42 -35 -127 -63l-2 -2h-2q-22 -26 -52 -55t-74 -29q-10 4 -17 11t-15 11q-2 -10 -2 -17t-6 -15q-10 -10 -39 -12t-43 -6t-22 -22l-4 2q-32 24 -50 16t-33 -21t-30 -17t-41 26q-2 2 -2 3 t-2 3q-21 -14 -32.5 -10t-22.5 10t-21 9t-22 -11q-2 2 -6 14q-6 18 -50 14h-28q-14 -16 -25 -26t-11 -38l4 -20q-33 -17 -54.5 -44.5t-43.5 -67.5t-39 -66t-55 -48q12 -22 6 -42l2 -10q-11 -27 -37.5 -32.5t-40.5 -10.5t-22 -23q-6 6 -12 13t-15 8t-16 -4t-14 -11t-13 -14 t-12 -12q2 -34 -22 -47t-44 -29q-18 21 -39 21q-20 0 -41 -19q-36 -4 -73 -10t-95.5 -6t-113.5 38q-10 -10 -19 -10h-21q-12 16 -27 27t-36 29q-70 60 -92 102q-35 64 -35 178zM120 213q8 -51 36 -111v-2q10 -14 34 -12t36 14l4 -2q27 -35 114 -35h19q25 1 45 1l178 112 q26 16 45 26t42 29t35 34t34 37l136 136q4 4 12 23t7 32t-19 26t-40 24t-42 24t-26 35q-10 10 -21 22t-21 21t-23 21t-23 25q-22 29 -22 53v6l-2 2q-35 20 -43 67t-27 63q-30 60 -35 129t-7 110t-8 79v2q14 22 13 52t-1 52q-58 -108 -131 -208t-129 -214l14 -12 q-25 -25 -37.5 -70.5t-21.5 -88.5q-24 -113 -65 -157v-2h-2q-42 -22 -48 -49t1 -56t16 -60q4 -13 4 -27q0 -18 -7 -36v-2q-26 -50 -26 -92q0 -11 2 -21zM714 1168q4 -10 9 -18t5 -23t-3 -28t-5 -26q-4 -27 20 -51q2 -8 -1 -17t-3 -24t7 -44t14 -59t13 -54t6 -34 q46 -40 90 -80t110 -62q14 42 34 80t39 75q44 85 47 169h2q2 18 8 29t8 21q4 22 -18 48q28 28 29 62v9q0 30 -6 61q-7 36 -12 70q-1 8 -1 16q0 25 12 46l2 2q-33 65 -45.5 127.5t-21.5 97.5t-24 66q-32 67 -111 93q-8 -14 -8 -33t12 -33l2 -4q-2 0 -2 -1t-2 -1 q-132 -107 -179 -349q-13 -67 -25 -129z" />
<glyph unicode="P" horiz-adv-x="1440" d="M-102 313q0 15 10 35t18 42l-12 36q0 4 -2 15t-3 22t-2 20t3 13q2 4 6 16t4 16v16l2 2q-8 16 -8 22q-18 18 -7 29t19 14t13 8t6 34t-3 39q-7 6 -7 18q0 24 26 73q9 17 13 23l4 2l-6 44q0 40 17 71t28 69q30 103 52.5 142.5t24.5 53.5q8 60 50 104q16 73 28 92 q10 16 22 29t18 31q-8 8 -8 12q10 22 31 31t33 28t24 41t34 49t52 66t59 61t52 31t44 19t41 20t41 20t42 18t43 17t42 22q32 21 70 21h5q41 -2 65 -2t46 -8t36 -12t23 -3t13 -1q56 -4 96 -26q20 4 38 -5t32 -12q11 -2 20 -21q48 -35 75 -63.5t45 -46.5t37 -48 q38 -59 83 -108q8 -8 -2 -18q10 -10 24 -52q14 -43 21 -99.5t18 -75.5t13 -22t2 -13t-3 -12t-9 -10q0 -10 -2 -20t0 -20l2 -2q5 -22 5 -41t-5 -35h2q0 -22 -18 -53t-28 -55t-19 -52t-33 -61t-56 -65t-57 -45t-50 -34t-49 -47t-62 -38q-12 6 -14 8q-59 -39 -140 -50 q-22 -4 -46 -2t-44 -6q-8 -10 -10 -21t-24 11q-32 13 -65 13q-8 0 -16 -1q-41 -4 -70 -9t-39 -5q-2 -4 -4 -5q-28 -14 -57 -81q-7 -16 -9 -24q10 -6 10 -14t-10 -30t-22 -48q-34 -73 -40 -88.5t-22 -35.5t-29 -43t-23 -48t-36 -73q-52 -96 -192 -188q-8 -4 -14 -8t-14 -4 q0 -38 -23 -48q-3 -1 -7 -1q-6 0 -12 4q-10 7 -18 35q-22 -6 -60 16q-24 -10 -40 0t-6 20v6q-4 6 -11 9t-13 7h-2q-28 22 -46 42t-18 60q-29 18 -29 54q0 5 1 11q2 17 5 33t-3 28l2 92q-4 4 -8 6t-4 17zM72 354q-4 -18 -4 -40q0 -72 38 -188q41 -8 56 -56q18 16 36 31 q44 37 55 71t35 66q64 85 90 170q-8 8 -8 12l2 2v2q-4 6 6 15t19 18t16 20t11 21t8 22l10 30q0 20 16 20q8 4 5 24t13 36q-18 6 -34 13t-54 17t-62 36t-52 80q-10 0 -15 7t5 13q-12 14 -29 25t-9 33q8 12 24 12q-6 18 -6 32q-10 10 10 24h2q26 35 41 37.5t38 -8.5t23 -29 q38 -11 52 -38v-4q-4 -8 -12 -10q16 -4 22 -12q20 -8 42 -26q43 -35 68 -38q12 32 28 70t32 78q38 95 38 152q-8 14 4 22l-2 38q2 6 8 6v2q-2 2 -2 16l6 8q0 6 6 12q0 10 16 10v2l-2 4q0 8 8 28q-4 8 -6 16t-6 14q-6 10 2 18v6q-30 14 -18 24t24 22q-4 2 -4 11v13 q0 12 -6 37t6 25l-2 8q0 22 7 54t31 36t40 -42q10 14 25 14q17 0 38 -20q15 -14 24 -33t3 -31q0 -8 -6 -8q-4 -10 -10 -16q37 -18 37 -87v-14q-1 -21 -1 -35l-2 -4q0 -8 5 -21q7 -19 -3 -29q0 -49 6 -58v-22q-6 -12 -24 -30q-34 -34 -30 -44q10 -10 23 -13t13 -22t-13 -20 t-25 -13q-40 -38 -48 -78t-14 -72t-7 -46t-9 -26v-2q68 0 92 20q2 6 24 7q153 7 217 41q20 10 61.5 41t68.5 44t47 35q13 52 64 98q-12 12 -1 35t21 33q0 12 6 23t5 21t-1 18q-6 6 -1 10t9 8h2q-4 4 -16 11t-2 15l-2 2q4 4 4 19.5t22 34.5q-15 28 -20 38q-6 30 -6 82 q-10 20 -24 36q-27 31 -36.5 65.5t-19.5 50.5t-20 25t-21 18q-26 21 -34.5 38t-0.5 29l-2 4q-16 -2 -34 13t-24 27q-30 30 -84 30l-6 4q-36 -10 -60 0q0 -24 -14 -30q-7 -7 -19 8l-20 22q-7 8 -9 12v2h-4q-20 -18 -27 -23t-26 -1t-25 4t-10 8q-2 0 -14 6l-2 -2 q-24 -10 -51 -19t-52 -22t-52 -19q-56 -13 -91 -60q-16 -22 -34 -42q-13 -60 -94 -118q-2 -4 -5 -4t-7 -2q0 -49 -16 -75.5t-31 -40.5t-29 -31t-25 -25t-18 -17q-9 -12 -9 -39q2 -4 6 -7t4 -9q-8 -16 -18 -30t-17 -39q-24 -85 -47 -121q-14 -61 -18 -90.5t-8 -46.5t-15 -42 t-18 -55t-6 -60q0 -9 1 -16q0 -62 -22 -74q-6 0 -14 -8q2 -8 -3 -17t-2 -18q7 -21 7 -43l-2 -4q0 -14 3 -26t-3 -24l-12 -85q0 -11 -8 -53z" />
<glyph unicode="Q" horiz-adv-x="1424" d="M-162 161q0 7 6 7v51q0 61 30 61l6 2q4 4 6 12t6 12l-4 6v8q10 14 21 18t21 14q-14 4 -20 12v10q6 14 18 14h2q4 0 18 13t37 34t65 57q39 34 139 67q16 5 56 23q82 36 181 36q10 0 10 -10q8 4 10 -2q22 -14 45 -12t47 5q12 1 23 1q44 0 71 -22q4 1 9 1q25 0 63 -17 q46 -20 52 -17t12 11t16 2t8 -12t-2 -14l-4 -8h2v-2q6 8 25 9t27 -1q16 24 19 51t13 52t22 50t20 62q21 98 74 177q-12 13 -12 33q0 24 18 59q4 8 8 14t8 14q-2 4 -6 8t-4 14q0 17 10 42q4 10 3 22t0 20t1 16q-8 2 -8 12t2 11t13 14q15 18 15 101q-10 22 -17 32t13 30 q-4 0 -9 6t-7 8h4q-4 16 -4 24q-19 19 -8 24q0 22 1 23l15 15v15q0 7 -4 17h-2q-8 -6 -10 -7t-8 7q0 8 2 8t8 4q-12 18 -20 34t-14 27t-8 30t-10 52t-46 41q-8 -4 -19 -9t-17 5q-8 14 8 36v2q-6 4 -2 18q-12 -12 -22 -6q-9 -23 -18 -32h-4l6 -6v4v-4q-10 -30 -30 -42t-30 -8 q-24 9 -12 31.5t12 32.5q-6 6 -24 3t-28 7q-26 -22 -48 -47t-45 -40t-42 -24q-39 -18 -61 -43.5t-38 -41.5q-13 -41 -72 -118q8 0 13 1t16 2t21 0q25 -2 12.5 -27.5t-35.5 -25.5t-58 -23t-56 -52q-26 -36 -37.5 -75.5t-25.5 -74.5t-22 -68t-21 -58t-17 -53l2 -8v-6 q0 -32 18 -72t48 -56q6 -4 16 -2t18 -6v2q18 36 43 8q7 -8 13 -16h2l2 -2q16 4 24 11t24 7q26 26 57 51t62 51q71 59 96 101q38 63 49 117q4 8 10 8l30 37q14 17 31 21t26 9t24 3t15 -14l2 -4q34 -28 34 -54q0 -4 -12 -16q4 -4 11 -10t-3 -14l-14 -26q0 -2 -4 -14 q0 -46 -38 -112q-6 -12 -15 -15t-13 -13l-2 -2l2 -2q0 -4 -16 -23t-32 -40q-22 -29 -92 -81q-130 -96 -266 -112q-28 -22 -59 -14t-59 20t-46 10t-20 1t-21 14t-40 37t-39 56q-40 67 -40 118q-10 4 -8 10t12 6q6 18 5 42t6 45t22 46t25 46t21 43q28 56 36.5 85t18.5 50 t21 43t21 44q-4 6 -1 11t13 1q14 32 34 59t31 48t17 34t19 28t37 27t40 33t32 43t34 44q6 14 20 16q6 -2 8 -8q25 29 64 52q20 12 35 31t32 27q40 19 55 34q8 4 25 3t40 7t47 15q20 6 40 6q37 0 74 -19q4 6 6 14q2 6 9 6h4q11 -2 11 -9t4 -15q24 -16 46 -29t45 -41t41 -62 t32 -68t28 -69t34 -73q0 -10 -8 -18h2q8 -8 8 -12l-13 -26q-7 -14 -7 -38t10 -54t18 -60t8 -60t-20 -66q10 -23 10 -43t-11 -35q-9 -12 -19 -24t-10 -34l2 -16q0 -24 10 -36q-6 -10 -10 -12h-2q-4 -22 -12 -42t-19 -58t-26 -93t-31 -95t-23 -68t-14 -42l-15 -30 q0 -52 -10 -62q-12 -12 -12 -24q4 -4 5 -8t8 -14q16 -23 35.5 -43.5t41.5 -35.5q40 -27 62 -66t38 -61t21 -47t17 -48q35 -68 42 -99l2 -2l2 -6l-2 -2q2 -4 2 -12q-10 -18 -6 -34t4 -33t-7 -26t-15 -21q-19 -45 -41 -33q-9 5 -19 16t-21 15q-13 5 -13 24q5 8 -2.5 27 t-10.5 41t-13 46t-28 46t-36 49t-30 46t-24 32q-39 43 -64.5 58t-31.5 19q-4 -8 -47 -61t-71 -77t-49 -37t-42 -29t-31 -28t-20 -23q-25 -27 -67.5 -44t-58.5 -32q-35 -33 -50 -33q-5 0 -8 4q-8 -4 -16 -6t-15 -5t-26 -8t-40 -12q-55 -18 -55 -31q-7 -12 -16 -12h-3 q-11 2 -11 18l-2 4q-25 -15 -49 -15q-22 0 -43 13q-30 -8 -58 -8q-92 0 -165 89q-27 33 -61 67q-14 -8 -22 2q0 10 12 18q-2 32 -18 62q-4 16 -17 28q-15 14 -15 27zM34 170q0 -20 10 -35t17 -33t20 -29t29 -15t35 -4t38 -4t46 -14t37 -12q38 17 67 22.5t39 12.5t23 11t30 8 t36 17q53 36 87 41q20 38 46 58l-6 4q0 14 16 20t30 11t22 21t14 32q16 42 28 42l4 4h2q4 4 6 4q6 0 18 6q0 14 2 16q-19 24 -24 36v2q-36 3 -62 20.5t-32 24.5t-14 11q-24 4 -48 1t-49 -1t-48 6q-15 3 -29 3q-7 0 -14 -1q-20 -2 -45 -11t-50 -21q-72 -35 -84 -58 q-3 -6 -21 -6q-4 4 -9 4t-9 2l-28 -6h-18q-29 -65 -49.5 -89.5t-41.5 -52.5t-21 -48z" />
<glyph unicode="R" horiz-adv-x="1182" d="M-269 73q30 26 30 56q-1 3 -1 7q-4 34 3 44t12 12t20 12t17 24t5 31t3 20t-10 7q10 14 23 21q28 15 24.5 42t0.5 42t17 26t17 22t7 22t6 25q7 33 7 42.5t-1 23.5t4 26t13 26q19 34 20.5 57t6.5 38t26 25t27 23t7 21t4 20t11 45t16 48t25 27t27 28l-12 64q4 12 12 24 q15 23 22.5 43.5t16.5 36.5t29 28t30 34q0 10 -3 10t-7 4q-10 0 -14 8q10 14 26 20t25 24t6 36q-4 21 16.5 49.5t29.5 42.5t24 20t25 24q8 18 5 35t6 31t24 20t24 21t7 34t5 32t12 28t12 24t32 36t44 51t28 39t19 25l48 40q12 10 29 16t26 14t8 13t3 9q4 -8 7 -15t7 -15 q18 18 24 20t15 6t19 10t21 12t20 11t18 5t24 -11t33 -17t35 -1t34 -6t31 -20t25 -20t24 -35t21 -28q7 -58 15.5 -100t7.5 -57t1 -31t-4 -32t-4 -33t16 -32t14 -31l-14 -64q0 -32 -4 -64q-2 -16 0 -32t2 -43t-13 -55t-19 -52t-4 -40t2 -27t-10 -36t-15 -36t-16 -23t-16 -26 t-2 -30t3 -30l-2 -14q-10 -14 -24 -24t-22 -24t-24 -23q-29 -17 -38.5 -40t-20.5 -37t-14 -34t-14 -31t-31 -10t-38 -19l6 -10q-14 -6 -29 -5t-29 -3t-29 -19t-25 -15t-25 4t-32 8q-24 6 -55 16l-20 8q-24 10 -36 21t-31 19t-28 11t-15 -7q-29 24 -49.5 38t-33.5 26t-26 20 t-22 11t-16 5q-19 6 -33 22l-4 -12q-4 -4 -14 -6t-14 -13t6 -32t6 -35t0 -35t-6 -31v-4q-6 -10 -14 -19q-20 -22 -9 -43.5t9 -37.5l-2 -56q0 -20 -13 -42t-7 -38t20 -30t14 -36v-35q0 -35 15 -65t30 -35t22 -14q9 -12 11 -39.5t18 -39.5t44 -30h2q18 0 34 6t33 4t27 -16 t38 -18q18 -3 39 -3q24 0 50 4q38 5 56 5h9q16 -2 33 1t32 5t40 7t56 10t56 12t36 25t24 23t32 0t35 2t30 13t28 15t32 11t34 11t23 26t18 25t28 20t35 20q20 9 35 9q18 0 27 -13q-7 -12 0 -35l11 -32q2 -6 2 -11q-1 -15 -19 -24q-24 -12 -36 -19t-33 -8t-36 -6t-27 -18 t-29 -22t-36 -18t-29 -27q0 -13 14 -22l2 -4q-16 2 -36 7t-35 1t-28 -10t-28 -11t-29 -9t-29 -8t-27 -15t-24 -16t-19 -4t-22 0q-37 -2 -69 -14.5t-46 -31.5t-27 -21q-4 -1 -8 -1q-10 0 -21 4q-16 5 -32 3t-30 9t-33 9t-33 -13t-28 -11t-30 5q-45 14 -62.5 8.5t-33.5 -1.5 t-25 23t-31 26q-55 18 -102 41l2 6q-5 13 -20 -2h-2q-39 39 -39 52q0 8 9 25q6 11 5 29t-18 34t-25 29q-11 18 -38 45l-28 108q-9 -9 -15 -33q-12 -44 -20.5 -52.5t-0.5 -33.5t-7 -48t-25 -36t-12 -22t0 -25t2 -56q-4 0 -11 -6t-19 -5t-26 3t-31 2t-41 -12q-8 0 -12 -12 q0 12 -20 29q-21 18 -21 36q0 15 16 30zM250 930q8 -10 28 -12q40 -4 48 -12t16 -20t19 -22t17 -27t24 -32t24 -23t18 -16t29 -9q35 -1 57 -19q20 -16 35 -16h4q17 2 27 16t24 20q4 4 11 4t16 2t14 4t10 5q58 35 72 75q5 14 14 27t10 30q2 34 28.5 49.5t38.5 29.5 q-16 32 -12 47t16 38t12 39t11 35q19 33 19 79q12 0 22 5t-12 13q16 32 16 47t-6 38t-10 35l-8 24q0 8 5 15t9 14q10 18 -12 37q14 0 14 6l2 2q0 4 -11 9t-15 5q4 6 15 20t1 22q-3 30 -25 64l-33 49q-10 15 -12 29q14 14 14 25t-12 39t-26 32q-5 1 -10 1q-11 0 -26 -5 q-22 -8 -45 -20q-43 -22 -65 -40t-37 -21t-25 -15q-8 -28 -13 -50t-16 -41t-14 -27t-12 -21t-21 -23q-27 -23 -33.5 -48.5t-12.5 -36.5t-11 -23q-13 -31 -13 -43.5t14 -26.5q-10 -10 -21 -17t-21 -19t-21 -24t-17 -28t-13 -28q-20 -34 -17.5 -58t-2.5 -36q-7 -18 -17 -43 q-18 -45 -32 -65q-6 -16 -23 -35t-21 -29z" />
<glyph unicode="S" horiz-adv-x="1266" d="M-1086 -278q10 22 34 34t52 23q77 30 102 69q46 24 93 44t85 54q10 -2 20 -2q27 0 61 11q47 15 81 25l6 4q8 19 31 32q44 23 63 52l2 2l-2 2q-13 42 -50.5 99t-51.5 89t-14 74q10 12 20 28t22 31q30 37 58 37l22 -20q20 22 51 22t66 -7l70 -14t63 1q32 -16 58 -38t53 -38 q35 -21 70 -21q29 0 59 15l6 2v4q4 30 25 47t45 31t44 29t24 41q113 96 159 148q76 84 153 200l2 2q-4 14 11 35t29 47q18 32 18 61q0 31 -20 59q14 28 19 56t23 54l4 8q-18 8 -19 27t2 43t4 49t-15 43q40 30 51 70t15 81q5 54 34 119l-2 2q-13 31 -13 56q0 21 9 38 q20 38 56 71t75 65t53 78q26 18 54 18q9 0 19 -2q63 -13 131 -104q13 -17 13 -50q0 -27 -9 -66t-9 -67q0 -21 5 -37q-30 -50 -47 -133t-31 -124t-48 -73v-2q-40 -68 -89 -140q-82 -120 -125 -210l-2 -2q16 -30 4 -56t-26 -54q-16 -32 -16 -62t34 -64q-10 -12 -10 -32t1 -39 v-12q0 -39 -17 -49l22 -20l-6 -102q0 -34 -6 -64q0 -16 7 -30t13 -27q14 -31 -10 -55q17 -33 38.5 -35.5t40.5 2.5t39 8t42 -19q88 46 192 75t173 54t111 60t73 63t59 34q-15 -146 -228 -230q-56 -22 -104 -42q0 -30 -13 -38t-31 -9t-39 -1t-37 -12l-20 16q-6 -8 -13 -13 t-14 -14l-14 -18t-21 -9q-17 6 -35 6q-24 0 -51 -11q-96 -43 -130 -43l-34 -31q-10 -13 -25 -35t-30 -39t-47 -13q-10 10 -33 21t-24 16t-15 15q-36 -22 -148 -44t-132 -24l-36 34h-2q-80 -16 -158 -16h-124q-46 0 -94 -2q-30 50 -60 51t-60 -15t-59 -34t-59 -2l-2 -2 q-50 -22 -90 -51t-79 -58q-100 -75 -181 -89q-23 17 -43 17q-9 0 -17 -3q-28 -10 -55 -26t-51 -24q-6 -2 -11 -2q-18 0 -35 20h-2v2q-26 18 -56 -12q-6 -6 -12 -4q-8 0 -12 10zM-408 271q14 -25 35 -46t36 -40t-5 -43l6 -12h58q4 4 17 15t15 17q8 6 20 19t26 26q33 31 53 31 h3q-31 9 -80 58q-17 -9 -34 -9q-16 1 -33 9q-33 16 -50 22t-35 -6q-8 4 -22 18q-15 -21 -15 -39q0 -11 5 -20zM-130 98l252 -16l-84 58h-2q-12 26 -38 18q-4 -2 -16 -4t-25 -5q-33 -8 -29 -19zM132 238l60 -60q29 10 45.5 2t31.5 -17q37 -22 59 -3q12 -8 16 -14q30 -2 59 -8 t58 -8q7 -1 14 -1q56 0 93 37h2l2 26q0 42 -17 79t-17 64t7 49t7 56l-8 134q-6 6 5 16t15 14q-12 8 -42 38l-12 -6q0 -14 -12 -23t-26 -18q-26 -16 -26 -42q0 -7 2 -15q-57 -42 -126.5 -119t-107.5 -114t-82 -67zM722 1232l2 -4q53 0 61 54q3 20 7 35t24 13q0 28 15 49 t29 41t21 42t-11 56q14 26 15 58l2 64q2 79 49 104l-2 16h-4q-9 0 -22 -8q-16 -10 -23 -9t-13 13l-14 -4q1 -8 1 -16q0 -70 -46 -155q-21 -39 -45 -78t-40 -81q-20 -53 -20 -104q0 -44 14 -86z" />
<glyph unicode="T" horiz-adv-x="2346" d="M-154 998q11 3 21 3q33 0 55 -35l16 22q24 -28 31 -71t16 -83t29 -69q19 -27 65 -27h7q19 -107 140 -200q34 -26 67 -50l77 -56q49 -35 66 -70q82 0 139 -18t137 -58q2 10 11 23t23 19t42 -6t57 -22t53 -6t36 44q43 -6 80 -6q116 0 168 58q32 -28 54 -15t41 31t37 25 t44 -35q22 10 51 20t66 26q134 58 221 58q24 20 49 55q45 63 45 91q14 20 28 37t26 35q28 42 28 84q76 87 76 186q0 22 -4 44q52 67 93 197q11 35 11 55t-6 31t-30 24t-39 1t-25 -27t-20 -22t-24 17q0 -4 -6 -6q-103 -103 -290 -169q-54 -19 -104 -29h-2q-39 -54 -42 -58 q-28 20 -32 54t-12 64q28 59 65 87.5t63 42.5t56 36q17 -14 30 -14q15 0 27 17q9 13 16 28t19 19q36 -18 61 -5t48 34t48 37q14 9 30.5 9t34.5 -9q60 60 127 83q54 19 96 19q54 0 85 -32q0 -319 -132 -562v-2q-5 -24 -24.5 -60t-27.5 -56t-13 -40q-7 -28 -7 -92 q-24 -16 -26 -47t-12 -57q34 -34 53 -12q9 10 17 25t16 29h2q48 48 128 88t123 64t81 60q18 4 36 2t26 18l6 -4q-34 -66 -79 -111t-96 -84t-103 -76t-98 -87q-63 -5 -169 -71q-27 -17 -49 -31v-2l-10 -14q-23 23 -52 -2q-12 -10 -23 -21t-21 -13l-2 -2v-2q-44 -76 -105 -129 t-128 -97t-137 -87t-130 -99q-29 29 -55 29q-5 0 -9 -1q-30 -6 -62 -30t-53 -29q-4 -1 -10 -1q-21 0 -53 16q-20 -12 -40 -5t-40 16t-36 9q-28 0 -48 -24q-12 4 -25 11t-27 11q-33 10 -56 -10q-6 16 -18 21t-16 17l-2 2q-58 0 -129 20t-102 41q-43 29 -63 49l-14 -20 q-80 48 -146 119l-105 113q-39 42 -83 80q-12 88 -58 160t-91 142t-73 146q-16 43 -16 92q0 39 10 82zM422 226q36 -24 71 -46t55 -35t25 -19t19 -13t50 -15t58 2t33 9t29 -19l14 20q8 -4 16 -12q14 4 28 6t20 14q48 -36 90 -78q16 24 21 27t27 -19q12 28 30 28t37 -6t40 -7 t39 27q10 4 21 15t23 20t23 9t21 -18q32 32 65 39t57 13q62 16 62 40q57 31 178 128q-4 2 -10 2q-28 0 -112 -30q-203 -74 -224.5 -74t-33.5 -1t-34 9q2 -4 2 -13t2 -13q-4 -14 -23 -20t-29 10q0 22 14 34t14 30q-12 -2 -22 2t-22 -6t-14 -27t-4 -33q-5 -40 -30 -40l-60 6 q-13 1 -25 1q-35 -1 -71 -7q-48 -8 -60 -9t-24 -5q-14 34 -38 34q-12 0 -21 -16q-18 -32 -23.5 -33t-19.5 18t-18 23q-16 -28 -32 -31t-50 9z" />
<glyph unicode="U" horiz-adv-x="1504" d="M23 206q-2 9 -2 16q0 10 3 16q6 12 9 26t5 29q4 30 4 47.5t-9 31.5t-9 30t9 30t11 30t4 31q6 46 4 61q-3 23 7.5 52.5t13.5 43.5t-2 32t-5 30h6q4 16 16 30t12 26l-2 26q-2 8 0 24t10 29t14 30t5 31t4 27t15 27t15 29l11 33q9 27 9 47q-1 10 -3 19q-6 26 -6 38 q6 16 18 33t15 36t2 36q-1 13 -1 25q0 32 6 50q8 26 22 36q27 19 20.5 48.5t-6.5 45.5q6 16 17 26t17 26q8 16 23 23t24 22t15 29t16 30q-16 16 -20 24q-4 2 -8 2h-8q0 10 21 13t31 7q4 14 -1 18t-7 18h-8l-2 10q18 0 30 -6q14 36 30 42q35 14 51.5 7t20.5 -9t14 0h2 q4 -12 4 -20l10 6l2 -2q0 -10 13 -19t13 -25t-16 -33t-24 -34t-7 -39t-11 -41t-35 -56t-21 -65l6 -2l6 -4q0 -38 -48 -86q2 -10 -15 -24t-20 -25t-11 -40t-8 -43t4 -34l-2 -14q-6 -16 -11 -31t-13 -36t-18 -53l-8 -28q-8 -24 -15 -48t-13 -45t-4 -39q4 -33 -9 -55.5 t-17 -42.5t-17 -34t-15 -42t-2 -42t-3 -25t5 -31t8 -32t-21 -26t-23 -30t7 -30t9 -31t-8 -34t-4 -35l8 2l6 -6v-2q-17 -19 -17 -58q0 -34 18 -62q19 -30 19 -68l10 -12v-2l2 -2l-6 -10q16 -16 41 -43t45 -33l2 -2q14 8 24 19q26 28 50 25.5t37 7.5t17 26q9 35 47 37 q17 1 29 13t12 30t10 32l40 46q10 12 22 22t22 22t27 21t25 22t16 29t19 31t16 32t16 32t21 30t22 29q0 59 10 72.5t16 20.5t10 24t-1 33t-1 33t16 29t16 28t12 30t12 30t10 31t10 27t2 27t-2 31t26 68q0 16 -2 35t2 34t17 27t17 28t13 28t14 29t0 34q-9 32 7 54 q26 36 26 58q0 5 -2 9q-6 22 0 39t24 26t24 25q8 16 14 30t12 27t10 31t10 33t15 42t24 64t26 65t11 44t8 32h2l2 2q6 -8 18 -16q4 8 22 25q15 14 26 14h4q12 -3 31 -21t31 -25t16 -19l6 2v-2l2 2v-2h2q4 -4 6 -4q0 -7 -8 -21.5t-12 -23.5t-10 -23t-8 -53t-10 -70t-22 -60 t-21 -53t-10 -40t-10 -40t-17 -55t-17 -54t-7 -40q0 -40 -16 -57.5t-22 -33.5l8 -68q-6 -16 -19 -29t-19 -29q0 -20 8 -36t8 -38q-10 -16 -18 -24t-15 -20t-14 -26t-14 -27t-10 -21q-4 -10 3 -52l-2 -14q-15 -40 -23.5 -59t-19.5 -31q-24 -26 -22.5 -52t-4.5 -39t-11 -17 t-11 -9t-15 -17t-20 -27t-19 -28t-12 -17l-6 -94q0 -16 14 -27t12 -23q-4 -24 -4 -50q0 -14 3 -26t5 -27t3 -31t8 -26q8 -12 13 -24q11 -33 26 -40v-2q30 -4 55 -6t40 14q24 25 32.5 28.5t16.5 -1.5t17 -11q29 -20 51 2q2 2 17 12q27 18 63 48t51 44t31 24v2q10 10 24 16 t25 15t11 30t7 29t19 10t26 5q40 8 50 19.5t12 30.5t10 28t19 10t24 1q32 0 35 6q-6 6 -10 18q8 4 24 17t33 26q43 33 53 23v-8l2 -4q-2 0 -12 -10h-2v-10q0 -34 -12 -52q-24 -36 -38 -62t-31 -33t-26 -22t-16 -28t-16 -27t-21 -30t-19 -26t-17 -15t-21 -9q-24 -9 -37 -22 q-52 -75 -74 -91.5t-35 -22.5t-28 -16t-23 -28t-16 -24t-19 -7t-24 -2q-36 -3 -48.5 -10t-24.5 -16t-26 -15t-30 -5t-30 1q-6 -3 -6 -16h-2q2 6 2 18q-24 12 -45 9t-41 0q-28 4 -62 17q-16 6 -30 6t-28 16l6 6l6 10q-12 6 -34 13t-31 19t-7 30q3 25 -15.5 49.5t-25.5 42.5 q-8 20 -19 82q-12 -20 -21 -46q-20 -58 -65 -58q-24 0 -38 -15t-17 -33t-13 -28q-48 -50 -92 -95t-114 -65q-18 -4 -35 0t-29 3t-25 -5t-28 -7t-32 -6q-28 -5 -53 -5q-2 4 -2 12l-2 2v4q-15 15 -40 50q-10 10 -24 23t-22 26t-13 30t-11 32t-20 27t-19 29t-7 35t-5 30z" />
<glyph unicode="V" horiz-adv-x="1086" d="M20 1650q2 4 6 24t15 54t30 62q41 61 115 68q52 -21 85 -125q13 -41 27 -82t38 -69q-13 -31 -13 -70q0 -48 20 -108q15 -44 31 -87t16 -76t-6 -49t-12 -36l4 -2q16 -20 15 -52t-21 -50l-2 -4q14 -27 16 -61.5t8 -62.5q14 -66 72 -92q12 32 29 60t33 56q41 72 44 126 q40 30 70 69t55 76q57 84 86 110.5t38 31.5q13 7 21 15l-2 22q0 26 20 42t41 30t36 32t5 52q54 16 92 50t74 69t78 61t106 26h2q24 6 38 23t26 31t26 16t40 -24q10 12 23 12q20 0 48 -30q11 -12 15 -20q39 13 78 13q67 0 137 -37q99 -53 161 -150v-10q-20 2 -28 4t-16 22 q-20 -22 -44 -22q-9 0 -19 3q-15 5 -31 12t-36 7q-10 8 -14 15t-9 12q-11 11 -37 11l-14 -14q-22 34 -66 50q-19 7 -36 7q-24 0 -44 -13q-10 14 -26 15t-32 1q-8 -10 -17 -17t-19 -17l-16 18h-2q-74 -10 -121 -57t-89 -101t-89 -101t-121 -57h-4v-4q-17 -68 -85 -154 q-19 -24 -45 -56q-74 -91 -106 -184q-66 -16 -85 -61t-26 -92t-16 -84t-39 -63q-6 -8 -19 -15t-15 -11l2 -20q0 -16 -6 -34t-11 -36t-5 -36t10 -34q-22 0 -48 3t-40 -23q0 -88 -29 -180t-48 -146t-31 -108q-30 -6 -51 -6t-37 5q-34 9 -44 55q-6 26 -5 46q0 15 3 27 q8 27 24 64q26 60 26 121l-2 2v2q-22 20 -18 42t13 44t13 46t-16 48q22 47 22 97q0 10 -1 20q-5 61 -11 97t-6 74l8 62q-4 28 -19 58t-15 59t22 45l-14 146q-4 58 -11 127t-33 121q0 24 2 49t-2 48q-9 49 -54 77h-4q-9 -1 -17 -1q-50 0 -65 51z" />
<glyph unicode="W" horiz-adv-x="1828" d="M-286 634v13q0 123 104 287v2h2v4q48 184 157 326q37 48 81 82q-11 30 -5.5 37t14.5 11t25 14q18 41 74 99.5t87 90.5q90 93 137 184q60 -18 105 -18q25 0 45 6q8 -46 56 -64q6 -32 26 -68t40 -74q37 -70 37 -116q0 -13 -3 -24q-6 -20 -7 -32t-3 -21q-3 -14 -28 -39 q43 -33 67 -33q7 -1 11 1q24 10 32 26t13 34q14 51 27 64q34 30 64 62t62 60q73 64 156 74q36 -12 53 -40t29 -60l24 -64t40 -56q-2 -19 -2 -38q0 -14 1 -26q3 -30 43 -40q4 -44 4 -78t3 -65q6 -65 45 -139l18 28q12 20 28 36t31 32q35 37 45 78q28 4 38 19t26 31v6 q0 42 38 114q42 76 66 118t34 74q56 18 101 60t90 83t95 68q33 18 74 18q21 0 44 -5q136 0 250 -57l77 -38.5t39 -20.5t28 -16q28 -40 60 -89t32 -84t-6 -49q-42 30 -77 71t-74 74t-84 49q-20 7 -43 7q-29 0 -64 -11q-30 16 -56 0t-48 -32v-12q-18 0 -37 4t-36 1 q-39 -7 -39 -67q-7 1 -13 1q-54 0 -100 -67q-19 -28 -37 -51t-40 -19q0 -10 -31 -41t-82 -97t-120 -186t-123 -246q-78 -34 -99 -117q-9 -35 -12 -72t-10 -72q-16 -79 -83 -113l8 -34q37 15 42 -30q1 -8 1 -17q0 -25 -9 -51q-44 -44 -46 -91v-23q0 -35 4 -70q4 -31 4 -60 q0 -15 -1 -29q-3 -43 -49 -81q-18 10 -35 10l-61 -12q-8 0 -19 13t-15 32t-5 39l-2 40t-3 34q50 64 61 132q10 62 10 126v12v47q0 47 1 93q2 70 36 138q0 22 -5 28t-13 22l16 8q-5 32 -5 72q0 80 19 192q-22 22 -21 38t8 32t14 31t2 35t-12 45t-16 67t-21 90t-46 98 q-134 -35 -206 -124q-25 -31 -40 -76q11 -11 -1.5 -28.5t-24.5 -32.5q-31 -38 -31 -66q0 -42 -5 -59q-8 -26 -20 -52q-22 -47 -54 -90v-2q-32 -59 -54 -148.5t-39 -136.5t-49 -89q14 -35 14 -77q0 -63 -31 -144l-42 -110t-21 -111l2 -36q-15 -23 -42 -23q-35 0 -90 37 q-28 22 -28 62q0 16 4 34q6 26 10 52t-8 48q14 54 33 105t36 104q42 131 45 217q34 43 45 108q21 127 45 172q2 2 2 3t7 28q5 19 5 53q0 44 -8 112l-2 60q0 42 -4 54l-4 24q0 38 14 75t14 74t-19 68q-30 49 -59.5 49t-46.5 -11t-27 -28q-13 -23 -19 -56q-10 -64 -17.5 -76.5 t-24.5 -34.5t-43 -59q-61 -87 -100 -211q-43 4 -58.5 -15t-25.5 -35t-38 -44l10 -10q-53 -34 -68 -134q-9 -64 -21 -78q-16 -18 -55 -18q-13 0 -28 2h-6l-4 -4q-32 -16 -37 -37t-4 -41t0 -36t-27 -19q-18 -2 -34 -2q-46 0 -76 17q0 18 -2 28z" />
<glyph unicode="X" horiz-adv-x="1052" d="M-122 122l18 14q-20 26 -17 31t29 21q-19 13 -17.5 21.5t3.5 14.5t0 14q10 8 19 10t19 5q24 7 46 29q-23 7 -19.5 22.5t7.5 25.5t4 18q42 24 48 76q36 2 50 24t19 51t9 57t22 44q14 0 23 -19t19 -29q22 12 25 36t4 49t10 44t41 19h10q-5 15 -5 29q0 37 39 60q22 13 46 25 t34 32q-12 12 -12 28q0 22 24 52q10 12 14 26q-18 18 -13 36t11 36q-16 21 -30 58.5t-23 59.5t-23 59q-60 158 -124 225q-20 81 -33 103q-25 44 -93 67q-18 -24 -50 -13t-46 33q0 38 -1 78v10q0 34 6 65q16 78 93 113q38 -6 68 -35t58 -67l56 -76t62 -62q0 -60 22 -104 t51 -83t59 -78q56 -73 56 -145l-2 -28q20 -14 22 -16q33 51 84 84q4 4 6 25t30 60t57 78t49 77q12 24 12 47q0 14 -4 27q30 32 65 65t68 67q76 79 97 154q14 -4 31 -4t21 -16q-26 -28 -28 -58t0 -60t-5 -58q-7 -30 -47 -56q12 -32 0 -52t-30 -36t-32 -34t-4 -44 q-6 -14 -14 -26t-37 -59q-110 -179 -159 -295q-60 -34 -94 -100q4 -8 6 -14t6 -15t11 -19t11 -20q36 -78 38 -160q0 -18 4 -35t16 -55t26 -78q34 -97 34 -116v-2q8 -12 17 -41t23 -65t32 -88t18 -103t11 -92t15 -85q-4 -2 -6 -2t-15 -5t-28 -11t-27 -6q-20 0 -46 44 q-27 46 -27 94q0 9 1 18q2 18 2 45t-17 54t-24 45t-9 24t-6 16q-34 16 -35 36t-1 43t-6 33t-13 31t-31 39q3 13 3 28q0 69 -56 180q-17 34 -29 62q-48 -84 -124 -122q6 -6 12 -18q-46 -8 -63 -41t-28 -73t-27 -78t-60 -54h-2l-47 -119q-80 -197 -219 -285q-16 16 -15 36 t2 41v9q0 49 -31 72z" />
<glyph unicode="Y" horiz-adv-x="1254" d="M-234 -834q10 24 18 48t-4 44q15 15 34 55q90 193 118 221q10 10 13 22l8 32t16 43t43 27h4q20 39 88 118.5t132 125.5h2v2q18 39 82 109.5t70 86.5q14 -4 24 11t21 33q27 44 59 44h4q24 48 50 76t66 58l4 4q5 27 27.5 45.5t26.5 30.5t-8 36q9 17 9 34q0 24 -17 48 q-28 -26 -52 -54t-70 -28q-14 -10 -21 -20t-15 -18q-18 -18 -56 -18v16l-8 4q-14 -8 -52 -31t-82 -44t-108 -21q0 32 -34 38q-8 -28 -22 -42q-47 44 -76.5 96t-40.5 68q-28 41 -39 44v104q0 166 36 292q2 2 -1 11t0 27t8 37q6 23 27 65q18 136 20 188q16 -4 28 -12 q35 165 128 367q18 39 28 79v2q6 8 23 16t28 4t19 -15t13 -24q14 -37 25 -41l22 -8q-4 -4 -10 -6t-10 -6q-38 -29 -38 -134l-2 -2q-14 -58 -36 -107t-42 -97q-45 -107 -45 -194q0 -10 1 -20v-12q0 -30 -12 -67q-28 -89 -28 -121q-6 -18 -14 -26t-4 -35t7 -54t-11 -45v-2h-2 q-11 -41 -11 -76q0 -67 41 -110q20 -22 34 -19t30 14t35 22t47 7h4q21 21 52.5 31.5t56.5 20.5q61 24 89 80q14 -7 26 -7q21 0 40 19q36 36 66 36q-4 38 98 270q22 50 30 76l6 2q26 6 24 32l-10 40q-3 16 8.5 39t17.5 57t12 67q18 99 44 151l-18 8q47 47 59 114l10 56t17 46 t12 22l8 -4q10 38 33 53t38 22t29 23q16 -4 31 -4t29 -4q6 -12 6 -26t-1 -29q-2 -36 7 -49q8 -4 10 -6q-31 -31 -49 -176q-6 -45 -15.5 -56.5t-21.5 -51.5t-32 -114t-70 -132v-2q-22 -46 -42 -90q-13 -29 -13 -62q0 -17 3 -34q4 -12 4 -22l-16 -2v-4l-4 -8v-4l-2 -4 q22 -15 9 -33.5t-21 -28.5t-8 -18v-4l2 -2q-8 -110 -22 -124q8 -18 8 -34t-3 -31q-9 -45 -9 -65l24 12q0 30 19 44t44 23t48 18t31 25h2l22 48q37 0 114 94q18 22 34 38q28 4 28 -25q0 -7 -2 -16q-2 -11 -4 -19l-2 -2q-25 -61 -63.5 -101.5t-68.5 -71.5t-66 -81l-4 -2 q-18 -36 -42 -66t-28 -41t-7 -20q-6 -18 -37 -41q-56 -44 -76 -70q0 -25 -9 -56.5t-15 -54.5q-19 -71 -19 -104q0 -6 1 -11q7 -56 10 -62q-74 -148 -74 -312h-2q-50 -115 -50 -206q-6 -6 -11 -12t-14 -12q-32 -21 -19 -40q10 -24 16 -44q-32 -12 -32 -46.5t-16 -47.5v-4 q0 -47 -25 -77.5t-36 -48.5t-11 -46v-8l2 -4q-38 -76 -82 -124t-75 -88t-35 -80l-10 2q-22 0 -44 -17t-46 -34q-37 -26 -69 -26q-20 0 -39 11l-2 2q-32 -16 -66 -16q-58 0 -122 46q-28 20 -58 45q-60 50 -70 161q-4 16 -2 33t0 33l-20 6l12 24h-2q-2 0 -4 2q-19 16 -19 43 q0 20 11 47zM-108 -959q6 -27 9 -38t3 -13q8 -2 20 -10q-2 -12 -10 -22q0 -40 72 -63q16 -5 22 -13l2 2q36 8 75 9t67 29h2v2q10 34 29 42t43 22q-3 21 27.5 50.5t38.5 37.5t14 30l2 4q32 32 39 73t14 59q4 11 37 44q28 74 59 148t40 117t10 52t5 19l8 20q9 24 -8 34 q0 14 10 38t21 52q24 61 24 97q0 7 -1 13q0 21 -6 24q22 44 22 91t2 66t4 39q-28 -28 -48 -53t-42 -48q-53 -56 -116 -87q0 -25 -18 -39.5t-26 -22.5t-8 -24q-4 -4 -8 -12t-10 -14q-15 -15 -28 -8q-16 -16 -36 -43t-51 -63t-77 -91t-80 -117l-14 4q-10 -10 -14 -16t-22 -14 h-4l-68 -184l2 -4q2 -22 -4 -39l-12 -34t-6 -34q0 -22 10 -43q-17 -33 -17 -57q0 -6 1 -12z" />
<glyph unicode="Z" horiz-adv-x="1076" d="M-450 -890q8 21 20 28q6 18 6 44t2 50t18 54t22 55t6 46t5 52t21 53t29 39t14 19t5 6q-4 10 6 28q15 12 48 66l32 46q20 28 41 51t31 39t10 17t13 13t25 36t34 41t44 31q53 34 79.5 59t49.5 41t48 28t48 25t45 27t45 27t50 23t53 23t55 33t61 32l16 -14h11l50 4h17 q22 14 48 10v43q0 45 2 45t3 3t1 21v26l20 166q2 26 13 48t15 48q-14 23 -16 76q-3 89 -22 104q-18 2 -47 -5t-42 -15t-28 -26t-22 -25t-14 -19t-20 -20t-38 -22t-44 -34t-34 -41t-34 -41q-32 -34 -65.5 -65t-57.5 -45t-51 -34t-63 -41t-70 -41q-6 12 -6 26q-16 0 -30 7 t-28 11q32 65 81 108q24 22 25.5 56t20.5 57t37 44t30 39q32 48 50 66l24 30q16 24 27 53t26 51t33 48t24 47q8 26 25 48.5t21 29.5t9 15t6 37t5 49q32 41 40 72q23 92 50 116q22 82 46 121t30 58t10 23q0 36 38 112q0 12 -2 16q-52 -28 -84 -53t-60 -81q-22 -16 -54 -33 t-49 -35t-26 -48q-19 -63 -66 -95q-34 -23 -55.5 -66l-32.5 -65t-12 -47t-9 -45t-19 -31t-19 -21t-15 -17t-13 -23q-21 -56 -28 -94q-22 -16 -36 -25t-54 -1l-56 -4l24 54q10 24 15 50t15 52t28 48q33 40 39.5 84t20.5 69t27 52t29 53t40 41t37 30q18 21 25.5 38t21.5 39 t31 43q44 55 61 63h-2q22 20 44 36t43 36t37 44t40 41t51 30t53 29q26 9 46 9q53 0 71 -59q25 -85 25 -117q0 -51 -21 -81q-25 -37 -35 -58q-6 -28 -5 -53t-7 -45t-18 -34t-21 -26q-27 -29 -30 -34.5t-4 -16.5t-2 -23q-3 -31 -5 -38l4 -12q-4 -20 -10 -29t-14 -26l-16 -34 t-15 -30t-13 -19t-15 -23t-15 -46t-21 -54q-21 -36 -43 -91.5t-43 -84.5t-25 -39q8 10 20 16t29 21t34 39t44 44t54 41t55 41q32 -4 60 -12t60 -12q46 -44 70 -114t27 -114q1 -13 1 -25q0 -27 -5 -43q-7 -24 -11 -47t-2 -48t-3 -50t-8 -56t-7 -56t5 -49t5 -47t-6 -46t-5 -40 q-6 -33 -31 -43q-4 -20 -13 -36t-13 -34t-7 -33t-7 -31q14 -6 15 -15t1 -21q-6 -10 -10 -26t-8 -29t-11 -26t-12 -34t-17 -44t-20 -50t-11 -53t-11 -47q-11 -29 -36 -79l6 -6v-24h10q-25 -33 -39 -70q-27 -66 -63 -102q2 -3 2 -8q0 -26 -53 -90q-13 -16 -20 -24t-11 -20 t-12 -30t-22 -41t-26 -45t-20 -37t-22 -35t-40 -35t-47 -38t-34 -50q-23 -49 -81 -87q-40 -26 -82 -67q-47 -46 -81.5 -57.5t-70.5 -25.5t-88 -14h-26q-32 -2 -59 -8q-6 -1 -13 -1q-21 0 -44 15h-2q-22 22 -42 40t-33 39t-17 67t-12 77t-11 53t-4 32t-5 23q-10 33 -10 65z M-287 -976q-1 -6 -1 -13q0 -31 20 -91q12 -32 46 -52v-2h2q17 -14 44.5 -14t47.5 -1h3q18 0 34 11q17 12 38 30t42 35t44 30t38 25t20 22l11 22q16 26 34 46t29 38q23 37 36 54.5t37 33.5t39 37t22 49t21 51t28 45t27 46t33 43t27 33t14 31t15 35q20 45 20 56q0 55 13 92.5 t29 78.5t32 85q-12 10 -12 30l2 4v6q58 89 58 134q0 5 -1 9q-3 19 1 31q-8 -4 -24 -9q-70 -22 -90 -33.5t-49 -8.5t-52 -10t-43 -34t-43 -37t-48 -25t-59 -32t-79 -52t-75 -54t-41 -48t-36 -51t-59 -63t-53 -69t-21 -60t-12 -49t-33 -45t-28 -37t-6 -33t-3 -29t-8 -35 l-26 -84q6 -36 6 -76t-2 -50t-4 -21t-5 -25z" />
<glyph unicode="[" horiz-adv-x="918" d="M-134 70l18 14q-4 8 -9 17t1 19l16 16q-15 15 -4 54q8 11 23 16q28 11 37 26q-15 11 -7.5 36.5t7.5 35.5q36 24 40 80q30 0 40 22t15 51t9 59t22 48q12 2 18 -14t14 -26q12 16 14 41t5 49t12 40t35 16q-8 69 57 111q17 11 33 31q-17 28 -2.5 55t22.5 44t4 39q28 34 46 76 t35 84q42 104 93 146q6 48 27 86t43 74t39 73t11 81q24 38 52 72t55 70q63 84 79 162q14 -4 31 -2t19 -24l-2 -2h16q-8 12 -8 28q38 2 102 9t132 11q172 10 222 -12q2 -2 6 -10q6 -12 22 -40q4 -22 -12 -33t-26 -27q-36 12 -168 12t-164 -16h-4q-16 2 -33 -6t-35 -15 q-48 -19 -74 -1q0 -38 -4 -73t-38 -61q11 -42 -28 -92q-14 -18 -25 -35t-3 -39q-46 -98 -92 -195t-82 -199q-48 -38 -74 -100t-48 -129t-50 -127t-78 -94l8 -20q-40 -10 -55 -44t-24 -75t-22 -80t-49 -57q-70 -251 -174 -374q26 12 54 15t62 13l10 -30q16 2 33 15t39 11 t38 0t32 2l111 8q17 0 47 -4q71 41 152 0l-2 -22q22 12 34 6t26 -22l-18 -36q-27 7 -50.5 -16.5t-35.5 -38.5t-20 -23q-26 -12 -40 -1t-22 22t-10 12t-4 5q-68 0 -123 -8t-108 -12q-115 -9 -225 38l-18 24l-8 -6q-16 16 -16 39t2 46q5 61 -26 81z" />
<glyph unicode="\" horiz-adv-x="874" d="M319 1791q5 29 16 59t20 61t1 65q10 22 25 14t31 -8q-14 -82 6 -153t34 -113t22 -84q-20 -40 -18 -80t10 -82q22 -114 6 -174q34 -59 34 -180.5t16 -169.5q-14 -21 -10 -55.5t2 -50.5t-20 -30q8 -24 20 -41t20 -34t8 -38t-14 -53q24 -10 26 -28t-4 -41t-13 -47t-1 -44 q10 8 21 20t23 6q10 -22 3 -52t-14 -59t-5 -53t30 -36q-16 -52 8 -88q-6 -16 -6 -39t-20 -27q4 -24 19 -33t23 -31q-6 -40 -24 -46l10 -22q3 -17 -22 -30l12 -20q-38 -9 -54 -66q-16 -60 -44 -74q-81 162 -50 472q-28 30 -26 72t8 84t5 79t-35 59l16 16q-36 50 -39 116 t0 136t1 138t-32 120q4 108 -4 215t-16 215q16 18 13 38t-10 42q-19 59 7 96q-20 30 -15 59z" />
<glyph unicode="]" horiz-adv-x="906" d="M-390 -66q36 45 115 52q21 2 45 10l10 -28q18 2 35 15t38 11t37 0t39 2t41 2t33 4q25 3 79 -4q52 30 96 22q-6 10 -16 16l16 14q-12 25 -8 36l18 16q-10 10 -10 25t4 29q16 16 32 18t30 24q-16 10 -9 32t7 40q36 22 42 80q30 0 40 22t14 51t8 59t22 48q14 2 20 -14 t12 -26q12 16 15 41t6 49t11 40t34 16q-8 68 59 111q17 11 33 31q-17 28 -2.5 55t21.5 44t3 39q34 41 66 120.5t53 118.5t55 67q6 48 27 86t43 74t39 73t11 81q40 62 91 119t79 129q-60 12 -204 12t-180 -12h-6q-20 2 -43 -7t-47 -16t-49 -7t-49 22l2 14q-4 10 -10.5 18.5 t2.5 35.5q18 10 32 16t38 2q-4 6 -6 15t-4 15q46 2 123 8t158 9q198 7 267 -17q2 -2 7 -10q14 -23 29 -40v-12q6 -4 6 -16q-22 -28 -24 -60t-2 -64t-6 -61t-36 -51q11 -42 -28 -92q-14 -18 -24 -35t-2 -41q-46 -96 -93 -193t-83 -201q-48 -36 -73 -98t-48 -129t-51 -127 t-78 -94l8 -20q-40 -10 -55 -44t-24 -75t-22 -81t-49 -58q-57 -200 -136 -320l8 -8l-20 -36q-10 2 -18 0q-14 -16 -26 -30t-28 -26l-6 8q-10 -10 -16 -18t-22 -16t-29 3t-21 22t-10 11t-4 4q-70 0 -125 -7t-107 -11q-115 -9 -226 38z" />
<glyph unicode="^" horiz-adv-x="690" d="M144 746q-7 73 19 144q46 123 101 166q22 68 67 126t70 93q43 60 59 89q28 41 74 18q34 10 50 -2q6 -28 6 -49t2 -42q5 -49 16.5 -76t16.5 -44t-5 -29q6 -18 8 -49t5 -61q8 -77 37 -80l-28 -94l20 -10q-4 -22 -16 -33t-24 -27q-85 79 -109 236q-7 46 -3 86q-18 48 -24 92 q-6 -12 -6 -28q-12 -22 -25 -38t-24 -31q-27 -37 -35 -65t-15 -43t-21 -15q-6 -18 -24 -40t-35 -45q-42 -57 -23 -85l-76 -36l6 -26q-16 -10 -31 -6t-33 4z" />
<glyph unicode="_" horiz-adv-x="1066" d="M-430 8q0 42 66 71q16 7 28 17q39 -29 99 -3q25 11 49 21t43 7t25 -7t26 -12t60 -7t84 8t86 15t76 8l58 -24l6 18q32 -8 65 -6t66 3q80 2 127 -29q92 63 229 31q39 -9 79 -17q34 24 68 10q2 -10 11 -20t15 -19t6 -19t-16 -21t-40 -17t-50 -10q-66 -10 -96 -28l-52 10 l-4 -16q-24 20 -52 17t-58 -11t-58 -11t-52 19q-46 -16 -94 -14l-96 4l-58 2l-82 -4l-102 8q-12 0 -23 -1t-38 1q-95 7 -143 -6q-51 21 -110.5 17.5t-90.5 -2.5t-57 17z" />
<glyph unicode="`" horiz-adv-x="276" d="M23 1702q-7 26 0 49t6 25t1 6l24 12q-18 12 -15 25t19 35l38 2q0 -30 71 -43q17 -3 27 -5q18 -16 10 -33t-18 -30t-14 -21q12 -58 30 -112t33 -109q36 -132 7 -247l-26 -36q-50 4 -72 67q-6 17 -18 33l26 24q-4 16 -20 24t-19 26q-4 25 -17 66q-31 102 -38 194 q-28 22 -35 48z" />
<glyph unicode="a" horiz-adv-x="1328" d="M-36 94q-6 15 -6 29t7 26q13 23 28 44t21 42t-18 51q20 30 36 63t33 66q45 87 83 117q-12 14 -12 27t6 26t14 26t12 25l58 28l-14 48q38 -7 49 20q5 12 8 27q8 41 39 53q42 32 83 68t82 70q102 85 181 118q64 -11 89 -60q11 -22 17 -49t14 -57t22 -54t48 -40 q-23 -40 -23 -78q0 -8 1 -17q6 -47 12 -97q3 -23 3 -45q0 -26 -4 -51q-7 -46 -59 -82q-4 -14 -2 -30t2 -43t-28 -41q18 -22 19 -44t2 -42t10 -36t43 -24q11 -46 20.5 -57t21.5 -18t32 -21q16 -4 36 0t32 -12q16 16 50 10l26 -44q38 28 86 42t78 20l186 112q-28 -48 -43 -77 t-30 -48q-24 -30 -87 -71q-22 -20 -42 -34q-49 -34 -64 -34l-16 2q-12 0 -23 -1t-19 15q-6 -6 -10 -14t-8 -15q-10 -18 -30 -11l-10 12l-30 -26q-56 28 -107 47t-91 45q-87 57 -108 180q-27 32 -50 26q-20 -34 -48 -58t-47 -43t-25 -31t-19 -26t-35 -21t-44 -13 q-56 -15 -68 -68q-24 14 -45 9t-41 -10t-39 -6h-5q-42 0 -64 31q-11 -5 -23 -5q-35 0 -74 42q-21 23 -41 49t-38 38zM95 263q-1 -4 -1 -9q0 -12 9 -28q13 -22 22 -38t15 -32q7 -18 7 -33q0 -17 -9 -29q18 -14 34 -14q10 0 20 5q26 13 41 24t24 18t19 11q16 -3 31 -3 q62 0 123 53q32 28 62 60t60 56l-16 16q72 20 72 89q0 11 -2 24q-6 40 -6 69t6 46q-8 23 -8 49q0 53 33 120q19 39 37 79t18 84l-66 14q-18 -16 -44 -32t-51 -34q-58 -42 -65 -88q-46 -8 -64 -38t-30 -66t-26 -71t-50 -55q-12 -8 -16 -8t-22 -12t-34 -36t-27 -52t-20 -57 t-17 -53q-52 -7 -59 -29z" />
<glyph unicode="b" horiz-adv-x="1252" d="M-82 436l2 2q7 44 106 44q20 0 26 8q0 14 -26 46q0 27 22 41.5t32 20.5t10 15t-4 15t-8 16q30 4 36 20t26 34q-12 16 -4 35t18 38t15 36t-4 24t-9 8t-2 1q42 124 83 249t88 247q107 278 227 470q3 44 46 61q18 7 40 13t40 17q42 26 42 81q32 -8 60 -8t55 -2 q63 -5 101 -52l2 -2q2 -8 -1 -23t-3 -40t7 -67q5 -33 5 -65v-18q-5 -94 -78 -137q10 -27 10 -50t-9 -43q-19 -41 -51 -79t-61 -78t-29 -90q-32 -16 -50 -45t-35 -61t-38 -59t-61 -39q-18 -72 -66 -128t-98 -110t-89 -112t-39 -134q-56 -54 -73 -124t-17 -118t2 -70t2 -44 q-18 11 -30 -12q37 -98 90 -154q52 16 103 35t105 33q12 48 45 67t66 33t59 34t26 72h4q71 14 83 132q3 30 5 54q-6 10 -3 29t6 40q3 17 3 32q0 31 -12 51v4q12 24 22 41t24 54t40 67t90 30q40 -24 47 -52t-1 -60t-18 -67q-6 -22 -6 -43q0 -13 2 -26l4 -6q-20 -3 -45 -37 l-31 -41q14 -22 16 -45t5 -42q8 -48 63 -51q36 -4 74 -10t75 -7h8q82 0 129 41q0 39 37 44q15 2 31 3t26 15q-12 4 -15 9t-17 -7l-6 28l12 8q7 -6 17 -6q24 0 64 39q13 13 25 19l12 18l16 -6q-18 -96 -63 -155t-121 -119q20 -9 20 -32l-4 -10q-32 25 -55 13q-29 -14 -65 -45 q-44 0 -92 -13t-93 -19q-14 -2 -28 -2q-29 0 -55 9q-38 13 -62 65q-28 10 -66 20q-104 -196 -319 -324q-67 -40 -139 -64q-14 22 -24 19t-19 -6t-23 -3l-14 -24q-28 20 -34 45t-30 35l-18 -22q-73 73 -110 223q-24 97 -24 179q0 32 4 62q-16 16 -38 28t-26 36zM402 1016 q7 7 56 78q18 -18 30 -18l-24 44v4q26 44 64 77t72 67q0 56 23 91t52 64t52 58t23 68t-8 59q44 15 56 37.5t13 49.5t-2 58t3 59q-16 -5 -61 -30.5t-72 -48.5q-63 -54 -63 -117v-19q0 -13 4 -17q-8 -4 -15 -17t-16 -28q-23 -39 -55 -45q18 -26 18 -53t-10 -53 q-13 -33 -60 -98l-8 6q4 -17 4 -38q0 -69 -50 -170q-16 -32 -26 -68z" />
<glyph unicode="c" horiz-adv-x="1250" d="M-20 418q0 45 33 92.5t49 74.5t18 59q-7 16 -7 31q0 18 9 35q16 32 27 51t16 30q15 32 26 45.5t28 36.5t43 57t48 64q66 91 81 118.5t24 38.5q13 16 62 42.5t95 35.5q24 5 47 5q20 0 39 -4q40 -8 71 -37t38 -69q6 -35 6 -59v-6q-1 -25 2 -49q7 -55 49 -84 q-22 -34 -37 -70t-33 -72q20 -6 17 -23t-1 -31q-28 -22 -38 -54t-16 -65t-15 -62t-33 -47q2 -12 2 -22q0 -45 -42 -62q-36 -14 -48 -5t-17 26t-13 33t-34 16q4 24 7 49t9 49q14 55 52 86q-18 10 -14 31t0 39q14 40 42 84t50 89q28 57 28 105q0 42 -22 76q-19 28 -42 28 q-42 0 -42 -36v-6l16 -14q-56 -18 -122 -101q-26 -33 -51 -67t-53 -58q-14 -56 -43 -104t-51 -87t-29 -59t-15 -39t-13 -28t-13 -36t-17 -69t-47 -72q17 -45 30 -58q-25 -14 -25 -44q0 -24 16 -59q9 -19 9 -37q24 -2 44 -18t41 -32t41 -25t44 5q16 -4 30 -2t28 3 q30 2 54 -29q14 30 38 36t51 6t52 2t43 24q18 -16 38 -16t41 18q17 14 35 28t53 14t71 14t70 33t69 37t81 26q20 30 47 43t56 24t56 28t49 55h6q36 0 60 23q26 25 50 54t49 50q16 13 37 13q12 0 26 -4q-18 -50 -55 -92t-79 -82t-83 -79t-69 -81q-6 2 -11 2q-23 0 -43 -32 q-93 -34 -118.5 -58t-33.5 -48q-47 -2 -96.5 -29t-79.5 -36q-18 -5 -40 -5q-15 0 -32 2q-8 -30 -21 -29t-27 8t-28 8t-22 -29q-14 0 -29 1t-28 0q-31 -2 -41 -29q-58 0 -122 -8t-127 -8q-185 0 -253 108q-10 16 -19 31t-15 24t-17 33t-13 62q-1 25 -1 51v25q1 38 1 75 t-14 73z" />
<glyph unicode="d" horiz-adv-x="1380" d="M-62 282l30 40q-22 59 -22 76q6 16 11 18t23 6q-7 34 -6.5 46t9.5 27t19 30q26 39 26 75v10q30 0 40 17t12 39t2 44t10 31t17 8t17 -1q12 14 16 21t-2 27q24 0 32 16l13 26q5 10 13 18q0 50 26 70t59 33t66 31t49 64q26 -16 44 -3t34 28t36 20t50 -27q12 38 49 40h7 q33 0 60 -16v-2h2q32 -6 48 -31t27 -56t24 -61t37 -48q12 52 23 106t37 102q18 -22 38 -8l-2 4q0 32 13 58t26 51q15 29 15 56q0 30 -18 57q34 10 49 38t24 61t20 67t35 58l-2 24q3 21 24.5 42.5t30.5 36.5t7 37q20 26 36 69t34 81t42 57q11 9 25 9q16 0 37 -12q5 -17 5 -31 q0 -29 -21 -51q12 -12 18 -20q-6 -62 -23 -123t-33 -119l16 -16q-73 -104 -103 -246q-8 -40 -29.5 -75t-37.5 -69q-25 -53 -56 -144q-61 -183 -102 -256v-32q-2 -22 -14 -31t-27 -16q-40 -19 -49 -63v-2l2 -2q13 -28 12 -54q0 -14 -3 -27q-11 -37 -25 -72t-19 -69 q-1 -5 -1 -9q0 -30 28 -61v-6q0 -57 58 -96q24 -16 49 -29t37 -33q34 34 73 44t62 15t60 16t57 31t21 37t20 25t44 11t50 9t37 30q22 -2 39 15t31 35t28 30t30 -2q-79 -179 -159 -246q-43 -36 -99 -67t-138 -87q-85 -5 -142 -50q-127 13 -204 90q-10 10 -18 22t-24 30 q-24 27 -32 81.5t-24 74.5q-5 7 -14 7q-17 0 -48 -27l-18 16l-33 -28q-32 -29 -61.5 -66.5t-58.5 -69.5t-67 -44q-6 -6 -10 -11t-15 -8q-27 -7 -53 19q-37 0 -61.5 -28t-37.5 -46t-29 -30q-32 12 -59 4t-53 -15q-24 -6 -46 -6h-6q-26 1 -52 31q-40 200 -40 236q17 17 4 56 q-4 2 -4 4t-4 4zM82 340q10 -16 14 -32t26 -24q6 -21 6 -43q0 -15 -3 -31q-7 -39 -7 -68q0 -23 4 -40l4 -4q34 -12 60 -12q21 0 37 8q35 18 62 46t59 52q21 16 54 16q16 0 36 -4l8 12q-8 20 -7 39q1 25 26 51q37 38 56 69t35 44t42 3l38 144q2 10 19 18t30 18q15 12 15 27 q0 18 -22 41q4 8 6 20t6 22q10 24 30 18l6 14q-32 24 -43 55t-18 63t-18 61q-13 34 -47 51q-26 0 -46 -10q27 -24 22.5 -39t-11.5 -26t-11 -27q-5 -5 -34 14q-28 -42 -79 -55t-97 -25l16 -36q-60 -40 -87 -97t-48 -118t-50 -118t-89 -97z" />
<glyph unicode="e" horiz-adv-x="1216" d="M-46 346q40 58 40 126l-2 52q10 0 22 -1t23 0q25 2 25 33q0 10 -7 16t-9 12q12 18 23 29t19 22q13 18 13 43q0 12 -3 24q46 81 200 194q38 28 72 60q38 -16 61 0t41 35t36 31q23 15 52 -14q49 49 98 49q5 0 11 -1q55 -6 94 -36t51 -69q3 -10 3 -19q0 -24 -25 -34 q22 -22 22 -52t-17 -53q-20 -27 -48.5 -87t-52.5 -101t-68 -69q-36 10 -49 -8t-19 -39t-14 -33q-10 -16 -38 12q-20 -20 -29 -40t-25 -30q-18 6 -38 10t-38 8q0 -97 -114 -129q-131 -37 -164 -107q24 -27 82 -27q14 0 30 2q32 3 67 3t53 -18l2 2q66 8 145 43q148 66 217 77 q12 -19 37 -19q10 0 23 3l10 29q28 77 138 85q26 2 52 6h4q10 30 23 39t28 13t32 6t33 12q36 -12 60 8t46 42l16 -20l6 8l45 42q31 29 56 43.5t56 34.5q79 51 111 78q10 -4 10 -15v-21q-8 -16 0 -24q-29 -29 -39.5 -42.5t-19.5 -23.5l-27 -30q-16 -16 -30 -34t-32 -32 q-24 6 -37 -6t-24 -27t-20 -28t-23 -11q-48 -26 -96 -45t-92 -55l-16 16l-208 -100q-10 -4 -20 -12t-37 -23q-53 -29 -167 -69l-26 -8q16 -40 0 -56t-46 -23t-66 -9t-56 -14q-22 4 -44 4q-20 0 -41 -4q-43 -6 -67 -6t-52 6h-4q-19 -9 -37 -9q-55 0 -104 82q-17 29 -32 49 t-33 50t-31 64q-16 43 -16 76q0 32 15 54zM172 446l8 -10q8 4 32 -20q30 44 135 95q39 19 75 41t54 58q64 18 96 72t45 89t24 58t13 33q-2 2 -3 2t-23 12q-20 11 -46 11h-4q-28 -1 -51 -16t-42 -38t-40 -42q-36 -33 -79 -33q-18 0 -38 6q-15 -81 -18 -126q-53 -19 -85 -82 q-13 -26 -24 -55t-29 -55z" />
<glyph unicode="f" horiz-adv-x="1208" d="M-574 -1338q30 4 49 27t39 41q-10 10 -11 44v5q0 32 11 65q12 36 30 69l36 66t30 69q42 34 65 71t37 68t25 53t25 44q32 51 62 62q-2 4 -2 28t23 47l45 45q22 22 33 48q3 8 3 18q0 21 -16 50q56 50 90 111t61 123t56 122t81 112q-14 67 -47 77q-17 5 -38 6t-46 6 q-61 12 -119 77q-40 23 -57 62q-7 16 -13 33t-22 39q32 20 32 50q0 23 -17 51q-15 25 -29 47t-4 34q8 18 30 24t38 12q-2 8 -2 15q0 53 86 85q9 -2 17 -2q28 0 46 25q5 7 11 9l-2 16q34 10 60 -5t52 -36t48 -34t58 -7h2l42 -32q10 6 16 13t20 1l-16 -16l84 -66l50 68l-10 2 l-14 14q0 16 11 26t11 26q-4 8 -8 10l4 4q42 -4 51 12t10 38t7 47t44 39q-32 30 -26 44t25 23t41 21t22 38l-4 34q0 44 23 80t50 70t48 71q16 29 16 63q0 10 -1 20q0 6 -4 18q18 44 44 84t50 80q61 102 76 170q8 2 20 4t16 14q-2 10 -2 18t-2 16h2q16 -2 22 3t13 12t12 11 t7 10q4 64 36 101t74 79q36 10 67 10q51 0 89 -29q60 -47 94 -131q-5 -179 -60 -286l2 -2q19 -30 19 -66q0 -31 -14 -67q-13 -33 -30 -66t-23 -65q-38 -16 -44 -43t-7 -56t-11 -56q-10 -26 -66 -45q30 -30 30 -58q0 -24 -23 -47q-21 -21 -51 -40t-50 -39q12 -8 22 -18 q-22 -20 -47 -39t-47 -40q-53 -50 -56 -105q-10 -12 -35 -18q-44 -10 -53 -28l-2 -2q0 -14 4 -34q-66 -7 -117 -56q-23 -22 -46 -48t-49 -48h-2v4q-4 4 -8 6t-8 6q-10 2 -30 -12t-26 -22q-10 -22 -27 -43t-28 -42q-10 -19 -10 -37q0 -31 29 -60q-14 -28 -7 -60t16 -61 t13 -54t-16 -41q2 -16 5 -29t21 -21h20q-3 -27 -3 -66v-20v-35q0 -35 -1 -71q-5 -135 -30 -176q16 -16 32 -29t17 -36t-10 -45t-22 -43q-15 -29 -15 -51q0 -17 10 -30q-60 -33 -60 -116q0 -26 2 -69v-13q0 -34 -9 -53q-11 -23 -24 -47t-31 -61t-37 -88t-31 -84t-17 -45 t-9 -26q-30 6 -42 -4t-20 -23t-20 -26t-44 -13v-6q-8 -46 -48 -82t-92 -69t-104 -64t-84 -63h-2q-6 1 -11 1q-30 0 -57 -19q-32 -22 -64 -41t-69 -24q-5 -1 -9 -1q-33 0 -72 32v2q-10 -2 -15 -2t-21 -16v2q-73 43 -92 116l18 18q-46 26 -53 108q-3 34 -4 67t-11 57z M-426 -1480q24 -28 56 -41t64 -27l2 2q61 9 104.5 40.5t68.5 52.5t57 39h11q98 0 163 90q20 28 39 61q59 102 113 131q2 0 3 1t3 1q-19 25 -19 65q0 36 26 69q27 34 53 66t36 67q2 8 2 17q0 29 -26 68q36 26 46 61t14 72t11 74t47 77l-20 16q-11 40 12 50q-24 21 -24 42v31 q0 11 -6 27q8 37 8 75q0 25 -4 50q-8 63 -14 101t-6 76q-32 12 -40 5t-9 -20t-6 -25t-33 -12v-8q10 -18 -4 -38t-34 -42t-38 -45t-18 -49q-30 -20 -41 -49t-18 -58t-20 -54t-47 -37q-4 -4 -9 -21t-15 -39t-20 -42q-15 -30 -56.5 -84t-68.5 -103t-33 -115q-50 -8 -69 -38 t-27 -68t-15 -77t-31 -67h-2q-28 -42 -58 -85t-54 -88q-54 -101 -54 -195zM8 348q0 -6 4 -26q2 -10 4 -22q30 -32 56 -32t50 15t48 36t50 31h2q22 -13 41 -13q29 0 51 31q-20 20 -24 42t-6 42t-9 37t-33 27l-2 2q-22 -10 -51 -10q-32 0 -72 12q-21 6 -33 14l-2 -2 q-52 -34 -67 -79q-10 -29 -10 -65q0 -19 3 -40zM666 576h36q28 26 45 61t37 65t48 51t78 21l-4 34q138 138 150 318q32 12 43 33t16 47t14 52t37 48l4 4l-4 38q0 59 28 103.5t46 71.5t32 57q-10 6 -14 28t-10 48q-15 64 -50 70q-65 -65 -198 -346q-4 -10 -22 -44t-38 -73 q-47 -92 -58 -103v-2q-20 -130 -94 -237q-24 -35 -40 -48t-17 -13t-3 -2q28 -28 28 -58q0 -32 -35 -66q-23 -22 -47 -48q-22 -24 -22 -53q0 -33 14 -57z" />
<glyph unicode="g" horiz-adv-x="1322" d="M-819 -1257q5 35 15 69t16 68q2 8 2 17q0 25 -14 51q24 18 35 46t20 58t19 58t34 46l-2 32q94 100 199 183t237 123q26 46 68 67t85 38t79 42t54 79q10 -22 20 -19t21 10t21 10t20 -17q20 60 65 96t100 63t111 52t99 61q79 66 79 176q0 24 -4 50q25 17 30.5 53.5 t11.5 52.5t26 22q-12 19 -34 19q-18 0 -41 -11q-21 -10 -39 -20t-30 -4q-6 -28 -25 -40t-41 -21t-46 -19t-38 -32q-18 8 -33 -7t-30 -32t-33 -25t-42 16q-20 -52 -98 -52q-32 0 -65 4t-59 -2l-34 34q-11 -27 -32 -18q-43 92 -50 141q-2 15 -2 29q0 78 56 122q56 102 146 160 q6 -5 16 -5q21 0 56 26q12 9 22 11q18 65 148 130q38 18 71 45t67 52q83 61 152 61l36 -32q-34 -20 -59 -49t-51 -58q-66 -73 -130 -85q-36 -70 -97 -119t-125 -91q0 -56 -108 -105q-54 -25 -54 -70q0 -25 26 -65q24 12 58 16t66 11q76 17 92 69q39 34 99 34q13 0 27 -2 q66 72 133 133t127 125q137 146 200 306q14 4 27 4q24 0 45 -14q32 -22 46 -56q-4 -24 -13 -45t-16 -40q-10 -27 -10 -51q0 -21 7 -40q-16 4 -25 -10t-19 -24q3 -11 3 -22q0 -26 -16 -50q-36 -58 -36 -94q0 -5 1 -10q-49 -91 -58 -224l36 -32q26 38 65 54t79 27t78 26t66 53 q12 58 50 83t80 43t81 41t55 75h50q-4 -10 4 -18l14 -14q-22 -28 -34 -62t-29 -64q-38 -68 -105 -68h-6q-32 -12 -47 -43t-29 -62t-36 -50q-13 -11 -33 -11q-14 0 -33 6q-102 -44 -218 -179q-31 -37 -50 -37q-3 0 -6 2q-20 8 -32 15t-23 7t-19 -18q14 -28 6 -39t-26 -17 t-38 -10t-38 -20t-28 -48t-18 -64q-20 -82 -72 -106q20 -14 17 -28t-11 -29t-11 -29t15 -28q-38 -48 -79 -132t-66 -127t-63 -77l6 -48q-30 8 -37 -2t-7 -28t1 -37t-13 -29q-6 -8 -13 -12t-13 -10q-80 -60 -94 -146q-7 -42 -33.5 -78t-52.5 -68q-66 -81 -88 -138q-7 1 -13 1 q-60 0 -89 -79q-25 -69 -79 -69q-15 0 -31 5l-90 -82q-12 7 -27 7q-28 0 -66 -23q-23 -14 -46 -22t-49 6q-14 -16 -24 -17t-24 17l-30 -32q-24 20 -59 37t-65 38t-48 48q-11 16 -11 38q0 14 5 31q-4 12 -13 26t-15 29q-15 39 0 57q-14 27 -14 54q0 7 1 15zM-652 -1127v-28 q0 -58 6 -116q8 -73 8 -133q47 -54 106 -54q28 0 57 7t63 13q8 30 29 39t44 13t42 11t21 33l18 -16q4 63 103 126q25 16 43 36q-1 7 -1 13q0 30 15 51q18 26 40 48t39 48q14 21 14 51q0 7 -1 15q20 8 28 26t16 34q13 26 37 26q11 0 25 -6q-28 22 -23 34t19 21t26 21t0 36 q48 20 62 58t21 81t21 84t62 65q-1 7 -1 13q0 28 14 50q17 27 34 51t24 50q2 6 2 13q0 22 -17 49l-26 -50q-20 -12 -44 -22t-48 -22q-58 -29 -74 -68q-22 12 -41 1t-37 -26t-37 -25t-41 2q-38 -24 -73 -52t-71 -55q-88 -66 -158 -85q-22 -36 -58 -57t-73 -41t-67 -48 t-38 -78q-105 -68 -110 -237z" />
<glyph unicode="h" horiz-adv-x="1184" d="M-182 -90q2 30 27 79t53 96t52 95t26 106q30 0 39 18t14 38t13 36t36 12q-16 21 -16 50q0 48 46 117q18 27 30 49q-1 8 -1 16q0 54 31 90q29 36 48.5 65t24.5 41t17 30t18 47t13 58t20 52t47 37q0 25 15 62q29 73 29 98q6 10 18 20t22 20q24 24 18 48q2 26 -1 54t15 48 q-1 5 -1 10q0 34 35 60q16 12 35 23t33 25q-6 8 -6 19q0 30 44 81q22 25 36 62.5t26 58.5q28 49 74 69q-3 12 -3 23q0 47 44 77q23 16 49 31t42 43q90 24 128 24h12q34 -6 48 -19t16 -15t2 -3q0 -7 17 -22t25 -25q2 -14 0 -31t-2 -33q0 -41 30 -50q-14 -52 -14 -109v-15 q2 -66 2 -133t-10 -129t-52 -110l-14 -102q-26 -2 -36 -17t-14 -35t-7 -42t-17 -39t-30 -43t-34 -48q-43 -52 -94 -52q-8 -24 -33 -49q-42 -42 -63.5 -49.5t-34.5 -10.5t-30 -13t-35 -26t-38 -28q-30 -18 -57 -18q-15 0 -29 6q-26 -32 -59 -39t-64 -10t-58 -14t-41 -49 q-10 -10 -10 -33t-2 -55t16 -48q72 34 137 81t139 79l14 -16q6 44 38 45h22q22 0 44 -1h14l14 2q38 0 50 -30t22 -58q-31 -34 -50 -98q-38 -123 -68 -164q18 -10 16 -22t-7 -24q-13 -31 23 -40q-26 -18 -35 -56t-15 -57t-24 -33q15 -35 15 -61q0 -7 -1 -13q32 -41 79 -41 q17 0 35 5q28 8 58 16t62 -4q63 43 94.5 52.5t49.5 23.5t68 62q50 14 89 46t85 54q-76 -163 -165 -229q-47 -35 -113 -65t-166 -76q-27 7 -52 7q-13 0 -26 -2q-38 -5 -73 -7h-13q-28 0 -54 7q-32 9 -58 49h-30q1 9 1 17q0 66 -45 71q27 30 32.5 81t11.5 77t30 44 q-18 25 -18 56q0 34 21 75q17 33 36 66t19 67q-18 12 -33 33t-41 11q-54 -52 -108 -99t-105 -97q-112 -110 -179 -226q-34 -6 -52 -32t-32 -55t-31 -55t-47 -34q-10 -32 -21 -65t-21 -65q-12 6 -31 10t-37 10q-51 17 -51 51zM414 854q16 -3 32 -3q81 0 184 77q32 24 62 42 l14 -14q90 50 149 121t113 155q-18 14 -15 27t9 27q25 59 40 136q43 177 52 436l-86 14q2 -24 -11 -37t-29 -24t-31 -22t-17 -33q-26 -12 -34 -32t-13 -41t-15 -41t-40 -32l14 -14q-66 -60 -105 -142t-69 -164q-28 -30 -40 -67t-23 -74t-28 -70t-55 -51q15 -19 15 -40 q0 -24 -21 -50q-16 -20 -33 -40t-19 -44z" />
<glyph unicode="i" horiz-adv-x="772" d="M-40 148q-1 13 -1 26q0 58 15 110q24 24 33 68t16 67t25 41q0 67 67 127q19 17 35 33q16 0 32 1t30 -2q30 -7 42 -51q4 -16 4 -30q0 -26 -13 -47q-21 -33 -47 -63t-42 -62q-6 -13 -6 -28q0 -24 14 -54q-22 0 -29 -12t-10 -27q-8 -41 -33 -49q12 -12 13 -42t6 -57t18 -43 t49 -2q22 -19 52 -18h11q25 3 47 3q11 0 22 -1q32 21 58 21q8 -1 15 -3q31 -8 51 -12t48 6q8 34 28 40t40 7t37 7t23 40q16 20 38 23t45 7t42 17t27 51q34 26 49 39t25 21t26 18t54 34v-11q0 -55 -28 -80q-12 -11 -21 -24t-9 -45q-73 -79 -113.5 -102.5t-72.5 -41.5t-88 -56 l-14 -2q-6 -30 -21 -35t-34 -5t-37 -4t-30 -34q-34 -10 -58 -8t-49 2t-44 2t-29 -1t-19 -12t-19 -15q-9 -5 -16 -5q-13 0 -22 17q-11 -3 -22 -3q-49 0 -93 56q-33 42 -48 54.5t-31 28.5t-26 50t-12 70zM326 1248l100 116q40 -13 56 -38.5t25 -42.5t21 -35q-36 -14 -40 -42 t-3 -58t-3 -56t-40 -34q-14 24 -35 45t-41 42q-41 43 -41 91q0 6 1 12z" />
<glyph unicode="j" horiz-adv-x="636" d="M-1064 -1274q34 50 41 110t23 118q40 28 66 78q18 34 18 68q0 16 -4 32q30 40 73 76l86 72q108 90 135 160q34 -4 54 11t38 33t37 35t49 21q44 80 103 80q21 0 43 -18q26 -6 41 11t27 36t25 29t37 -10q26 17 26 38q0 13 -10 28q46 126 83 251t75 253l50 170 q19 75 31.5 97.5t25.5 43.5t31 43t39 31q11 5 22 5q34 0 65 -50q-25 -151 -40 -204q-31 -119 -88 -186q11 -27 11 -58q0 -34 -13 -74q-10 -30 -22 -61q-10 -27 -10 -57v-10q-10 -10 -23 -21t-9 -27q7 -6 20 -6q39 0 130 55q48 29 93 58t67 33q-20 20 -16 34q50 26 85 38 t67 23q70 24 121 74.5t95 61.5q28 7 57 7l31 -2q-54 -52 -101 -100t-95 -93q-114 -107 -212 -167q-61 -41 -108 -59l-56 -23q-12 -6 -40 -27t-58 -40t-77 -52t-85 -73q-81 -85 -81 -182q0 -8 1 -16q-58 -31 -72 -116q-6 -36 -9 -73t-8 -63q-5 -28 -17 -53t-12 -29t-8 -19 t-20 -34t-2 -51q-24 -4 -29 -19t-4 -35t1 -41t-14 -33q-28 0 -42 -31q-6 -13 -11 -27t-13 -24q-6 -52 -29 -95t-50 -85t-51 -85t-32 -93q-18 -26 -37 -54t-42 -49q-49 -45 -107 -45q-56 0 -120 41q-139 88 -230 287q24 24 14 52t-19 44t-11 32zM-924 -1340q22 -22 42 -49 t41 -52q57 -68 124 -77q7 -1 13 -1q30 0 46 19q20 24 32 50t21 52t21 44q72 44 115 176q11 34 31 66l-14 16l46 50q-28 34 -20 53t28 36t37 36t5 53q45 9 45 53q0 17 -7 39q-6 20 -6 40q0 47 50 64q-9 18 -9 37q0 32 29 65q18 20 37 38t23 38q-9 1 -17 1q-56 0 -103 -51 q-22 -24 -43 -48t-42 -30t-38 -4t-32 3h-4q-32 0 -45 -35q-30 -18 -50 -44t-39 -52q-46 -63 -105 -82q-30 -64 -69 -122t-73 -117q-71 -123 -71 -237q0 -14 1 -28zM-26 1210l114 132q47 -18 62.5 -46t25.5 -47t24 -39q-39 -9 -47 -72q-3 -24 -4 -48t-9 -38t-27 -14t-57 26 q-43 9 -58 61q-6 21 -10 44t-14 41z" />
<glyph unicode="k" horiz-adv-x="1292" d="M-67 139q43 96 49 123.5t10 48.5t9 36t11 40q19 80 31.5 159.5t31.5 198.5t65 229q8 106 52 194t102 174q-3 8 -3 17q0 48 76 138q21 25 33 43q-24 32 -7 54t45 44t51 46t11 58q12 26 40 40t58 26t54 27t28 43h9q88 0 145 -76l2 -71q0 -47 -18 -65q12 -9 12 -27 q0 -17 -11 -43q-9 -20 -19 -40t-11 -56t-28 -93t-65 -97q-56 -235 -168 -366q8 -18 -3 -31t-24 -26t-18 -25t15 -26q58 90 147 138t189 76q14 -14 29 -19t31 -11q12 24 28 24t32 -11t33 -25t31 -18q46 -34 46 -115v-67q0 -34 14 -62q-36 -72 -91 -134t-107 -126l-16 14 q-107 -103 -274 -168q-28 14 -52 25t-58 5q-46 -34 -56 -90q-4 -20 -4 -38q0 -33 12 -61q18 -43 38 -51t43 -7l46 2t45 -15l16 14q14 -18 27 -16t27 9t27 10t25 -17q20 26 51 28t62 1t59 5t44 42q30 -6 47 6t32 27t30 29t43 14q38 26 90 78t79 78t61 44q20 2 36 20t33 36 q35 36 67 36q8 0 16 -2q-9 -122 -168 -239q-42 -31 -76 -65q6 -42 -12 -50t-43 -9t-50 -6t-33 -41q-28 0 -46 -18t-36 -37q-39 -40 -83 -40q-8 0 -17 1q-14 -29 -46 -32.5t-49 -7.5t-29 -20l-30 44q-74 -33 -145 -33q-11 0 -22 1q-81 6 -171 18q-12 22 -27 40l-30 36 q-38 46 -49 78l30 30l-30 30q0 16 2 36t1 39q-2 47 -35 63q-46 -44 -79 -97t-64 -109t-65 -110t-82 -98q10 -30 -6 -40t-40 -20q-47 47 -47 116q0 59 34 135zM156 466q76 154 158 300t152 302q-10 34 6 59t36 48t34 44t0 47l21 21q11 11 27 9q-2 9 -2 19q0 51 51 130 q15 23 31 33q-6 26 10 57t30 61t16 58t-30 48l-118 -52q-52 -62 -65 -109q-9 -32 -9 -50q0 -8 2 -13q-55 -39 -95 -137q-11 -27 -7 -45q-32 -14 -36 -39t-5 -50t-10 -46t-51 -27l24 -38q3 -26 -5.5 -33t-15.5 -12t-13 -15q20 -16 11 -28t-24 -26q-27 -25 -27 -51 q0 -16 10 -33q-52 -46 -72 -197q-8 -61 -14 -123t-20 -112zM392 512q29 -47 99 -47q22 0 49 5q22 4 34 -2q32 26 84 46q97 37 130 62q66 48 99 122q27 60 27 123q0 15 -2 31q-12 16 -24 31t-29 36q-12 15 -21 15q-4 0 -8 -3q-12 -9 -25 -26t-31 -30t-48 7q-46 -38 -97 -78 t-98 -84q-108 -101 -139 -208z" />
<glyph unicode="l" horiz-adv-x="1072" d="M20 426q34 94 61 189t52 152t34 80t20 46t25 44t24 44t16 48t14 42t22 40t30 48t31 49t28 41t29 35t31 46t33 80t41 94t56 81q65 77 119 173l88 64l40 -40l96 16l60 -90q-21 -157 -21 -238q0 -29 3 -48q-24 -86 -72 -142l-8 -108l-80 -72l-10 -102l-68 -80 q-6 -28 -12 -57t-16 -54t-24 -50t-28 -51q-136 -116 -191 -207q-47 -78 -125 -153.5t-136 -137.5l44 -78q80 -27 174 -48q20 4 46 9t54 12q69 17 105 32q65 27 152 84t153 99t116 80t94 84t83 87q84 88 109 88q3 0 4 -1v-8q0 -26 -11 -50q-13 -28 -23 -50l-64 -68l-38 -114 q-22 -16 -47 -31t-46 -32t-38 -39q-35 -45 -73 -60.5t-69 -34.5t-66 -45t-59 -40t-29 -19t-13 -9t-54 -16t-101 -27q-143 -39 -168 -41t-63 -2t-76 -2l-30 -18q-22 16 -48 30t-45 31q-30 27 -75 83q-10 28 -20 55t-16 53l-10 76q-4 38 -7 74t-7 74zM158 396q16 16 35 29 t37 30t34 37t35 36t40 29t41 27q57 79 72 123q22 70 50 100q47 49 64 85q32 72 92 142l10 126l72 84l10 76l50 70l6 112l-34 100q-42 -70 -89 -135t-74 -112t-37 -72t-25 -48t-31 -45t-34 -58t-37 -87t-42 -99t-55 -90t-58 -90l-32 -64q-4 -10 -8 -15t-10 -21t-6 -42t-6 -49 t-18 -45q-28 -52 -36 -82t-16 -52z" />
<glyph unicode="m" horiz-adv-x="2106" d="M-80 -60q-23 37 -23 80q0 53 34 118q17 32 37 67q62 109 62 175q0 11 -14 74l44 30q-14 19 -12 37.5t3 27.5t-3 19v6l16 18q-4 66 -4 124t-24 122q19 17 36 17q9 0 18 -4q26 -13 52 -29v-2q42 -42 60 -204q4 -36 4 -64l-2 -30l-12 -12q30 -30 48 -28q12 36 38 47t53 17 t48 17t21 33t-2 26q136 136 243 172q55 19 111 18q89 0 182 -46l22 -82l-14 -14q15 -20 15 -53q0 -35 -17 -85q-12 -36 -22 -67t1 -45q8 -11 41 -11q17 0 40 3q20 28 76 55t78 42t24 33q12 -2 23 -2q40 0 61 32q12 18 22 39t23 40q25 36 71 36q8 0 16 -1q85 85 236 90h6 q76 0 76 -96q0 -52 -24 -100t-54 -98t-54 -104t-24 -120v-21q0 -64 12 -71.5t18 -9.5l-10 -8q46 -6 82 -17q18 -6 34 -5.5t29 5.5q27 11 40 13t28 5t19 16t15 26q30 35 119 35v32q40 12 68 31t55 35q46 27 102 27q20 0 41 -3q-18 -16 -49 -41t-42 -45t-18 -36t-16 -27 q-19 -23 -65 -23q0 -7 -45 -47q-85 -74 -85 -83l-18 10q-13 6 -52 -8q-78 -28 -102 -72q-26 7 -48 7q-12 0 -22 -2q-30 -5 -77 -7h-7q-42 0 -70 21q-30 23 -51 62q-28 53 -37 87v8q28 16 30 43t-2 57t-5 58t21 46q-12 32 3 61t29 55t14 50t-44 50q-59 -23 -134.5 -76.5 t-116.5 -81.5t-87 -46q-42 -46 -88 -79t-89 -69q-102 -85 -131 -192q-13 16 -41 23q-33 8 -63 35l44 110q24 54 24 108l-8 74q0 54 27 101t40 72t13 50q0 49 -36 85h-10q-37 0 -78 -19q-81 -37 -127 -37h-7q-64 -64 -165 -155t-188 -179q-118 -119 -156 -245 q-14 -46 -21 -53h-10q-22 0 -29 -12t-10 -27t-7 -29t-19 -18q-3 -1 -7 -1q-21 0 -50 29z" />
<glyph unicode="n" horiz-adv-x="1198" d="M-136 -48q-10 43 -10 83q0 57 20 107q17 42 50 59q2 1 13 13t17 33t10 43q10 57 36 80q-3 12 -3 24q0 38 28 81l30 46t18 42t2 28t-3 30t9 38t28 28t36 23t33 36q58 -28 69 -75q8 -34 8 -75q0 -15 -1 -30q-60 -39 -76 -136q6 -18 21 -13t23 9t16 4q72 50 143 112t111 142 q58 28 110 65t114 55l46 46q10 -16 24 -7t28 21t27 14h1q13 0 28 -39q10 -25 10 -53q0 -18 -4 -37q-10 -49 -31 -96t-43 -95t-24 -79t-2 -44t-3 -41t-10 -77q-3 -19 -3 -36q0 -27 7 -51q11 -38 43 -66t56 -56q15 2 41.5 -6t38.5 -7t24 13q20 9 42 -9.5t35 -25.5t29 -1v-6 q0 -35 -35 -48q-17 -6 -37 -9t-34 -11q-139 14 -198.5 44t-96.5 68t-63 96q20 32 20 69q0 12 -2 24q-8 51 -15 99q-3 21 -3 40q0 25 5 48q9 40 69 64q-4 22 1 48t-15 44q-70 -24 -122 -68t-99 -96t-94 -105t-103 -93q-26 -2 -55 3t-49 -17q2 -14 10 -24t13 -20t5 -21 t-17 -28t-40 -30t-44 -28q-49 -35 -49 -89q-7 3 -14 3q-21 0 -44 -29q-8 -10 -16 -16q-5 -11 16 -32q-11 -30 -36 -30q-18 0 -43 15q-15 9 -27 15z" />
<glyph unicode="o" horiz-adv-x="1104" d="M-60 100q-1 8 -1 17q0 27 10 50q13 31 27 61t23 61q4 13 4 28q0 20 -7 43q29 18 34.5 48t11.5 45t28 25q-7 21 -7 37q0 21 12 34q21 23 51 41t56 40q21 18 21 50q0 7 -1 16q14 14 44 28q54 25 70 44q-18 13 -11 32.5t12 31.5t-1 24q14 -2 27 -2q38 0 68 17q41 23 78 47 t75 34q9 2 18 2q31 0 70 -26q4 -14 13 -41t18 -55q24 -75 25.5 -88.5t1.5 -35.5v-128q71 -41 134 -41q51 0 98 27q22 -20 42 -11t39 21t39 13t40 -33q42 39 120 41q32 1 63 5t61 26q2 -9 2 -17q0 -54 -95 -100q-27 -13 -45 -29q-90 -20 -163 -29t-130 -18q-37 -6 -59 -6 q-13 0 -21 2q-23 5 -42 4t-31 0q-9 1 -17 1q-51 0 -65 -28q-16 -32 -25 -67t-22 -66t-55 -43q-4 -10 3 -18t11 -14q-34 -10 -45 -36t-19 -52t-23 -44t-57 -12q-126 -134 -320 -160q-16 8 -31 20t-30 22q-26 18 -54 18q-8 0 -17 -2q-4 76 -56 146zM84 26l44 30q22 -11 14 -30 q27 27 62.5 35.5t56.5 12.5t41 12q32 -18 52 -18q12 0 20 6q22 16 36 48t30 67t52 43l-14 14q34 42 61 87q25 42 25 93v8q-40 0 -69 19t-58 43t-60 45t-75 25q-18 -24 -42 -45t-42 -45q-26 -35 -26 -71q0 -22 10 -45q-46 -22 -62 -63t-21 -89t-9 -96t-26 -86zM418 685 q10 -15 24 -28t27 -27t9 -36q24 -18 52 -18q13 0 28 4q14 4 20 14q0 30 10 64t16 67q3 16 3 30q0 55 -43 87q-22 -12 -36 -33l-28 -42q-30 -44 -68 -44q-7 0 -14 1q-5 -12 -5 -21.5t5 -17.5z" />
<glyph unicode="p" horiz-adv-x="1376" d="M-456 -1006q-8 14 -8 28q0 17 12 32q-17 17 -17 51q0 37 20 95q9 26 11 48q31 37 39.5 86.5t15.5 77.5t25 52q-8 24 -8 44q0 17 6 31q12 31 31 57t36 55q13 21 13 50q0 10 -2 21q40 94 96 183t92 189q98 98 106 230q26 18 37 43t22 49t27 46t50 36q-4 16 -4 33 q0 28 12 57q27 9 23.5 35.5t-3.5 42.5t22 38q13 6 27.5 37t26.5 49q24 36 58 36q8 0 16 -2q15 -13 28.5 -43.5t23.5 -40.5t28 -6q24 0 118 86q24 -27 55 -1q41 35 63 37q23 2 44 2q59 0 105 -16q63 -22 121 -88q10 -12 23 -27t25 -38t15 -69q1 -23 1 -47.5t-1 -49.5 q-3 -51 -7 -100t-4 -85l70 -56q289 49 466 208q-10 -124 -158 -220q-40 -26 -78 -48q-18 8 -35 -2t-35 -21q-25 -15 -45 -15q-17 0 -31 12q-16 -34 -39 -33t-48 6t-47 2t-34 -45l-14 16q-36 -22 -70 -57t-71 -67q-75 -65 -139 -65q-13 0 -26 3q-12 -24 -33 -24t-43 14 q-43 28 -72 62q-15 -25 -44 -3q-12 9 -24 19t-26 8q-28 84 -73 141t-101 117q-7 -25 -28 -59q-39 -60 -42 -93l-12 -16q22 -32 15 -53t-25 -39t-34 -39t-12 -53q-18 -15 -27 -59l-14 -67q-5 -24 -17 -42q6 -24 -5 -37t-26 -26t-29 -30t-11 -41t4 -23t1 -23t-15 -51t-47 -31 q15 -39 15 -67q0 -34 -20 -54q-17 -17 -41 -28t-45 -27q-41 -31 -41 -81q0 -11 2 -22q3 -21 3 -38q0 -36 -15 -55q-22 -28 -48 -53t-43 -55q-8 -14 -8 -33q0 -23 11 -53q-8 -30 -26 -30q-7 0 -14 3q-12 5 -26 13t-26 8q0 16 -8 30zM278 520q-6 -22 -6 -41q0 -27 14 -46 q24 -31 64 -54t82 -47t60 -68q26 14 51 14q10 0 21 -3q34 -9 67 -20t64 -11t61 36q14 -11 26 -11q30 0 57 59q9 20 19 32q-21 30 -21 59v7q3 32 12 64t15 63q2 9 2 18q0 22 -11 43q-27 54 -59 102q-41 25 -76 25q-10 0 -20 -2q-44 -9 -87 -33t-87 -49q-41 -23 -88 -23h-8 q-34 -47 -111 -87q-21 -11 -41 -27zM444 186q4 -34 19 -45t35 -17t40 -14t32 -36q26 -6 50 -6q74 0 120 62q-10 0 -23 -1t-19 13l-12 -16q-18 -6 -34 1t-34 11q-18 -9 -36 -9q-19 0 -38 9q-38 16 -60 28t-40 20z" />
<glyph unicode="q" horiz-adv-x="1194" d="M-122 194q42 64 64 90l42 96q0 4 11 15l24 24q33 33 37 41l44 96q18 16 42 32t40 35t30 43q19 33 39.5 47.5t35.5 26.5t43 34q52 33 125 60.5t89 34.5t34 15q39 17 56 30q10 4 27 9t34 11q43 15 55 24l116 -34l56 -126q-32 -6 -62 -11t-62 -11q-12 -28 -21 -50t-18 -43 t-20 -43t-23 -48t-20 -54t-22 -48l-12 -52t-11 -40t-16 -42t-24 -61q-32 -82 -45 -99q-4 -22 -10 -44t-10 -44q18 -10 35 -22t33 -22q62 -107 76 -154q42 10 87 21t89 15q41 31 72.5 46.5t45.5 23.5t30 19t29 19t24 17t30 27t51 42q46 34 180 116l10 -16q-73 -73 -130 -192 q-20 -14 -43 -27q-32 -18 -63.5 -49.5t-46.5 -42.5t-18 -14l-6 -6q-11 -11 -21 -17q-20 -6 -31 -9t-21 -6t-12 -3l-78 -66l-50 12l-18 -32q-10 0 -40 -6l-6 -24l4 -2l2 -16l4 6q10 -52 10 -105q0 -75 -21 -152q-11 -39 -16 -83t-9 -70l-30 -102q-10 -22 -21 -46 q-31 -67 -39 -94.5t-16 -45.5t-23 -43t-32 -51q-37 -56 -59 -84q-16 -18 -38 -35t-51 -42q-81 -70 -155 -117l-112 8l-108 50l16 70q-16 31 -50 220l16 48t17 49t14 50t15 48t23 46t17 35t7 27l7 35q4 22 8 50q10 22 20 46q24 58 40 85q30 51 37 87t11 58t15 44t17 44 l-32 88q2 24 2 51q0 50 13 84.5t21 56.5q24 10 47 22t47 22q13 25 36 58q-16 -8 -37 -15t-46 -27q-106 -85 -143.5 -100.5t-64.5 -21.5t-49 -12l-102 10q-45 60 -56.5 84t-18.5 60t-13 58zM36 132q34 4 65 9t65 7q20 20 42 37t52 47t71 70t89 68q7 25 49 76q77 94 81 102 q18 50 34 102t38 100q0 34 -4 70l-114 -106h-2q-72 -40 -129 -78q-71 -48 -134 -144q-27 -41 -54 -62.5t-39 -38.5t-24 -43t-28 -57t-26 -48t-14 -29t-7 -28t-11 -54zM134 -1124l54 -62q73 22 106.5 45t55.5 33q22 46 48 82q4 2 18 12l28 20q35 25 45.5 36.5t21.5 34.5 t23 45l52 86q16 28 42 92q12 144 38 212l-10 118q-4 26 -9 51t-9 53q-54 -8 -111 -15t-113 -19q-78 -163 -86 -206q-12 -64 -35 -96t-33 -50q-18 -33 -33 -87.5t-30 -100.5t-22 -81t-11 -60t-8 -48t-11 -48t-11 -47zM462 -136q18 2 35 2t35 3t35 6t35 5q-4 14 -7 27t-7 27 q-10 2 -19 5t-22 4h-4q-11 0 -24 -4q-15 -5 -31 -5q-4 -16 -13 -34t-13 -36z" />
<glyph unicode="r" horiz-adv-x="1322" d="M-184 35q10 31 20 50t20 57t52 85l84 94t72 99q25 43 25 99q0 11 -1 23q56 4 91 27q58 38 58 90q0 6 -1 11q-23 12 -18 54q44 14 71 49t49 75t43 81t55 71q28 -16 56 -27t54 -29q-26 -35 -26 -74v-62q0 -22 -12 -46q32 -28 54 -66t56 -64q24 18 54 19t61 0t59 4t46 33 q8 -8 24 -8h32q39 0 41.5 -20t-0.5 -26t-7 -21t-2 -15t-6 -20t-31 -38t-46 -35t-42 -38t-19 -53q-72 -26 -86 -117q-6 -39 -8 -80t-14 -75l18 -20l16 20q40 -57 122 -57q12 0 26 1q34 50 105 78q31 12 64 22t60 23q33 16 87 65.5t113 103.5t119 110q20 0 20 -39l-2 -53 q-46 -22 -62 -54t-25 -66t-22 -65t-55 -51q-10 -36 -39 -50t-61 -25t-57 -29t-25 -62q-135 -74 -266 -74h-20q-85 3 -152 56q-10 8 -19 13t-26 22t-33 49t-26 68q-15 56 -26 140l74 200q-58 46 -94 107t-88 113q-10 -14 -26 -24t-12 -32l20 -18q-173 -189 -238 -346h-7 q-39 0 -55 -21q-18 -23 -30 -52t-30 -53q-15 -21 -48 -21q-6 0 -12 1q-10 -22 -20 -47t-24 -47q-33 -52 -84 -52q-21 21 -21 43q0 8 3 16z" />
<glyph unicode="s" horiz-adv-x="1184" d="M-247 442q0 24 35 48q-18 4 -24 14q0 7 14 42q12 0 25 5t24 8q24 7 33.5 -12t13.5 -33t15 -41q26 -64 95 -133q0 4 18 20t40 37t44 41t39 41q35 43 35 111q62 42 122 93t122 99q149 116 274 138q18 -32 42 -50t47 -36q57 -44 71 -123q7 -38 7 -76q0 -40 -8 -79 q-15 -76 -37 -141q-48 -142 -48 -217l14 -4q18 24 41 30t47 8t47 7t39 29q11 -4 23 -4q32 0 71 28q22 16 44 34t46 24l-2 16q36 24 62 34t48 20q51 23 94 88q30 12 42 -8q-17 -107 -59 -149q-21 -21 -53 -40t-62 -43t-44 -34t-28 -24q-40 -12 -98 -39t-119 -54 q-143 -63 -196 -63h-9q-18 -24 -66 -24t-75 -4t-39 -16q-14 -14 -13 -14t0 -1t-14 -17t-36 -18t-45 7t-45 23t-46 21q-14 4 -27 4q-37 0 -68 -35q-14 36 -44 42t-61 7t-59 6t-38 37v2l-42 36q-16 -16 -22 -28t-18 -29t-30 -40t-41 -40q-44 -32 -89 -32q-8 0 -16 1 q0 48 27 88t52 79t32 80q1 6 1 12q0 36 -34 75q-2 28 -25 55t-43 54q-23 32 -23 57zM114 246q11 -41 50 -41h5q17 1 33 3t24 -4q12 -9 12 -28h21q11 0 28 3q13 2 24 2q42 0 47 -33q40 16 82 34t68 58l14 -14l6 2q127 76 139 350q3 68 3 120q-10 4 -21 7t-25 12 q-24 16 -45 16q-12 0 -23 -5v-4h-2q-102 -78 -189 -171t-183 -181l-18 18q-16 -21 -16 -57.5t-4 -52.5q-4 -17 -30 -34z" />
<glyph unicode="t" horiz-adv-x="956" d="M-82 1416v20q3 50 44 57q18 3 40 4t42 13q94 -20 153 -20q18 0 33 2q118 15 198 88q32 62 48 133t37 140t55 128t104 99q8 1 16 1q22 0 40 -9q24 -12 48 -26q-10 -28 -16 -58t-13 -60q-17 -74 -47 -110q31 -12 31 -34q0 -9 -5 -20q-8 -16 -20 -34t-14 -32q-22 -2 -37 -28 t-31 -40q-16 -34 6 -58t40 -46q24 -8 54 4t44 12t26 -16q20 22 40 19t40 -10t40 -6t38 31q16 8 32 8q18 0 36 -9q34 -17 51 -22t35 7q21 -3 46 -3q71 0 169 24q37 9 67 15q40 -24 40 -52q0 -4 -1 -8q-3 -14 -8 -31t3 -43q-28 -30 -62 -31h-10q-29 0 -57 5t-55 5h-9 q-31 -1 -53 -33q-20 5 -43 5q-30 0 -66 -9q-120 -30 -166 -30h-5l-34 34q-14 -22 -39 -27t-49 11q-39 -26 -78 -26h-6q-42 2 -82 3h-4q-38 0 -71 -16q-35 -17 -56 -73t-37 -103t-46 -130q-99 -275 -176 -431q-1 -19 -1 -40q0 -117 23 -324q-6 -18 -6 -38q0 -51 38 -113 q14 -23 30 -41l36 34l50 -70q118 154 234 174q14 14 26 30t26 27q22 17 47 17q12 0 25 -4q64 36 114 91l100 110t105 101t129 64q-102 -246 -288 -420q-24 -28 -50 -44t-44 -27t-53 -34q-97 -64 -181 -155q-10 20 -39 20l-49 -2q-38 -28 -99 -45q-43 -12 -71 -12 q-12 0 -21 2q-54 12 -91 37q-151 101 -160 298l-16 16q38 35 38 82q0 8 -1 15q-3 25 -10 52t-9 50t1 35l7 28q16 64 30 125t42 168q52 198 192 551q-48 18 -105 18q-112 0 -140.5 11t-28.5 12t-16 1l-64 -6q-47 0 -50 22z" />
<glyph unicode="u" horiz-adv-x="1464" d="M-39 289q0 13 6 27q7 16 14 31t-7 25q16 122 70 236t154 190q-12 38 7 58t46 22h6q24 0 46 -13q25 -15 26 -38v-4q0 -26 -11 -59q-18 -92 -67 -186t-78 -148t-49 -112q-24 -16 -16 -34t21 -35t14 -33t-37 -30q-12 -28 6 -49t30 -43q42 -5 56 18q24 -16 43 -6t40 25t46 25 t57 -6q14 14 23 34t19 38q22 39 58 39q5 0 10 -1q28 50 74 83t93 63t84 64t47 88q38 60 77 135t91 125q11 30 39 35q11 2 21 2q31 0 50 -19q1 -8 1 -17q0 -26 -10 -49q-13 -30 -28 -59q-24 -47 -24 -89q0 -23 7 -46q-28 -16 -55 -28t-50 -26q-53 -32 -63 -94q54 -20 64 -50 t10 -65t5 -72t51 -73q8 -6 11 -9t18 -8t31 2t31 13q12 4 23 4q26 0 48 -24q15 19 29 19t27 -19q24 44 44 50t39 4t39 4t44 50l18 -18q12 32 29 31t33 -6t28 0t12 47q23 0 47 18q41 32 77 32l-52 -126l-174 -132q-58 0 -76 -9t-38 -21q-13 -35 -51 -51q-17 -7 -35 -14 t-34 -23q-31 -5 -61 -5q-115 0 -207 73q-14 10 -25 22t-23 21t-13 8t-12 14t-14 44t-9 56q-14 63 -76 63h-6q-43 -90 -140 -162q-106 -78 -194 -78q-27 -77 -154 -109q-14 -4 -26 -4q-18 0 -29 9q-19 14 -33 28t-30 26t-44 12q-22 52 -44 102t-32 102q18 10 19 25t1 31 q-33 11 -33 29z" />
<glyph unicode="v" horiz-adv-x="1190" d="M-21 178q1 40 1 76q13 -5 34 16l-18 50q18 -6 34 16q-30 16 -31 33t9 36t25 39t16 55t10 78t21 85t26 84t24 88q34 4 62 31t56 51t59 30q4 1 9 1q28 0 62 -31q3 -17 3 -32q0 -29 -10 -56q-15 -40 -35 -78t-35 -78q-9 -24 -9 -51q0 -18 4 -37q-76 -34 -99 -98t-28 -112 q-9 -90 -23 -120q12 -28 4 -55t-15 -53t-5 -48t32 -42q132 38 226 112t155 160t98 147t61 125q34 91 34 182q0 50 -10 100q20 2 36 20t32 31t32 13t34 -30q30 -14 31 -33t-6 -39t-11 -40t18 -38q-21 -14 -31.5 -54t-8.5 -46q18 -32 40 -33t46 7t49 11t47 -19 q133 16 207.5 37t124.5 33q26 32 59 44t71 22q-15 -80 -93 -142q-72 -57 -155 -74q-111 -48 -188 -54q-42 -3 -97 -3q-71 0 -163 5q-33 -11 -33 -61q0 -10 1 -22q2 -17 0 -31q-18 2 -29 -12t-21 -24v-10q0 -34 -12 -53q-14 -21 -33 -36t-42 -32t-35 -39t-14 -33t-7 -33 t-26 -28t-43 -9t-40 -12t-20 -43q-44 -12 -86 -39t-84 -53q-70 -44 -129 -44q-25 0 -47 8q-40 16 -48 24t-15 19t-19 29t-22 56t-14 77q-3 31 -3 63v16z" />
<glyph unicode="w" horiz-adv-x="2126" d="M-62 441q2 85 25 143q35 88 58 119t23 33q12 -10 25 6t19 22v68q6 2 17 2h21q26 0 28 10q2 2 0 6t-2 18t13 29t31 27t36 21t26 19q42 0 56 -12q20 -17 22 -51q4 -68 12 -87l2 -2q0 -42 -43 -82l-34 -32t-23 -38v-2q-55 -70 -94 -112q15 -12 15 -25q0 -14 -20 -29 q-13 -10 -18 -20t21 -22q-6 -18 -20 -35t-27 -35q-17 -24 -17 -45q0 -16 10 -31l4 -2q-4 -7 -4 -22q0 -39 26 -133q8 -29 10 -43q26 -42 73 -43q5 0 10 1q21 2 36 12t15 24l14 6q6 -20 30 -6q10 4 14 6t27 7t62 31t73 60q72 72 94 148v4h4q40 16 66 46t48 61t48 56t66 33 q6 16 18 29t23 26q29 34 29 55l-6 36q8 8 32 27t49 41q68 60 73 72q42 -42 42 -95q0 -23 -6 -48t-10 -49l-2 -2q-24 -40 -50 -66t-48 -64q6 -30 0 -60t-12 -59q-5 -23 -5 -43q0 -40 19 -70q-29 -16 -13 -44q7 -12 16 -24t11 -26q69 -89 231 -93q43 -1 85 -1h56q64 0 102 30 t67 72t59 86t78 72q0 32 14 48t29 28t24 27t-3 45q45 15 93 133q11 27 25 47q-6 22 -3 42t5 39q1 5 1 10q0 37 -35 65l-2 2v2q-5 11 -5 23q0 24 22 47q13 14 24 26t9 28q106 0 124 -75q6 -24 6 -53q0 -11 -1 -22q-2 -25 -2 -49q0 -16 1 -32q0 -6 1 -13q0 -31 -9 -57 q-10 -31 -22 -62q-34 -88 -34 -127h-4q-43 0 -68 -95q-19 -74 -96.5 -161.5t-150.5 -146.5q-146 -118 -313 -189l-2 -2q-36 0 -79 2t-73 30q-28 -4 -62 5t-56 31q-21 37 -61.5 78.5t-65.5 69.5t-40 71t-28 90t-33 93q-36 -44 -74 -75t-74 -61q-83 -69 -122 -164l-2 -4 q-60 0 -103 -31t-83 -59t-83 -40q-10 -3 -21 -3q-35 0 -78 31h-68q-92 184 -116 298q-22 106 -22 186v13z" />
<glyph unicode="x" horiz-adv-x="812" d="M-164 -350q41 107 76 244q-2 -16 2 -15t9 7q17 20 16 25t-2 31t3 50t12 44t20 42t32 71t42 117q19 60 19 103v12q-4 59 -19 115q20 30 20 66q0 198 20 258q28 16 55 2t49 -30q18 -34 18 -82v-10q-2 -54 -2 -82t12 -56q78 108 141 227t141 229q0 49 17 70.5t29 35.5t24 36 l22 40q22 -88 22 -129q0 -87 -38 -135q-22 -62 -42 -124t-48 -121q-34 -71 -104 -180t-108 -173l-76 -128q11 -50 72 -78q108 6 191 41t159 111q22 8 46 -6q61 61 93 61q4 0 8 -1q14 -4 27.5 22t31.5 70q12 -4 26 11t30 33q30 34 56 34q8 0 16 -4q-33 -99 -50.5 -121.5 t-36.5 -41.5l-53 -53q-16 -16 -31 -27t-37 -31t-46 -45t-50 -46q-60 -48 -130 -55q-25 -52 -113 -65q-35 -5 -68 -8t-51 -17l-43 13q-78 31 -112 31q-12 0 -19 -4q-8 -6 -12 -20q10 -26 7 -53t-39 -27q-5 -27 -46.5 -98.5t-47.5 -79.5q-6 -19 -7 -29.5t-5 -24.5t-17 -24 t-18 -24q-12 -34 -19 -50q18 -18 24 -20l-6 -4l2 -20q-8 -16 -17 -28t-13 -28l-46 10q0 22 -1 43t3 43l8 -4q-8 14 -10 30t-18 24z" />
<glyph unicode="y" horiz-adv-x="1324" d="M-326 -1418q-1 12 -1 24q0 19 2 39q5 58 18 110q29 115 29 149t4 40t8 11q5 6 0.5 15.5t1.5 27.5t15 39q22 52 46.5 94.5t57.5 122.5t74 130t71 86t50 64t30 40t34 22t46 6q2 0 19 12t19 14q15 48 62 106q14 16 56 27t64 20t38 28q49 58 84 71q20 -4 55 6t46 26t11 40 q0 33 22 66.5t28 49.5t11 29q6 15 11 41q2 2 8 14t13 24q19 32 17 35t-14 5t-25 3t-25 2t-17 1t-20 -6t-32 -14q-37 -17 -43 -30q-64 -22 -128 -24t-115 -21q-85 -31 -165 -31h-18l-68 24q-22 9 -38 43.5t-23 49.5q-17 36 -22 58.5t-5 34.5t-5 42q-9 51 -9 92q0 74 28 118 q32 56 45 69t18 20t11 12t17 17q26 28 46.5 59t28.5 40t17 18q22 22 37 15h19q9 0 19 -2q22 -35 22 -57l-2 -45q-10 -8 -22 -16t-20 -14t-17 -28t-18 -49t-16 -52t-14 -54t-36 -81t-65 -90l-2 -6l48 -52q24 0 46 6q36 -28 40 -34h47q80 0 145 45q16 11 26 11l72 12 q18 8 35 19t30 19t26 13t49 21t81 62t88 87q89 85 135 181q35 85 72 132q31 34 100 46q3 1 7 1q12 0 23 -12q14 -15 15 -41t-3 -52t-14 -47q-12 -26 -66 -93l-46 -60q-2 -4 1 -6q12 -8 -0.5 -40t-14.5 -33t-4 -6l-14 -21q-26 -38 -43 -75q-15 -33 -15 -62v-7q2 -32 -7 -46 t-21 -29q-42 -53 -42 -103l-2 -10v-4q-10 -40 -22 -69t-28 -69q2 0 13 10t26 20q35 23 53 23q4 0 7 -1q17 -6 33 -5t31 5t25 7t20 3h26l45 -4q11 0 26 -2l30 -4t23 -6q11 -7 11 -14q0 -4 -5 -8q-12 -10 -22 -13t-16 -5l-60 -12q-76 -16 -144 -45t-138 -57q-8 10 -21 14 t-23 -8q2 -6 2 -24t-2 -33t-7 -27q-6 -15 -33.5 -42.5t-1.5 -27.5q-17 -22 -31.5 -22t-18.5 -2q-2 -5 12 -34q0 -2 -6 -10t-12 -17q-16 -24 -10 -33v-16q10 -4 1 -7t-11 -3t-12 -9t-10 -11l-20 -10q-4 0 -8 -15l-6 -23q-2 -8 -1 -22t-4 -32t-12 -47t-22 -42t-31 -24t-31 -25 t-20 -34t-7 -25t-2 -11v-4q-25 -44 -27.5 -56t-2.5 -26q3 -4 3 -10q0 -22 -35 -74q-6 -10 -14 -20q-51 -63 -89.5 -140.5t-74.5 -122.5t-51 -61t-23 -32v-14q0 -40 -22 -60t-43 -33q-44 -27 -54 -42q-40 -56 -71 -73l-52 4q-4 -2 -13 -8t-19 -12q-28 -16 -36 -11t-14 5 t-20 -14q-16 4 -22 4t-15 8t-18 19q-19 24 -29 40.5t-12 46.5zM-192 -1340q2 -4 11 -4q10 0 29 5q36 9 39 10t11 9t17 18q23 26 23 30q40 20 56 20q6 0 6 36v34q-4 4 -3 22t1 22q54 25 86 42q14 41 43 95.5t65 129.5t76 141t71 123t49 88t25 43t16 24q23 30 35 30t12 22 t11 47t24 52t24 49t11 24q-6 -6 -22 -23t-35 -34q-40 -36 -57 -36q-4 0 -6 1q-36 -18 -42 -36t-11 -38t-12 -38t-29 -28q-26 12 -37 18t-19 4t-18 -15t-50 -58q-50 -56 -212 -235q-21 -61 -61.5 -133.5t-58.5 -126.5t-31 -111q-22 -95 -37 -223z" />
<glyph unicode="z" horiz-adv-x="934" d="M-676 -1025q0 17 2 45q6 82 30 110q0 25 16 59.5t20 38.5q9 5 20 -6q8 16 12 34t7 30t3 19t10 33t38 68t72 70q16 26 16 48t18 44t38 34t37 33t30 42q37 60 109 80q40 11 65 29t28 31t19 20t29 9t37 9t53 18t56 17q52 12 70 20q59 26 149 32q26 4 48 -2t42 -4 q10 26 22 51t19 48t10 46t11 45q0 63 11 102l15 52l12 36q2 20 0 44t2 44l-34 46l-74 -24q-6 0 -48 -27t-50 -33t-16 -16q-20 -25 -73 -42q-93 -32 -111 -35t-34 -2t-29 0t-22 -6t-18 -8q-22 -7 -31.5 6t-6.5 21t10 16t14 15t13 23t2 30t9 33t26 20t28 12t15 27q0 33 104 42 q6 0 13 -1t13 1q20 22 30 41t45 38t57 13t40 -2q16 16 33 31t34 31t33 33t36 29q8 22 19 42t21 39t23 33t23 30q-20 8 -41 13t-37 15q-26 -4 -50 -5q-67 -3 -98 -10q-47 -11 -64 -13q-74 -9 -111 -9q-15 -1 -24 1q-29 6 -60 13t-51 6t-50 21q-20 16 -21 27t-8 22t-15 19 t-14 16q-14 19 -2 32.5t26 16.5t28 2q44 -3 60 3q24 -8 52 -25t35 -20t34 -4t60 -1h101q18 8 45 7t49 1q40 30 84 35t59 -1t41 -12t40 -6t26 -1q28 -3 46 -35q15 -27 15 -45q0 -4 -1 -8q-4 -21 -12 -56t-21 -48t-27 -41l-8 4q-55 -69 -70.5 -101.5t-27.5 -50.5 q10 -22 14 -48t10 -51q20 -82 20 -124q0 -11 -2 -19q-6 -40 -9 -81q-1 -14 -1 -29q0 -30 4 -67q3 -25 3 -50q0 -28 -4 -55q-7 -50 -31 -101t-44 -91q16 -12 38 -15t37 -15t23 -25q18 -29 42 -38t21 -25t-9 -15t-14 5t-18 10t-19 6t-16 -3t-13 -8q-16 -13 -36 -13 q-12 0 -26 5q-36 13 -60 15q-6 -16 -8 -32q-5 -41 -17.5 -58.5t-16.5 -33.5h4l-74 -190l-6 2q-11 -18 -21.5 -46t-11.5 -36t-9 -21t-20 -35t-24 -45q-46 -89 -64 -110t-26 -31t-14 -15t-15 -17t-19 -38t-16 -37t-6 -12t-11 -9t-24 -30t-31 -38t-43 -34t-39 -33t-32 -32 t-38 -35t-34 -37t-38 -34t-48 -17t-48 -12l-2 2q-24 -4 -47 -5t-43 -4t-31 -9t-22 -11q-19 -9 -39 -9q-10 0 -18 2q-28 6 -42 18t-50 39q-79 59 -114 173q-10 38 -10 55zM-550 -1048q21 -29 72 -80q20 -4 43 -8t41 -12q4 2 16 4t27 5q35 7 45 7q18 6 40 8t40 6q40 34 76 74 l63 70t46 50t36 42t32 44t31 44t31 46t25 37t21 25t23 26t22 25t17 25t18 38t19 40t14 31t13 32t12 30t11 25t23 43t21 49t3 32t-1 37.5t28 60.5q-104 0 -206 -46q-16 -2 -31 -6t-31 -8l-106 -22q-25 -18 -56.5 -37t-33.5 -20t-11 -12t-19 -23l-20 -24t-12 -16 q-26 -12 -50 -23t-50 -23q-13 -19 -28.5 -37.5t-24.5 -29.5t-11 -14t-11 -14t-19 -23q-20 -24 -36 -40q-4 -32 -13 -59t-11 -59q-42 -30 -42 -96v-12q-31 -62 -78 -102q-8 -56 -8 -110z" />
<glyph unicode="{" horiz-adv-x="858" d="M-134 70l18 14q-4 8 -9 17t1 19l16 16q-15 15 -4 54q8 11 23 16q28 11 37 26q-12 9 -2 25l16 27q6 10 6 20q33 20 42 80q30 0 43 22t21 51t16 59t26 48q14 2 20 -14t12 -26q12 16 21 41t19 49q23 56 68 56q-8 69 57 111q17 11 33 31q0 24 1 46t-2 37q-6 32 -51 25 q-16 14 -32 8t-31 -12q-36 -14 -51 32q-4 -14 -16 -14t-22 2q-5 83 44 94q16 4 31 7t35 9t33 12t24 9t24 3t39 -4q64 44 88 78q45 65 104 112q7 57 25 137q29 135 23 207q24 36 41 56t30 39q30 43 45 117q6 -2 24 8l36 20q48 27 48 8l-2 -2h14q-6 12 -6 28q38 2 96 9t118 11 q150 10 204 -12q2 -2 6 -10q6 -12 22 -40q4 -22 -12 -33t-26 -27q-36 12 -169 12t-165 -16h-4q-46 4 -60 -7t-22 -32t-22 -52t-58 -65q9 -45 3.5 -77.5t-5.5 -49.5t8 -39q-39 -83 -68 -220q-4 -22 -36 -49t-69 -57t-70 -59t-41 -51q-16 -12 -11 -30t15 -38q27 -55 5.5 -90.5 t-39.5 -72.5t-35 -69q-36 -67 -97 -108l8 -20q-40 -10 -61 -44t-38 -75t-37 -80t-56 -57q-20 -64 -34 -87t-26 -43l-30 -50q-51 -82 -27 -133q9 -19 27 -25t30 -2l10 -30q18 4 35 17t38 11q30 -3 69 2l72 2q25 0 70 -6q38 22 69 23q35 1 83 -23l-2 -22q22 12 34 6t26 -22 l-20 -36q-25 7 -48.5 -16.5t-36.5 -38.5t-21 -23q-26 -12 -39 -1t-21 22t-10 12t-4 5q-68 0 -121 -8t-101 -12q-106 -9 -216 38l-18 24l-8 -6q-16 16 -16 39t2 46q5 61 -26 81z" />
<glyph unicode="|" horiz-adv-x="658" d="M-30 18l14 14q-4 8 -9 17t-1 19l14 18q-18 18 -8 52q7 10 22 18q24 14 34 30q-16 10 -11 32t5 40q34 26 34 82q30 2 38 25t9 53t3 61t18 49q14 2 21 -13t15 -25q12 18 12 43v49q0 24 7 41t33 19q-12 66 48 115q16 13 30 35q-18 27 -6 54.5t18 44.5t0 39q26 36 40 80 t27 87q34 113 79 155q2 48 20 88t37 77q48 94 37 157q20 38 45 75t48 75q55 91 65 170q14 -4 31 -1t21 -21q-18 -30 -18 -63t3 -64t-1 -61t-32 -54q10 -30 1 -52t-21 -41t-21 -37t1 -40q-111 -297 -140 -408q-44 -42 -64 -106t-37 -132t-39 -131t-70 -101l10 -20 q-40 -12 -52 -47t-18 -77t-15 -82t-43 -62q-55 -300 -182 -440q-18 16 -19 39t-1 46t-4 45t-28 34z" />
<glyph unicode="}" horiz-adv-x="786" d="M-388 -120q-4 22 12 33t26 27q36 -12 169 -12t165 16h4q46 -4 60 7t22 32t21 52t59 65q-11 42 -6 76q11 61 0 90q39 83 68 220q4 20 36 48t69 58t70 59t41 51q14 12 9 30t-14 38q-25 57 -4 91.5t39 71.5t35 68q38 70 97 109l-10 20q40 8 62 43t39 76t36 80t55 57 q22 70 48 110t50 79t27 72t-7 52q-20 38 -58 27q0 20 -10 30q-16 -4 -34 -17t-44 -9q-32 0 -64 -4l-70 -2q-25 0 -70 6q-38 -22 -69 -23t-53 10t-24 11t-6 2l2 22q-22 -12 -34 -6t-26 22l20 36q25 -7 48 16q32 32 56 62q28 12 41 1t21 -22t10 -12t4 -5q68 0 121 8t101 12 q106 9 216 -38l18 -24l8 6q16 -16 16 -39t-3 -46q-8 -60 25 -81l-16 -14q4 -8 9 -17t-1 -19l-16 -16q15 -15 4 -54q-16 -16 -32 -18t-28 -24q12 -9 2 -25q-22 -37 -22 -47q-33 -20 -42 -80q-30 0 -43 -22t-21 -51t-16 -59t-26 -48q-14 -2 -20 14t-12 26q-12 -16 -21 -41 t-20 -49q-26 -56 -67 -56q4 -73 -58 -111q-18 -11 -32 -31q0 -24 -1 -46t2 -37q6 -32 51 -25q16 -14 32 -8t31 12t27 3t22 -35q6 16 18 15t22 -3q0 -85 -44 -94q-16 -4 -31 -7t-35 -9t-33 -12t-24 -9t-25 -3t-38 4q-64 -44 -88 -78t-43 -57t-61 -55q-6 -48 -15 -90l-18 -84 q-21 -100 -15 -170q-24 -36 -41 -56t-31 -39q-27 -37 -44 -117q-8 3 -43 -19q-65 -39 -65 -17l2 2h-16q8 -12 8 -28q-235 -25 -310.5 -23.5t-107.5 15.5q-2 2 -6 10q-6 12 -22 40z" />
<glyph unicode="~" horiz-adv-x="920" d="M-24 482q-16 48 10 96t78 68q14 38 35 52t44 32t50 30t39 23q21 19 72 1q34 4 52 -8q6 -10 23 -27t19 -25q44 -38 61 -58t19 -56q36 -40 71 -31t45 51q4 8 9 16t19 4q8 13 31 23q40 19 51 51l60 28l-10 14q17 4 68 -6q16 -48 -10 -97t-78 -69q-16 -36 -37 -56t-43 -38 t-49 -25t-39 -18t-32 -11t-42 10q-34 -4 -52 8q-10 16 -14 34q-31 26 -52 61q-39 68 -51.5 81.5t-29.5 16.5t-36 0q-43 -7 -55 -47q-8 -23 -28 -20q-10 -18 -35 -29t-47 -37l-60 -34l10 -14q-18 -5 -66 6z" />
<glyph unicode="&#xa1;" horiz-adv-x="924" d="M144 80q-4 20 1 44t12 48q19 65 13 100l30 44l-12 10q28 12 36 39t13 57t13 57t38 39q6 81 84 207q12 19 22 51t20 53t23 42t22 38t13 28t15 35t29 56t22 76q28 24 43 56t28 63t27 59t38 46q26 -16 31 -44t6 -46t5 -32q-28 -14 -35 -37t-8 -50t-1 -54t-10 -43t-16 -20 t-22 -19t-31 -53t-27 -80t-22 -85t-24 -73l-46 -42l14 -12q-20 -28 -31 -59t-23 -61q-29 -74 -78 -106q19 -105 -66 -218q-24 -32 -48 -66q10 -42 -18 -66q-10 2 -23 -2t-24 -6t-20 2t-13 24zM708 1668l26 26l-10 10q12 12 27 28t32 30q40 33 75 22q24 4 46 -14t20 -44 t-16 -40t-26 -34l6 -8q0 -16 -3 -22t-8 -28t-29 -37t-51 -14t-49 18t-26 47q-10 17 6 44z" />
<glyph unicode="&#xa2;" horiz-adv-x="782" d="M62 104l12 12q-20 26 4 44q-10 8 -10 20t2 22q10 14 23 19t23 21q-14 8 -9 27t3 31q28 21 28 68q18 4 26 12q-25 22 -52.5 63t-32.5 74t-3 63t2 61t-14 65q0 36 27 72t40 56t13 46q-22 48 111 217q29 37 45 55q14 18 27 37t23 34t16 25t16 22t29 23t42 20q49 19 85 19 q4 28 -2 46q18 34 38 64t39 61q47 77 53 137q14 -4 27 -1t15 -17q-14 -24 -13 -51t3 -53q5 -64 -28 -94q12 -32 -5 -58t-25 -39t-6 -29q24 -26 27 -53t4 -54t7 -52t34 -43q-18 -26 -29 -53t-25 -55q14 -4 12 -18t-2 -24q-22 -18 -29 -42t-12 -49t-12 -48t-27 -37 q14 -48 -32 -64q-42 -15 -52 17q-4 13 -10 25t-28 12q8 38 14 76t42 66q-16 8 -13 24t1 28q10 26 33 63t42 76q46 95 -3 141h-58l-2 -18l10 -12q-50 -17 -96 -76l-40 -52t-42 -44q-12 -44 -35 -80t-39 -64t-23 -47t-14 -32t-10 -20t-8 -19t-8 -29t-8 -33q-12 -37 -37 -56 q15 -37 22 -44q-28 -15 -21 -39.5t14 -39.5t7 -29q21 -2 53.5 -27t48.5 -31t34 4q14 -4 26 -2t23 3q23 2 41 -23q10 24 27 28t37 4t38 2t32 20q30 -24 89 9q23 13 45 26t40 13q-13 -42 -84 -87q-30 -19 -60 -36t-45 -28t-27 -11t-23 1q-29 3 -35 -15q-46 0 -92 -8t-92 -4 l-10 -8q-41 -190 -78.5 -257t-69.5 -103q-16 12 -17 31t-1 54t-26 49z" />
<glyph unicode="&#xa3;" horiz-adv-x="828" d="M-82 418q90 90 141 120q95 56 201 56q37 0 56 -14l14 16l12 -16q16 2 34 -12q20 40 12 79q-14 68 -52 93l-10 20q-45 -8 -56 -14q-22 0 -42 -11t-40 -21q-48 -24 -86 8v16q-10 18 -14 26t4 30q35 26 60 24q-6 14 -10 30q34 4 69 11t69 11q-8 21 -4 34q-10 25 -10 74v60 q2 28 12 48t8 40t4 33t15 27t18 27t15 24t11 20t12 14t17 16t20 26t23 29t25 26t19 23t12 19t13 15t26 13t37 10q38 8 70.5 8t65.5 -7t60 -24q59 -37 67 -105q0 -18 6 -34t6 -55t-6 -57q10 -10 4 -31t-8 -33v-6q-20 -20 -21 -30t1 -22q5 -31 -16 -44q10 -30 -10 -41t-43 -11 t-27 7t-4 16q0 26 -32 29q4 74 20 112l-4 38q8 26 22 51t23 50q20 56 -25 101l-48 12q-26 4 -85 -50q-13 -12 -23 -24q-25 -30 -54 -48q-6 -28 -21 -50t-31 -46q-45 -68 -48 -122q-2 -18 -3 -38t-11 -36l6 -32l4 -4l14 -34q22 2 51 6t59 5q70 2 108 -9q8 -12 16 -26t18 -24 q6 -24 -10 -37t-26 -29q-28 4 -71 4t-68 -2t-39 -2q10 -25 22 -40v-4q-6 -22 7 -46q26 -47 23.5 -74.5t-2.5 -52.5t-18 -53q0 -24 47 -51q54 -31 69 -51q40 -8 76 -24t76 -20q3 -42 -32 -42q-14 0 -30 -1t-26 -17q-18 6 -45 5q-43 -2 -93 21q-24 14 -65 34t-61 40 q-66 -52 -130 -84t-150 -42l-2 4q-20 -4 -35 -13t-60 -9t-66 17t-22 41t5 51q7 30 -10 55zM46 394l40 -4q30 14 53 16t43 8t41 15q51 22 61 39q-62 21 -120 28q-66 -38 -118 -102z" />
<glyph unicode="&#xa4;" horiz-adv-x="938" d="M8 577q20 27 55 51t74 50t79 54q8 34 31 76t25 70v32h18l24 42l-2 2q-12 26 -35 41t-45 28q-53 32 -44 75q-16 -2 -30 12l-24 24q22 30 49 30t60 -25q89 -67 145 -101q10 4 16 21t28 23q16 34 45 49t59 24t58 18t44 31l20 -10l22 14l12 -8q31 31 77 -23q11 -13 19 -21 l-18 -14q6 -12 12 -21t8 -23q132 64 230 80q-8 -26 -9 -40t-21 -36l-30 2l-82 -100q-36 12 -116 -48l2 -4l-20 -72q-36 -30 -48 -68q134 -109 182 -222q-20 -4 -33 -9t-35 3l-6 24l-100 26q5 28 -56 72q-58 -60 -102 -132l-12 14q-36 -32 -87 -47t-80 -12q-44 5 -67.5 11 t-33.5 15t-13 20t-5 25t-10 30q-16 -12 -34 -28t-38 -28q-48 -29 -84 -12q-9 -25 -70 -48q-24 36 -4 63zM334 746q6 -32 20 -56l-16 -10q4 -10 11 -32t23 -22q38 38 102 38q12 12 25 17t20 11q15 13 -1 52q43 4 55.5 18t18.5 28t16 34q-10 32 4 60t28 52t16 47t-28 45l18 18 q6 20 -4 30t-27 10q-41 0 -59 -22q-15 -29 -42.5 -47.5t-45.5 -33.5q-44 -37 -44 -83q-48 -28 -62 -66t-28 -88z" />
<glyph unicode="&#xa5;" horiz-adv-x="1032" d="M-266 -120q43 33 96.5 41.5t86.5 12.5t63 10q13 -19 20 -24l14 2q16 24 31 50t28 38t17 26q-81 -19 -134 6v12q-10 12 -19 19t3 25q50 23 92 20q-6 4 -9 11t-7 13l186 18q31 31 86 66q22 34 58 62t48 58l10 -4q4 2 9 10t13 17q20 23 42 23q28 44 78 72q4 12 17 23t16 18 t-3 21q12 16 8 30q-39 -39 -72 -36q-12 -10 -18 -16t-12 -9q-12 -6 -44 -3v8q-46 -22 -76 -34t-82 -8q0 4 1 11t-3 11q-5 -11 -24 -26q-40 50 -50 74t-19 45t-25 27q6 36 9 65t6 57q6 59 31 126q-4 32 10 52q31 44 42 162q8 -2 20 -6q32 94 84 182q2 4 7 16t11 24l11 22 q9 19 25 23.5t25 1.5t15 -11t9 -17t5 -16t4 -9l28 -14q-16 -14 -26 -20t-15 -14q-10 -15 -13 -60l-2 -2q-11 -34 -38.5 -84t-40.5 -82t-16 -64q-4 -47 -15.5 -71.5t-16.5 -47.5t-13 -32t-8 -19t1 -22q2 -28 -10.5 -45t-9.5 -53t17 -52q9 -21 31.5 -2.5t50.5 12.5 q23 14 53.5 22t44.5 18t30 34q24 -15 35 -5q25 21 43 23q12 50 45 103t55 101l10 2q9 0 6.5 14t-3.5 23t15 34t22 67t28 80l-16 8q41 35 51.5 69.5t14.5 50.5t18 26v16l10 -6q12 22 32 29t36 23q12 -6 24 -8t24 -6q10 -20 4 -36t-2 -28l12 -12q-28 -28 -33 -66t-15 -58 t-13 -24t-15 -28t-26 -69t-50 -79h2q-48 -65 -42 -104v-26h-12q10 -16 1 -27t-19 -21l2 -2q-13 -67 -20 -80q4 -20 -2 -40q18 16 44 20t34 13t12 18t10 17q27 -4 78 51q12 13 22 21q30 4 30 -16t-6 -40l-2 -2q-24 -44 -64 -76q-20 -16 -76 -72q-16 -22 -30 -37t-18 -22 t-7 -13q-5 -10 -25 -23q-23 -15 -48 -35q-6 -32 -20 -69q-24 -65 -14 -103q-8 -16 -16 -31t-16 -31q80 0 128 -6q14 -10 27 -20t27 -20q6 -15 -11 -25.5t-27 -16.5t-16 -10q-50 5 -156 0q-4 -20 -4 -30l-2 -2q-19 -30 -32 -70q84 12 170 -10v-18q30 10 50 9t48 -17l-26 -32 q-62 7 -145 -64q-46 -39 -129 12l2 -4q-25 -6 -26.5 -17t-2.5 -19t-9 -16q-3 -27 -24 -50q-34 -37 -28 -56q-29 -47 -76 -90q-22 -20 -40 -40t-22 -50q-29 3 -41.5 -6.5t-28.5 -18.5q-42 -24 -74 -1q-65 -25 -150 60q-48 48 -38 148l-16 6l10 18q-18 21 -8 44.5t17 35.5 t7 24q-44 0 -116 8t-78 12zM50 -318q6 -2 14 -10q-4 -14 -10 -22q0 -14 18 -20t28 -14q18 2 42 0t38 12q11 22 48 36q6 17 28 34.5t23 23.5t11 15q16 14 23 39q12 41 37 60l14 28l-144 -16t-144 -12q0 -16 -10 -34q-16 -28 -6 -54q-16 -32 -10 -66zM134 -54l282 22 q0 3 32 86l-6 4q0 12 6 28q-46 -4 -94 -7t-94 -9q-75 -70 -106 -118l-11 3q1 -1 -9 -9zM368 174l118 10v8l-6 2q18 30 19 46t7 48q-60 -60 -112 -82q-4 -15 -26 -32z" />
<glyph unicode="&#xa6;" horiz-adv-x="652" d="M-52 -98q41 25 29 61l-10 30t1 27q7 14 26 28q34 34 39 79t7 71t10 48l40 38l-18 2q16 20 22 41t13 42q17 52 61 81q-20 22 -20 45t12 47t31 49t37 51q-10 10 -10 20t14 22q12 2 27 16t29 27t27 20t20 -3t5 -31t-6 -45q-11 -68 0 -84l-24 -32l16 -2q-28 -16 -31 -34 t-1 -36t-2 -36t-32 -32q6 -44 -34 -120q-4 -10 -10 -19t-10 -20t-5 -23t-8 -27t-17 -31t-18 -32q-2 -17 -23 -58.5t-19 -69.5q-31 -29 -42.5 -68.5t-20.5 -58.5t-31 -37q-42 0 -61 38q-5 10 -13 16zM386 1072q39 24 27 61q-5 15 -10 29t1 25t12 15t20 17t23 38t12 51t5 51 t10 45l40 36l-18 4q16 20 22 40t13 40q17 49 61 78q-20 20 -20 43t12 46t31 47t37 48q-18 20 4 42q12 2 28 16l32 28t30 22t21 -1t4 -31t-9 -47q-16 -68 -2 -85l-26 -30l18 -2q-28 -16 -31 -33t-2 -34t-3 -35t-32 -32q6 -44 -34 -114q-4 -10 -10 -19t-9 -20t-5 -22t-9 -26 t-17 -30q-11 -17 -25.5 -51t-25.5 -55t-7 -47q-35 -32 -45.5 -69t-19.5 -56t-31 -35q-33 0 -43.5 14t-15.5 23t-13 15z" />
<glyph unicode="&#xa7;" horiz-adv-x="1090" d="M-68 190q28 20 27 40t-9 41t-10 40t26 35q-40 54 26 76q44 12 56 4t16 -23t13 -29t45 -14q8 -104 -4 -166q6 -16 6 -33t10 -31q-6 -46 -22 -89t-22 -83q-14 -94 74 -158q91 -8 103.5 -4t31.5 12t40 31t39 48t35 51t45 46q-2 52 22 94t39 76q17 38 27 100q18 36 14 67 t-7 55t-3 49t10 47l-22 56l-10 6l-72 112q-125 54 -168 220q3 31 -8 48q-28 39 -30 58q22 22 7 51t-37 41q2 22 15 40t25 36q28 42 16 82q25 3 23 32q-1 12 -3 25t4 27t26 23t42 17q61 22 74 46q16 -10 34 3t32 19l-28 134q-2 26 1 44l6 36q6 38 -7 88q-5 9 14.5 51.5 t28.5 64.5t11 26t8 21t10 26t13 19t16 20t9 16t4 10t4 10t13 22q50 73 59.5 97.5t19.5 35.5q18 20 74 40.5t115 29.5t116 2q128 -16 189 -107q16 -26 22 -56t17 -49t18 -44t12 -53q11 -63 3 -92q27 -4 13 -76q-3 -16 1 -24q-30 -20 -28 -40t9 -41t9 -40t-24 -35 q40 -54 -28 -76q-42 -12 -54 -4t-16 23t-13 29t-45 14q-4 50 -6 83t10 85q-6 16 -6 32t-10 30q6 46 22 89t22 83q14 91 -74 158q-100 9 -127 -2.5t-47 -32.5t-36 -43t-32 -46t-42 -42q0 -52 -24 -94t-39 -76t-18 -56t-8 -38t-8 -23t-6 -21t0 -37t6 -47q7 -57 -7 -96l22 -56 l10 -6l74 -114q128 -51 166 -218q-6 -28 7 -46q26 -36 31 -60q-22 -22 -7 -51t37 -41q-2 -22 -15 -40t-25 -36q-30 -45 -16 -82q-25 -3 -23 -32q1 -12 3 -26t-5 -27t-26 -22t-41 -17q-61 -22 -74 -46q-16 10 -34 -3t-32 -19q6 -22 10 -46t8 -41t7 -27t4 -28t-2 -36l-6 -36 t-3 -38t6 -37t-1 -38t-18 -45q-31 -67 -32 -71q-12 -47 -25.5 -62t-23.5 -29t-14 -31t-18 -37q-52 -75 -62 -100.5t-20 -36.5q-18 -20 -74 -40.5t-115 -29.5t-116 -2q-128 16 -189 107q-18 28 -23 57t-16 49t-18 45t-12 52q-11 62 -3 91q-28 4 -13 77q3 15 -1 23zM392 980 q5 -87 79 -149q13 -11 27 -19l138 -162q28 8 58 12t58 8q16 32 23 69t41 57q-2 40 1 73t1 65q-5 87 -79 149q-13 11 -27 19l-138 162q-28 -8 -58 -12t-58 -8q-16 -32 -23 -69t-41 -57q2 -40 -1 -73t-1 -65z" />
<glyph unicode="&#xa8;" horiz-adv-x="674" d="M0 1888v44q6 26 32 61t56 51t54 1t26 -87q12 10 24 23t32 5q-10 -147 -73 -201q-27 -23 -59 -20t-48 14t-25 29q-19 38 -19 80zM390 1878v54q6 26 32 61t56 51t54 1t26 -87q12 10 24 23t30 5q-10 -146 -72 -201q-26 -23 -58 -20t-48 14t-25 29q-19 38 -19 70z" />
<glyph unicode="&#xa9;" horiz-adv-x="1196" d="M82 838q0 2 6 20t13 42l14 48t10 40t6 36t9 42l6 4h12q8 0 12 2q-14 67 60 130q2 30 21 52t41 42t40 41t20 49q40 32 81 56t79 58q78 70 118 92t44 26l14 -8q48 16 77 30q92 44 135.5 38t57.5 -16t38 -26q46 -8 69 -31t35 -47t17 -32t9 -18q-8 -18 -30 -18h-38l-14 -4 q-10 54 -96 81q-22 7 -40 13q-4 -2 -4 -7v-9l12 -6q2 0 6 4q13 3 40 -8h8q65 -52 77.5 -78t21.5 -39t35 -25q4 -20 14 -36t16 -38q15 -55 36 -88q-15 -37 7.5 -62.5t35.5 -44.5q31 -46 -5 -79q4 -10 0 -18t-6 -18q18 -8 34 -22q-6 -2 -23 -5t-21 -10t1 -18t8 -23 q8 -31 -21 -44q2 -11 -9 -40q-21 -57 -19 -66q-10 -29 -33 -54.5t-29 -27.5q-18 -18 -18 -21t8 -27q-16 -12 -26 -18t-18 -12q-16 -12 -31 -39t-27 -43t-36 -30q6 -10 6 -22q4 -4 1 -15t-15 -16t-26 -7q-38 -5 -46 -26q-26 16 -34 18t-32 -20q4 -24 -21 -35t-41 -21 q-41 25 -74 4q-70 -6 -135 -11t-135 23q-10 -6 -20 -6h-20q-42 30 -92 48t-82 50t-48 70t-25 78q-14 60 -19 158zM206 759q2 -13 16 -30t30 -37t10 -44v-2q-25 -58 64 -128q10 -8 32 -7t32 11q4 -2 6 -2t6 -2q38 -22 92 -22h96l158 70q20 10 39 17t37 18t29 22t25 21l110 86 q2 2 12 18t22 35q32 51 35 69t17 60t18 75t-12 83h6q4 26 1 29t-35 19q6 4 19 15t5 30t-23 39t-28 42t-5 42q-26 22 -56 59t-63 72q-80 85 -139 85q-34 0 -135 -70q-23 -16 -31 -24l-144 -144q-6 -4 -12 -16l-10 -20q-37 -59 -59 -87q-61 -82 -85 -131l22 -12 q-26 -20 -29 -47t-2 -55q3 -76 -37 -110l-4 -2q-32 -12 -30 -25zM408 898v4q0 30 18 57t27 40t11 29q-15 49 79 169l35 45t27 42t30 44t57 35t83 15t65 -34t23 -68t4 -49t19 -25l14 -10q-15 -19 -42 -78q6 -10 4 -21t0 -21q-24 -21 -29 -50.5t-9 -46.5t-18 -31 q4 -28 -14 -45t-38 -17t-27 7t-10 15q-8 22 -15 22h-20q6 30 11 64t27 58l-4 38q8 20 23 44t27 50q29 62 10 96l-24 4l-30 -38q-22 -6 -27 -24q-11 -40 -57 -86q-12 -37 -37 -81q-49 -84 -55 -113q-12 -58 -32 -78q4 -12 9 -17l15 -15q-16 -10 -21 -14t-4 -10t5 -14t8 -24 q10 -4 20 -12t20 -15q24 -17 38 -9q16 -4 32 -1t32 -7q16 16 40 16h35q11 0 17 8l12 14q16 -16 26 -16q8 0 22 5t26 7q30 5 30 -23.5t-34 -49.5t-79 -36q-93 -31 -145 -31q-121 0 -162 68q-6 10 -21 32q-23 34 -19 108v37q0 19 -8 37z" />
<glyph unicode="&#xaa;" horiz-adv-x="836" d="M66 750q-10 28 1 49t25 39q35 45 2 84q18 26 32 56t29 60q33 65 77 106q-10 12 -10 24t5 24t12 23t11 23l52 24l-14 44q37 -7 46 17q4 11 7 24t9 27t26 20q38 30 74 62t73 63q92 77 163 105q58 -11 80 -53q10 -19 16 -43t13 -51q15 -60 63 -85q-26 -44 -20 -86t11 -88 t-1 -86t-52 -74q-4 -12 -2 -27t1 -29q-2 -33 -25 -46q16 -18 17 -38t1 -38t8 -33t40 -23q7 -39 18 -50q12 -12 48 -36q16 -4 34 0t28 -10q16 13 46 8l24 -38q18 16 44 25q69 24 102 31l168 100q-26 -44 -40 -70t-27 -42q-24 -30 -79 -64l-40 -32q-40 -30 -54 -30l-14 2 q-10 0 -21 -1t-17 13q-12 -10 -16 -26t-28 -10l-8 12l-28 -24q-50 26 -96 43t-82 40q-79 50 -96 161q-25 30 -44 24q-18 -30 -44 -51t-43 -39t-23 -29t-17 -24t-31 -18t-39 -11q-51 -16 -63 -62q-19 13 -39.5 8.5t-37.5 -9.5t-34 -6q-40 -2 -63 27q-40 -17 -87 35 q-19 21 -37 44t-34 35zM185 881q5 -11 14 -28t25 -48t-2 -55q23 -19 42 -12q27 12 42.5 23t23.5 17t18 10q88 -17 192 99q26 29 54 51l-12 14q72 22 61 103q-10 77 1 103q-14 42 -4 79t27 73t33 72t16 76l-58 12q-18 -16 -42 -30t-46 -30q-55 -40 -58 -80q-42 -6 -58 -33 t-27 -60t-24 -64t-45 -49q-8 -8 -12 -8t-31 -18t-45 -72t-34 -98q-68 -10 -51 -47z" />
<glyph unicode="&#xab;" horiz-adv-x="1214" d="M-180 202q-11 18 6 48q-14 52 32 68q20 10 39 17t57 26t103 54t135 45q83 71 241 75q45 1 85 -9q-2 -18 -1 -33t-11 -31l-24 12l-50 -70q-30 26 -137 -34q-25 -14 -43 -18q-5 -18 -41.5 -22t-55.5 -11t-36 -16t-35 -19t-42 -18q-16 4 -28 0q54 -20 86 -40 q136 -13 244 -105q34 -29 54 -59q-16 -10 -29 -20t-35 -10l-8 20l-98 -10q0 34 -132 65q-30 7 -46 17q-22 -13 -51 9.5t-50 30.5t-41 13t-41 10t-47 15zM374 202q-11 13 4 48q-14 52 32 68q20 10 39 17t58 26t104 54t135 45q48 44 121 59q128 26 205 7q-2 -18 -1 -33 t-13 -31l-22 12l-50 -70q-31 27 -139 -34q-25 -14 -43 -18q-2 -14 -18 -18t-37 -6t-41 -9t-37 -16t-34 -19t-41 -18q-16 2 -30 0q59 -21 88 -40q135 -13 242 -105q34 -29 56 -59q-18 -10 -31 -20t-35 -10l-6 20l-98 -10q0 35 -133 65q-31 7 -47 17q-22 -13 -51 9.5t-49 30.5 t-40 13t-41 10t-47 15z" />
<glyph unicode="&#xac;" horiz-adv-x="1078" d="M-40 602q108 82 283 96q51 4 95 -2q82 26 167 26t140 3t80 5l50 4q54 4 75 -30q20 7 20 20l34 -2q10 -10 15 -20t-13 -20l20 -8q21 -58 -28 -86q-4 -48 -22 -89t-29 -73t-23 -35t-18 -15l22 -16q-12 -12 -18 -23t-13 -20q-17 -22 -51 -25l-22 24q-25 102 45 239 q19 37 31 79q-2 6 -10 14q-18 -27 -58 -25.5t-65 0.5t-45 -15q-54 -8 -103 -6t-84 -10t-53 -16t-32 6q-16 -4 -50 -4q-158 0 -170 -36l-100 34l-14 -20q-22 6 -32 18t-24 28z" />
<glyph unicode="&#xad;" horiz-adv-x="678" d="M-122 572q-5 84 58 94q22 4 43 7t65 12t119 27t145 8q107 53 255 12q43 -12 75 -34q-10 -18 -16 -34t-24 -30l-16 20l-76 -60q-15 37 -143 2q-29 -8 -47 -6q-14 -25 -48 -15.5t-55 7.5t-41 -7l-40 -10t-46 -7q-22 12 -44 6t-43 -12t-38 -2t-31 34q-8 -14 -23 -14t-29 2z " />
<glyph unicode="&#xae;" horiz-adv-x="1028" d="M82 838v2q10 36 21 70t16 64t8 50t7 42l6 4h11q7 0 11 2q-12 74 54 130q2 30 19 52t36 42t36 41t19 49q34 32 71 56t71 58q66 66 104 90t42 28l14 -8q40 15 67 30q83 44 123 38t52 -17t34 -25q44 -8 65 -32t31 -47t14 -31t6 -18q-6 -18 -25 -18h-35l-12 -4q-6 42 -47 62 t-77 32q-4 -2 -3 -7t1 -9l10 -6q9 9 42 -4h6q56 -45 72 -80q10 -22 18 -36t32 -26q2 -20 12 -36t15 -38q12 -53 31 -88q-6 -34 -2 -45t20 -33t10 -40t-8 -35t-18 -33q4 -10 1 -18t-5 -18q8 -6 15 -11t15 -11q-6 -2 -21 -6t-19 -10q-2 -6 2 -17t6 -23q5 -31 -18 -44 q2 -10 -3 -25t-10 -31t-10 -30t-3 -22q-12 -25 -23 -40.5t-19 -27.5t-14 -14q-18 -18 -18 -21l8 -25q-2 -2 -3 -4t-5 -4q-19 -13 -20 -26q-4 -32 -12 -49t-36 -33t-46 -28q4 -12 4 -20q4 -4 1 -16t-14 -17t-23 -6q-32 -3 -40 -25q-4 2 -7 4t-7 5t7 6t7 3q-10 0 -16 -7 t-12 -13q4 -24 -18 -34t-36 -22q-39 26 -68 4q-64 -6 -122 -11t-120 23q-10 -6 -19 -6h-19q-38 30 -82 49t-73 50t-44 69t-23 79q-10 50 -16 157zM194 756q6 -14 20 -33t24 -36t6 -39v-2q-20 -50 32 -102l26 -26q10 -10 29 -8t27 12q4 -2 7 -2t5 -2q34 -22 82 -22h86l176 88 q0 2 -1 5q-2 7 7 13q-8 0 -26 -6q-6 -6 -11 -12t-24 -9t-41 11q-16 -10 -25 -9t-25 5q-20 -2 -29 0t-21 18q-8 4 -16 6t-16 6l-4 -4q-10 10 -22 18q-14 14 -17 23t3 27q-8 6 -14 14l-14 -22q2 -20 -2 -40q-22 -22 -38 -21t-44 7l-26 40q-2 12 4 19t12 15q0 16 1 27t17 19 l-12 6q15 25 26 34q0 18 8 31q15 25 10 35q0 22 4 26t7 15t3 18t2 14q3 9 20 21q4 18 7 35t19 29q-2 8 -2 22q13 44 30 58l-4 10q12 20 22 26q0 42 36 64q0 31 20 42q0 26 14 45q55 74 82 85q4 8 24 28l10 -16q22 14 31 16t33 -12l8 2q35 0 64 -46l8 -4q4 -26 10 -52t2 -52 q12 -24 12 -28l-4 -24q-4 -12 -2 -25t3 -26t-4 -24t-9 -25q3 -32 -4.5 -46t-13.5 -24l2 -28q-8 -10 -19 -21l-21 -21q-4 -4 -6 -10t-6 -10q-6 -28 -21 -35t-20 -10t-21 -3q-14 -14 -33 -14t-49 14t-52 20l-20 16t-20 14q0 -31 -2 -34v-2l-8 -14l4 -18v-24q0 -8 -6 -22 q13 -16 15.5 -34t6.5 -28q16 -8 18 -15t6 -23l8 -4q23 6 48 -10q68 -5 130 16q12 14 19 17t25 1q12 4 21 8t21 8q8 14 28 29t36 11l38 72q6 32 14 59t14 54t6 55t-10 62h6q4 35 -2 138q-10 16 -22 37t-4 43q-24 22 -51 58t-56 71q-72 87 -125 87q-35 0 -122 -70 q-20 -16 -28 -24l-130 -144q-6 -8 -11 -19q-15 -33 -48 -83q-66 -99 -89 -152l20 -12q-24 -20 -27 -47t-2 -55t-3 -57q-4 -27 -32 -55q-34 -14 -28 -28zM552 1002q16 -8 27 -26t23 -25t18 -8t16 -7q10 10 18 10t18 9t9 12t9 15q0 21 20 36q-4 18 6 37t12 35l-4 2l4 10v20h8 q4 10 -4 23t-4 27l-2 34l2 2q-6 18 -16 26t-14 36l4 4q-14 -4 -25 -13t-25 -15q-4 -24 -12 -36t-15 -23q-19 -30 -19 -69q-27 -27 -34 -48q3 -23 -20 -68z" />
<glyph unicode="&#xaf;" horiz-adv-x="732" d="M40 1738l6 36q28 -6 30 4t10 30q45 36 122 22q2 -4 10 -8q58 0 110 7t104 10q119 7 232 -43l28 -32q-14 -41 -47 -50q-15 -4 -33 -8t-36 -12l-18 32q-10 0 -21 -11q-20 -20 -39 -17l-157 -8q-53 0 -105 8q-28 -24 -54 -26t-48 10t-24 12t-6 2l-6 24q-16 -14 -27 -8 t-31 26z" />
<glyph unicode="&#xb0;" horiz-adv-x="548" d="M123.5 946.5q8.5 23.5 15.5 36.5t5 27q14 28 28 53t23 44t13 31t8 25t15 20t21 12q23 11 20 35q8 22 27 38t37 31q46 38 46 75q30 32 75 37t91 -21q18 -20 38 -39t37 -38q38 -43 21 -91q-4 -14 -8 -25t2 -27h-6q-4 -52 -22 -97t-28 -93l-10 6q-8 -18 -12 -46t-26 -36 l-8 8q-22 -28 -51 -50t-53 -50q-22 10 -46 -2t-37 -14t-31 10q-8 -12 -18 -7t-21 12t-20 9t-15 -14q-28 28 -50 22q-10 16 -28 37t-16 39q-25 19 -16.5 42.5zM262 960q16 -8 31 -15t29 -17q23 0 50 17l40 26q14 9 32 11l-2 12q18 4 22 19q6 23 24 35q21 21 24.5 65.5 t4.5 69.5t9 45q-14 0 -27 15q-25 29 -35 29q-12 -10 -21 -23l-18 -26q-20 -29 -49 -39q13 -17 1.5 -23.5t-20.5 -11.5t-16 -24q-9 -25 -53 -65q2 -14 -3 -26l-10 -24l-10 -24t-3 -26z" />
<glyph unicode="&#xb1;" horiz-adv-x="780" d="M-202 102q-5 84 58 94q22 4 43 7t65 12t119 27t145 8q107 53 255 12q43 -12 75 -34q-10 -18 -16 -34t-24 -30l-16 20l-76 -60q-15 37 -143 2q-29 -8 -47 -6q-14 -25 -48 -15.5t-55 7.5t-41 -7l-40 -10t-46 -7q-22 12 -44 6t-43 -12t-38 -2t-31 34q-8 -14 -23 -14t-29 2z M-40 572q-5 84 58 94q22 4 43 7t53 10t77 18t91 17q8 24 15 46t17 44q-25 61 22 112q2 4 3 5t3 5l22 -6q-6 20 1 27t27 17l32 -22q-14 -24 38 -76q12 -12 18 -20q6 -22 -7 -30q-36 -22 -45 -22q-4 -16 -7 -33t-7 -33q113 38 238 -2q38 -12 68 -32q-10 -18 -16 -34t-24 -30 l-16 20l-76 -60q-15 37 -143 2q-29 -8 -47 -6q-4 -6 -10 -10q-29 -125 -94 -200l-36 -14q-35 35 -28 99q2 17 0 37q4 2 15 2t15 2q2 12 -7 28t-3 38l2 2q-66 -15 -84 -16q-22 12 -44 6t-43 -12t-38 -2t-31 34q-8 -14 -23 -14t-29 2z" />
<glyph unicode="&#xb2;" horiz-adv-x="834" d="M40 832q98 118 211 191t269 79q17 0 44 -18v-2l14 20l14 -14q16 8 27 1t27 -13q14 24 14 50t22 54q0 40 2 79t-8 79q-60 26 -114 12q-79 -21 -148 -60q-16 -30 -40 -60t-47 -33t-27 -1q-42 16 -42 41t13 51t17 38t10 20q9 12 54 22v2l2 4v8l22 -4v40q52 6 103 29t101 39 t99 13t99 -53q101 -124 -4 -392q-4 -10 -7 -18t-7 -16q2 -28 20 -51t37 -47t32 -50t3 -58q16 -24 32 -46l32 -44q-29 -29 -50.5 -30.5t-37.5 -0.5t-36 -1q-49 132 -112 198q-76 -70 -158 -129t-188 -79l-4 4q-12 -2 -25 -11t-36 -16q-43 -13 -101 -11l-58 2q-63 21 -52 112 q2 24 0 36t-18 34zM212 804q20 4 39 2t37 -2q26 20 62 27q53 10 73.5 22.5t39.5 23.5t37 24q48 35 56 59q-46 10 -97 8t-99 -2q-90 -66 -148 -162z" />
<glyph unicode="&#xb3;" horiz-adv-x="744" d="M43 840q-12 42 31 60q29 11 46 -22q21 -26 32 -28q15 15 44 0q18 -6 32 2q2 -12 1 -18t-1 -13t6 -9q26 2 56 -4l60 -12q69 -14 106 16q22 2 46 -2t42 8q12 18 32 28t39 21q45 26 45 69q28 16 31 37t15 45q-32 10 -53 32t-59 26q-32 36 -67 33t-62 -9q-41 -9 -67 -6 q-10 12 -18 9t-22 -9t-32 2q2 14 -13 37t-20 37t7 35t34 26t47 4l50 -2t47 11q28 -12 59 0t48 19t35 7q2 18 14 25t24 12t22 11t8 24q-59 23 -179 -18q-29 -10 -59 -14q-16 -14 -36 -10t-42 0l-14 -14q-6 15 -22 26l-12 14q-44 34 -10 68l-10 10q18 14 33 14h35q38 -4 58 26 q10 -16 24 -16q6 16 21 18t30 2q38 0 51 24l12 -12q6 6 2 18q24 -4 45 -2t55 6t72 -4q10 13 34 8q20 -20 37 -42t13 -62l-14 14q-16 -10 -14 -26t6 -32t2 -30t-28 -18q0 -30 -27 -47t-49 -33l-8 10l-12 -12q10 -6 19 -23t15 -20t24 1q0 -22 6 -31t17 -20q28 -28 24.5 -49.5 t-1.5 -40.5t2 -38q0 -45 -20 -65q-7 -70 -50 -124q-12 -16 -30 -27l-36 -22q-44 -27 -62 -57q-34 -2 -70 1t-68 -9q-10 -10 -9 -14l3 -12q-24 16 -50 16t-37 -7t-13 -11t2 -18q-74 28 -144 56t-132 78q-6 14 -15 32t-14 36z" />
<glyph unicode="&#xb4;" horiz-adv-x="292" d="M-97 1382.5q15 21.5 26 35.5t21 32l34 -14q12 10 11 29t15 29t25 19l19 19q99 93 162 132q6 34 27 53t73 29l22 -14q4 22 16 24t38 -2l20 -32q-26 -13 -5 -82q5 -16 7 -26q-6 -22 -24 -23t-46 3h-14q-46 -36 -85 -78t-81 -80q-101 -91 -216 -120l-44 8q-16 37 -1 58.5z " />
<glyph unicode="&#xb5;" horiz-adv-x="1464" d="M-372 -308q30 12 40 34t15 48t9 53t16 42t18 18t24 15t39 47t38 75t33 81t34 69l50 36l-12 16q20 20 34 44l28 48q38 65 66 88q41 230 198 350q-12 34 5 52t42 20t48 -12t23 -34q0 -31 -10 -56q-19 -85 -66 -176v-10l-10 -8l-18 -38l2 -2q-2 -2 -6 -2q-52 -95 -78 -166 q-22 -14 -14 -30t19 -31t13 -30t-34 -27q-10 -28 6 -45t28 -39q37 0 50 18q20 -16 38 -7t37 23t41 23t50 -7q12 14 20 32t18 35q23 39 62 33q26 44 67 74t83 57t75 58t43 79q34 56 69 122t81 112q14 28 46 34t54 -18q4 -32 -8 -59t-25 -53q-34 -68 -17 -122q-24 -14 -49 -24 t-46 -23q-44 -27 -55 -85q55 -21 64 -63q4 -19 3 -40t1 -43q5 -56 50 -88q28 -28 48 -18t34 16q33 14 64 -20q26 38 48 0q22 40 40 46t35 4t35 3t40 45l16 -16q12 28 27 28t30 -5t25 -1t10 42q21 0 43 16q40 30 71 30l-48 -114l-158 -118q-50 0 -66 -8t-34 -20 q-12 -30 -47 -44q-48 -19 -63 -34q-146 -27 -263 80q-33 30 -33 27q0 -1 -10 13t-13 40t-9 50q-15 59 -74 56q-37 -79 -125 -145q-91 -69 -175 -69q-27 -70 -124 -94q-8 -8 -29 -9t-36 10t-28 24q-33 33 -67 33q-14 32 -28 63t-26 65l-14 -20q-20 -24 -33 -45t-21 -39 t-21 -38t-30 -39t-27 -35t-16 -25t-22 -32t-36 -52t-32 -73q-43 -28 -72.5 -82t-47.5 -80t-44 -40q-26 16 -26 71v55z" />
<glyph unicode="&#xb6;" horiz-adv-x="1352" d="M165 1116q3 18 8 39q7 28 18 59q16 44 17.5 70t21.5 41t28 34t25 28q20 10 32.5 36.5t33.5 31.5q41 10 62 40.5t34 45.5t41 26t59 24q79 33 103 69q12 -6 119 20t117 30q53 125 116 188q18 -14 20 -35t2 -44t4 -43t28 -32l-16 -16l4 -4q46 8 90 13t90 11q38 58 69 114 t41 126q16 -4 31 -1t19 -23q-23 -40 -17.5 -91t4.5 -78t-17 -51h30q44 0 48 -23q3 -18 -14.5 -37.5t-21.5 -25.5t0 -8t10 -8v-2q-10 -15 -51 -20.5t-49 -5.5q-22 -35 -8 -62q-108 -275 -140 -406q-32 -30 -52 -76q30 6 50 19t27 13t18 -4t20 -2t17 6t16 9t29 5t41 24 q18 -4 33 2t32 3t43 10t38 13l34 -2q18 -4 16 -21t-18 -28t-36 -21l-38 -19q-18 -9 -32 -25q-40 -46 -98 -46q-20 0 -35 -20t-40 -26t-55 0t-52 -6t-34 -25t-26 -23q-8 -30 -16 -62t-21 -63q-30 -72 -73 -105l12 -20q-40 -12 -52 -47t-18 -77t-15 -82t-43 -62 q-53 -298 -182 -440q-24 21 -22 64.5t-3 65.5t-29 34l16 14q-26 28 4 54q-15 15 -10 52q14 16 31 21t27 27q-16 10 -11 33t3 37q34 27 34 84q30 2 38 25t9 53t3 61t18 49q14 2 22 -13t14 -25q12 18 12 43t1 49t8 41t33 19q-10 48 5 68t29 32t30 30q-16 -6 -36 -3t-46 0 t-54 -1l-4 -2q-32 0 -64 -4q-25 -38 -48.5 -115t-41.5 -113t-48 -64q0 -44 -18 -83t-37 -75q-48 -92 -37 -152q-22 -40 -47 -75t-48 -71q-55 -87 -65 -160q-16 4 -31 2t-19 20q18 28 17 59t-3 61t1 58t31 52q-14 39 20 90q12 18 21 35t-1 39q105 251 140 390q44 40 66 102 q-20 -4 -42 -12t-43 -4t-36 14t-29 18t-23 7t-18 -4q-35 -12 -67 25q-21 15 -32 20q-24 10 -48 39t-27 44t-9 32t-8 32q-3 19 -7.5 25t-1.5 24zM315 1141q-7 -15 6 -46t37 -35q10 -2 12 -8t6 -22t18 -19t35 -4t35 -17.5t56 -23t72 11.5q23 114 53.5 160t56.5 66l-12 18 q38 12 51 45t19 74t15 79t43 58q6 24 11 48t11 48q-32 0 -73 -12t-48 -17t-16 -7l-18 -4q-20 -5 -39 -25q-44 -50 -96 -69q-18 -8 -43 -13t-38 -15t-17 -21t-10 -23q-16 -32 -46 -53t-35 -40t-21 -33t-11 -26t4 -25t-6 -24t-12 -26zM724 1002q6 -6 10 -20q16 4 27 10t25 1 q19 -7 41.5 7t38.5 10t32 3t26 15t20 12q24 44 47 122t41 116t48 66q0 50 28 108t43 88t21 66h-130q-14 0 -44 -10l-12 -14q16 -10 11 -32t-3 -36q-34 -27 -34 -80q-30 -4 -38 -25t-10 -50t-3 -58t-17 -47q-14 -2 -22 13t-14 25q-12 -18 -12 -42t-1 -47t-8 -39t-33 -18 q10 -54 -19 -83q-13 -13 -29 -26t-30 -35z" />
<glyph unicode="&#xb7;" horiz-adv-x="448" d="M124 762v64q6 28 32 62t55 50t53 1t26 -87q14 10 26 23t30 5q-10 -146 -72 -201q-26 -23 -70 -19t-62 43t-18 59z" />
<glyph unicode="&#xb8;" horiz-adv-x="944" d="M40 -584q12 22 20 40t32 28l20 -26l98 56q19 -41 111 -39q37 1 75 4t62 -3q14 22 59 5t71 -15t48 11t44 22t54 25q73 78 -13 136q-21 14 -35 24q-170 10 -224 106q-14 12 -24 25t-20 25q18 12 20 14q-6 24 -6 56q14 30 37 66t45 73q57 97 66 145q8 18 13 34t10 24 q11 17 31 -1.5t24 -27.5t14 -29t-2 -34t-18 -40l22 -12q-20 -62 -43 -123t-43 -123l54 6q0 -40 37 -51q17 -5 39 -10t44 -17q15 8 37.5 -18t34.5 -40t29 -25t28 -43t11 -68q0 -82 -33 -119t-81 -70t-104 -58q-136 -61 -216 -35q-144 -38 -331 44q-55 24 -97 58z" />
<glyph unicode="&#xb9;" horiz-adv-x="414" d="M82 748q92 125 142 251q18 45 24 85v8q33 15 18 56q26 8 31 31t7 37t12 28q0 54 20 72q0 96 19 125q38 58 121 11q-18 -66 -18 -86l2 -28l-2 -2q-6 -28 -9 -57t-6 -57q-7 -66 -33 -108l10 -8q-46 -102 -94 -199t-128 -177q4 -4 3 -7t4 -22t1 -32t-36 -33h-2q-54 0 -64 43 q-4 17 -5 33q-1 17 -17 36z" />
<glyph unicode="&#xba;" horiz-adv-x="758" d="M88 884q8 20 18 40t8 40q20 42 42 81t36 68t19 47t12 37t23 29t31 18t25 19t4 35q14 32 42 56t57 47t50 50t19 67q46 46 114 54t136 -32q26 -30 58 -58t57 -57t36 -63t1 -66t-16 -48t4 -42h-12q-3 -70 -22.5 -126t-31.5 -91t-20 -71l-14 12q-6 -14 -10 -33t-9 -38 q-12 -45 -39 -55l-12 12q-34 -44 -78 -77t-80 -73q-28 12 -49 4t-39 -17q-48 -24 -84 1q-12 -18 -28 -11t-32 18t-31 15t-23 -22q-16 14 -35 29t-41 7q-8 12 -20 26t-23 29q-27 36 -23 59q-39 32 -20 80zM218 828q32 -18 65 -33t63 -37q57 0 130 52q28 20 58 39t68 25l-4 22 q39 4 61 69q5 15 12 25t8 12t2 2q3 0 11 8q49 46 57 179q3 53 5 106t20 95q-35 0 -70 43q-36 44 -62 47q-26 -22 -43 -50t-36 -55q-44 -62 -107 -79q18 -22 13 -34t-20 -22t-32 -20t-26 -34t-20 -45t-25 -37q-27 -30 -72 -72q3 -42 -18.5 -85t-31.5 -67t-6 -54z" />
<glyph unicode="&#xbb;" horiz-adv-x="1194" d="M-246 32q2 18 1 32t13 30l22 -10l50 68q23 -20 68.5 1t70.5 34t43 17q3 24 39.5 25t56.5 8t37 16t34 19t41 18q8 -2 15 -1t15 1q-40 14 -88 42q-75 4 -143 40q-113 61 -155 124q18 10 31 19t35 11l6 -22l98 12q0 -37 133 -67q31 -7 47 -15q24 10 51 -11t48 -29t41 -13 t41 -10t47 -15q12 -16 -6 -48q17 -48 -30 -70q-74 -30 -170 -80t-166 -60q-89 -76 -241 -76q-45 0 -85 10zM308 32q2 18 0 32t12 30l24 -10l50 68q21 -21 87 10q25 12 50 25t43 17q7 24 42.5 25t54.5 8t36 16t34 19t41 18q10 -2 17 -1t13 1q-44 16 -88 42q-77 4 -142 40 q-112 61 -154 124q16 10 29 19t35 11l8 -22l98 12q-4 -37 131 -67q31 -7 47 -15q25 11 52.5 -10.5t48.5 -29.5t41 -13t41 -10t47 -15q11 -18 -6 -48q14 -50 -32 -70q-53 -21 -93.5 -41.5t-105.5 -54.5t-135 -44q-89 -76 -242 -76q-46 0 -84 10z" />
<glyph unicode="&#xbc;" horiz-adv-x="1722" d="M82 748q92 125 142 251q18 45 24 85v8q33 15 18 56q26 8 31 31t7 37t12 28q0 54 20 72q0 96 19 125q38 58 121 11q-18 -66 -18 -86l2 -28l-2 -2q-6 -28 -9 -57t-6 -57q-7 -66 -33 -108l10 -8q-46 -102 -94 -199t-128 -177q4 -4 3 -7t4 -22t1 -32t-36 -33h-2q-54 0 -64 43 q-4 17 -5 33q-1 17 -17 36zM426 525q0 15 2 20t4 15q20 12 29 31t18 41q24 59 59 82q0 28 13 32t27 16v2l-8 18q47 21 63.5 48.5t30.5 59.5q36 82 88 114q14 18 23 38t31 64t59 94t113 74l36 -38l-10 -10l6 -8h-4l18 -14q-56 -92 -118 -179t-115 -162q-127 -179 -163 -233 t-53 -84t-29 -45t-22 -21t-23 -13t-41 -21q-8 22 -21 43t-13 36zM766 274q-77 85 29 186q21 20 43 39t38 34q41 38 54 64q49 90 121 130q9 5 27 23q38 -16 36 -36t-8 -37q-8 -23 -8 -45q-33 -3 -46 -38q-10 -41 -26 -60q14 -6 31 -5t36 2t39 1t34 -7t20 -17l12 -20 q4 -4 6 -2q-8 4 26 4l18 2q38 28 58 84q-4 28 41 105q84 145 99.5 165t31.5 43t38 43q0 21 20 32l8 -8l10 46q14 -16 18 -20t18 -8t24 -8t18 -20q-6 -16 -12 -28l-14 -28q-14 -22 -17 -44t-14 -36t-21 -27q-18 -23 -6 -47q-8 -6 -16 -11q-22 -14 -22 -25l24 -20 q-28 -4 -41 -19t-23 -28t-14 -19t-8 -10q-2 -18 -12 -32t-20 -29t-14 -27t8 -32q-14 -4 -14 -8v-16q6 -4 13 -9t15 -11q22 -16 36 -2q28 0 40 -6t29 -13t31 -7t36 14l60 -10q13 -33 -20 -46q-11 -5 -16 -24q-22 18 -30 18t-20 -7t-24 -12t-30 5q-31 -7 -74 2q-76 18 -102 10 q2 -18 -8 -28t-21 -20t-14 -17t9 -23q-22 -26 -41 -56t-41 -58q-24 -110 -106 -156q-8 16 -16 23t-18 19q-23 28 -12 54q31 29 43.5 74.5t20.5 71.5t26 48l4 64q0 26 -26 36q-22 -14 -56 10q-14 8 -23 9t-25 -13q-32 24 -50 15t-38 -26q-43 -36 -72 -39q-14 -10 -24 -25 t-20 -29q-6 -4 -11 -11t-21 -17q-4 12 -7 12t-8 -4t-19 -2z" />
<glyph unicode="&#xbd;" horiz-adv-x="1788" d="M82 748q92 125 142 251q18 45 24 85v8q33 15 18 56q26 8 31 31t7 37t12 28q0 54 20 72q0 96 19 125q38 58 121 11q-18 -66 -18 -86l2 -28l-2 -2q-6 -28 -9 -57t-6 -57q-7 -66 -33 -108l10 -8q-46 -102 -94 -199t-128 -177q4 -4 3 -7t4 -22t1 -32t-36 -33h-2q-54 0 -64 43 q-4 17 -5 33q-1 17 -17 36zM426 525q0 15 2 20t4 15q20 12 29 31t18 41q24 59 59 82q0 28 13 32t27 16v2l-8 18q47 21 63.5 48.5t30.5 59.5q36 82 88 114q14 18 23 38t31 64t59 94t113 74l36 -38l-10 -10l6 -8h-4l18 -14q-56 -92 -118 -179t-115 -162q-127 -179 -163 -233 t-53 -84t-29 -45t-22 -21t-23 -13t-41 -21q-8 22 -21 43t-13 36zM730 218q96 116 209 190t269 80q20 0 44 -20v-2l14 22l14 -14q16 8 27 0t27 -14q14 26 14 52t22 54q0 40 2 78t-8 78q-97 48 -262 -46q-43 -87 -102 -96q-8 0 -12 2q-42 16 -42 40t13 51t17 39t10 20 q9 12 54 22v2l2 4v8l22 -4v38q52 6 103 30t101 40t99 13t99 -53q101 -124 -4 -392q-4 -10 -7 -18t-7 -16q2 -28 20 -51t37 -47q50 -63 35 -110l64 -88q-29 -29 -50.5 -30.5t-37.5 -0.5t-36 -1q-49 132 -112 198q-76 -70 -158 -129t-188 -79l-4 4q-12 -2 -25 -11t-36 -16 q-36 -11 -111 -11h-48q-39 13 -46.5 46.5t-5.5 62.5t1 41t-17 34zM902 190q18 4 37 2t37 -2q36 24 67 29q47 8 76 25.5t70 42.5t55 59q-46 10 -97 8t-99 -2q-89 -65 -146 -162z" />
<glyph unicode="&#xbe;" horiz-adv-x="2086" d="M43 840q-12 42 31 60q29 11 46 -22q21 -26 32 -28q15 15 44 0q18 -6 32 2q2 -12 1 -18t-1 -13t6 -9q26 2 56 -4l60 -12q69 -14 106 16q22 2 46 -2t42 8q12 18 32 28t39 21q45 26 45 69q28 16 31 37t15 45q-32 10 -53 32t-59 26q-32 36 -67 33t-62 -9q-41 -9 -67 -6 q-10 12 -18 9t-22 -9t-32 2q2 14 -13 37t-20 37t7 35t34 26t47 4l50 -2t47 11q28 -12 59 0t48 19t35 7q2 18 14 25t24 12t22 11t8 24q-59 23 -179 -18q-29 -10 -59 -14q-16 -14 -36 -10t-42 0l-14 -14q-6 15 -22 26l-12 14q-44 34 -10 68l-10 10q18 14 33 14h35q38 -4 58 26 q10 -16 24 -16q6 16 21 18t30 2q38 0 51 24l12 -12q6 6 2 18q24 -4 45 -2t55 6t72 -4q10 13 34 8q20 -20 37 -42t13 -62l-14 14q-16 -10 -14 -26t6 -32t2 -30t-28 -18q0 -30 -27 -47t-49 -33l-8 10l-12 -12q10 -6 19 -23t15 -20t24 1q0 -22 6 -31t17 -20q28 -28 24.5 -49.5 t-1.5 -40.5t2 -38q0 -45 -20 -65q-7 -70 -50 -124q-12 -16 -30 -27l-36 -22q-44 -27 -62 -57q-34 -2 -70 1t-68 -9q-10 -10 -9 -14l3 -12q-24 16 -50 16t-37 -7t-13 -11t2 -18q-74 28 -144 56t-132 78q-6 14 -15 32t-14 36zM790 525q0 15 2 20t4 15q20 12 29 31t18 41 q24 59 61 82q0 28 12 32t26 16v2l-8 18q47 21 63.5 48.5t30.5 59.5q36 82 88 114q14 18 24 38t31 64t59 94t114 74l34 -38l-10 -10l6 -8h-4l18 -14q-58 -95 -171 -256q-190 -269 -224.5 -320.5t-52.5 -81.5t-38 -58q-2 -2 -13 -8t-23 -13t-40 -21q-8 22 -22 43t-14 36z M1130 274q-79 87 30 186q22 20 45 39t39 34q34 32 49 61q48 91 124 133q5 3 25 23q40 -16 37 -36t-9 -37q-8 -23 -8 -45q-22 -2 -29 -12t-13 -26l-12 -32t-18 -28q14 -6 32 -5l36 2t38 1t34 -7t20 -17l12 -20q4 -4 6 -2q-8 4 28 4l16 2q35 25 62 84q-4 31 40 106.5t67 113.5 t34 54q37 54 65 82q0 21 20 32l8 -8l12 46q14 -16 18 -20t17 -8t23 -8t18 -20q-6 -16 -12 -28l-14 -28q-14 -22 -17 -44t-13 -36t-20 -27q-19 -25 -8 -47q-8 -6 -16 -11q-22 -14 -22 -25l24 -20q-28 -4 -41 -19t-25 -32t-20 -25q-2 -18 -12 -32t-20 -29q-20 -30 -6 -59 q-12 -4 -12 -8v-16q6 -4 12 -9t14 -11q22 -16 36 -2q28 0 40 -6t29 -13t31 -7t36 14l62 -10q13 -33 -20 -46q-10 -4 -12 -7t-6 -17q-22 18 -30 18t-19 -7q-32 -20 -55 -7q-32 -7 -73 2q-76 18 -103 10q2 -18 -8 -28l-20 -20t-13 -17t9 -23q-24 -26 -43 -56t-39 -58 q-24 -111 -108 -156q-8 16 -16 23t-17 19q-19 26 -13 54q33 28 45.5 74t19.5 72t25 48l4 64q0 27 -24 36q-18 -10 -31 -4t-25 14q-25 16 -48 -4q-34 24 -51 15t-37 -25q-47 -37 -72 -40q-16 -10 -26 -25t-17 -24q-17 -21 -33 -33q-4 12 -7 12t-8 -4t-21 -2z" />
<glyph unicode="&#xbf;" horiz-adv-x="1076" d="M-20 168q0 182 126 330q117 137 298 200q151 55 201.5 85.5t90.5 58.5l4 -4q8 10 15 22t25 40t41 74t7 104q-16 16 -35 32t-33 33q-33 41 -24 85q26 8 42 5t32 -23q48 6 112 -50q62 -55 47 -166q-9 -62 -47 -134v-2q-2 0 -11 -8t-25 -22t-53 -43q-50 -39 -165.5 -93 t-167.5 -80t-101 -57q-112 -71 -171 -151q-33 -49 -47.5 -119.5t-16.5 -92.5q13 -16 42 -4q-9 14 0 42q30 15 57 0.5t40 -23.5t20 -9t10 8t7 14l38 4q12 -18 31 -7t27 25l-6 8l-12 34l38 -6q10 -2 19 0t19 -2l10 10q6 -4 10 -6t11 -7t29 0t48 11q67 15 87.5 -6.5t16.5 -50.5 t-10 -51q-18 -12 -38 -18t-41 -14q-49 -19 -67 -46q-32 6 -40 -3t-24 -31l-14 16l-2 -2q-16 -4 -22 2t-18 8q-272 -34 -306 -34l-14 14l-4 -4q-40 6 -55 25t-21 40t-8 27t-2 12zM660 1696l26 26l-10 10q56 65 84 75.5t48 4.5q26 4 47 -14t19 -44t-15 -40t-25 -32l6 -8 q0 -16 -4 -23t-8 -29t-28 -37t-51 -14t-49 18t-26 47q-11 18 6 46z" />
<glyph unicode="&#xc0;" d="M-142 425q9 125 88 177l-22 18q26 22 31 43t3 51q20 31 66 72q50 52 90 108t40 132l-2 36q31 9 78.5 46.5t73.5 49.5t54 6q-12 36 -12 57t25 47t43 44t38 41t30 33l-12 12q30 2 44 19t27 35t29 33t48 15h6q16 32 48 57t67 49t69 50t52 64q30 10 52 27t43 32q53 38 107 41 l26 26q16 16 26 16t13 -7t7 -13q30 25 118 -28q20 -12 32 -18q50 -124 12 -254l-46 -2q0 8 24 32q-24 12 -36 33t-22 42t-25 38t-53 22t-76 -16t-70 -46t-60 -46t-54 -17q-12 -24 -27 -40t-28 -32q-31 -39 -19 -88q-72 -68 -147 -131t-139 -141l-22 22q0 -14 -9 -25t-17 -23 q-21 -32 -12 -60q-25 -16 -43 -43q-31 -48 -63 -71l-2 -2q2 -20 2 -38v-40q-22 -34 -54 -64t-62 -61q-74 -76 -80 -147q-34 -12 -48 -40t-22 -58t-14 -58t-24 -42l18 -18q-114 -66 -84 -178l2 -2v-2q58 -50 118 -54t111 3q66 9 137 9h4q42 42 130 42q32 0 62 4t45 21t19 25 t9 14t17 18q44 -10 82 11t73 51t70 61t71 43q46 46 61 100t18 99t6 71t10 49q15 48 61 87l4 4q-12 48 -12 72t14 58t31 69q45 93 45 165q158 271 322 332q59 -5 104 -12q-12 -28 -12 -65t-3 -72q-7 -83 -69 -103q6 -9 6 -58.5t-26 -103.5t-59 -107t-64 -107t-40 -95t-30 -63 l-42 -44q-53 -55 -37 -102q-16 -26 -37 -43t-37 -34q-37 -40 -14 -103h2v-2q22 -34 34 -70t27 -70q36 -81 111 -104q4 22 18 23t30 1l40 -38q164 0 215 22t87 53t92 79q149 127 222 178q-4 -54 -21 -81t-36 -49t-38 -50t-29 -84q-66 -26 -96 -61t-51 -65t-50 -46t-95 -6 q-19 23 -46 42q-16 -42 -41 -56t-55 -19t-62 -13t-62 -40q-176 23 -233 149q-38 83 -65.5 113t-59.5 40t-45 6t-23 -14t-19 -23t-21 -23l-22 22q-45 -120 -227 -131q-49 -3 -93 -3q-37 -81 -125 -108q-39 -12 -81 -18t-86 -18q-22 5 -62 -9q-75 -25 -94.5 -14t-19.5 25 t-10 26h-4q-91 9 -146 150q-14 36 -28 66q0 44 -5 97t-1 106zM1211 2440q-7 26 0 49t6 25t1 6l24 12q-18 12 -15 25t19 35l38 2q0 -30 71 -43q17 -3 27 -5q18 -16 10 -33t-18 -30t-14 -21q12 -58 30 -112t33 -109q36 -132 7 -247l-26 -36q-50 4 -72 67q-6 17 -18 33l26 24 q-4 16 -20 24t-19 26q-4 25 -17 66q-31 102 -38 194q-28 22 -35 48zM1268 1104q14 -14 54 -74q34 34 24 55t-34 21t-44 -2z" />
<glyph unicode="&#xc1;" d="M-142 425q9 125 88 177l-22 18q26 22 31 43t3 51q20 31 66 72q50 52 90 108t40 132l-2 36q31 9 78.5 46.5t73.5 49.5t54 6q-12 36 -12 57t25 47t43 44t38 41t30 33l-12 12q30 2 44 19t27 35t29 33t48 15h6q16 32 48 57t67 49t69 50t52 64q30 10 52 27t43 32q53 38 107 41 l26 26q16 16 26 16t13 -7t7 -13q30 25 118 -28q20 -12 32 -18q50 -124 12 -254l-46 -2q0 8 24 32q-24 12 -36 33t-22 42t-25 38t-53 22t-76 -16t-70 -46t-60 -46t-54 -17q-12 -24 -27 -40t-28 -32q-31 -39 -19 -88q-72 -68 -147 -131t-139 -141l-22 22q0 -14 -9 -25t-17 -23 q-21 -32 -12 -60q-25 -16 -43 -43q-31 -48 -63 -71l-2 -2q2 -20 2 -38v-40q-22 -34 -54 -64t-62 -61q-74 -76 -80 -147q-34 -12 -48 -40t-22 -58t-14 -58t-24 -42l18 -18q-114 -66 -84 -178l2 -2v-2q58 -50 118 -54t111 3q66 9 137 9h4q42 42 130 42q32 0 62 4t45 21t19 25 t9 14t17 18q44 -10 82 11t73 51t70 61t71 43q46 46 61 100t18 99t6 71t10 49q15 48 61 87l4 4q-12 48 -12 72t14 58t31 69q45 93 45 165q158 271 322 332q59 -5 104 -12q-12 -28 -12 -65t-3 -72q-7 -83 -69 -103q6 -9 6 -58.5t-26 -103.5t-59 -107t-64 -107t-40 -95t-30 -63 l-42 -44q-53 -55 -37 -102q-16 -26 -37 -43t-37 -34q-37 -40 -14 -103h2v-2q22 -34 34 -70t27 -70q36 -81 111 -104q4 22 18 23t30 1l40 -38q164 0 215 22t87 53t92 79q149 127 222 178q-4 -54 -21 -81t-36 -49t-38 -50t-29 -84q-66 -26 -96 -61t-51 -65t-50 -46t-95 -6 q-19 23 -46 42q-16 -42 -41 -56t-55 -19t-62 -13t-62 -40q-176 23 -233 149q-38 83 -65.5 113t-59.5 40t-45 6t-23 -14t-19 -23t-21 -23l-22 22q-45 -120 -227 -131q-49 -3 -93 -3q-37 -81 -125 -108q-39 -12 -81 -18t-86 -18q-22 5 -62 -9q-75 -25 -94.5 -14t-19.5 25 t-10 26h-4q-91 9 -146 150q-14 36 -28 66q0 44 -5 97t-1 106zM743 2058.5q15 21.5 26 35.5t21 32l34 -14q12 10 11 29t15 29t25 19l19 19q99 93 162 132q6 34 27 53t73 29l22 -14q4 22 16 24t38 -2l20 -32q-26 -13 -5 -82q5 -16 7 -26q-6 -22 -24 -23t-46 3h-14 q-46 -36 -85 -78t-81 -80q-101 -91 -216 -120l-44 8q-16 37 -1 58.5zM1268 1104q14 -14 54 -74q34 34 24 55t-34 21t-44 -2z" />
<glyph unicode="&#xc2;" d="M-142 425q9 125 88 177l-22 18q26 22 31 43t3 51q20 31 66 72q50 52 90 108t40 132l-2 36q31 9 78.5 46.5t73.5 49.5t54 6q-12 36 -12 57t25 47t43 44t38 41t30 33l-12 12q30 2 44 19t27 35t29 33t48 15h6q16 32 48 57t67 49t69 50t52 64q30 10 52 27t43 32q53 38 107 41 l26 26q16 16 26 16t13 -7t7 -13q30 25 118 -28q20 -12 32 -18q50 -124 12 -254l-46 -2q0 8 24 32q-24 12 -36 33t-22 42t-25 38t-53 22t-76 -16t-70 -46t-60 -46t-54 -17q-12 -24 -27 -40t-28 -32q-31 -39 -19 -88q-72 -68 -147 -131t-139 -141l-22 22q0 -14 -9 -25t-17 -23 q-21 -32 -12 -60q-25 -16 -43 -43q-31 -48 -63 -71l-2 -2q2 -20 2 -38v-40q-22 -34 -54 -64t-62 -61q-74 -76 -80 -147q-34 -12 -48 -40t-22 -58t-14 -58t-24 -42l18 -18q-114 -66 -84 -178l2 -2v-2q58 -50 118 -54t111 3q66 9 137 9h4q42 42 130 42q32 0 62 4t45 21t19 25 t9 14t17 18q44 -10 82 11t73 51t70 61t71 43q46 46 61 100t18 99t6 71t10 49q15 48 61 87l4 4q-12 48 -12 72t14 58t31 69q45 93 45 165q158 271 322 332q59 -5 104 -12q-12 -28 -12 -65t-3 -72q-7 -83 -69 -103q6 -9 6 -58.5t-26 -103.5t-59 -107t-64 -107t-40 -95t-30 -63 l-42 -44q-53 -55 -37 -102q-16 -26 -37 -43t-37 -34q-37 -40 -14 -103h2v-2q22 -34 34 -70t27 -70q36 -81 111 -104q4 22 18 23t30 1l40 -38q164 0 215 22t87 53t92 79q149 127 222 178q-4 -54 -21 -81t-36 -49t-38 -50t-29 -84q-66 -26 -96 -61t-51 -65t-50 -46t-95 -6 q-19 23 -46 42q-16 -42 -41 -56t-55 -19t-62 -13t-62 -40q-176 23 -233 149q-38 83 -65.5 113t-59.5 40t-45 6t-23 -14t-19 -23t-21 -23l-22 22q-45 -120 -227 -131q-49 -3 -93 -3q-37 -81 -125 -108q-39 -12 -81 -18t-86 -18q-22 5 -62 -9q-75 -25 -94.5 -14t-19.5 25 t-10 26h-4q-91 9 -146 150q-14 36 -28 66q0 44 -5 97t-1 106zM922 2038q-6 90 74 170q24 24 52 40q24 46 70 84t86 72l48 48q29 29 72 10q34 8 50 -4q4 -18 5 -33t2 -29q3 -36 15 -54q25 -36 10 -48q6 -12 7 -34t4 -43q8 -54 35 -57l-30 -64l20 -8q-6 -16 -18 -22t-24 -16 q-84 58 -104 164q-6 32 0 60q-18 32 -24 64q-4 -12 -4 -20q-28 -30 -53 -45t-35 -39t-17 -33t-21 -9q-6 -12 -25 -27t-36 -30q-42 -37 -25 -57l-76 -24l6 -16q-18 -8 -33 -5t-31 5zM1268 1104q14 -14 54 -74q34 34 24 55t-34 21t-44 -2z" />
<glyph unicode="&#xc3;" d="M-142 425q9 125 88 177l-22 18q26 22 31 43t3 51q20 31 66 72q50 52 90 108t40 132l-2 36q31 9 78.5 46.5t73.5 49.5t54 6q-12 36 -12 57t25 47t43 44t38 41t30 33l-12 12q30 2 44 19t27 35t29 33t48 15h6q16 32 48 57t67 49t69 50t52 64q30 10 52 27t43 32q53 38 107 41 l26 26q16 16 26 16t13 -7t7 -13q30 25 118 -28q20 -12 32 -18q50 -124 12 -254l-46 -2q0 8 24 32q-24 12 -36 33t-22 42t-25 38t-53 22t-76 -16t-70 -46t-60 -46t-54 -17q-12 -24 -27 -40t-28 -32q-31 -39 -19 -88q-72 -68 -147 -131t-139 -141l-22 22q0 -14 -9 -25t-17 -23 q-21 -32 -12 -60q-25 -16 -43 -43q-31 -48 -63 -71l-2 -2q2 -20 2 -38v-40q-22 -34 -54 -64t-62 -61q-74 -76 -80 -147q-34 -12 -48 -40t-22 -58t-14 -58t-24 -42l18 -18q-114 -66 -84 -178l2 -2v-2q58 -50 118 -54t111 3q66 9 137 9h4q42 42 130 42q32 0 62 4t45 21t19 25 t9 14t17 18q44 -10 82 11t73 51t70 61t71 43q46 46 61 100t18 99t6 71t10 49q15 48 61 87l4 4q-12 48 -12 72t14 58t31 69q45 93 45 165q158 271 322 332q59 -5 104 -12q-12 -28 -12 -65t-3 -72q-7 -83 -69 -103q6 -9 6 -58.5t-26 -103.5t-59 -107t-64 -107t-40 -95t-30 -63 l-42 -44q-53 -55 -37 -102q-16 -26 -37 -43t-37 -34q-37 -40 -14 -103h2v-2q22 -34 34 -70t27 -70q36 -81 111 -104q4 22 18 23t30 1l40 -38q164 0 215 22t87 53t92 79q149 127 222 178q-4 -54 -21 -81t-36 -49t-38 -50t-29 -84q-66 -26 -96 -61t-51 -65t-50 -46t-95 -6 q-19 23 -46 42q-16 -42 -41 -56t-55 -19t-62 -13t-62 -40q-176 23 -233 149q-38 83 -65.5 113t-59.5 40t-45 6t-23 -14t-19 -23t-21 -23l-22 22q-45 -120 -227 -131q-49 -3 -93 -3q-37 -81 -125 -108q-39 -12 -81 -18t-86 -18q-22 5 -62 -9q-75 -25 -94.5 -14t-19.5 25 t-10 26h-4q-91 9 -146 150q-14 36 -28 66q0 44 -5 97t-1 106zM866 2100q-16 48 10 96t78 68q16 38 37 52t44 32t50 30t39 23q21 19 72 1q34 4 52 -8q6 -10 22 -27t20 -25q44 -38 61 -58t19 -56q36 -40 71 -31t45 51q7 26 28 20q4 11 29 23q42 19 53 51l60 28l-10 14 q17 4 68 -6q16 -48 -10 -97t-78 -69q-16 -36 -37 -56t-43 -38t-50 -25t-40 -18t-31 -11t-41 10q-34 -4 -52 8q-6 10 -9 18t-7 16q-34 28 -52 62q-34 64 -48 79t-31 18t-36 0q-43 -7 -55 -47q-8 -23 -28 -20q-10 -18 -35 -29t-47 -37l-60 -34l10 -14q-17 -4 -68 6zM1268 1104 q14 -14 54 -74q34 34 24 55t-34 21t-44 -2z" />
<glyph unicode="&#xc4;" d="M-142 425q9 125 88 177l-22 18q26 22 31 43t3 51q20 31 66 72q50 52 90 108t40 132l-2 36q31 9 78.5 46.5t73.5 49.5t54 6q-12 36 -12 57t25 47t43 44t38 41t30 33l-12 12q30 2 44 19t27 35t29 33t48 15h6q16 32 48 57t67 49t69 50t52 64q30 10 52 27t43 32q53 38 107 41 l26 26q16 16 26 16t13 -7t7 -13q30 25 118 -28q20 -12 32 -18q50 -124 12 -254l-46 -2q0 8 24 32q-24 12 -36 33t-22 42t-25 38t-53 22t-76 -16t-70 -46t-60 -46t-54 -17q-12 -24 -27 -40t-28 -32q-31 -39 -19 -88q-72 -68 -147 -131t-139 -141l-22 22q0 -14 -9 -25t-17 -23 q-21 -32 -12 -60q-25 -16 -43 -43q-31 -48 -63 -71l-2 -2q2 -20 2 -38v-40q-22 -34 -54 -64t-62 -61q-74 -76 -80 -147q-34 -12 -48 -40t-22 -58t-14 -58t-24 -42l18 -18q-114 -66 -84 -178l2 -2v-2q58 -50 118 -54t111 3q66 9 137 9h4q42 42 130 42q32 0 62 4t45 21t19 25 t9 14t17 18q44 -10 82 11t73 51t70 61t71 43q46 46 61 100t18 99t6 71t10 49q15 48 61 87l4 4q-12 48 -12 72t14 58t31 69q45 93 45 165q158 271 322 332q59 -5 104 -12q-12 -28 -12 -65t-3 -72q-7 -83 -69 -103q6 -9 6 -58.5t-26 -103.5t-59 -107t-64 -107t-40 -95t-30 -63 l-42 -44q-53 -55 -37 -102q-16 -26 -37 -43t-37 -34q-37 -40 -14 -103h2v-2q22 -34 34 -70t27 -70q36 -81 111 -104q4 22 18 23t30 1l40 -38q164 0 215 22t87 53t92 79q149 127 222 178q-4 -54 -21 -81t-36 -49t-38 -50t-29 -84q-66 -26 -96 -61t-51 -65t-50 -46t-95 -6 q-19 23 -46 42q-16 -42 -41 -56t-55 -19t-62 -13t-62 -40q-176 23 -233 149q-38 83 -65.5 113t-59.5 40t-45 6t-23 -14t-19 -23t-21 -23l-22 22q-45 -120 -227 -131q-49 -3 -93 -3q-37 -81 -125 -108q-39 -12 -81 -18t-86 -18q-22 5 -62 -9q-75 -25 -94.5 -14t-19.5 25 t-10 26h-4q-91 9 -146 150q-14 36 -28 66q0 44 -5 97t-1 106zM902 2174v44q6 26 32 61t56 51t54 1t26 -87q12 10 24 23t32 5q-10 -147 -73 -201q-27 -23 -59 -20t-48 14t-25 29q-19 38 -19 80zM1268 1104q14 -14 54 -74q34 34 24 55t-34 21t-44 -2zM1292 2164v54q6 26 32 61 t56 51t54 1t26 -87q12 10 24 23t30 5q-10 -146 -72 -201q-26 -23 -58 -20t-48 14t-25 29q-19 38 -19 70z" />
<glyph unicode="&#xc5;" d="M-142 425q9 125 88 177l-22 18q26 22 31 43t3 51q20 31 66 72q50 52 90 108t40 132l-2 36q31 9 78.5 46.5t73.5 49.5t54 6q-12 36 -12 57t25 47t43 44t38 41t30 33l-12 12q30 2 44 19t27 35t29 33t48 15h6q16 32 48 57t67 49t69 50t52 64q48 18 77 46t71 44 q-27 27 -46 22q-10 16 -28 37t-16 39q-25 19 -16.5 42.5t15.5 36.5t5 27q14 28 29 52t23 44t12 32t8 25t15 19t21 11q23 12 20 37q8 22 27 38t38 31q45 36 45 75q32 32 76 37t90 -21q18 -20 38 -39t37 -38q37 -42 23 -91q-6 -14 -10 -25t4 -27h-8q-4 -52 -21 -97t-29 -95 l-8 8q-10 -18 -14 -46t-26 -36l-8 6q-18 -24 -42 -42t-46 -40q33 -15 68 -36q50 -124 12 -254l-46 -2q0 8 24 32q-24 12 -36 33t-22 42t-25 38t-53 22t-76 -16t-70 -46t-60 -46t-54 -17q-12 -24 -27 -40t-28 -32q-31 -39 -19 -88q-72 -68 -147 -131t-139 -141l-22 22 q0 -14 -9 -25t-17 -23q-21 -32 -12 -60q-25 -16 -43 -43q-31 -48 -63 -71l-2 -2q2 -20 2 -38v-40q-22 -34 -54 -64t-62 -61q-74 -76 -80 -147q-34 -12 -48 -40t-22 -58t-14 -58t-24 -42l18 -18q-114 -66 -84 -178l2 -2v-2q58 -50 118 -54t111 3q66 9 137 9h4q42 42 130 42 q32 0 62 4t45 21t19 25t9 14t17 18q44 -10 82 11t73 51t70 61t71 43q46 46 61 100t18 99t6 71t10 49q15 48 61 87l4 4q-12 48 -12 72t14 58t31 69q45 93 45 165q158 271 322 332q59 -5 104 -12q-12 -28 -12 -65t-3 -72q-7 -83 -69 -103q6 -9 6 -58.5t-26 -103.5t-59 -107 t-64 -107t-40 -95t-30 -63l-42 -44q-53 -55 -37 -102q-16 -26 -37 -43t-37 -34q-37 -40 -14 -103h2v-2q22 -34 34 -70t27 -70q36 -81 111 -104q4 22 18 23t30 1l40 -38q164 0 215 22t87 53t92 79q149 127 222 178q-4 -54 -21 -81t-36 -49t-38 -50t-29 -84q-66 -26 -96 -61 t-51 -65t-50 -46t-95 -6q-19 23 -46 42q-16 -42 -41 -56t-55 -19t-62 -13t-62 -40q-176 23 -233 149q-38 83 -65.5 113t-59.5 40t-45 6t-23 -14t-19 -23t-21 -23l-22 22q-45 -120 -227 -131q-49 -3 -93 -3q-37 -81 -125 -108q-39 -12 -81 -18t-86 -18q-22 5 -62 -9 q-75 -25 -94.5 -14t-19.5 25t-10 26h-4q-91 9 -146 150q-14 36 -28 66q0 44 -5 97t-1 106zM1012 1812q8 2 14 4t14 2q-10 4 -16 4t-12 -10zM1040 1964q16 -8 31 -15t29 -17q23 0 50 17l40 26q14 9 32 11l-2 10q18 4 23 20t13 28q4 6 4 4t11 8t16 33t6 48l2 50t9 45 q-14 0 -27 15q-25 29 -35 29q-24 -22 -38 -50t-50 -38q13 -17 1.5 -23.5t-20.5 -11.5t-16 -24q-10 -28 -53 -67q2 -14 -3 -25t-10 -23l-10 -24t-3 -26zM1268 1104q14 -14 54 -74q34 34 24 55t-34 21t-44 -2z" />
<glyph unicode="&#xc6;" horiz-adv-x="3086" d="M-142 429q9 125 88 173l-20 18q24 22 29 43t3 51q20 31 66 72q50 52 90 108t40 132l-2 38q26 6 51 25l50 38q61 46 107 37q-14 35 -14 56q0 30 70 94q18 18 34 37t32 35l-12 12q30 4 44 20t26 34q32 48 84 48q16 32 48 57t68 49t69 50t53 64q30 12 51 28l42 32 q48 37 107 40q8 8 17 19t19 17q25 15 36 -14q22 18 60 1t59 -29t33 -18q46 -124 12 -254q-12 0 -24 -1t-24 -1q2 12 24 34q-24 12 -36 32t-22 41t-25 38t-53 22t-75 -15t-70 -46t-61 -47t-54 -17q-12 -24 -27 -40t-28 -32q-29 -35 -19 -88q-72 -68 -146 -131t-138 -139 l-24 20q0 -15 -17 -37q-30 -41 -21 -69q-27 -20 -43.5 -46t-30.5 -40l-32 -32q2 -20 2 -39v-39q-24 -34 -56 -64t-62 -61q-74 -76 -80 -147q-34 -12 -48 -40t-21 -58t-14 -58t-25 -42l18 -16q-113 -72 -84 -180l2 -2v-2q56 -50 117 -54t112 3q66 9 143 9q28 30 61 36t66 6 t63 4t45 21t19 25t9 14t17 18q44 -10 82 11t73 51t69 61t72 43q46 46 61 99t18 100t6 72t11 47q16 44 64 92q-12 48 -12 72t14 58t31 70q45 95 45 164q158 271 322 332q49 -3 104 -12q-12 -28 -12 -64t-3 -71q-7 -86 -69 -105q6 -12 6 -60t-25 -102t-57 -107l-64 -106 t-42 -96t-31 -65l-42 -44q-52 -55 -37 -100q-16 -26 -37 -43t-37 -34q-37 -40 -14 -103h2v-2q22 -32 25 -74t7 -81t19 -72t61 -47q4 20 18 22t30 0q20 -16 40 -36q49 0 178 150q15 18 16 33q4 31 16 42q15 13 20 45q0 26 20 36t34 27t20 38t14 40t25 30t36 22q46 27 53 67 q7 21 -24 36q-33 17 -42.5 33.5t-25.5 29.5t-34 20t-24 24t-14 35t-8 28l-4 56q-2 28 7 49t-1 49l15 75q15 73 57 101q18 12 28 31t26 32t23 29t12 32q13 42 35 50q24 12 26 31t16 27t12 14q12 6 22 6q18 0 54 25t46 47t30 34q54 32 72 47t45 31t59 24t56 17t34 28t29 23 t28 3t19 1q18 0 21 20t19 34q32 8 50 11t38 15t30 13t19 1q23 0 39 16q15 15 36.5 11.5t52.5 2.5t53 10q16 -4 32 -4t37 -8t44 -11t51 -7q12 -10 19 -13t11 -7q9 -9 19.5 -24.5t21.5 -24.5t15 -16t5 -9t-3 0q-4 -4 -4 -14l10 -62q4 -24 -7 -48t-13 -49t-9 -46t-17 -33 t-18 -27t-13 -35l-9 -36q-2 -6 0 -13t-2 -11q-20 -7 -20 -18v-44q0 -23 -14 -38.5t-23 -26.5q-21 -26 -16 -50.5t-19 -31.5t-39 -13t-37 -34t-36 -44t-34 -20t-36 -16q-64 -40 -102 22q-24 39 8 118q4 22 4 42v42q0 16 19 35t24 38t14 24t21 7q55 9 64 55q4 21 22 37t39 21 t40 24t37 42t18 45v33q0 13 6 28t9 25t3 18t-8 8q-16 16 -35 22t-27 16q-10 13 -20 16q-16 -8 -17 -17t-10 -18t-24 -6t-36 -5q-44 -17 -62.5 -15.5t-30.5 2.5q-31 3 -47.5 -9t-22.5 -19t-15 -18t-26 -20t-29 -20t-21 -12t-19 0q-26 3 -42 -12q-36 -34 -82 -53.5t-58 -34.5 t-25 -21t-21 -10t-27 -4t-35 -14q-12 -6 -27 -38q-37 -78 -111 -102q-26 -10 -36 -35t-15 -39t-17 -26l-28 -28q-16 -16 -23 -32q-25 -57 -63 -106q-26 -33 -24 -50.5t2 -49.5t10 -61t50 -38t57 -25t34 -16t27 -3l20 -6t24 4t28 16t27 20t25 19t32 7t36 8t22 10t23 2t46 9 t48 4t24 -17t3 -30t-7 -33t-5 -26t10 -10q2 0 5 -2t-1 -4q0 -4 -2 -5t-10 -12t-18 -19t-20 -13t-21 -10t-24 -14q-43 -30 -61 -25.5t-29 8.5q-47 17 -73 -15q-12 -15 -29 -15q-23 0 -41 -24q-7 -14 -23 -20q-32 -12 -41 -32q-28 -76 -115 -118q-43 -21 -43 -49 q0 -56 -38 -97q-12 -12 -12 -29q0 -34 -10 -49.5t1 -25.5t15 -22t4 -23t-1 -23t7 -26t20 -25q29 -27 45.5 -24t22.5 -3t17 -21q15 -21 67 -7q22 4 41 -7t37 -11q65 0 83.5 10t34.5 28q12 10 31 10q39 0 51 12q10 10 17 10t20 -4t22 1t17 11q22 17 43 15.5t37 16.5t36 19 t34 11q17 12 32 32q14 14 35 12t33 -2t27 10t26 25t36 25t35 15t23 22t22 19t26 -1t30 13t40 24t41 36q20 2 35 11t32 9t39 19t36 23t22 4t18 3q21 6 26 -21q6 -16 -23 -45t-44 -35t-27 -32q-25 -55 -86 -72q-16 -5 -25 -22q-18 -32 -31 -40q-30 -14 -64 -15t-56 -20 t-30 -42t-29 -35t-44 -8t-39 -7t-21 -19t-16 -22t-36 -14t-54 -11t-61 -15l-2 -4q-30 -6 -59 -17t-57 -17t-54 -10t-50 -11t-45 -21t-45 -17q-38 -5 -71 7t-42 8t-19 -9q-34 -17 -54 -7q-52 26 -72 26q-33 0 -70.5 25t-46.5 37t-23 27t-21 27q-16 28 -25 28v2q-2 2 -2 4v14 q-2 16 -2 30t-4 28q-88 -122 -234 -172q-175 23 -217 157q-27 87 -53 119t-57 42t-44 6t-24 -14t-20 -23t-19 -23l-24 22q-45 -120 -226 -131q-48 -3 -92 -3q-41 -81 -127 -108q-39 -12 -81 -18t-86 -18q-22 5 -62 -9q-75 -25 -96 -13q-20 12 -19 24t-9 26h-4 q-91 9 -146 150q-14 36 -28 66q0 44 -5 99t-1 108z" />
<glyph unicode="&#xc7;" horiz-adv-x="1620" d="M-286 -830q12 22 19 40t31 28l20 -26l100 56q16 -42 109 -39q37 1 75 4t62 -3q14 22 59 5t71 -15t48 11t44 22t54 25q73 78 -13 136q-21 14 -35 24q-170 10 -224 106q-26 26 -42 50l18 14q-6 36 -6 58q22 44 58 99t64 111q-26 26 -55 36t-54 33q-28 26 -81.5 92.5 t-80.5 126.5t-44 125q-33 126 -33 259q0 50 42 155t46 116t19 36t37 59t48 75t50 77q60 90 70 107t41 59t73 94t90 106t93 97q101 96 139 81q84 112 212 165t264 53q46 0 93 5t91 -23q74 -134 116 -353q12 -63 12 -107t-21 -86t-51 -82t-61 -79t-49 -75t-41 -94t-53 -115 q-74 -141 -144 -141q-22 0 -48 26t-26 48q0 182 174 435q102 149 138 247t36 151t-5 86t-33 49h-92q-52 0 -110 -7q-71 -9 -129 -82q-15 -19 -25 -29t-18 -19t-17 -19q-22 -24 -39.5 -32t-29.5 -14t-28 -13t-45 -26t-62 -57t-64 -78q-79 -101 -145 -136q-52 -86 -115 -181 t-119 -195q-132 -236 -132 -410q0 -184 87 -296q46 -59 108 -55q15 1 40.5 1t38.5 -16h110q69 0 115.5 17t76.5 30t57 23t43 16t47 15t73 17t86 30t87 52t74 46t52 18t43 3q58 3 72 17t31 33t37 37q34 6 64 26t52 25q37 8 83 41q126 87 331 216h18q0 -70 -152 -197 q-200 -166 -558 -355q-42 -22 -86 -40t-74 -35t-46 -30t-41 -31t-55 -24t-53 -14q-47 -16 -47 -100q-52 0 -102 9t-90 9t-69 -8t-56 -18q-74 -27 -113 -30q-18 -60 -41 -119t-43 -119l54 6q0 -40 38 -51q18 -5 40 -10t44 -17q15 8 37.5 -18t34.5 -40t28 -25t27 -43t11 -68 q0 -82 -33 -119t-81 -70t-104 -58q-136 -61 -216 -35q-146 -38 -330 44q-54 24 -96 58zM226 -124q6 -6 18 -22h100l2 8l-20 12q2 14 7 23t9 18q9 21 0.5 37t-12.5 25t-18 22t-23 14t-14 -7t-10 -24t-11 -33t-12 -35t-16 -38z" />
<glyph unicode="&#xc8;" horiz-adv-x="1522" d="M-55 260q-12 19 1.5 35.5t16.5 26.5t4 20q3 26 15 35q24 17 18 45q0 22 22 35q39 23 49.5 56t17.5 50t24 28t35 22q47 29 56 69q2 4 -2 13q-9 19 -38 29q-18 10 -27 27q-17 31 -61 49q-20 8 -24 26t-12 35t-8 27l-4 56q-4 26 6 48t0 50q23 117 34 135q19 33 37.5 43 t28.5 30t26 31q29 20 42 79q6 24 23 30t22 16t9 19q11 25 20.5 28t7.5 11q8 6 20 6q25 0 60.5 27t43.5 47t28 32q55 33 68.5 44.5t23.5 17.5t30 19t52 22t56 16t35 27t30 23t27 3h18q15 0 21 16q12 38 15.5 38t19.5 4t35 7t43 19t44 12t39 15t36 14q25 -7 107 11 q16 -4 31 -4t40 -10t42 -12t28 -2t21 -2q12 -10 19 -13t12 -7q11 -9 18 -21.5t14 -19.5t15 -14q22 -19 10 -19q-10 -5 -1 -38.5t10 -40.5q3 -19 -9 -43t-13 -50t-8 -46t-18 -34t-19 -29t-11 -33t-7 -30t-2 -21t-3 -11t-10 -3q-14 -3 -11.5 -31t-2.5 -42t-15 -26t-19 -24 q-23 -30 -13 -56q4 -15 -13 -21.5t-27 -9.5t-17 -6t-18 -13t-22 -23t-21 -25t-19 -23t-30 -15t-37 -16q-31 -23 -50 -17q-38 14 -52 39q-12 16 -7 46q10 59 14.5 73.5t4.5 40.5v42q0 12 14 28q30 34 32 48q3 22 32 28q57 10 66 55q4 21 21 37t38 21t40 24t39 42t19 45t-1 32 t2 16t6 16t7 21q7 27 -5 27q-16 16 -37 23t-28 17t-17 14q-16 -8 -17 -17t-11 -19t-21 -6t-36 -4q-51 -16 -66 -15t-28 2q-34 3 -52.5 -12t-30.5 -30t-30 -24t-29 -20t-21 -12t-20 0q-29 3 -37.5 -7t-22.5 -20t-30 -19l-32 -18t-31 -14t-29 -23t-26 -22t-17 -8t-27 -5 t-33 -9t-17 -18t-16 -32t-39 -53t-57 -39t-37 -19t-15 -26l-12 -30t-16 -27l-28 -28q-16 -16 -23 -32q-25 -57 -48 -86q-43 -52 -41 -70t2 -49t10 -63t68 -42q22 -4 39 -20t40 -16t37 -6q29 -12 44 8q14 14 30 24t31 21t37 9t40 11t34 9q28 0 55 8t45 5t23 -16t5 -29 q0 -20 -8 -43t-3 -25t8 -2t6 -2t-1 -4q0 -4 -2 -5t-11 -13t-19 -20t-20 -13t-21 -9t-24 -13q-43 -30 -59 -25.5t-28 8.5q-32 11 -41 7q-15 -5 -33 -23q-22 -14 -35 -14q-25 0 -35 -26q-8 -12 -25 -18q-30 -10 -39 -32q-21 -60 -76 -96q-16 -10 -41 -22t-35 -27t-8 -39 q3 -41 -36 -80q-12 -12 -12 -30q0 -36 -11 -48t0 -24q26 -28 19 -70q-4 -21 18 -42q42 -39 57 -33q18 6 33 -17q12 -22 31 -21t40 6t41 -6t42 -11l32 2q12 0 26 1q28 2 56 35q10 10 31 10q41 0 51 12q8 10 17 10t20 -4t21 1t18 11q23 17 44.5 13.5t34.5 16.5t35 21 q37 2 68 43q16 19 35 14q39 -12 55 3t29 30t35 24t36 15t28 27t32 15t27 -1t16 11t15 13t18 9q32 8 46 38q26 2 38 11t23 9t23 6t24 14q33 22 40.5 23t16.5 1t19 4q13 5 26 -20q5 -15 -24.5 -44.5t-37.5 -32.5q-20 -8 -28 -27q-22 -64 -90 -80q-15 -2 -25 -20 q-21 -35 -33 -42q-28 -14 -63 -15t-56 -20t-30 -42t-29 -35t-44 -8t-38 -5q-25 -16 -34 -39q-14 -18 -38 -17t-46 -9t-44 -14l-26 -4l-2 -4q-32 -6 -61 -18t-57 -17t-52 -9t-49 -11t-47 -21t-45 -16q-42 -4 -71.5 7t-39.5 7t-20 -9q-28 -14 -45 -8.5t-33 12.5q-34 15 -46 15 t-29 6t-35 15q-45 22 -54.5 38.5t-24.5 29.5t-21 26q-13 29 -24 29q-8 0 -13 36t-8 55t-3 39v36q0 16 -9 30zM801 2500q-7 26 0 49t6 25t1 6l24 12q-18 12 -15 25t19 35l38 2q0 -30 71 -43q17 -3 27 -5q18 -16 10 -33t-18 -30t-14 -21q12 -58 30 -112t33 -109 q36 -132 7 -247l-26 -36q-50 4 -72 67q-6 17 -18 33l26 24q-4 16 -20 24t-19 26q-4 25 -17 66q-31 102 -38 194q-28 22 -35 48z" />
<glyph unicode="&#xc9;" horiz-adv-x="1522" d="M-55 260q-12 19 1.5 35.5t16.5 26.5t4 20q3 26 15 35q24 17 18 45q0 22 22 35q39 23 49.5 56t17.5 50t24 28t35 22q47 29 56 69q2 4 -2 13q-9 19 -38 29q-18 10 -27 27q-17 31 -61 49q-20 8 -24 26t-12 35t-8 27l-4 56q-4 26 6 48t0 50q23 117 34 135q19 33 37.5 43 t28.5 30t26 31q29 20 42 79q6 24 23 30t22 16t9 19q11 25 20.5 28t7.5 11q8 6 20 6q25 0 60.5 27t43.5 47t28 32q55 33 68.5 44.5t23.5 17.5t30 19t52 22t56 16t35 27t30 23t27 3h18q15 0 21 16q12 38 15.5 38t19.5 4t35 7t43 19t44 12t39 15t36 14q25 -7 107 11 q16 -4 31 -4t40 -10t42 -12t28 -2t21 -2q12 -10 19 -13t12 -7q11 -9 18 -21.5t14 -19.5t15 -14q22 -19 10 -19q-10 -5 -1 -38.5t10 -40.5q3 -19 -9 -43t-13 -50t-8 -46t-18 -34t-19 -29t-11 -33t-7 -30t-2 -21t-3 -11t-10 -3q-14 -3 -11.5 -31t-2.5 -42t-15 -26t-19 -24 q-23 -30 -13 -56q4 -15 -13 -21.5t-27 -9.5t-17 -6t-18 -13t-22 -23t-21 -25t-19 -23t-30 -15t-37 -16q-31 -23 -50 -17q-38 14 -52 39q-12 16 -7 46q10 59 14.5 73.5t4.5 40.5v42q0 12 14 28q30 34 32 48q3 22 32 28q57 10 66 55q4 21 21 37t38 21t40 24t39 42t19 45t-1 32 t2 16t6 16t7 21q7 27 -5 27q-16 16 -37 23t-28 17t-17 14q-16 -8 -17 -17t-11 -19t-21 -6t-36 -4q-51 -16 -66 -15t-28 2q-34 3 -52.5 -12t-30.5 -30t-30 -24t-29 -20t-21 -12t-20 0q-29 3 -37.5 -7t-22.5 -20t-30 -19l-32 -18t-31 -14t-29 -23t-26 -22t-17 -8t-27 -5 t-33 -9t-17 -18t-16 -32t-39 -53t-57 -39t-37 -19t-15 -26l-12 -30t-16 -27l-28 -28q-16 -16 -23 -32q-25 -57 -48 -86q-43 -52 -41 -70t2 -49t10 -63t68 -42q22 -4 39 -20t40 -16t37 -6q29 -12 44 8q14 14 30 24t31 21t37 9t40 11t34 9q28 0 55 8t45 5t23 -16t5 -29 q0 -20 -8 -43t-3 -25t8 -2t6 -2t-1 -4q0 -4 -2 -5t-11 -13t-19 -20t-20 -13t-21 -9t-24 -13q-43 -30 -59 -25.5t-28 8.5q-32 11 -41 7q-15 -5 -33 -23q-22 -14 -35 -14q-25 0 -35 -26q-8 -12 -25 -18q-30 -10 -39 -32q-21 -60 -76 -96q-16 -10 -41 -22t-35 -27t-8 -39 q3 -41 -36 -80q-12 -12 -12 -30q0 -36 -11 -48t0 -24q26 -28 19 -70q-4 -21 18 -42q42 -39 57 -33q18 6 33 -17q12 -22 31 -21t40 6t41 -6t42 -11l32 2q12 0 26 1q28 2 56 35q10 10 31 10q41 0 51 12q8 10 17 10t20 -4t21 1t18 11q23 17 44.5 13.5t34.5 16.5t35 21 q37 2 68 43q16 19 35 14q39 -12 55 3t29 30t35 24t36 15t28 27t32 15t27 -1t16 11t15 13t18 9q32 8 46 38q26 2 38 11t23 9t23 6t24 14q33 22 40.5 23t16.5 1t19 4q13 5 26 -20q5 -15 -24.5 -44.5t-37.5 -32.5q-20 -8 -28 -27q-22 -64 -90 -80q-15 -2 -25 -20 q-21 -35 -33 -42q-28 -14 -63 -15t-56 -20t-30 -42t-29 -35t-44 -8t-38 -5q-25 -16 -34 -39q-14 -18 -38 -17t-46 -9t-44 -14l-26 -4l-2 -4q-32 -6 -61 -18t-57 -17t-52 -9t-49 -11t-47 -21t-45 -16q-42 -4 -71.5 7t-39.5 7t-20 -9q-28 -14 -45 -8.5t-33 12.5q-34 15 -46 15 t-29 6t-35 15q-45 22 -54.5 38.5t-24.5 29.5t-21 26q-13 29 -24 29q-8 0 -13 36t-8 55t-3 39v36q0 16 -9 30zM517 2038.5q15 21.5 26 35.5t21 32l34 -14q12 10 11 29t15 29t25 19l19 19q99 93 162 132q6 34 27 53t73 29l22 -14q4 22 16 24t38 -2l20 -32q-26 -13 -5 -82 q5 -16 7 -26q-6 -22 -24 -23t-46 3h-14q-46 -36 -85 -78t-81 -80q-101 -91 -216 -120l-44 8q-16 37 -1 58.5z" />
<glyph unicode="&#xca;" horiz-adv-x="1522" d="M-55 260q-12 19 1.5 35.5t16.5 26.5t4 20q3 26 15 35q24 17 18 45q0 22 22 35q39 23 49.5 56t17.5 50t24 28t35 22q47 29 56 69q2 4 -2 13q-9 19 -38 29q-18 10 -27 27q-17 31 -61 49q-20 8 -24 26t-12 35t-8 27l-4 56q-4 26 6 48t0 50q23 117 34 135q19 33 37.5 43 t28.5 30t26 31q29 20 42 79q6 24 23 30t22 16t9 19q11 25 20.5 28t7.5 11q8 6 20 6q25 0 60.5 27t43.5 47t28 32q55 33 68.5 44.5t23.5 17.5t30 19t52 22t56 16t35 27t30 23t27 3h18q15 0 21 16q12 38 15.5 38t19.5 4t35 7t43 19t44 12t39 15t36 14q25 -7 107 11 q16 -4 31 -4t40 -10t42 -12t28 -2t21 -2q12 -10 19 -13t12 -7q11 -9 18 -21.5t14 -19.5t15 -14q22 -19 10 -19q-10 -5 -1 -38.5t10 -40.5q3 -19 -9 -43t-13 -50t-8 -46t-18 -34t-19 -29t-11 -33t-7 -30t-2 -21t-3 -11t-10 -3q-14 -3 -11.5 -31t-2.5 -42t-15 -26t-19 -24 q-23 -30 -13 -56q4 -15 -13 -21.5t-27 -9.5t-17 -6t-18 -13t-22 -23t-21 -25t-19 -23t-30 -15t-37 -16q-31 -23 -50 -17q-38 14 -52 39q-12 16 -7 46q10 59 14.5 73.5t4.5 40.5v42q0 12 14 28q30 34 32 48q3 22 32 28q57 10 66 55q4 21 21 37t38 21t40 24t39 42t19 45t-1 32 t2 16t6 16t7 21q7 27 -5 27q-16 16 -37 23t-28 17t-17 14q-16 -8 -17 -17t-11 -19t-21 -6t-36 -4q-51 -16 -66 -15t-28 2q-34 3 -52.5 -12t-30.5 -30t-30 -24t-29 -20t-21 -12t-20 0q-29 3 -37.5 -7t-22.5 -20t-30 -19l-32 -18t-31 -14t-29 -23t-26 -22t-17 -8t-27 -5 t-33 -9t-17 -18t-16 -32t-39 -53t-57 -39t-37 -19t-15 -26l-12 -30t-16 -27l-28 -28q-16 -16 -23 -32q-25 -57 -48 -86q-43 -52 -41 -70t2 -49t10 -63t68 -42q22 -4 39 -20t40 -16t37 -6q29 -12 44 8q14 14 30 24t31 21t37 9t40 11t34 9q28 0 55 8t45 5t23 -16t5 -29 q0 -20 -8 -43t-3 -25t8 -2t6 -2t-1 -4q0 -4 -2 -5t-11 -13t-19 -20t-20 -13t-21 -9t-24 -13q-43 -30 -59 -25.5t-28 8.5q-32 11 -41 7q-15 -5 -33 -23q-22 -14 -35 -14q-25 0 -35 -26q-8 -12 -25 -18q-30 -10 -39 -32q-21 -60 -76 -96q-16 -10 -41 -22t-35 -27t-8 -39 q3 -41 -36 -80q-12 -12 -12 -30q0 -36 -11 -48t0 -24q26 -28 19 -70q-4 -21 18 -42q42 -39 57 -33q18 6 33 -17q12 -22 31 -21t40 6t41 -6t42 -11l32 2q12 0 26 1q28 2 56 35q10 10 31 10q41 0 51 12q8 10 17 10t20 -4t21 1t18 11q23 17 44.5 13.5t34.5 16.5t35 21 q37 2 68 43q16 19 35 14q39 -12 55 3t29 30t35 24t36 15t28 27t32 15t27 -1t16 11t15 13t18 9q32 8 46 38q26 2 38 11t23 9t23 6t24 14q33 22 40.5 23t16.5 1t19 4q13 5 26 -20q5 -15 -24.5 -44.5t-37.5 -32.5q-20 -8 -28 -27q-22 -64 -90 -80q-15 -2 -25 -20 q-21 -35 -33 -42q-28 -14 -63 -15t-56 -20t-30 -42t-29 -35t-44 -8t-38 -5q-25 -16 -34 -39q-14 -18 -38 -17t-46 -9t-44 -14l-26 -4l-2 -4q-32 -6 -61 -18t-57 -17t-52 -9t-49 -11t-47 -21t-45 -16q-42 -4 -71.5 7t-39.5 7t-20 -9q-28 -14 -45 -8.5t-33 12.5q-34 15 -46 15 t-29 6t-35 15q-45 22 -54.5 38.5t-24.5 29.5t-21 26q-13 29 -24 29q-8 0 -13 36t-8 55t-3 39v36q0 16 -9 30zM718 2038q-6 90 74 170q24 24 52 40q24 46 70 84t86 72l48 48q29 29 72 10q34 8 50 -4q4 -18 5 -33t2 -29q3 -36 15 -54q25 -36 10 -48q6 -12 7 -34t4 -43 q8 -54 35 -57l-30 -64l20 -8q-6 -16 -18 -22t-24 -16q-84 58 -104 164q-6 32 0 60q-18 32 -24 64q-4 -12 -4 -20q-28 -30 -53 -45t-35 -39t-17 -33t-21 -9q-6 -12 -25 -27t-36 -30q-42 -37 -25 -57l-76 -24l6 -16q-18 -8 -33 -5t-31 5z" />
<glyph unicode="&#xcb;" horiz-adv-x="1522" d="M-55 260q-12 19 1.5 35.5t16.5 26.5t4 20q3 26 15 35q24 17 18 45q0 22 22 35q39 23 49.5 56t17.5 50t24 28t35 22q47 29 56 69q2 4 -2 13q-9 19 -38 29q-18 10 -27 27q-17 31 -61 49q-20 8 -24 26t-12 35t-8 27l-4 56q-4 26 6 48t0 50q23 117 34 135q19 33 37.5 43 t28.5 30t26 31q29 20 42 79q6 24 23 30t22 16t9 19q11 25 20.5 28t7.5 11q8 6 20 6q25 0 60.5 27t43.5 47t28 32q55 33 68.5 44.5t23.5 17.5t30 19t52 22t56 16t35 27t30 23t27 3h18q15 0 21 16q12 38 15.5 38t19.5 4t35 7t43 19t44 12t39 15t36 14q25 -7 107 11 q16 -4 31 -4t40 -10t42 -12t28 -2t21 -2q12 -10 19 -13t12 -7q11 -9 18 -21.5t14 -19.5t15 -14q22 -19 10 -19q-10 -5 -1 -38.5t10 -40.5q3 -19 -9 -43t-13 -50t-8 -46t-18 -34t-19 -29t-11 -33t-7 -30t-2 -21t-3 -11t-10 -3q-14 -3 -11.5 -31t-2.5 -42t-15 -26t-19 -24 q-23 -30 -13 -56q4 -15 -13 -21.5t-27 -9.5t-17 -6t-18 -13t-22 -23t-21 -25t-19 -23t-30 -15t-37 -16q-31 -23 -50 -17q-38 14 -52 39q-12 16 -7 46q10 59 14.5 73.5t4.5 40.5v42q0 12 14 28q30 34 32 48q3 22 32 28q57 10 66 55q4 21 21 37t38 21t40 24t39 42t19 45t-1 32 t2 16t6 16t7 21q7 27 -5 27q-16 16 -37 23t-28 17t-17 14q-16 -8 -17 -17t-11 -19t-21 -6t-36 -4q-51 -16 -66 -15t-28 2q-34 3 -52.5 -12t-30.5 -30t-30 -24t-29 -20t-21 -12t-20 0q-29 3 -37.5 -7t-22.5 -20t-30 -19l-32 -18t-31 -14t-29 -23t-26 -22t-17 -8t-27 -5 t-33 -9t-17 -18t-16 -32t-39 -53t-57 -39t-37 -19t-15 -26l-12 -30t-16 -27l-28 -28q-16 -16 -23 -32q-25 -57 -48 -86q-43 -52 -41 -70t2 -49t10 -63t68 -42q22 -4 39 -20t40 -16t37 -6q29 -12 44 8q14 14 30 24t31 21t37 9t40 11t34 9q28 0 55 8t45 5t23 -16t5 -29 q0 -20 -8 -43t-3 -25t8 -2t6 -2t-1 -4q0 -4 -2 -5t-11 -13t-19 -20t-20 -13t-21 -9t-24 -13q-43 -30 -59 -25.5t-28 8.5q-32 11 -41 7q-15 -5 -33 -23q-22 -14 -35 -14q-25 0 -35 -26q-8 -12 -25 -18q-30 -10 -39 -32q-21 -60 -76 -96q-16 -10 -41 -22t-35 -27t-8 -39 q3 -41 -36 -80q-12 -12 -12 -30q0 -36 -11 -48t0 -24q26 -28 19 -70q-4 -21 18 -42q42 -39 57 -33q18 6 33 -17q12 -22 31 -21t40 6t41 -6t42 -11l32 2q12 0 26 1q28 2 56 35q10 10 31 10q41 0 51 12q8 10 17 10t20 -4t21 1t18 11q23 17 44.5 13.5t34.5 16.5t35 21 q37 2 68 43q16 19 35 14q39 -12 55 3t29 30t35 24t36 15t28 27t32 15t27 -1t16 11t15 13t18 9q32 8 46 38q26 2 38 11t23 9t23 6t24 14q33 22 40.5 23t16.5 1t19 4q13 5 26 -20q5 -15 -24.5 -44.5t-37.5 -32.5q-20 -8 -28 -27q-22 -64 -90 -80q-15 -2 -25 -20 q-21 -35 -33 -42q-28 -14 -63 -15t-56 -20t-30 -42t-29 -35t-44 -8t-38 -5q-25 -16 -34 -39q-14 -18 -38 -17t-46 -9t-44 -14l-26 -4l-2 -4q-32 -6 -61 -18t-57 -17t-52 -9t-49 -11t-47 -21t-45 -16q-42 -4 -71.5 7t-39.5 7t-20 -9q-28 -14 -45 -8.5t-33 12.5q-34 15 -46 15 t-29 6t-35 15q-45 22 -54.5 38.5t-24.5 29.5t-21 26q-13 29 -24 29q-8 0 -13 36t-8 55t-3 39v36q0 16 -9 30zM656 2174v44q6 26 32 61t56 51t54 1t26 -87q12 10 24 23t32 5q-10 -147 -73 -201q-27 -23 -59 -20t-48 14t-25 29q-19 38 -19 80zM1046 2164v54q6 26 32 61t56 51 t54 1t26 -87q12 10 24 23t30 5q-10 -146 -72 -201q-26 -23 -58 -20t-48 14t-25 29q-19 38 -19 70z" />
<glyph unicode="&#xcc;" horiz-adv-x="2214" d="M-174 673q-28 77 20 135q65 35 170 -114q24 -34 46 -48h2q145 -44 252 -134q2 0 4 -2q49 25 102 1q20 -9 39 -18t41 -5q31 -28 93 -12q59 15 87 -10v-2q52 -6 86 -4t72 42l14 -16q29 19 78.5 22.5t75.5 11.5t48 32q14 -14 50 -14q4 4 7 5t5 5q8 -12 21 -12t55 28 q19 -23 38 -14q41 18 54 14l2 -2l76 12q-12 32 -12 74t28 68q0 2 -5 13l-10 22q-13 29 -13 31q4 16 6 34t7 44q19 98 17 202t1 149t20 81t36 75q51 105 51 171q12 12 26 22t25 21q26 26 15 61q52 32 87 67t55 93q36 -4 60 1t54 7q30 -56 66 -116t44 -122q-16 -8 -17 -26 t-1 -34l-2 -4q32 -32 56 -62q-48 -32 -60 -78t26 -92q-4 -38 -16 -75t-22 -75l-74 -290q32 -25 -60 -148l8 -10q108 60 164 86q148 69 206 112q24 -18 36 -9t23 23t26 23t43 -11q2 2 2 6q35 66 138 24q-16 -57 -85 -93q-29 -15 -59 -30t-52 -39l-12 14l-46 -22 q-14 -10 -30 -38t-29 -33t-41 -4t-44 -6t-30 -18t-27 -24t-31 -21l-70 12l-46 -38q-10 10 -27 3t-22 -6t-22 -3t-24 -17t-8 -30t-1 -33t-12 -24h-2v-2q-14 -40 -46 -75t-58 -72t-32 -76t32 -87v-2h2q34 -24 45 -63t21 -77l68 -60q30 -30 67 -73t81 -82t110 -61 q-4 -16 -3 -32t-1 -32q-40 -7 -93 14.5t-77 23.5q-42 52 -91 90t-99 84q-8 53 -62 120q-10 12 -19 28t-21 27q-46 42 -46 67l8 70q0 43 -50 68l-2 -2q-28 -20 -40 -42t-25 -52t-25 -52t-29 -36q-35 -29 -99 -6h-4q-20 -20 -44 -40q-16 18 -40 12t-44 -14v-2q-12 -24 -38 -26 t-59 1t-67 5t-62 -12q-26 23 -51 14.5t-41 -16.5t-32 -10q-23 12 -103 41q-145 52 -167 77h-2q-44 0 -73 13t-60 34q-65 44 -107 57l-4 2q-10 -20 -20 -12t-24 20q12 12 12 48q-24 22 -43 28t-36 11t-31 13t-28 34h-2q-30 8 -39 35t-15 55t-20 53t-54 31q-16 32 -37 65 t-33 66zM172 418q22 -44 92 -87q18 -11 34 -27q10 -34 44 -49t77 -24t87 -18t68 -26t48 -21t48 -7t44 -9t30 -26l38 -2q2 2 2 4q22 30 50 27t57 -12t58 -8t51 41q33 -11 87.5 15.5t77.5 36.5t35 2q4 8 25 25t39 32t32 30t23 30t16 35t23 54q-79 -44 -118.5 -44t-57.5 12 q0 -54 -19 -60t-48 2t-61 13t-56 -29q-30 2 -63 -8t-66 -15q-78 -12 -113 39q-25 -42 -52.5 -47t-57.5 -2t-59 5t-51 -16q-28 -4 -50 9t-48 27l-10 -8h-2q2 4 6 8q-6 2 -19 6t-25 9q-41 17 -60 17q-31 0 -66 28q-52 40 -82 48zM1477 890q-1 -40 11 -81t27 -82t15 -85 q98 22 106 128q5 64 23.5 92t50.5 38q-12 26 -2 75t24 105q38 151 24 204q20 48 20 101t3 79t1 38q-14 12 -15 34t-4 43t-15 37t-50 16q-140 -280 -140 -356q14 -34 0 -69t-32 -72t-27 -77t15 -84q-34 -44 -35 -84zM1621 2460q-7 26 0 49t6 25t1 6l24 12q-18 12 -15 25 t19 35l38 2q0 -30 71 -43q17 -3 27 -5q18 -16 10 -33t-18 -30t-14 -21q12 -58 30 -112t33 -109q36 -132 7 -247l-26 -36q-50 4 -72 67q-6 17 -18 33l26 24q-4 16 -20 24t-19 26q-4 25 -17 66q-31 102 -38 194q-28 22 -35 48z" />
<glyph unicode="&#xcd;" horiz-adv-x="2214" d="M-174 673q-28 77 20 135q65 35 170 -114q24 -34 46 -48h2q145 -44 252 -134q2 0 4 -2q49 25 102 1q20 -9 39 -18t41 -5q31 -28 93 -12q59 15 87 -10v-2q52 -6 86 -4t72 42l14 -16q29 19 78.5 22.5t75.5 11.5t48 32q14 -14 50 -14q4 4 7 5t5 5q8 -12 21 -12t55 28 q19 -23 38 -14q41 18 54 14l2 -2l76 12q-12 32 -12 74t28 68q0 2 -5 13l-10 22q-13 29 -13 31q4 16 6 34t7 44q19 98 17 202t1 149t20 81t36 75q51 105 51 171q12 12 26 22t25 21q26 26 15 61q52 32 87 67t55 93q36 -4 60 1t54 7q30 -56 66 -116t44 -122q-16 -8 -17 -26 t-1 -34l-2 -4q32 -32 56 -62q-48 -32 -60 -78t26 -92q-4 -38 -16 -75t-22 -75l-74 -290q32 -25 -60 -148l8 -10q108 60 164 86q148 69 206 112q24 -18 36 -9t23 23t26 23t43 -11q2 2 2 6q35 66 138 24q-16 -57 -85 -93q-29 -15 -59 -30t-52 -39l-12 14l-46 -22 q-14 -10 -30 -38t-29 -33t-41 -4t-44 -6t-30 -18t-27 -24t-31 -21l-70 12l-46 -38q-10 10 -27 3t-22 -6t-22 -3t-24 -17t-8 -30t-1 -33t-12 -24h-2v-2q-14 -40 -46 -75t-58 -72t-32 -76t32 -87v-2h2q34 -24 45 -63t21 -77l68 -60q30 -30 67 -73t81 -82t110 -61 q-4 -16 -3 -32t-1 -32q-40 -7 -93 14.5t-77 23.5q-42 52 -91 90t-99 84q-8 53 -62 120q-10 12 -19 28t-21 27q-46 42 -46 67l8 70q0 43 -50 68l-2 -2q-28 -20 -40 -42t-25 -52t-25 -52t-29 -36q-35 -29 -99 -6h-4q-20 -20 -44 -40q-16 18 -40 12t-44 -14v-2q-12 -24 -38 -26 t-59 1t-67 5t-62 -12q-26 23 -51 14.5t-41 -16.5t-32 -10q-23 12 -103 41q-145 52 -167 77h-2q-44 0 -73 13t-60 34q-65 44 -107 57l-4 2q-10 -20 -20 -12t-24 20q12 12 12 48q-24 22 -43 28t-36 11t-31 13t-28 34h-2q-30 8 -39 35t-15 55t-20 53t-54 31q-16 32 -37 65 t-33 66zM172 418q22 -44 92 -87q18 -11 34 -27q10 -34 44 -49t77 -24t87 -18t68 -26t48 -21t48 -7t44 -9t30 -26l38 -2q2 2 2 4q22 30 50 27t57 -12t58 -8t51 41q33 -11 87.5 15.5t77.5 36.5t35 2q4 8 25 25t39 32t32 30t23 30t16 35t23 54q-79 -44 -118.5 -44t-57.5 12 q0 -54 -19 -60t-48 2t-61 13t-56 -29q-30 2 -63 -8t-66 -15q-78 -12 -113 39q-25 -42 -52.5 -47t-57.5 -2t-59 5t-51 -16q-28 -4 -50 9t-48 27l-10 -8h-2q2 4 6 8q-6 2 -19 6t-25 9q-41 17 -60 17q-31 0 -66 28q-52 40 -82 48zM1477 890q-1 -40 11 -81t27 -82t15 -85 q98 22 106 128q5 64 23.5 92t50.5 38q-12 26 -2 75t24 105q38 151 24 204q20 48 20 101t3 79t1 38q-14 12 -15 34t-4 43t-15 37t-50 16q-140 -280 -140 -356q14 -34 0 -69t-32 -72t-27 -77t15 -84q-34 -44 -35 -84zM1521 2038.5q15 21.5 26 35.5t21 32l34 -14q12 10 11 29 t15 29t25 19l19 19q99 93 162 132q6 34 27 53t73 29l22 -14q4 22 16 24t38 -2l20 -32q-26 -13 -5 -82q5 -16 7 -26q-6 -22 -24 -23t-46 3h-14q-46 -36 -85 -78t-81 -80q-101 -91 -216 -120l-44 8q-16 37 -1 58.5z" />
</font>
</defs>
</svg>
