<?xml version="1.0" standalone="no"?>
<!DOCTYPE svg PUBLIC "-//W3C//DTD SVG 1.1//EN" "http://www.w3.org/Graphics/SVG/1.1/DTD/svg11.dtd" >
<svg xmlns="http://www.w3.org/2000/svg">
<metadata></metadata>
<defs>
<font id="Share-RegularRegular" horiz-adv-x="962" >
<font-face units-per-em="2048" ascent="1655" descent="-393" />
<missing-glyph horiz-adv-x="532" />
<glyph unicode="&#xfb01;" horiz-adv-x="1054" d="M61 874v150h134v119q0 153 74 225q82 80 282 80q110 0 297 -41v-143q-135 41 -241.5 41t-144.5 -10.5t-58 -28.5q-35 -32 -35 -109v-133h522v-1024h-174v874h-348v-874h-174v874h-134z" />
<glyph unicode="&#xfb02;" horiz-adv-x="1085" d="M61 874v150h134v119q0 153 74 225q82 80 268 80q114 0 180 -14h174v-1194q0 -53 13.5 -75t39.5 -22t70 11v-144q-129 -22 -172 -8t-68 41q-57 63 -57 186v1065q-118 11 -167.5 11t-87.5 -10.5t-58 -28.5q-35 -32 -35 -109v-133h196v-150h-196v-874h-174v874h-134z" />
<glyph horiz-adv-x="0" />
<glyph horiz-adv-x="2048" />
<glyph unicode="&#xd;" horiz-adv-x="532" />
<glyph unicode=" "  horiz-adv-x="532" />
<glyph unicode="&#x09;" horiz-adv-x="532" />
<glyph unicode="&#xa0;" horiz-adv-x="532" />
<glyph unicode="!" horiz-adv-x="512" d="M154 0v205h204v-205h-204zM168 426v1008h174v-1008h-174z" />
<glyph unicode="&#x22;" horiz-adv-x="737" d="M113 1249v185h194v-185l-41 -321h-112zM430 1249v185h195v-185l-41 -321h-113z" />
<glyph unicode="#" d="M61 369l13 153h143l37 410h-143l12 153h143l31 349h164l-31 -349h164l31 349h163l-30 -349h143l-12 -153h-144l-36 -410h143l-12 -153h-144l-32 -369h-164l32 369h-163l-33 -369h-164l33 369h-144zM381 522h164l37 410h-164z" />
<glyph unicode="$" d="M168 1012q0 290 225 352v233h174v-215q69 -3 181 -30v-150q-137 31 -218 31q-180 0 -180 -199q0 -102 30 -157.5t109 -70.5t135 -44t94 -77q77 -97 77 -288q0 -262 -130 -349q-42 -28 -98 -42v-231h-174v215q-106 4 -200 30v150q121 -31 232 -31t149 60.5t38 185.5 t-36.5 180.5t-108.5 69.5q-299 62 -299 377z" />
<glyph unicode="%" horiz-adv-x="1753" d="M174 1024q0 214 52 307q64 117 229 117q238 0 270 -250q10 -78 10 -174q0 -220 -51 -316q-65 -124 -229 -124q-236 0 -271 263q-10 81 -10 177zM315 1016q0 -166 31 -238.5t109 -72.5t108.5 72.5t30.5 238.5t-31 238.5t-108 72.5q-78 0 -109 -72.5t-31 -238.5zM547 0 l502 1434h159l-501 -1434h-160zM1018 426q0 217 51 307q66 117 229 117q239 0 271 -250q10 -78 10 -174q0 -220 -51 -316q-65 -124 -230 -124q-238 0 -270 263q-10 81 -10 177zM1159 418q0 -166 31 -239t108 -73q78 0 109 73t31 239t-31 238.5t-109 72.5t-108.5 -72.5 t-30.5 -238.5z" />
<glyph unicode="&#x26;" horiz-adv-x="1038" d="M133 406q0 366 164 430q-72 43 -104.5 102t-32.5 166t28.5 176.5t78.5 105.5q84 62 265 62q112 0 205 -31v-149q-120 30 -184 30t-98.5 -6t-60.5 -26q-60 -43 -60 -142.5t37 -161t135 -61.5h481v-149h-170v-742q-156 -24 -330 -24t-264 95.5t-90 324.5zM309 360.5 q0 -94.5 49 -160t135.5 -65.5t161.5 17v600h-180q-144 0 -161 -230q-5 -67 -5 -161.5z" />
<glyph unicode="'" horiz-adv-x="419" d="M113 1249v185h194v-185l-41 -321h-112z" />
<glyph unicode="(" horiz-adv-x="655" d="M113 717q0 287 55 520t194 442h170q-192 -333 -231 -687q-14 -128 -14 -275q0 -425 136 -745q46 -109 109 -218h-170q-139 209 -194 442.5t-55 520.5z" />
<glyph unicode=")" horiz-adv-x="655" d="M123 -246q191 331 231 687q15 128 15 276q0 427 -137 745q-46 109 -109 217h170q139 -209 194.5 -442t55.5 -520t-55.5 -520.5t-194.5 -442.5h-170z" />
<glyph unicode="*" horiz-adv-x="983" d="M82 1120l55 164l289 -117l-27 312h185l-27 -312l293 113l51 -162l-301 -63l217 -252l-147 -107l-181 291l-186 -291l-143 109l219 250z" />
<glyph unicode="+" horiz-adv-x="1126" d="M172 563v154h309v323h164v-323h307v-154h-307v-321h-164v321h-309z" />
<glyph unicode="," horiz-adv-x="471" d="M51 -287l82 287v205h205v-205l-148 -287h-139z" />
<glyph unicode="-" horiz-adv-x="1013" d="M174 563v154h666v-154h-666z" />
<glyph unicode="." horiz-adv-x="471" d="M133 0v205h205v-205h-205z" />
<glyph unicode="/" horiz-adv-x="665" d="M10 -225l484 1884h161l-483 -1884h-162z" />
<glyph unicode="0" d="M117 729q0 184 12 318.5t51 223.5t110.5 133t191.5 44t191.5 -44t109.5 -133t50.5 -223.5t12.5 -318.5t-12.5 -324.5t-51.5 -233.5t-110.5 -139t-190.5 -46t-190.5 46t-110.5 139t-51 233.5t-12 324.5zM291 813q0 -256 7 -367.5t26.5 -181t57.5 -99.5t99 -30t99 30 t57.5 99.5t27 181t7.5 279.5t-7.5 278.5t-28 176t-57 92t-98.5 26.5q-61 0 -98 -26.5t-57 -91.5q-35 -111 -35 -367z" />
<glyph unicode="1" d="M164 1165v166l248 103h194v-1280h203v-154h-625v154h248v1118z" />
<glyph unicode="2" d="M133 0v180l307 467q45 70 75 112t47 84q32 76 32 240q0 215 -174 215q-90 0 -250 -34v149q140 35 250 35q182 0 265 -95.5t83 -287.5q0 -154 -28 -228q-38 -101 -138 -253l-285 -432h471v-152h-655z" />
<glyph unicode="3" d="M150 20v154q57 -13 145 -23t121 -10q78 0 125 62.5t47 193.5t-34 202t-142 71h-168v149h147q153 0 170 178q4 43 4 74q0 123 -38 175t-126 52t-241 -34v149q140 35 234 35t155 -18.5t103 -64.5q87 -95 87 -312q0 -104 -34.5 -187.5t-120.5 -109.5q100 -14 140 -106 t40 -244q0 -229 -87 -324.5t-259 -95.5q-80 0 -171 16t-97 18z" />
<glyph unicode="4" d="M141 319v177l203 938h166l-195 -965h232l14 467h160v-467h143v-150h-143v-319h-174v319h-406z" />
<glyph unicode="5" d="M174 20v150q169 -35 262.5 -35t129.5 74t36 183.5t-9 167.5t-31 92q-38 61 -142 61h-225v721h542v-150h-368v-422h41q214 0 294 -103q74 -94 74 -325q0 -361 -198 -426q-66 -22 -156 -22t-250 34z" />
<glyph unicode="6" d="M129 778q0 563 251 644q79 26 175 26t197 -31v-145q-135 33 -203.5 33t-111 -15.5t-71.5 -64.5q-55 -96 -63 -379q96 63 211 63t178.5 -31.5t95.5 -91.5q54 -97 54 -335q0 -365 -216 -441q-67 -24 -154 -24t-153.5 27.5t-108.5 112.5q-81 164 -81 652zM303 707 q0 -503 99 -557q32 -17 77 -17q189 0 189 299q0 190 -21.5 240.5t-53.5 70t-109 19.5t-181 -55z" />
<glyph unicode="7" d="M123 1280v154h625v-199l-330 -1235h-182l342 1280h-455z" />
<glyph unicode="8" d="M96 406q0 204 114 288q32 23 64 43q-74 35 -111.5 123t-37.5 198t25.5 185.5t72.5 121.5q85 83 258 83t258 -83q99 -97 99 -312q0 -107 -26 -156t-56.5 -79t-77.5 -56q100 -23 144 -113.5t44 -242.5q0 -215 -89 -317.5t-296 -102.5t-296 102t-89 318zM270 381 q0 -141 52.5 -194.5t158.5 -53.5t158.5 53.5t52.5 198.5q0 82 -9 139.5t-39 93.5q-58 68 -232 68q-87 -49 -113 -104q-29 -60 -29 -201zM295 1093.5q0 -92.5 10 -142.5t38 -81q55 -59 198 -59q74 31 100.5 101.5t26.5 172t-41 158.5t-146 57q-104 0 -145 -57t-41 -149.5z " />
<glyph unicode="9" d="M115 1018q0 224 104 334q92 96 256 96q100 0 168 -31t109 -111q75 -148 75 -589q0 -461 -102 -613q-51 -75 -127 -96.5t-176 -21.5t-197 30v150q135 -33 202.5 -33t106.5 15.5t64 62.5q49 92 53 375q-102 -62 -210.5 -62t-172 32t-97.5 96q-56 104 -56 366zM289 1001 q0 -192 21.5 -241t53.5 -68.5t98.5 -19.5t118.5 22.5t72 32.5q0 356 -43 479q-22 60 -57 77t-84 17q-180 0 -180 -299z" />
<glyph unicode=":" horiz-adv-x="471" d="M133 0v205h205v-205h-205zM133 819v205h205v-205h-205z" />
<glyph unicode=";" horiz-adv-x="471" d="M51 -287l82 287v205h205v-205l-148 -287h-139zM133 819v205h205v-205h-205z" />
<glyph unicode="&#x3c;" horiz-adv-x="1126" d="M174 573v215l778 367v-188l-635 -279l635 -280v-193z" />
<glyph unicode="=" horiz-adv-x="1126" d="M174 358v154h778v-154h-778zM174 768v154h778v-154h-778z" />
<glyph unicode="&#x3e;" horiz-adv-x="1126" d="M174 215v193l647 280l-647 279v188l778 -367v-215z" />
<glyph unicode="?" horiz-adv-x="737" d="M72 1266v149q20 4 47.5 10.5t58.5 11.5q68 11 137.5 11t137 -13.5t114.5 -50.5q99 -76 99 -278q0 -113 -20.5 -162t-51.5 -89t-82 -101l-111 -131v-197h-174v248l123 145q49 59 78 95t43 67q21 47 21 145t-46.5 135t-135 37t-238.5 -32zM213 0v205h205v-205h-205z" />
<glyph unicode="@" horiz-adv-x="1669" d="M174 717q0 207 35 349t113.5 227t204.5 120t307.5 35t307.5 -24.5t203.5 -93t113.5 -190.5t36 -279t-10 -262t-41 -186q-67 -175 -246 -175q-104 0 -162 80q-22 30 -30 73q-29 -41 -92.5 -68.5t-131 -27.5t-116 14.5t-88.5 56.5q-89 95 -89 320q0 352 261 410 q79 18 165.5 18t210.5 -29v-632q0 -31 19.5 -56.5t58.5 -25.5t62.5 31.5t37.5 89.5q21 94 21 287.5t-17.5 287.5t-69.5 146.5t-148.5 71t-252 18.5t-252 -28t-149.5 -95.5t-72.5 -182t-19.5 -281.5t16.5 -276.5t67.5 -178t146.5 -99.5t203.5 -31t371 25v-146 q-162 -24 -340.5 -24t-305 38.5t-200.5 125t-101.5 223.5t-27.5 344zM653 694q0 -216 91 -246q28 -10 68 -10t70.5 13.5t49.5 32.5q35 38 35 91v392q-30 10 -76.5 10t-89.5 -10.5t-76 -40.5q-72 -67 -72 -232z" />
<glyph unicode="A" horiz-adv-x="1024" d="M51 0l346 1434h236l340 -1434h-182l-78 362h-400l-80 -362h-182zM346 516h334l-168 782z" />
<glyph unicode="B" horiz-adv-x="1048" d="M174 0v1434q199 14 307.5 14t181 -19.5t123.5 -64.5q105 -91 105 -291q0 -129 -51.5 -205.5t-112.5 -103.5q131 -42 179 -188q20 -58 20 -165.5t-29 -192.5t-81 -137q-95 -95 -274 -95t-368 14zM352 145q145 -10 187.5 -10t79 10.5t64.5 40.5q60 66 60 216.5t-44 214 t-156 63.5h-191v-535zM352 827h170q83 0 118.5 29t54 75t18.5 150.5t-38 161.5t-153 57q-74 0 -111 -5t-59 -7v-461z" />
<glyph unicode="C" horiz-adv-x="866" d="M133 739q0 429 107 581q55 77 137 102.5t185.5 25.5t211.5 -29v-151q-111 26 -202.5 26t-134 -19.5t-69.5 -79.5q-53 -121 -53 -470q0 -359 57 -485q27 -62 68 -81.5t127 -19.5t207 31v-150q-136 -34 -237 -34t-178.5 31.5t-128.5 115.5q-97 162 -97 606z" />
<glyph unicode="D" horiz-adv-x="1077" d="M174 0v1434q193 14 317 14t205.5 -25.5t137.5 -102.5q110 -153 110 -581q0 -440 -104 -606q-52 -84 -129.5 -115.5t-205.5 -31.5t-331 14zM352 143q124 -8 184 -8t100 29t68 98q58 145 58 463q0 485 -126 553q-38 20 -91 20t-193 -8v-1147z" />
<glyph unicode="E" horiz-adv-x="968" d="M174 0v1434h672v-150h-494v-469h443v-149h-443v-516h494v-150h-672z" />
<glyph unicode="F" horiz-adv-x="937" d="M174 0v1434h672v-150h-494v-489h443v-150h-443v-645h-178z" />
<glyph unicode="G" horiz-adv-x="1024" d="M133 739q0 429 115 581q59 77 149 102.5t214 25.5t227 -29v-147q-143 26 -267 26q-66 0 -113.5 -19t-79.5 -81q-63 -121 -63 -473q0 -367 55 -489q29 -62 73 -81.5t112 -19.5t156 15v454h-183v150h353v-734q-174 -34 -306.5 -34t-214 31.5t-132.5 115.5q-95 159 -95 606z " />
<glyph unicode="H" horiz-adv-x="1126" d="M174 0v1434h178v-623h422v623h178v-1434h-178v659h-422v-659h-178z" />
<glyph unicode="I" horiz-adv-x="649" d="M92 0v150h144v1134h-144v150h465v-150h-143v-1134h143v-150h-465z" />
<glyph unicode="J" horiz-adv-x="819" d="M72 6v152q109 -19 185.5 -19t114.5 12.5t62 50.5q43 70 43 298v784h-330v150h508v-920q0 -320 -85 -430q-44 -57 -112.5 -77.5t-126.5 -20.5t-85 2t-57.5 5t-61.5 6t-55 7z" />
<glyph unicode="K" horiz-adv-x="1007" d="M174 0v1434h178v-629l383 629h191l-389 -627l409 -807h-201l-319 657l-74 -122v-535h-178z" />
<glyph unicode="L" horiz-adv-x="839" d="M174 0v1434h178v-1278h457v-156h-635z" />
<glyph unicode="M" horiz-adv-x="1290" d="M174 0v1434h289l186 -734l185 734h282v-1434h-170v1286l-219 -805h-170l-219 805v-1286h-164z" />
<glyph unicode="N" horiz-adv-x="1120" d="M174 0v1434h291l315 -1282v1282h166v-1434h-293l-313 1282v-1282h-166z" />
<glyph unicode="O" horiz-adv-x="1122" d="M133 733q0 377 87 538q95 177 341 177t341 -177q87 -161 87 -542q0 -184 -19.5 -324.5t-67.5 -233.5q-95 -185 -341 -185t-341 185q-87 169 -87 562zM315 723q0 -328 53 -459q54 -129 193 -129t193 129q53 131 53 461q0 168 -12.5 278.5t-41 176t-75.5 92t-117 26.5 t-117 -26.5t-76 -91.5q-53 -123 -53 -457z" />
<glyph unicode="P" horiz-adv-x="1024" d="M174 0v1434q179 14 321 14t220 -34t124 -94q83 -108 83 -316q0 -239 -90 -348q-95 -115 -308 -115h-172v-541h-178zM352 690h193q194 0 194 299q0 154 -42 232.5t-152 78.5q-55 0 -193 -12v-598z" />
<glyph unicode="Q" horiz-adv-x="1122" d="M133 733q0 377 87 538q95 177 341 177t341 -177q87 -161 87 -538q0 -258 -43 -433t-160 -253l244 -47v-172l-469 158q-246 0 -341 185q-87 169 -87 562zM315 723q0 -328 53 -459q54 -129 193 -129t193 129q53 131 53 461q0 168 -12.5 278.5t-41 176t-75.5 92t-117 26.5 t-117 -26.5t-76 -91.5q-53 -123 -53 -457z" />
<glyph unicode="R" horiz-adv-x="1054" d="M174 0v1434q179 14 321 14t219 -29.5t122 -84.5q82 -102 82 -283t-47.5 -283t-157.5 -145l280 -623h-196l-262 594h-183v-594h-178zM352 743h193q92 0 138 53q52 58 52 214t-41 223t-149 67q-55 0 -193 -12v-545z" />
<glyph unicode="S" horiz-adv-x="888" d="M119 1053q0 395 403 395q110 0 217 -31v-149q-133 30 -204.5 30t-107.5 -12t-63 -38q-63 -61 -63 -173q0 -127 23.5 -162.5t54.5 -51t92.5 -27.5t120.5 -39t101 -75q87 -99 87 -312q0 -241 -110 -338q-96 -84 -295 -84q-124 0 -238 30v150q121 -31 242.5 -31t170 61.5 t48.5 190.5q0 207 -93 254q-32 16 -95.5 29.5t-123 42t-96.5 73.5q-71 88 -71 267z" />
<glyph unicode="T" horiz-adv-x="870" d="M31 1278v156h809v-156h-316v-1278h-178v1278h-315z" />
<glyph unicode="U" horiz-adv-x="1095" d="M164 379v1055h178v-1094q0 -109 57.5 -157t149.5 -48t148.5 48t56.5 157v1094h178v-1055q0 -207 -103.5 -300t-279.5 -93t-280.5 93t-104.5 300z" />
<glyph unicode="V" horiz-adv-x="968" d="M72 1434h180l225 -1254l244 1254h176l-301 -1434h-244z" />
<glyph unicode="W" horiz-adv-x="1206" d="M133 1434h158l61 -1321l185 716h168l186 -716l63 1321h150l-70 -1434h-278l-138 623l-149 -623h-266z" />
<glyph unicode="X" horiz-adv-x="1015" d="M72 0l348 741l-318 693h195l215 -494l221 494h191l-324 -691l344 -743h-201l-233 549l-246 -549h-192z" />
<glyph unicode="Y" horiz-adv-x="1005" d="M41 1434h197l270 -596l270 596h187l-373 -768v-666h-184v666z" />
<glyph unicode="Z" horiz-adv-x="892" d="M92 0v180l529 1102h-482v152h662v-181l-527 -1101h506v-152h-688z" />
<glyph unicode="[" horiz-adv-x="665" d="M174 -246v1925h389v-153h-225v-1618h225v-154h-389z" />
<glyph unicode="\" horiz-adv-x="665" d="M10 1659h162l483 -1884h-161z" />
<glyph unicode="]" horiz-adv-x="665" d="M102 -92h226v1618h-226v153h390v-1925h-390v154z" />
<glyph unicode="^" horiz-adv-x="997" d="M92 860l295 696h234l284 -696h-186l-213 574l-234 -574h-180z" />
<glyph unicode="_" horiz-adv-x="1044" d="M6 -195h1032v-153h-1032v153z" />
<glyph unicode="`" horiz-adv-x="620" d="M96 1464h223l213 -276h-165z" />
<glyph unicode="a" horiz-adv-x="985" d="M102 287q0 168 96.5 256t268.5 88h162v110q0 66 -38 108t-116 42q-145 0 -297 -43v149q146 41 261.5 41t182 -19.5t106.5 -61.5q75 -79 75 -257v-491q0 -66 90 -66v-143h-62q-113 0 -153 100q-81 -114 -270 -114q-138 0 -209 56q-97 77 -97 245zM281 301q0 -96 43 -132 t110.5 -36t102 16.5t55.5 40.5q37 42 37 86v216h-172q-118 0 -161 -104q-15 -36 -15 -87z" />
<glyph unicode="b" horiz-adv-x="1021" d="M164 10v1424h174v-486q96 90 227 90q180 0 252 -115.5t72 -314t-22.5 -312.5t-74.5 -182q-95 -128 -339 -128q-123 0 -191.5 10t-97.5 14zM338 141q46 -8 127.5 -8t127.5 26.5t71 80.5q47 97 47 317q0 191 -41 264q-38 70 -138 70q-82 0 -140 -59q-54 -57 -54 -115v-576z " />
<glyph unicode="c" horiz-adv-x="827" d="M133 532q0 398 197 478q67 28 158.5 28t226.5 -30v-152q-138 29 -210.5 29t-103 -18.5t-51.5 -64.5q-39 -89 -39 -310q0 -301 97 -340q30 -13 99 -13t208 31v-152q-112 -32 -211.5 -32t-167.5 19.5t-113 77.5q-90 116 -90 449z" />
<glyph unicode="d" horiz-adv-x="1032" d="M133 491.5q0 278.5 105.5 412.5t341.5 134q70 0 114 -8v404h174v-1434h-143l-14 86q-100 -100 -244 -100q-185 0 -264 120q-70 107 -70 385.5zM311 446q0 -257 104 -298q36 -15 84 -15t85 16.5t62 42.5q48 53 48 115v576q-46 8 -127.5 8t-128.5 -30t-76 -86 q-51 -101 -51 -329z" />
<glyph unicode="e" horiz-adv-x="958" d="M133 512q0 412 211 498q70 28 162 28q176 0 253 -115.5t77 -318.5v-153h-529q5 -269 105 -307q30 -11 109.5 -11t234.5 33v-148q-112 -32 -227 -32t-184 18.5t-116 73.5q-96 112 -96 434zM309 590h357v55q0 117 -36 182.5t-132 65.5t-138.5 -65t-50.5 -238z" />
<glyph unicode="f" horiz-adv-x="636" d="M61 874v150h134v160q0 133 71.5 198.5t170.5 65.5t210 -25v-145q-91 22 -166 22q-55 0 -83.5 -28.5t-28.5 -73.5v-174h247v-150h-247v-874h-174v874h-134z" />
<glyph unicode="g" horiz-adv-x="1067" d="M123 682q0 203 128 289q100 67 298 67q90 0 160 -28l297 14v-154l-142 7q47 -88 47 -211q0 -174 -101 -259t-312 -85q-76 0 -136 12q-20 -45 -20 -80t10 -66q198 17 264 17t128.5 -12.5t107.5 -46.5q96 -71 96 -246q0 -218 -234 -272q-71 -17 -131.5 -17t-115.5 4t-111 9 q-122 11 -186 24v147q228 -35 408 -35q104 0 148 40t44 109t-36 105.5t-136 36.5q-168 0 -338 -22q-35 33 -60.5 89t-25.5 103q0 113 55 172q-106 81 -106 289zM297 666q0 -98 41 -146q48 -57 160 -57q118 0 160 31.5t60.5 74.5t18.5 113q0 211 -209 211q-133 0 -182 -54.5 t-49 -172.5z" />
<glyph unicode="h" horiz-adv-x="1036" d="M164 0v1434h174v-486q98 90 235 90q172 0 243 -87q67 -82 67 -275v-676h-174v696q0 96 -32 145.5t-134 49.5q-85 0 -147 -59q-58 -57 -58 -115v-717h-174z" />
<glyph unicode="i" horiz-adv-x="501" d="M154 1249v185h194v-185h-194zM164 0v1024h174v-1024h-174z" />
<glyph unicode="j" horiz-adv-x="501" d="M-94 -203q66 -8 151 -8q106 0 107 113v1122h174v-1112q0 -115 -63.5 -192.5t-190.5 -77.5q-76 0 -178 10v145zM154 1249v185h194v-185h-194z" />
<glyph unicode="k" horiz-adv-x="950" d="M164 0v1434h174v-779l313 369h213l-346 -395l361 -629h-203l-277 510l-61 -72v-438h-174z" />
<glyph unicode="l" horiz-adv-x="542" d="M164 229v1205h174v-1194q0 -97 53 -97q26 0 70 11v-144q-92 -16 -123 -16t-61.5 10t-54.5 37q-58 63 -58 188z" />
<glyph unicode="m" horiz-adv-x="1495" d="M164 0v1024h143l15 -90q94 104 231 104q171 0 244 -129q98 129 257 129t223 -87t64 -275v-676h-174v696q0 98 -27.5 146.5t-115.5 48.5q-78 0 -134 -59q-50 -55 -50 -115v-717h-174v696q0 98 -28 146.5t-116 48.5q-77 0 -132 -59q-52 -56 -52 -115v-717h-174z" />
<glyph unicode="n" horiz-adv-x="1036" d="M164 0v1024h143l15 -92q100 106 251 106q172 0 243 -87q67 -82 67 -275v-676h-174v696q0 96 -32 145.5t-134 49.5q-85 0 -147 -59q-58 -57 -58 -115v-717h-174z" />
<glyph unicode="o" horiz-adv-x="1044" d="M133 509q0 285 94.5 407t294.5 122q201 0 295 -122t94 -408t-92.5 -404t-294.5 -118t-296.5 119t-94.5 404zM311 511q0 -210 47.5 -296t163.5 -86q117 0 164 86t47 297t-44 297t-167 86q-122 0 -166.5 -87t-44.5 -297z" />
<glyph unicode="p" horiz-adv-x="1021" d="M164 -348v1372h143l17 -88q98 102 241 102q180 0 252 -115.5t72 -314t-22.5 -312.5t-74 -182.5t-134.5 -98t-179.5 -29.5t-140.5 8v-342h-174zM338 141q46 -8 127.5 -8t127.5 26.5t71 80.5q47 97 47 317q0 191 -41 264q-38 70 -138 70q-82 0 -140 -59q-54 -57 -54 -115 v-576z" />
<glyph unicode="q" horiz-adv-x="1032" d="M133 491.5q0 278.5 105.5 412.5t341.5 134q120 0 190 -10l98 -14v-1362h-174v418q-92 -84 -208.5 -84t-180 30.5t-102.5 89.5q-70 107 -70 385.5zM311 446q0 -257 104 -298q36 -15 84 -15t85 16.5t62 42.5q48 53 48 115v576q-46 8 -127.5 8t-128.5 -30t-76 -86 q-51 -101 -51 -329z" />
<glyph unicode="r" horiz-adv-x="692" d="M164 0v1024h143l12 -104q78 118 213 118q64 0 109 -10v-182q-81 18 -127.5 18t-80.5 -20.5t-55 -53.5q-40 -62 -40 -159v-631h-174z" />
<glyph unicode="s" horiz-adv-x="823" d="M123 713.5q0 99.5 26.5 158t72.5 95.5q88 71 245 71q80 0 134 -13t85 -21v-150q-53 12 -102 24.5t-114.5 12.5t-95.5 -13.5t-46 -35.5q-27 -34 -27 -103q0 -113 131 -133q160 -27 224.5 -100.5t64.5 -226t-93 -223t-239 -70.5t-258 32v150q149 -33 225 -33t103.5 13.5 t44.5 35.5q35 42 35 109.5t-26 102t-103 48.5q-158 29 -222.5 99.5t-64.5 170z" />
<glyph unicode="t" horiz-adv-x="657" d="M51 870v154h133v246h174v-246h238v-154h-238v-624q0 -68 50 -100q20 -13 69.5 -13t118.5 21v-144q-80 -24 -158.5 -24t-124 20.5t-73.5 57.5q-56 71 -56 192v614h-133z" />
<glyph unicode="u" horiz-adv-x="1005" d="M154 356v668h174v-688q0 -107 21.5 -141.5t50 -48t73.5 -13.5t80 16.5t59 40.5q52 52 56 111v723h174v-1024h-144l-14 84q-90 -98 -235 -98q-166 0 -233 91q-62 84 -62 279z" />
<glyph unicode="v" horiz-adv-x="946" d="M72 1024h186l221 -879l215 879h180l-274 -1024h-252z" />
<glyph unicode="w" horiz-adv-x="1372" d="M82 1024h180l166 -893l182 709h174l170 -709l166 893h170l-203 -1024h-268l-129 555l-141 -555h-262z" />
<glyph unicode="x" horiz-adv-x="950" d="M82 0l297 528l-273 496h201l176 -338l179 338h190l-277 -487l304 -537h-205l-195 379l-205 -379h-192z" />
<glyph unicode="y" horiz-adv-x="948" d="M72 1024h188l238 -846l200 846h179l-297 -1114q-38 -140 -73 -184q-67 -84 -181 -84q-63 0 -117 12v149q46 -8 104.5 -8t83.5 92l33 113h-41z" />
<glyph unicode="z" horiz-adv-x="825" d="M92 0v164l445 708h-404v152h590v-182l-442 -690h421v-152h-610z" />
<glyph unicode="{" horiz-adv-x="665" d="M72 604v225q73 0 104 27q62 54 62 166v408q0 137 50 198.5t173 61.5q48 0 92 -11v-139q-30 6 -71 6q-85 0 -85 -86v-499q0 -110 -73 -177q-57 -54 -142 -69q138 -16 194 -139q21 -44 21 -103v-500q0 -47 22.5 -66.5t66.5 -19.5t67 7v-140q-40 -10 -92 -10 q-123 0 -173 61.5t-50 198.5v408q0 112 -54 160q-38 32 -112 32z" />
<glyph unicode="|" horiz-adv-x="593" d="M215 -225v1884h164v-1884h-164z" />
<glyph unicode="}" horiz-adv-x="665" d="M113 -106q35 -7 73 -7q82 0 82 86v500q0 110 73 177q59 55 142 65q-83 14 -129 56q-86 80 -86 190v499q0 47 -22.5 66.5t-62.5 19.5t-70 -6v139q44 11 92 11q123 0 173 -61.5t50 -198.5v-408q0 -112 54 -160q39 -33 112 -33v-225q-74 0 -105 -26q-61 -54 -61 -166v-408 q0 -137 -50 -198.5t-173 -61.5q-52 0 -92 10v140z" />
<glyph unicode="~" horiz-adv-x="1044" d="M174 545v160q112 67 209 67q60 0 123 -27.5t99 -40t75 -12.5q80 0 190 74v-160q-102 -67 -208 -67q-62 0 -122.5 27.5t-96 39.5t-78.5 12q-79 0 -191 -73z" />
<glyph unicode="&#xa1;" horiz-adv-x="512" d="M154 819v205h204v-205h-204zM170 -410v1008h174v-1008h-174z" />
<glyph unicode="&#xa2;" d="M203 507q0 269 68.5 386t213.5 137v199h164v-199q46 -5 135 -24v-152q-138 29 -210 29t-103 -18.5t-51 -64.5q-39 -86 -39 -311q0 -215 43 -290q37 -62 128.5 -62t231.5 31v-152q-51 -16 -135 -26v-215h-164v213q-149 13 -211 122q-71 128 -71 397z" />
<glyph unicode="&#xa3;" d="M135 0v150h144v546h-144v150h144v115q0 295 85 395q46 53 114.5 72.5t161 19.5t202.5 -18v-154q-90 18 -168 18t-117 -10t-61 -44q-39 -58 -39 -265v-129h262v-150h-262v-546h405v-150h-727z" />
<glyph unicode="&#xa4;" horiz-adv-x="1167" d="M66 211l129 129q-62 113 -62 274q0 160 62 273l-129 131l114 115l121 -121q119 84 283 84t278 -84l123 121l115 -115l-129 -131q61 -111 61 -273q0 -159 -61 -274l129 -129l-115 -115l-123 121q-111 -84 -278.5 -84t-282.5 84l-121 -121zM311 614q0 -160 78 -252 q74 -86 195 -86q118 0 192 86q78 92 78 253q0 83 -20.5 145.5t-57.5 105.5q-74 86 -192 86q-121 0 -195 -86q-78 -91 -78 -252z" />
<glyph unicode="&#xa5;" d="M41 1434h197l249 -560l248 560h187l-347 -738h263v-153h-267v-154h267v-153h-267v-236h-184v236h-266v153h266v154h-266v153h260z" />
<glyph unicode="&#xa6;" horiz-adv-x="593" d="M215 -225v737h164v-737h-164zM215 922v737h164v-737h-164z" />
<glyph unicode="&#xa7;" d="M170 711q0 148 127 229q-90 62 -90 207q0 230 207 285q63 16 153.5 16t202.5 -29v-151q-53 14 -102.5 24.5t-113.5 10.5t-94 -14.5t-48 -36.5q-35 -40 -35 -95q0 -125 131 -145q160 -27 222.5 -104t62.5 -185q0 -152 -134 -231q51 -33 74 -90.5t23 -128t-27 -127 t-73 -92.5t-108.5 -52t-152 -16t-202.5 30v148q53 -12 102 -21.5t113.5 -9.5t94 14.5t47.5 36.5q36 41 36 95t-32 93.5t-99 49.5q-160 27 -222.5 105t-62.5 184zM346 731q0 -45 5 -72.5t23 -48.5q33 -42 140 -61q34 17 58 50.5t34 60t10 57.5t-6 58.5t-24 48.5 q-38 44 -146 63q-39 -14 -66.5 -62.5t-27.5 -93.5z" />
<glyph unicode="&#xa8;" horiz-adv-x="727" d="M72 1219v163h174v-163h-174zM481 1219v163h174v-163h-174z" />
<glyph unicode="&#xa9;" horiz-adv-x="1638" d="M174 715q0 172 37 307t116 230q162 196 502 196q336 0 494 -196q141 -176 141 -535t-142 -537q-155 -194 -493 -194q-503 0 -618 422q-37 135 -37 307zM332 717q0 -291 104 -431q118 -161 393 -161q397 0 459 347q19 110 19 245q0 298 -93 431q-111 161 -385 161 q-277 0 -393 -159q-104 -141 -104 -433zM598 729q0 234 66 319q32 42 79.5 55t84 13t53 -2t33.5 -4q28 -3 51 -10v-99q-63 13 -129 13q-31 0 -53.5 -7.5t-38.5 -36.5q-29 -57 -29 -206t8 -209.5t23.5 -90.5t38 -37t67 -7t113.5 12v-98q-77 -17 -131.5 -17t-100 17.5 t-75.5 62.5q-60 92 -60 332z" />
<glyph unicode="&#xaa;" horiz-adv-x="808" d="M123 884.5q0 125.5 72.5 194t201.5 68.5h109v78q0 41 -22.5 69.5t-80.5 28.5q-117 0 -223 -31v121q95 31 189 31t144 -14.5t81 -45.5q55 -54 55 -190v-377q0 -49 68 -49v-100h-47q-20 0 -59.5 12t-61.5 55q-57 -74 -197 -73q-104 0 -146 32q-83 65 -83 190.5zM137 0v154 h514v-154h-514zM268 895q0 -111 105 -111q78 0 111 42q22 26 22 63v143h-117q-49 0 -85 -30.5t-36 -106.5z" />
<glyph unicode="&#xab;" horiz-adv-x="952" d="M154 612l182 424h135l-129 -424l129 -424h-135zM481 612l183 424h135l-129 -424l129 -424h-135z" />
<glyph unicode="&#xac;" horiz-adv-x="1177" d="M143 563v154h891v-500h-174v346h-717z" />
<glyph unicode="&#xad;" horiz-adv-x="1013" d="M174 563v154h666v-154h-666z" />
<glyph unicode="&#xae;" horiz-adv-x="1638" d="M174 715q0 172 37 307t116 230q162 196 502 196q336 0 494 -196q141 -176 141 -535t-142 -537q-155 -194 -493 -194q-503 0 -618 422q-37 135 -37 307zM332 717q0 -291 104 -431q118 -161 393 -161q397 0 459 347q19 110 19 245q0 298 -93 431q-111 161 -385 161 q-277 0 -393 -159q-104 -141 -104 -433zM635 326v788q81 6 115 6h69q129 0 177 -62.5t48 -166.5q0 -181 -112 -227l153 -338h-124l-138 321h-78v-321h-110zM745 745h89q51 0 67 19q31 34 31 117.5t-19.5 114t-78.5 30.5h-40l-49 -4v-277z" />
<glyph unicode="&#xaf;" horiz-adv-x="665" d="M72 1239v143h522v-143h-522z" />
<glyph unicode="&#xb0;" horiz-adv-x="743" d="M61 1128q0 221 167 292q59 24 143 24q236 0 293 -190q18 -58 18 -126q0 -141 -72 -229q-79 -96 -239 -96q-156 0 -238 97q-72 86 -72 228zM211 1130q0 -132 82 -178q31 -18 78 -18q85 0 127 64q32 50 32 132q0 84 -26 119q-49 68 -133 68q-85 0 -127 -59 q-33 -44 -33 -128z" />
<glyph unicode="&#xb1;" horiz-adv-x="1126" d="M174 0v154h778v-154h-778zM174 563v154h307v323h164v-323h307v-154h-307v-270h-164v270h-307z" />
<glyph unicode="&#xb2;" horiz-adv-x="839" d="M135 420v145l230 322q70 106 85 147q23 63 23 137t-25.5 108t-102.5 34t-183 -23v131q14 2 70.5 12.5t117.5 10.5q274 0 275 -273q0 -93 -19 -144q-30 -77 -102 -187l-201 -287h336v-133h-504z" />
<glyph unicode="&#xb3;" horiz-adv-x="839" d="M164 432v131q116 -24 184 -24q137 0 137 163q0 98 -24.5 146.5t-108.5 48.5h-116v129h102q83 0 112 58q19 36 19 109t-28.5 97.5t-94 24.5t-174.5 -25v131q69 23 157 23t136.5 -11.5t83.5 -42.5q72 -62 72 -221t-119 -202q137 -29 137 -248q0 -172 -72.5 -240.5 t-199.5 -68.5q-54 0 -125.5 10t-77.5 12z" />
<glyph unicode="&#xb4;" horiz-adv-x="620" d="M92 1188l213 276h223l-270 -276h-166z" />
<glyph unicode="&#xb5;" horiz-adv-x="1015" d="M164 -348v1372h174v-717q2 -84 30.5 -129t116.5 -45q80 0 137 57q52 52 56 111v723h174v-1024h-143l-15 84q-90 -98 -235 -98q-66 0 -121 22v-356h-174z" />
<glyph unicode="&#xb6;" horiz-adv-x="1044" d="M113 1112q0 172 96 261q81 75 198 75t218 -14v-138q-77 15 -169 15t-140 -46t-48 -148.5t29 -157t119 -54.5h209v-905h-170v766h-49q-130 0 -201 64q-92 85 -92 282zM737 0v1434h164v-1434h-164z" />
<glyph unicode="&#xb7;" horiz-adv-x="471" d="M133 532v205h205v-205h-205z" />
<glyph unicode="&#xb8;" horiz-adv-x="618" d="M135 -268q63 -13 107.5 -13t66 12.5t21.5 39t-7.5 39t-25.5 19.5q-39 15 -133 15l41 258h133l-23 -157q92 -10 131 -50t39 -118q0 -187 -221 -187q-46 0 -129 15v127z" />
<glyph unicode="&#xb9;" horiz-adv-x="839" d="M176 1210v146l180 78h170v-879h148v-135h-481v135h180v735z" />
<glyph unicode="&#xba;" horiz-adv-x="851" d="M133 1052q0 214 70.5 305t222.5 91t222.5 -91t70.5 -288q0 -336 -167 -393q-54 -19 -126 -19q-151 0 -217 84q-76 97 -76 311zM139 0v154h566v-154h-566zM281 1040q0 -148 20.5 -189.5t49 -58t75.5 -16.5q88 0 120 64q25 52 25 200q0 149 -20.5 199.5t-49 70t-75.5 19.5 q-88 0 -120 -77q-25 -63 -25 -212z" />
<glyph unicode="&#xbb;" horiz-adv-x="952" d="M154 188l129 424l-129 424h135l182 -424l-182 -424h-135zM481 188l129 424l-129 424h135l183 -424l-183 -424h-135z" />
<glyph unicode="&#xbc;" horiz-adv-x="1792" d="M156 1210v146l180 78h170v-879h147v-135h-481v135h180v735zM504 -205l655 1864h164l-655 -1864h-164zM1073 240v151l152 623h141l-149 -643h157l15 293h137v-293h102v-131h-102v-240h-152v240h-301z" />
<glyph unicode="&#xbd;" horiz-adv-x="1792" d="M156 1210v146l180 78h170v-879h147v-135h-481v135h180v735zM514 -205l649 1864h170l-655 -1864h-164zM1163 0v145l230 322q70 106 85 147q23 63 23 137t-25.5 108t-108 34t-177.5 -23v131q14 2 70.5 12.5t117.5 10.5q274 0 275 -272q0 -94 -19 -145q-30 -77 -102 -187 l-201 -287h336v-133h-504z" />
<glyph unicode="&#xbe;" horiz-adv-x="1792" d="M178 432v131q116 -24 184 -24q138 0 138 163q0 98 -24.5 146.5t-108.5 48.5h-117v129h102q116 0 128 110q3 27 3 50q0 80 -28.5 104.5t-94 24.5t-174.5 -25v131q69 23 157.5 23t136.5 -11.5t83 -42.5q72 -62 72 -221.5t-119 -201.5q137 -29 137 -248q0 -172 -72.5 -240.5 t-199.5 -68.5q-54 0 -125.5 10t-77.5 12zM481 -205l656 1864h163l-655 -1864h-164zM1059 240v151l151 623h142l-150 -643h158l14 293h137v-293h103v-131h-103v-240h-151v240h-301z" />
<glyph unicode="&#xbf;" horiz-adv-x="737" d="M72 -82q0 116 20.5 163.5t51 87.5t81.5 101l111 131v197h174v-248l-123 -145q-102 -123 -119 -158q-22 -48 -22 -147.5t46 -136.5t133 -37t241 32v-149q-20 -4 -48 -10.5t-59 -11.5q-68 -11 -137.5 -11t-137 13.5t-114.5 50.5q-98 76 -98 278zM319 819v205h205v-205h-205 z" />
<glyph unicode="&#xc0;" horiz-adv-x="1024" d="M51 0l346 1434h236l340 -1434h-182l-78 362h-400l-80 -362h-182zM250 1722h227l213 -235h-170zM346 516h334l-168 782z" />
<glyph unicode="&#xc1;" horiz-adv-x="1024" d="M51 0l346 1434h236l340 -1434h-182l-78 362h-400l-80 -362h-182zM330 516h350l-168 782zM330 1487l213 235h227l-270 -235h-170z" />
<glyph unicode="&#xc2;" horiz-adv-x="1024" d="M51 0l346 1434h236l340 -1434h-182l-78 362h-400l-80 -362h-182zM190 1495l226 236h188l227 -236h-198l-123 131l-123 -131h-197zM346 516h334l-168 782z" />
<glyph unicode="&#xc3;" horiz-adv-x="1024" d="M51 0l346 1434h236l340 -1434h-182l-78 362h-400l-80 -362h-182zM250 1503v150q81 67 176 67q55 0 102 -27.5t74 -40t68 -12.5q66 0 153 74v-149q-71 -68 -176 -68q-54 0 -100.5 27.5t-73.5 40t-59 12.5q-80 0 -164 -74zM346 516h334l-168 782z" />
<glyph unicode="&#xc4;" horiz-adv-x="1024" d="M51 0l346 1434h236l340 -1434h-182l-78 362h-400l-80 -362h-182zM219 1505v164h174v-164h-174zM346 516h334l-168 782zM629 1505v164h162l12 -164h-174z" />
<glyph unicode="&#xc5;" horiz-adv-x="1024" d="M51 0l334 1380q-66 58 -66 155t51.5 156.5t142.5 59.5t143.5 -58.5t52.5 -152.5t-64 -158l328 -1382h-182l-78 362h-400l-80 -362h-182zM346 516h334l-168 782zM436 1544.5q0 -100.5 76 -100.5q51 0 64.5 30.5t13.5 70.5t-15.5 70t-62.5 30q-76 0 -76 -100.5z" />
<glyph unicode="&#xc6;" horiz-adv-x="1531" d="M51 0l490 1434h827v-150h-547l56 -469h481v-149h-463l61 -516h453v-150h-610l-41 362h-408l-117 -362h-182zM399 516h340l-84 768z" />
<glyph unicode="&#xc7;" horiz-adv-x="866" d="M133 739q0 429 107 581q55 77 137 102.5t185.5 25.5t211.5 -29v-151q-111 26 -202.5 26t-134 -19.5t-69.5 -79.5q-53 -121 -53 -470q0 -359 57 -485q27 -62 68 -81.5t127 -19.5t207 31v-150q-136 -34 -219 -34l-6 -41q92 -10 131 -50t39 -128t-60.5 -132.5t-160.5 -44.5 q-49 0 -129 15v127q63 -13 107 -13t65.5 12.5t21.5 39t-7 39t-26 19.5q-39 15 -133 15l25 154q-76 16 -130 61t-90 133q-69 167 -69 547z" />
<glyph unicode="&#xc8;" horiz-adv-x="968" d="M174 0v1434h672v-150h-494v-469h443v-149h-443v-516h494v-150h-672zM229 1722h228l213 -235h-170z" />
<glyph unicode="&#xc9;" horiz-adv-x="968" d="M174 0v1434h672v-150h-494v-469h443v-149h-443v-516h494v-150h-672zM373 1487l213 235h227l-270 -235h-170z" />
<glyph unicode="&#xca;" horiz-adv-x="968" d="M174 0v1434h672v-150h-494v-469h443v-149h-443v-516h494v-150h-672zM190 1495l226 236h188l227 -236h-198l-123 131l-123 -131h-197z" />
<glyph unicode="&#xcb;" horiz-adv-x="968" d="M174 0v1434h672v-150h-494v-469h443v-149h-443v-516h494v-150h-672zM221 1505v164h174v-164h-174zM631 1505v164h174v-164h-174z" />
<glyph unicode="&#xcc;" horiz-adv-x="649" d="M78 1722h227l213 -235h-170zM92 0v150h144v1134h-144v150h465v-150h-143v-1134h143v-150h-465z" />
<glyph unicode="&#xcd;" horiz-adv-x="649" d="M92 0v150h144v1134h-144v150h465v-150h-143v-1134h143v-150h-465zM125 1487l213 235h227l-270 -235h-170z" />
<glyph unicode="&#xce;" horiz-adv-x="649" d="M4 1495l225 236h189l227 -236h-199l-122 131l-123 -131h-197zM92 0v150h144v1134h-144v150h465v-150h-143v-1134h143v-150h-465z" />
<glyph unicode="&#xcf;" horiz-adv-x="649" d="M33 1505v164h174v-164h-174zM92 0v150h144v1134h-144v150h465v-150h-143v-1134h143v-150h-465zM442 1505v164h174v-164h-174z" />
<glyph unicode="&#xd0;" horiz-adv-x="1097" d="M51 666v153h144v615q193 14 316.5 14t205.5 -25.5t137 -102.5q111 -155 111 -581q0 -438 -104 -606q-52 -84 -130 -115.5t-207.5 -31.5t-328.5 14v666h-144zM373 143q124 -8 183.5 -8t99.5 29t68 98q58 141 58 463q0 485 -126 553q-38 20 -92.5 20t-190.5 -8v-471h231 v-153h-231v-523z" />
<glyph unicode="&#xd1;" horiz-adv-x="1120" d="M174 0v1434h291l315 -1282v1282h166v-1434h-293l-313 1282v-1282h-166zM270 1503v150q81 67 176 67q56 0 103 -27.5t73.5 -40t68.5 -12.5q66 0 153 74v-149q-71 -68 -176 -68q-54 0 -101 27.5t-73.5 40t-59.5 12.5q-80 0 -164 -74z" />
<glyph unicode="&#xd2;" horiz-adv-x="1122" d="M133 733q0 377 87 538q95 177 341 177t341 -177q87 -161 87 -542q0 -184 -19.5 -324.5t-67.5 -233.5q-95 -185 -341 -185t-341 185q-87 169 -87 562zM268 1722h228l213 -235h-170zM315 723q0 -328 53 -459q54 -129 193 -129t193 129q53 131 53 461q0 168 -12.5 278.5 t-41 176t-75.5 92t-117 26.5t-117 -26.5t-76 -91.5q-53 -123 -53 -457z" />
<glyph unicode="&#xd3;" horiz-adv-x="1122" d="M133 733q0 377 87 538q95 177 341 177t341 -177q87 -161 87 -542q0 -184 -19.5 -324.5t-67.5 -233.5q-95 -185 -341 -185t-341 185q-87 169 -87 562zM315 723q0 -328 53 -459q54 -129 193 -129t193 129q53 131 53 461q0 168 -12.5 278.5t-41 176t-75.5 92t-117 26.5 t-117 -26.5t-76 -91.5q-53 -123 -53 -457zM422 1487l213 235h227l-270 -235h-170z" />
<glyph unicode="&#xd4;" horiz-adv-x="1122" d="M133 733q0 377 87 538q95 177 341 177t341 -177q87 -161 87 -542q0 -184 -19.5 -324.5t-67.5 -233.5q-95 -185 -341 -185t-341 185q-87 169 -87 562zM242 1495l225 236h188l228 -236h-199l-123 131l-123 -131h-196zM315 723q0 -328 53 -459q54 -129 193 -129t193 129 q53 131 53 461q0 168 -12.5 278.5t-41 176t-75.5 92t-117 26.5t-117 -26.5t-76 -91.5q-53 -123 -53 -457z" />
<glyph unicode="&#xd5;" horiz-adv-x="1122" d="M133 733q0 377 87 538q95 177 341 177t341 -177q87 -161 87 -542q0 -184 -19.5 -324.5t-67.5 -233.5q-95 -185 -341 -185t-341 185q-87 169 -87 562zM283 1503v150q81 67 176 67q55 0 102 -27.5t74 -40t69 -12.5q65 0 152 74v-149q-71 -68 -176 -68q-53 0 -100.5 27.5 t-74 40t-59.5 12.5q-81 0 -163 -74zM315 723q0 -328 53 -459q54 -129 193 -129t193 129q53 131 53 461q0 168 -12.5 278.5t-41 176t-75.5 92t-117 26.5t-117 -26.5t-76 -91.5q-53 -123 -53 -457z" />
<glyph unicode="&#xd6;" horiz-adv-x="1122" d="M133 733q0 377 87 538q95 177 341 177t341 -177q87 -161 87 -542q0 -184 -19.5 -324.5t-67.5 -233.5q-95 -185 -341 -185t-341 185q-87 169 -87 562zM270 1505v164h174v-164h-174zM315 723q0 -328 53 -459q54 -129 193 -129t193 129q53 131 53 461q0 168 -12.5 278.5 t-41 176t-75.5 92t-117 26.5t-117 -26.5t-76 -91.5q-53 -123 -53 -457zM680 1505v164h174v-164h-174z" />
<glyph unicode="&#xd7;" horiz-adv-x="1126" d="M209 395l237 240l-237 239l115 115l239 -237l240 237l115 -115l-238 -239l238 -240l-115 -114l-240 237l-239 -237z" />
<glyph unicode="&#xd8;" horiz-adv-x="1122" d="M133 699q0 214 19.5 348.5t67.5 223.5t131 133t191 44t156 -16l58 188h155l-77 -260q88 -82 121.5 -236.5t33.5 -366.5t-19.5 -352.5t-67.5 -233.5q-95 -185 -341 -185q-63 0 -135 14l-55 -186h-156l78 260q-92 86 -126 248.5t-34 376.5zM315 742.5q0 -314.5 43 -449.5 l295 989q-43 16 -102.5 16t-106.5 -26.5t-76 -91.5q-53 -123 -53 -437.5zM471 150q37 -14 98.5 -14.5t108.5 29.5t75.5 99.5t41 181t12.5 338t-39 355.5z" />
<glyph unicode="&#xd9;" horiz-adv-x="1095" d="M164 379v1055h178v-1094q0 -109 57.5 -157t149.5 -48t148.5 48t56.5 157v1094h178v-1055q0 -207 -103.5 -300t-279.5 -93t-280.5 93t-104.5 300zM248 1722h227l213 -235h-170z" />
<glyph unicode="&#xda;" horiz-adv-x="1095" d="M164 379v1055h178v-1094q0 -109 57.5 -157t149.5 -48t148.5 48t56.5 157v1094h178v-1055q0 -207 -103.5 -300t-279.5 -93t-280.5 93t-104.5 300zM422 1487l213 235h227l-270 -235h-170z" />
<glyph unicode="&#xdb;" horiz-adv-x="1095" d="M164 379v1055h178v-1094q0 -109 57.5 -157t149.5 -48t148.5 48t56.5 157v1094h178v-1055q0 -207 -103.5 -300t-279.5 -93t-280.5 93t-104.5 300zM231 1495l226 236h188l227 -236h-198l-123 131l-123 -131h-197z" />
<glyph unicode="&#xdc;" horiz-adv-x="1095" d="M164 379v1055h178v-1094q0 -109 57.5 -157t149.5 -48t148.5 48t56.5 157v1094h178v-1055q0 -207 -103.5 -300t-279.5 -93t-280.5 93t-104.5 300zM260 1505v164h174v-164h-174zM670 1505v164h174v-164h-174z" />
<glyph unicode="&#xdd;" horiz-adv-x="1005" d="M41 1434h197l270 -596l270 596h187l-373 -768v-666h-184v666zM381 1487l213 235h227l-270 -235h-170z" />
<glyph unicode="&#xde;" horiz-adv-x="1044" d="M174 0v1434h178v-267l168 9q323 0 384 -261q18 -80 18 -185.5t-21.5 -190t-68.5 -141.5q-93 -109 -308 -109h-172v-289h-178zM352 438h193q194 0 194 289q0 154 -42 227.5t-152 73.5q-55 0 -193 -12v-578z" />
<glyph unicode="&#xdf;" horiz-adv-x="1062" d="M164 0v1092q0 172 94 264t256 92q163 0 253 -88q83 -81 83 -219q0 -98 -12.5 -156.5t-20.5 -97.5q-123 0 -169 -33t-46 -92q0 -65 70 -94q268 -105 268 -349q0 -184 -91 -258.5t-255 -74.5q-33 0 -61 4l-51 7q-21 3 -36 7v152q81 -23 159.5 -23t115.5 53.5t37 108.5 t-7.5 87t-25.5 56q-33 45 -121 86t-127 95.5t-39 156.5t65.5 161.5t176.5 78.5q18 52 18 121t-44 116t-133 47q-183 0 -183 -194v-1106h-174z" />
<glyph unicode="&#xe0;" horiz-adv-x="985" d="M102 287q0 168 96.5 256t268.5 88h162v110q0 66 -38 108t-116 42q-145 0 -297 -43v149q146 41 261.5 41t182 -19.5t106.5 -61.5q75 -79 75 -257v-491q0 -66 90 -66v-143h-62q-113 0 -153 100q-81 -114 -270 -114q-138 0 -209 56q-97 77 -97 245zM221 1464h223l213 -276 h-165zM281 301q0 -96 43 -132t110.5 -36t102 16.5t55.5 40.5q37 42 37 86v216h-172q-118 0 -161 -104q-15 -36 -15 -87z" />
<glyph unicode="&#xe1;" horiz-adv-x="985" d="M102 287q0 168 96.5 256t268.5 88h162v110q0 66 -38 108t-116 42q-145 0 -297 -43v149q146 41 261.5 41t182 -19.5t106.5 -61.5q75 -79 75 -257v-491q0 -66 90 -66v-143h-62q-113 0 -153 100q-81 -114 -270 -114q-138 0 -209 56q-97 77 -97 245zM281 301q0 -96 43 -132 t110.5 -36t102 16.5t55.5 40.5q37 42 37 86v216h-172q-118 0 -161 -104q-15 -36 -15 -87zM373 1188l213 276h223l-270 -276h-166z" />
<glyph unicode="&#xe2;" horiz-adv-x="985" d="M102 287q0 168 96.5 256t268.5 88h162v110q0 66 -38 108t-116 42q-145 0 -297 -43v149q146 41 261.5 41t182 -19.5t106.5 -61.5q75 -79 75 -257v-491q0 -66 90 -66v-143h-62q-113 0 -153 100q-81 -114 -270 -114q-138 0 -209 56q-97 77 -97 245zM182 1188l230 276h180 l231 -276h-198l-123 172l-123 -172h-197zM281 301q0 -96 43 -132t110.5 -36t102 16.5t55.5 40.5q37 42 37 86v216h-172q-118 0 -161 -104q-15 -36 -15 -87z" />
<glyph unicode="&#xe3;" horiz-adv-x="985" d="M102 287q0 168 96.5 256t268.5 88h162v110q0 66 -38 108t-116 42q-145 0 -297 -43v149q146 41 261.5 41t182 -19.5t106.5 -61.5q75 -79 75 -257v-491q0 -66 90 -66v-143h-62q-113 0 -153 100q-81 -114 -270 -114q-138 0 -209 56q-97 77 -97 245zM207 1217v149 q82 68 176 68q53 0 101 -28t75 -40t68.5 -12t76.5 19.5t76 53.5v-149q-71 -68 -176 -68q-55 0 -101 28t-73 40t-70 12q-67 0 -153 -73zM281 301q0 -96 43 -132t110.5 -36t102 16.5t55.5 40.5q37 42 37 86v216h-172q-118 0 -161 -104q-15 -36 -15 -87z" />
<glyph unicode="&#xe4;" horiz-adv-x="985" d="M102 287q0 168 96.5 256t268.5 88h162v110q0 66 -38 108t-116 42q-145 0 -297 -43v149q146 41 261.5 41t182 -19.5t106.5 -61.5q75 -79 75 -257v-491q0 -66 90 -66v-143h-62q-113 0 -153 100q-81 -114 -270 -114q-138 0 -209 56q-97 77 -97 245zM199 1219v163h174v-163 h-174zM281 301q0 -96 43 -132t110.5 -36t102 16.5t55.5 40.5q37 42 37 86v216h-172q-118 0 -161 -104q-15 -36 -15 -87zM608 1219v163h174v-163h-174z" />
<glyph unicode="&#xe5;" horiz-adv-x="985" d="M102 287q0 168 96.5 256t268.5 88h162v110q0 66 -38 108t-116 42q-145 0 -297 -43v149q146 41 261.5 41t182 -19.5t106.5 -61.5q75 -79 75 -257v-491q0 -66 90 -66v-143h-62q-113 0 -153 100q-81 -114 -270 -114q-138 0 -209 56q-97 77 -97 245zM276 1322 q0 89 51.5 148.5t142.5 59.5t143.5 -58.5t52.5 -149.5t-53.5 -150.5t-143.5 -59.5t-141.5 60.5t-51.5 149.5zM281 301q0 -96 43 -132t110.5 -36t102 16.5t55.5 40.5q37 42 37 86v216h-172q-118 0 -161 -104q-15 -36 -15 -87zM393 1323q0 -100 76 -100q51 0 64.5 30.5 t13.5 70.5t-15.5 69.5t-62.5 29.5q-76 0 -76 -100z" />
<glyph unicode="&#xe6;" horiz-adv-x="1454" d="M102 284q0 165 96.5 245.5t268.5 80.5h162v131q0 61 -38 105.5t-116 44.5q-130 0 -297 -47v149q160 45 277 45q215 0 284 -108q92 109 265 108.5t250 -116t77 -318.5v-133h-534q0 -285 108 -325q33 -13 106 -13t240 37v-150q-119 -34 -239.5 -34t-196.5 29.5t-121 117.5 q-37 -70 -103.5 -108.5t-152 -38.5t-141 11t-98.5 45q-97 77 -97 242zM281 297q0 -92 43 -128t108.5 -36t99 15.5t54.5 37.5q37 36 43 84v201h-172q-78 0 -112 -29q-64 -53 -64 -145zM801 610h360v35q0 117 -36 182.5t-129.5 65.5t-140 -60.5t-54.5 -222.5z" />
<glyph unicode="&#xe7;" horiz-adv-x="827" d="M133 532q0 398 197 478q67 28 158.5 28t226.5 -30v-152q-138 29 -210.5 29t-103 -18.5t-51.5 -64.5q-39 -89 -39 -310q0 -301 97 -340q30 -13 99 -13t208 31v-152q-82 -23 -193 -32l-6 -41q92 -10 131 -50t39 -128t-60.5 -132.5t-160.5 -44.5q-46 0 -129 15v127 q63 -13 107 -13t65.5 12.5t21.5 39t-7 39t-25 19.5q-40 15 -133 15l22 150q-134 21 -189 130q-65 126 -65 408z" />
<glyph unicode="&#xe8;" horiz-adv-x="958" d="M133 512q0 412 211 498q70 28 162 28q176 0 253 -115.5t77 -318.5v-153h-529q5 -269 105 -307q30 -11 109.5 -11t234.5 33v-148q-112 -32 -227 -32t-184 18.5t-116 73.5q-96 112 -96 434zM217 1464h223l213 -276h-166zM309 590h357v55q0 117 -36 182.5t-132 65.5 t-138.5 -65t-50.5 -238z" />
<glyph unicode="&#xe9;" horiz-adv-x="958" d="M133 512q0 412 211 498q70 28 162 28q176 0 253 -115.5t77 -318.5v-153h-529q5 -269 105 -307q30 -11 109.5 -11t234.5 33v-148q-112 -32 -227 -32t-184 18.5t-116 73.5q-96 112 -96 434zM309 590h357v55q0 117 -36 182.5t-132 65.5t-138.5 -65t-50.5 -238zM373 1188 l213 276h223l-270 -276h-166z" />
<glyph unicode="&#xea;" horiz-adv-x="958" d="M133 512q0 412 211 498q70 28 162 28q176 0 253 -115.5t77 -318.5v-153h-529q5 -269 105 -307q30 -11 109.5 -11t234.5 33v-148q-112 -32 -227 -32t-184 18.5t-116 73.5q-96 112 -96 434zM186 1188l230 276h180l231 -276h-198l-123 172l-123 -172h-197zM309 590h357v55 q0 117 -36 182.5t-132 65.5t-138.5 -65t-50.5 -238z" />
<glyph unicode="&#xeb;" horiz-adv-x="958" d="M133 512q0 412 211 498q70 28 162 28q176 0 253 -115.5t77 -318.5v-153h-529q5 -269 105 -307q30 -11 109.5 -11t234.5 33v-148q-112 -32 -227 -32t-184 18.5t-116 73.5q-96 112 -96 434zM219 1219v163h174v-163h-174zM309 590h357v55q0 117 -36 182.5t-132 65.5 t-138.5 -65t-50.5 -238zM629 1219v163h174v-163h-174z" />
<glyph unicode="&#xec;" horiz-adv-x="501" d="M-49 1464h213l223 -276h-166zM164 0v1024h174v-1024h-174z" />
<glyph unicode="&#xed;" horiz-adv-x="501" d="M113 1188l213 276h223l-270 -276h-166zM164 0v1024h174v-1024h-174z" />
<glyph unicode="&#xee;" horiz-adv-x="501" d="M-70 1188l230 276h180l231 -276h-198l-123 172l-123 -172h-197zM164 0v1024h174v-1024h-174z" />
<glyph unicode="&#xef;" horiz-adv-x="501" d="M-41 1219v163h174v-163h-174zM164 0v1024h174v-1024h-174zM369 1219v163h174v-163h-174z" />
<glyph unicode="&#xf0;" horiz-adv-x="1030" d="M143 451q0 252 59 360q36 66 101.5 102.5t181.5 36.5t213 -63q-8 168 -40.5 252t-100.5 118l-68 -118h-167l90 155l-179 11v143q207 -11 256 -21l64 109h168l-86 -147q184 -78 227 -353q15 -100 15 -296.5t-18.5 -354.5t-61.5 -247t-115 -120.5t-163 -31.5t-157.5 23.5 t-114.5 77.5q-104 117 -104 364zM317 454q0 -167 40 -244t159 -77q47 0 81 20.5t57 84.5q48 131 48 507q-23 10 -79 34t-122.5 24t-100 -25.5t-52.5 -73.5q-31 -83 -31 -250z" />
<glyph unicode="&#xf1;" horiz-adv-x="1036" d="M164 0v1024h143l15 -92q100 106 251 106q172 0 243 -87q67 -82 67 -275v-676h-174v696q0 96 -32 145.5t-134 49.5q-85 0 -147 -59q-58 -57 -58 -115v-717h-174zM274 1217v149q82 68 177 68q53 0 101 -28t74.5 -40t68.5 -12t77 19.5t76 53.5v-149q-71 -68 -176 -68 q-56 0 -102 28t-72.5 40t-69.5 12q-68 0 -154 -73z" />
<glyph unicode="&#xf2;" horiz-adv-x="1044" d="M133 509q0 285 94.5 407t294.5 122q201 0 295 -122t94 -408t-92.5 -404t-294.5 -118t-296.5 119t-94.5 404zM248 1464h223l213 -276h-166zM311 511q0 -210 47.5 -296t163.5 -86q117 0 164 86t47 297t-44 297t-167 86q-122 0 -166.5 -87t-44.5 -297z" />
<glyph unicode="&#xf3;" horiz-adv-x="1044" d="M133 509q0 285 94.5 407t294.5 122q201 0 295 -122t94 -408t-92.5 -404t-294.5 -118t-296.5 119t-94.5 404zM311 511q0 -210 47.5 -296t163.5 -86q117 0 164 86t47 297t-44 297t-167 86q-122 0 -166.5 -87t-44.5 -297zM383 1188l213 276h223l-270 -276h-166z" />
<glyph unicode="&#xf4;" horiz-adv-x="1044" d="M133 509q0 285 94.5 407t294.5 122q201 0 295 -122t94 -408t-92.5 -404t-294.5 -118t-296.5 119t-94.5 404zM203 1188l229 276h180l232 -276h-199l-123 172l-123 -172h-196zM311 511q0 -210 47.5 -296t163.5 -86q117 0 164 86t47 297t-44 297t-167 86q-122 0 -166.5 -87 t-44.5 -297z" />
<glyph unicode="&#xf5;" horiz-adv-x="1044" d="M133 509q0 285 94.5 407t294.5 122q201 0 295 -122t94 -408t-92.5 -404t-294.5 -118t-296.5 119t-94.5 404zM246 1217v149q82 68 176 68q53 0 101 -28t75 -40t68.5 -12t76.5 19.5t76 53.5v-149q-71 -68 -176 -68q-55 0 -101 28t-73 40t-69 12q-68 0 -154 -73zM311 511 q0 -210 47.5 -296t163.5 -86q117 0 164 86t47 297t-44 297t-167 86q-122 0 -166.5 -87t-44.5 -297z" />
<glyph unicode="&#xf6;" horiz-adv-x="1044" d="M133 509q0 285 94.5 407t294.5 122q201 0 295 -122t94 -408t-92.5 -404t-294.5 -118t-296.5 119t-94.5 404zM231 1219v163h175v-163h-175zM311 511q0 -210 47.5 -296t163.5 -86q117 0 164 86t47 297t-44 297t-167 86q-122 0 -166.5 -87t-44.5 -297zM641 1219v163h174 v-163h-174z" />
<glyph unicode="&#xf7;" horiz-adv-x="1126" d="M174 563v154h778v-154h-778zM461 133v205h205v-205h-205zM461 942v205h205v-205h-205z" />
<glyph unicode="&#xf8;" horiz-adv-x="1044" d="M133 532q0 262 94.5 384t294.5 122q50 0 94 -8l60 176h158l-78 -233q155 -113 155 -441q0 -310 -98 -434q-87 -112 -291 -112q-49 0 -92 6l-57 -174h-160l76 227q-156 109 -156 487zM311 519.5q0 -201.5 39 -288.5l219 660q-20 4 -64 4t-85 -20.5t-64 -66.5 q-45 -87 -45 -288.5zM477 131q10 -2 21 -2h24q117 0 164 86t47 289.5t-37 288.5z" />
<glyph unicode="&#xf9;" horiz-adv-x="1005" d="M154 356v668h174v-688q0 -107 21.5 -141.5t50 -48t73.5 -13.5t80 16.5t59 40.5q52 52 56 111v723h174v-1024h-144l-14 84q-90 -98 -235 -98q-166 0 -233 91q-62 84 -62 279zM223 1464h223l213 -276h-165z" />
<glyph unicode="&#xfa;" horiz-adv-x="1005" d="M154 356v668h174v-688q0 -107 21.5 -141.5t50 -48t73.5 -13.5t80 16.5t59 40.5q52 52 56 111v723h174v-1024h-144l-14 84q-90 -98 -235 -98q-166 0 -233 91q-62 84 -62 279zM377 1188l213 276h223l-270 -276h-166z" />
<glyph unicode="&#xfb;" horiz-adv-x="1005" d="M154 356v668h174v-688q0 -107 21.5 -141.5t50 -48t73.5 -13.5t80 16.5t59 40.5q52 52 56 111v723h174v-1024h-144l-14 84q-90 -98 -235 -98q-166 0 -233 91q-62 84 -62 279zM182 1188l230 276h180l231 -276h-198l-123 172l-123 -172h-197z" />
<glyph unicode="&#xfc;" horiz-adv-x="1005" d="M154 356v668h174v-688q0 -107 21.5 -141.5t50 -48t73.5 -13.5t80 16.5t59 40.5q52 52 56 111v723h174v-1024h-144l-14 84q-90 -98 -235 -98q-166 0 -233 91q-62 84 -62 279zM209 1219v163h174v-163h-174zM618 1219v163h175v-163h-175z" />
<glyph unicode="&#xfd;" horiz-adv-x="948" d="M72 1024h188l238 -846l200 846h179l-297 -1114q-38 -140 -73 -184q-67 -84 -181 -84q-63 0 -117 12v149q46 -8 104.5 -8t83.5 92l33 113h-41zM395 1188l213 276h223l-270 -276h-166z" />
<glyph unicode="&#xfe;" horiz-adv-x="1021" d="M164 -348v1782h174v-486q96 90 227 90q180 0 252 -115.5t72 -314t-22.5 -312.5t-74 -182.5t-134.5 -98t-179.5 -29.5t-140.5 8v-342h-174zM338 141q46 -8 127.5 -8t127.5 26.5t71 80.5q47 97 47 317q0 191 -41 264q-38 70 -138 70q-82 0 -140 -59q-54 -57 -54 -115v-576z " />
<glyph unicode="&#xff;" horiz-adv-x="948" d="M72 1024h188l238 -846l200 846h179l-297 -1114q-38 -140 -73 -184q-67 -84 -181 -84q-63 0 -117 12v149q46 -8 104.5 -8t83.5 92l33 113h-41zM184 1219v163h174v-163h-174zM594 1219v163h174v-163h-174z" />
<glyph unicode="&#x152;" horiz-adv-x="1568" d="M133 733q0 377 87 538q95 177 341 177q22 0 109 -14h776v-150h-561q47 -78 65.5 -194.5t22.5 -274.5h422v-149h-420q-8 -371 -94 -516h565v-150h-776q-88 -14 -109 -14q-246 0 -341 185q-87 169 -87 562zM315 723q0 -328 53 -459q54 -129 193 -129q70 0 115 30t71.5 99.5 t38 181t11.5 279.5t-11.5 278.5t-38 176t-71.5 92t-115 26.5t-117 -26.5t-76 -91.5q-53 -123 -53 -457z" />
<glyph unicode="&#x153;" horiz-adv-x="1558" d="M133 509q0 285 94.5 407t297 122t296.5 -137q88 137 274.5 137t263.5 -115.5t77 -318.5v-153h-529q5 -269 105 -307q30 -11 104 -11t240 37v-150q-119 -34 -235.5 -34t-189.5 24.5t-118 95.5q-85 -120 -291 -120q-200 0 -288 112q-101 126 -101 411zM311 511 q0 -210 47.5 -296t163.5 -86q117 0 164 86t47 297t-44 297t-167 86q-122 0 -166.5 -87t-44.5 -297zM909 590h357v55q0 117 -36 182.5t-132 65.5t-138.5 -65t-50.5 -238z" />
<glyph unicode="&#x178;" horiz-adv-x="1005" d="M41 1434h197l270 -596l270 596h187l-373 -768v-666h-184v666zM219 1505v164h174v-164h-174zM629 1505v164h174v-164h-174z" />
<glyph unicode="&#x2c6;" horiz-adv-x="784" d="M72 1188l229 276h180l232 -276h-199l-123 172l-123 -172h-196z" />
<glyph unicode="&#x2dc;" horiz-adv-x="716" d="M72 1217v149q82 68 176 68q53 0 101 -28t75 -40t68.5 -12t76.5 19.5t76 53.5v-149q-71 -68 -176 -68q-55 0 -101 28t-73 40t-59 12q-81 0 -164 -73z" />
<glyph unicode="&#x2000;" horiz-adv-x="875" />
<glyph unicode="&#x2001;" horiz-adv-x="1751" />
<glyph unicode="&#x2002;" horiz-adv-x="875" />
<glyph unicode="&#x2003;" horiz-adv-x="1751" />
<glyph unicode="&#x2004;" horiz-adv-x="583" />
<glyph unicode="&#x2005;" horiz-adv-x="437" />
<glyph unicode="&#x2006;" horiz-adv-x="291" />
<glyph unicode="&#x2007;" horiz-adv-x="291" />
<glyph unicode="&#x2008;" horiz-adv-x="218" />
<glyph unicode="&#x2009;" horiz-adv-x="350" />
<glyph unicode="&#x200a;" horiz-adv-x="97" />
<glyph unicode="&#x2010;" horiz-adv-x="1013" d="M174 563v154h666v-154h-666z" />
<glyph unicode="&#x2011;" horiz-adv-x="1013" d="M174 563v154h666v-154h-666z" />
<glyph unicode="&#x2012;" horiz-adv-x="1013" d="M174 563v154h666v-154h-666z" />
<glyph unicode="&#x2013;" horiz-adv-x="1126" d="M174 563v154h778v-154h-778z" />
<glyph unicode="&#x2014;" horiz-adv-x="1239" d="M133 563v154h973v-154h-973z" />
<glyph unicode="&#x2018;" horiz-adv-x="460" d="M113 926v184l123 322h133l-62 -322v-184h-194z" />
<glyph unicode="&#x2019;" horiz-adv-x="460" d="M92 928l62 321v185h194v-185l-123 -321h-133z" />
<glyph unicode="&#x201a;" horiz-adv-x="450" d="M102 -322l62 322v184h194v-184l-122 -322h-134z" />
<glyph unicode="&#x201c;" horiz-adv-x="778" d="M113 926v184l123 322h133l-62 -322v-184h-194zM430 926v184l123 322h133l-61 -322v-184h-195z" />
<glyph unicode="&#x201d;" horiz-adv-x="778" d="M92 928l62 321v185h194v-185l-123 -321h-133zM410 928l61 321v185h195v-185l-123 -321h-133z" />
<glyph unicode="&#x201e;" horiz-adv-x="768" d="M102 -322l62 322v184h194v-184l-122 -322h-134zM420 -322l61 322v184h195v-184l-123 -322h-133z" />
<glyph unicode="&#x2022;" horiz-adv-x="593" d="M143 481v318h308v-318h-308z" />
<glyph unicode="&#x2026;" horiz-adv-x="1372" d="M133 0v205h205v-205h-205zM584 0v205h204v-205h-204zM1034 0v205h205v-205h-205z" />
<glyph unicode="&#x202f;" horiz-adv-x="350" />
<glyph unicode="&#x2039;" horiz-adv-x="624" d="M154 612l182 424h135l-129 -424l129 -424h-135z" />
<glyph unicode="&#x203a;" horiz-adv-x="624" d="M154 188l129 424l-129 424h135l182 -424l-182 -424h-135z" />
<glyph unicode="&#x205f;" horiz-adv-x="437" />
<glyph unicode="&#x20ac;" d="M113 485l41 150h82v199h-123l41 149h90q27 276 132 379q52 51 125.5 68.5t131 17.5t87.5 -4t60 -9q51 -8 92 -22l-41 -141q-123 26 -183 26t-95 -12t-61 -46q-51 -69 -66 -257h334l-41 -149h-301v-199h280l-41 -150h-233q15 -212 68 -287q43 -63 136 -63t203 29v-146 q-112 -32 -195 -32t-152.5 22.5t-119.5 78.5q-97 110 -120 398h-131z" />
<glyph unicode="&#x2122;" horiz-adv-x="1515" d="M82 1313v121h819l127 -486l123 486h231v-1037h-135v922l-160 -580h-129l-161 580v-922h-133v916h-205v-916h-140v916h-237z" />
<glyph unicode="&#xe000;" horiz-adv-x="1024" d="M0 0v1024h1024v-1024h-1024z" />
</font>
</defs>
</svg>
